<svg width="295" height="295" viewBox="0 0 295 295" fill="none" xmlns="http://www.w3.org/2000/svg">
<g clip-path="url(#clip0_3_365)">
<path d="M295 166.687H1.475V246.079H295V166.687Z" fill="url(#paint0_linear_3_365)"/>
<path d="M295 210.507H1.475V246.079H295V210.507Z" fill="#F7EEDA"/>
<path opacity="0.3" d="M233.484 107.659C246.375 107.659 256.826 97.2152 256.826 84.3317C256.826 71.4482 246.375 61.004 233.484 61.004C220.592 61.004 210.141 71.4482 210.141 84.3317C210.141 97.2152 220.592 107.659 233.484 107.659Z" fill="white"/>
<path opacity="0.48" d="M233.613 104.824C245.009 104.824 254.247 95.5915 254.247 84.2028C254.247 72.814 245.009 63.5816 233.613 63.5816C222.216 63.5816 212.978 72.814 212.978 84.2028C212.978 95.5915 222.216 104.824 233.613 104.824Z" fill="#FFF7E6"/>
<path opacity="0.65" d="M233.484 102.246C243.384 102.246 251.41 94.2257 251.41 84.3317C251.41 74.4377 243.384 66.4171 233.484 66.4171C223.583 66.4171 215.557 74.4377 215.557 84.3317C215.557 94.2257 223.583 102.246 233.484 102.246Z" fill="#FFEFCC"/>
<path opacity="0.83" d="M233.484 99.6687C241.959 99.6687 248.83 92.8021 248.83 84.3317C248.83 75.8613 241.959 68.9947 233.484 68.9947C225.008 68.9947 218.137 75.8613 218.137 84.3317C218.137 92.8021 225.008 99.6687 233.484 99.6687Z" fill="#FFE6B3"/>
<path d="M233.613 96.8333C240.593 96.8333 246.251 91.1784 246.251 84.2028C246.251 77.2272 240.593 71.5723 233.613 71.5723C226.632 71.5723 220.974 77.2272 220.974 84.2028C220.974 91.1784 226.632 96.8333 233.613 96.8333Z" fill="#FFDE99"/>
<path opacity="0.6" fill-rule="evenodd" clip-rule="evenodd" d="M129.03 170.678C133.65 168.606 133.947 171.936 138.244 170.424C134.034 170.957 133.58 167.522 129.03 170.678Z" fill="white"/>
<path opacity="0.8" fill-rule="evenodd" clip-rule="evenodd" d="M11.0569 169.034C14.5503 167.461 14.7861 169.987 18.0438 168.842C14.856 169.262 14.5067 166.639 11.0569 169.034Z" fill="white"/>
<path fill-rule="evenodd" clip-rule="evenodd" d="M73.7116 172.54C77.205 170.966 77.4408 173.492 80.6984 172.347C77.5019 172.767 77.1613 170.144 73.7116 172.54Z" fill="white"/>
<path opacity="0.3" d="M150.488 173.921C150.841 173.921 151.126 173.694 151.126 173.414C151.126 173.134 150.841 172.907 150.488 172.907C150.136 172.907 149.851 173.134 149.851 173.414C149.851 173.694 150.136 173.921 150.488 173.921Z" fill="white"/>
<path opacity="0.5" d="M81.6154 170.774C81.9676 170.774 82.253 170.547 82.253 170.267C82.253 169.987 81.9676 169.76 81.6154 169.76C81.2633 169.76 80.9779 169.987 80.9779 170.267C80.9779 170.547 81.2633 170.774 81.6154 170.774Z" fill="white"/>
<path d="M39.4847 176.456C39.8368 176.456 40.1222 176.229 40.1222 175.949C40.1222 175.669 39.8368 175.442 39.4847 175.442C39.1326 175.442 38.8471 175.669 38.8471 175.949C38.8471 176.229 39.1326 176.456 39.4847 176.456Z" fill="white"/>
<path d="M128.157 168.088C128.32 168.088 128.452 167.956 128.452 167.793C128.452 167.63 128.32 167.498 128.157 167.498C127.994 167.498 127.862 167.63 127.862 167.793C127.862 167.956 127.994 168.088 128.157 168.088Z" fill="white"/>
<path d="M119.694 175.404C119.857 175.404 119.989 175.272 119.989 175.11C119.989 174.947 119.857 174.815 119.694 174.815C119.531 174.815 119.399 174.947 119.399 175.11C119.399 175.272 119.531 175.404 119.694 175.404Z" fill="white"/>
<path d="M108.297 171.13C108.459 171.13 108.592 170.998 108.592 170.835C108.592 170.672 108.459 170.54 108.297 170.54C108.134 170.54 108.002 170.672 108.002 170.835C108.002 170.998 108.134 171.13 108.297 171.13Z" fill="white"/>
<path d="M153.484 171.698C153.647 171.698 153.779 171.566 153.779 171.403C153.779 171.24 153.647 171.109 153.484 171.109C153.321 171.109 153.189 171.24 153.189 171.403C153.189 171.566 153.321 171.698 153.484 171.698Z" fill="white"/>
<path d="M149.624 169.443C149.787 169.443 149.919 169.311 149.919 169.148C149.919 168.985 149.787 168.853 149.624 168.853C149.461 168.853 149.329 168.985 149.329 169.148C149.329 169.311 149.461 169.443 149.624 169.443Z" fill="white"/>
<path d="M98.2092 176.025C98.3722 176.025 98.5042 175.893 98.5042 175.73C98.5042 175.568 98.3722 175.436 98.2092 175.436C98.0463 175.436 97.9142 175.568 97.9142 175.73C97.9142 175.893 98.0463 176.025 98.2092 176.025Z" fill="white"/>
<path d="M30.7074 168.656C30.8704 168.656 31.0024 168.524 31.0024 168.361C31.0024 168.198 30.8704 168.066 30.7074 168.066C30.5445 168.066 30.4124 168.198 30.4124 168.361C30.4124 168.524 30.5445 168.656 30.7074 168.656Z" fill="white"/>
<path d="M46.6637 168.306C46.8266 168.306 46.9587 168.174 46.9587 168.011C46.9587 167.849 46.8266 167.717 46.6637 167.717C46.5008 167.717 46.3687 167.849 46.3687 168.011C46.3687 168.174 46.5008 168.306 46.6637 168.306Z" fill="white"/>
<path d="M48.5676 172.38C48.7305 172.38 48.8626 172.248 48.8626 172.085C48.8626 171.922 48.7305 171.79 48.5676 171.79C48.4047 171.79 48.2726 171.922 48.2726 172.085C48.2726 172.248 48.4047 172.38 48.5676 172.38Z" fill="white"/>
<path d="M7.49359 170.955C7.65652 170.955 7.78859 170.823 7.78859 170.66C7.78859 170.497 7.65652 170.365 7.49359 170.365C7.33067 170.365 7.19859 170.497 7.19859 170.66C7.19859 170.823 7.33067 170.955 7.49359 170.955Z" fill="white"/>
<path d="M14.2796 175.579C14.4425 175.579 14.5746 175.447 14.5746 175.284C14.5746 175.122 14.4425 174.99 14.2796 174.99C14.1167 174.99 13.9846 175.122 13.9846 175.284C13.9846 175.447 14.1167 175.579 14.2796 175.579Z" fill="white"/>
<path d="M3.64208 175.404C3.80501 175.404 3.93708 175.272 3.93708 175.11C3.93708 174.947 3.80501 174.815 3.64208 174.815C3.47916 174.815 3.34708 174.947 3.34708 175.11C3.34708 175.272 3.47916 175.404 3.64208 175.404Z" fill="white"/>
<path opacity="0.6" fill-rule="evenodd" clip-rule="evenodd" d="M62.1832 183.248C57.5632 185.32 57.2662 181.989 52.9693 183.502C57.1789 182.951 57.6331 186.404 62.1832 183.248Z" fill="white"/>
<path fill-rule="evenodd" clip-rule="evenodd" d="M117.502 181.386C114.008 182.96 113.772 180.433 110.515 181.578C113.711 181.159 114.052 183.781 117.502 181.386Z" fill="white"/>
<path fill-rule="evenodd" clip-rule="evenodd" d="M35.0131 182.645C31.5197 184.218 31.2839 181.692 28.0262 182.837C31.214 182.418 31.5633 185.031 35.0131 182.645Z" fill="white"/>
<path opacity="0.3" d="M40.7248 181.028C41.077 181.028 41.3624 180.801 41.3624 180.521C41.3624 180.241 41.077 180.014 40.7248 180.014C40.3727 180.014 40.0873 180.241 40.0873 180.521C40.0873 180.801 40.3727 181.028 40.7248 181.028Z" fill="white"/>
<path opacity="0.5" d="M109.598 184.175C109.95 184.175 110.235 183.948 110.235 183.668C110.235 183.388 109.95 183.161 109.598 183.161C109.246 183.161 108.96 183.388 108.96 183.668C108.96 183.948 109.246 184.175 109.598 184.175Z" fill="white"/>
<path d="M151.737 178.493C152.089 178.493 152.375 178.266 152.375 177.986C152.375 177.706 152.089 177.479 151.737 177.479C151.385 177.479 151.1 177.706 151.1 177.986C151.1 178.266 151.385 178.493 151.737 178.493Z" fill="white"/>
<path d="M63.0566 186.427C63.2195 186.427 63.3516 186.296 63.3516 186.133C63.3516 185.97 63.2195 185.838 63.0566 185.838C62.8937 185.838 62.7616 185.97 62.7616 186.133C62.7616 186.296 62.8937 186.427 63.0566 186.427Z" fill="white"/>
<path d="M71.5194 179.111C71.6824 179.111 71.8144 178.979 71.8144 178.816C71.8144 178.653 71.6824 178.521 71.5194 178.521C71.3565 178.521 71.2244 178.653 71.2244 178.816C71.2244 178.979 71.3565 179.111 71.5194 179.111Z" fill="white"/>
<path d="M82.9168 183.385C83.0797 183.385 83.2118 183.253 83.2118 183.091C83.2118 182.928 83.0797 182.796 82.9168 182.796C82.7538 182.796 82.6218 182.928 82.6218 183.091C82.6218 183.253 82.7538 183.385 82.9168 183.385Z" fill="white"/>
<path d="M37.738 182.817C37.9009 182.817 38.033 182.685 38.033 182.522C38.033 182.36 37.9009 182.228 37.738 182.228C37.575 182.228 37.443 182.36 37.443 182.522C37.443 182.685 37.575 182.817 37.738 182.817Z" fill="white"/>
<path d="M41.5895 185.073C41.7524 185.073 41.8845 184.941 41.8845 184.778C41.8845 184.615 41.7524 184.483 41.5895 184.483C41.4265 184.483 41.2945 184.615 41.2945 184.778C41.2945 184.941 41.4265 185.073 41.5895 185.073Z" fill="white"/>
<path d="M93.004 178.499C93.167 178.499 93.299 178.367 93.299 178.204C93.299 178.041 93.167 177.909 93.004 177.909C92.8411 177.909 92.709 178.041 92.709 178.204C92.709 178.367 92.8411 178.499 93.004 178.499Z" fill="white"/>
<path d="M160.506 185.859C160.669 185.859 160.801 185.727 160.801 185.565C160.801 185.402 160.669 185.27 160.506 185.27C160.343 185.27 160.211 185.402 160.211 185.565C160.211 185.727 160.343 185.859 160.506 185.859Z" fill="white"/>
<path d="M144.558 186.209C144.721 186.209 144.853 186.077 144.853 185.914C144.853 185.751 144.721 185.62 144.558 185.62C144.395 185.62 144.263 185.751 144.263 185.914C144.263 186.077 144.395 186.209 144.558 186.209Z" fill="white"/>
<path d="M142.646 182.135C142.809 182.135 142.941 182.003 142.941 181.841C142.941 181.678 142.809 181.546 142.646 181.546C142.483 181.546 142.351 181.678 142.351 181.841C142.351 182.003 142.483 182.135 142.646 182.135Z" fill="white"/>
<path d="M91.1787 183.333C91.3416 183.333 91.4737 183.201 91.4737 183.038C91.4737 182.875 91.3416 182.744 91.1787 182.744C91.0158 182.744 90.8837 182.875 90.8837 183.038C90.8837 183.201 91.0158 183.333 91.1787 183.333Z" fill="white"/>
<path opacity="0.8" fill-rule="evenodd" clip-rule="evenodd" d="M180.156 169.034C183.65 167.461 183.886 169.987 187.143 168.842C183.956 169.262 183.606 166.639 180.156 169.034Z" fill="white"/>
<path fill-rule="evenodd" clip-rule="evenodd" d="M242.802 172.54C246.296 170.966 246.532 173.492 249.789 172.347C246.601 172.767 246.252 170.144 242.802 172.54Z" fill="white"/>
<path opacity="0.5" d="M250.715 170.774C251.067 170.774 251.353 170.547 251.353 170.267C251.353 169.987 251.067 169.76 250.715 169.76C250.363 169.76 250.077 169.987 250.077 170.267C250.077 170.547 250.363 170.774 250.715 170.774Z" fill="white"/>
<path d="M208.575 176.456C208.928 176.456 209.213 176.229 209.213 175.949C209.213 175.669 208.928 175.442 208.575 175.442C208.223 175.442 207.938 175.669 207.938 175.949C207.938 176.229 208.223 176.456 208.575 176.456Z" fill="white"/>
<path d="M288.793 175.404C288.956 175.404 289.088 175.272 289.088 175.11C289.088 174.947 288.956 174.815 288.793 174.815C288.63 174.815 288.498 174.947 288.498 175.11C288.498 175.272 288.63 175.404 288.793 175.404Z" fill="white"/>
<path d="M277.396 171.13C277.559 171.13 277.691 170.998 277.691 170.835C277.691 170.672 277.559 170.54 277.396 170.54C277.233 170.54 277.101 170.672 277.101 170.835C277.101 170.998 277.233 171.13 277.396 171.13Z" fill="white"/>
<path d="M267.309 176.025C267.472 176.025 267.604 175.893 267.604 175.73C267.604 175.568 267.472 175.436 267.309 175.436C267.146 175.436 267.014 175.568 267.014 175.73C267.014 175.893 267.146 176.025 267.309 176.025Z" fill="white"/>
<path d="M199.807 168.656C199.97 168.656 200.102 168.524 200.102 168.361C200.102 168.198 199.97 168.066 199.807 168.066C199.644 168.066 199.512 168.198 199.512 168.361C199.512 168.524 199.644 168.656 199.807 168.656Z" fill="white"/>
<path d="M215.754 168.306C215.917 168.306 216.049 168.174 216.049 168.011C216.049 167.849 215.917 167.717 215.754 167.717C215.592 167.717 215.459 167.849 215.459 168.011C215.459 168.174 215.592 168.306 215.754 168.306Z" fill="white"/>
<path d="M217.667 172.38C217.83 172.38 217.962 172.248 217.962 172.085C217.962 171.922 217.83 171.79 217.667 171.79C217.504 171.79 217.372 171.922 217.372 172.085C217.372 172.248 217.504 172.38 217.667 172.38Z" fill="white"/>
<path d="M176.593 170.955C176.756 170.955 176.888 170.823 176.888 170.66C176.888 170.497 176.756 170.365 176.593 170.365C176.43 170.365 176.298 170.497 176.298 170.66C176.298 170.823 176.43 170.955 176.593 170.955Z" fill="white"/>
<path d="M183.379 175.579C183.542 175.579 183.674 175.447 183.674 175.284C183.674 175.122 183.542 174.99 183.379 174.99C183.216 174.99 183.084 175.122 183.084 175.284C183.084 175.447 183.216 175.579 183.379 175.579Z" fill="white"/>
<path d="M172.742 175.404C172.905 175.404 173.037 175.272 173.037 175.11C173.037 174.947 172.905 174.815 172.742 174.815C172.579 174.815 172.447 174.947 172.447 175.11C172.447 175.272 172.579 175.404 172.742 175.404Z" fill="white"/>
<path fill-rule="evenodd" clip-rule="evenodd" d="M204.113 182.645C200.619 184.218 200.383 181.692 197.126 182.837C200.314 182.418 200.663 185.031 204.113 182.645Z" fill="white"/>
<path opacity="0.3" d="M209.824 181.028C210.176 181.028 210.462 180.801 210.462 180.521C210.462 180.241 210.176 180.014 209.824 180.014C209.472 180.014 209.187 180.241 209.187 180.521C209.187 180.801 209.472 181.028 209.824 181.028Z" fill="white"/>
<path opacity="0.5" d="M278.697 184.175C279.049 184.175 279.335 183.948 279.335 183.668C279.335 183.388 279.049 183.161 278.697 183.161C278.345 183.161 278.06 183.388 278.06 183.668C278.06 183.948 278.345 184.175 278.697 184.175Z" fill="white"/>
<path d="M232.156 186.427C232.319 186.427 232.451 186.296 232.451 186.133C232.451 185.97 232.319 185.838 232.156 185.838C231.993 185.838 231.861 185.97 231.861 186.133C231.861 186.296 231.993 186.427 232.156 186.427Z" fill="white"/>
<path d="M240.61 179.111C240.773 179.111 240.905 178.979 240.905 178.816C240.905 178.653 240.773 178.521 240.61 178.521C240.447 178.521 240.315 178.653 240.315 178.816C240.315 178.979 240.447 179.111 240.61 179.111Z" fill="white"/>
<path d="M252.016 183.385C252.179 183.385 252.311 183.253 252.311 183.091C252.311 182.928 252.179 182.796 252.016 182.796C251.853 182.796 251.721 182.928 251.721 183.091C251.721 183.253 251.853 183.385 252.016 183.385Z" fill="white"/>
<path d="M206.837 182.817C207 182.817 207.132 182.685 207.132 182.522C207.132 182.36 207 182.228 206.837 182.228C206.675 182.228 206.542 182.36 206.542 182.522C206.542 182.685 206.675 182.817 206.837 182.817Z" fill="white"/>
<path d="M210.689 185.073C210.852 185.073 210.984 184.941 210.984 184.778C210.984 184.615 210.852 184.483 210.689 184.483C210.526 184.483 210.394 184.615 210.394 184.778C210.394 184.941 210.526 185.073 210.689 185.073Z" fill="white"/>
<path d="M262.104 178.499C262.266 178.499 262.399 178.367 262.399 178.204C262.399 178.041 262.266 177.909 262.104 177.909C261.941 177.909 261.809 178.041 261.809 178.204C261.809 178.367 261.941 178.499 262.104 178.499Z" fill="white"/>
<path d="M270.907 183.508C271.07 183.508 271.202 183.376 271.202 183.213C271.202 183.05 271.07 182.918 270.907 182.918C270.744 182.918 270.612 183.05 270.612 183.213C270.612 183.376 270.744 183.508 270.907 183.508Z" fill="white"/>
<path opacity="0.8" fill-rule="evenodd" clip-rule="evenodd" d="M11.0569 190.093C14.5503 188.519 14.7861 191.046 18.0438 189.9C14.856 190.32 14.5067 187.698 11.0569 190.093Z" fill="white"/>
<path fill-rule="evenodd" clip-rule="evenodd" d="M156.218 192.339C159.711 190.766 159.947 193.292 163.205 192.147C159.999 192.567 159.65 189.953 156.218 192.339Z" fill="white"/>
<path opacity="0.3" d="M150.488 194.979C150.841 194.979 151.126 194.752 151.126 194.472C151.126 194.192 150.841 193.965 150.488 193.965C150.136 193.965 149.851 194.192 149.851 194.472C149.851 194.752 150.136 194.979 150.488 194.979Z" fill="white"/>
<path opacity="0.5" d="M81.6154 191.832C81.9676 191.832 82.253 191.605 82.253 191.325C82.253 191.045 81.9676 190.818 81.6154 190.818C81.2633 190.818 80.9779 191.045 80.9779 191.325C80.9779 191.605 81.2633 191.832 81.6154 191.832Z" fill="white"/>
<path d="M39.4847 197.506C39.8368 197.506 40.1222 197.279 40.1222 196.999C40.1222 196.719 39.8368 196.492 39.4847 196.492C39.1326 196.492 38.8471 196.719 38.8471 196.999C38.8471 197.279 39.1326 197.506 39.4847 197.506Z" fill="white"/>
<path d="M128.157 189.146C128.32 189.146 128.452 189.014 128.452 188.851C128.452 188.689 128.32 188.557 128.157 188.557C127.994 188.557 127.862 188.689 127.862 188.851C127.862 189.014 127.994 189.146 128.157 189.146Z" fill="white"/>
<path d="M119.694 196.463C119.857 196.463 119.989 196.331 119.989 196.168C119.989 196.005 119.857 195.873 119.694 195.873C119.531 195.873 119.399 196.005 119.399 196.168C119.399 196.331 119.531 196.463 119.694 196.463Z" fill="white"/>
<path d="M108.297 192.188C108.459 192.188 108.592 192.056 108.592 191.893C108.592 191.731 108.459 191.599 108.297 191.599C108.134 191.599 108.002 191.731 108.002 191.893C108.002 192.056 108.134 192.188 108.297 192.188Z" fill="white"/>
<path d="M153.484 192.756C153.647 192.756 153.779 192.624 153.779 192.462C153.779 192.299 153.647 192.167 153.484 192.167C153.321 192.167 153.189 192.299 153.189 192.462C153.189 192.624 153.321 192.756 153.484 192.756Z" fill="white"/>
<path d="M149.624 190.501C149.787 190.501 149.919 190.369 149.919 190.206C149.919 190.044 149.787 189.912 149.624 189.912C149.461 189.912 149.329 190.044 149.329 190.206C149.329 190.369 149.461 190.501 149.624 190.501Z" fill="white"/>
<path d="M98.2092 197.083C98.3722 197.083 98.5042 196.952 98.5042 196.789C98.5042 196.626 98.3722 196.494 98.2092 196.494C98.0463 196.494 97.9142 196.626 97.9142 196.789C97.9142 196.952 98.0463 197.083 98.2092 197.083Z" fill="white"/>
<path d="M30.7074 189.714C30.8704 189.714 31.0024 189.582 31.0024 189.42C31.0024 189.257 30.8704 189.125 30.7074 189.125C30.5445 189.125 30.4124 189.257 30.4124 189.42C30.4124 189.582 30.5445 189.714 30.7074 189.714Z" fill="white"/>
<path d="M46.6637 189.365C46.8266 189.365 46.9587 189.233 46.9587 189.07C46.9587 188.907 46.8266 188.775 46.6637 188.775C46.5008 188.775 46.3687 188.907 46.3687 189.07C46.3687 189.233 46.5008 189.365 46.6637 189.365Z" fill="white"/>
<path d="M48.5676 193.438C48.7305 193.438 48.8626 193.306 48.8626 193.144C48.8626 192.981 48.7305 192.849 48.5676 192.849C48.4047 192.849 48.2726 192.981 48.2726 193.144C48.2726 193.306 48.4047 193.438 48.5676 193.438Z" fill="white"/>
<path d="M7.49359 192.013C7.65652 192.013 7.78859 191.881 7.78859 191.719C7.78859 191.556 7.65652 191.424 7.49359 191.424C7.33067 191.424 7.19859 191.556 7.19859 191.719C7.19859 191.881 7.33067 192.013 7.49359 192.013Z" fill="white"/>
<path d="M14.2796 196.638C14.4425 196.638 14.5746 196.506 14.5746 196.343C14.5746 196.18 14.4425 196.048 14.2796 196.048C14.1167 196.048 13.9846 196.18 13.9846 196.343C13.9846 196.506 14.1167 196.638 14.2796 196.638Z" fill="white"/>
<path d="M3.64208 196.463C3.80501 196.463 3.93708 196.331 3.93708 196.168C3.93708 196.005 3.80501 195.873 3.64208 195.873C3.47916 195.873 3.34708 196.005 3.34708 196.168C3.34708 196.331 3.47916 196.463 3.64208 196.463Z" fill="white"/>
<path opacity="0.6" fill-rule="evenodd" clip-rule="evenodd" d="M62.1833 204.307C57.5632 206.378 57.2662 203.048 52.9693 204.56C57.1789 204.009 57.6331 207.462 62.1833 204.307Z" fill="white"/>
<path opacity="0.4" fill-rule="evenodd" clip-rule="evenodd" d="M10.4455 205.924C6.95211 207.497 6.7163 204.971 3.45868 206.116C6.65517 205.723 6.99578 208.345 10.4455 205.924Z" fill="white"/>
<path opacity="0.3" d="M40.7248 202.086C41.077 202.086 41.3624 201.859 41.3624 201.579C41.3624 201.299 41.077 201.072 40.7248 201.072C40.3727 201.072 40.0873 201.299 40.0873 201.579C40.0873 201.859 40.3727 202.086 40.7248 202.086Z" fill="white"/>
<path opacity="0.5" d="M109.598 205.233C109.95 205.233 110.235 205.006 110.235 204.726C110.235 204.446 109.95 204.219 109.598 204.219C109.246 204.219 108.96 204.446 108.96 204.726C108.96 205.006 109.246 205.233 109.598 205.233Z" fill="white"/>
<path d="M151.737 199.551C152.089 199.551 152.375 199.324 152.375 199.044C152.375 198.764 152.089 198.537 151.737 198.537C151.385 198.537 151.1 198.764 151.1 199.044C151.1 199.324 151.385 199.551 151.737 199.551Z" fill="white"/>
<path d="M63.0566 207.486C63.2195 207.486 63.3516 207.354 63.3516 207.191C63.3516 207.028 63.2195 206.897 63.0566 206.897C62.8937 206.897 62.7616 207.028 62.7616 207.191C62.7616 207.354 62.8937 207.486 63.0566 207.486Z" fill="white"/>
<path d="M71.5194 200.169C71.6824 200.169 71.8144 200.037 71.8144 199.875C71.8144 199.712 71.6824 199.58 71.5194 199.58C71.3565 199.58 71.2244 199.712 71.2244 199.875C71.2244 200.037 71.3565 200.169 71.5194 200.169Z" fill="white"/>
<path d="M82.9168 204.444C83.0797 204.444 83.2118 204.312 83.2118 204.149C83.2118 203.986 83.0797 203.854 82.9168 203.854C82.7538 203.854 82.6218 203.986 82.6218 204.149C82.6218 204.312 82.7538 204.444 82.9168 204.444Z" fill="white"/>
<path d="M37.738 203.876C37.9009 203.876 38.033 203.744 38.033 203.581C38.033 203.418 37.9009 203.286 37.738 203.286C37.575 203.286 37.443 203.418 37.443 203.581C37.443 203.744 37.575 203.876 37.738 203.876Z" fill="white"/>
<path d="M41.5895 206.131C41.7524 206.131 41.8845 205.999 41.8845 205.836C41.8845 205.674 41.7524 205.542 41.5895 205.542C41.4265 205.542 41.2945 205.674 41.2945 205.836C41.2945 205.999 41.4265 206.131 41.5895 206.131Z" fill="white"/>
<path d="M160.506 206.918C160.669 206.918 160.801 206.786 160.801 206.623C160.801 206.46 160.669 206.328 160.506 206.328C160.343 206.328 160.211 206.46 160.211 206.623C160.211 206.786 160.343 206.918 160.506 206.918Z" fill="white"/>
<path d="M144.558 207.267C144.721 207.267 144.853 207.135 144.853 206.973C144.853 206.81 144.721 206.678 144.558 206.678C144.395 206.678 144.263 206.81 144.263 206.973C144.263 207.135 144.395 207.267 144.558 207.267Z" fill="white"/>
<path d="M142.646 203.194C142.809 203.194 142.941 203.062 142.941 202.899C142.941 202.736 142.809 202.604 142.646 202.604C142.483 202.604 142.351 202.736 142.351 202.899C142.351 203.062 142.483 203.194 142.646 203.194Z" fill="white"/>
<path d="M91.1787 204.391C91.3416 204.391 91.4737 204.259 91.4737 204.097C91.4737 203.934 91.3416 203.802 91.1787 203.802C91.0158 203.802 90.8837 203.934 90.8837 204.097C90.8837 204.259 91.0158 204.391 91.1787 204.391Z" fill="white"/>
<path fill-rule="evenodd" clip-rule="evenodd" d="M242.802 193.598C246.296 192.025 246.532 194.551 249.789 193.406C246.601 193.825 246.252 191.203 242.802 193.598Z" fill="white"/>
<path opacity="0.5" d="M250.715 191.832C251.067 191.832 251.353 191.605 251.353 191.325C251.353 191.045 251.067 190.818 250.715 190.818C250.363 190.818 250.077 191.045 250.077 191.325C250.077 191.605 250.363 191.832 250.715 191.832Z" fill="white"/>
<path d="M208.575 197.506C208.928 197.506 209.213 197.279 209.213 196.999C209.213 196.719 208.928 196.492 208.575 196.492C208.223 196.492 207.938 196.719 207.938 196.999C207.938 197.279 208.223 197.506 208.575 197.506Z" fill="white"/>
<path d="M288.793 196.463C288.956 196.463 289.088 196.331 289.088 196.168C289.088 196.005 288.956 195.873 288.793 195.873C288.63 195.873 288.498 196.005 288.498 196.168C288.498 196.331 288.63 196.463 288.793 196.463Z" fill="white"/>
<path d="M277.396 192.188C277.559 192.188 277.691 192.056 277.691 191.893C277.691 191.731 277.559 191.599 277.396 191.599C277.233 191.599 277.101 191.731 277.101 191.893C277.101 192.056 277.233 192.188 277.396 192.188Z" fill="white"/>
<path d="M199.807 189.714C199.97 189.714 200.102 189.582 200.102 189.42C200.102 189.257 199.97 189.125 199.807 189.125C199.644 189.125 199.512 189.257 199.512 189.42C199.512 189.582 199.644 189.714 199.807 189.714Z" fill="white"/>
<path d="M215.754 189.365C215.917 189.365 216.049 189.233 216.049 189.07C216.049 188.907 215.917 188.775 215.754 188.775C215.592 188.775 215.459 188.907 215.459 189.07C215.459 189.233 215.592 189.365 215.754 189.365Z" fill="white"/>
<path d="M217.667 193.438C217.83 193.438 217.962 193.306 217.962 193.144C217.962 192.981 217.83 192.849 217.667 192.849C217.504 192.849 217.372 192.981 217.372 193.144C217.372 193.306 217.504 193.438 217.667 193.438Z" fill="white"/>
<path d="M176.593 192.013C176.756 192.013 176.888 191.881 176.888 191.719C176.888 191.556 176.756 191.424 176.593 191.424C176.43 191.424 176.298 191.556 176.298 191.719C176.298 191.881 176.43 192.013 176.593 192.013Z" fill="white"/>
<path d="M183.379 196.638C183.542 196.638 183.674 196.506 183.674 196.343C183.674 196.18 183.542 196.048 183.379 196.048C183.216 196.048 183.084 196.18 183.084 196.343C183.084 196.506 183.216 196.638 183.379 196.638Z" fill="white"/>
<path d="M172.742 196.463C172.905 196.463 173.037 196.331 173.037 196.168C173.037 196.005 172.905 195.873 172.742 195.873C172.579 195.873 172.447 196.005 172.447 196.168C172.447 196.331 172.579 196.463 172.742 196.463Z" fill="white"/>
<path opacity="0.6" fill-rule="evenodd" clip-rule="evenodd" d="M231.283 204.307C226.663 206.378 226.366 203.048 222.069 204.56C226.278 204.009 226.733 207.462 231.283 204.307Z" fill="white"/>
<path fill-rule="evenodd" clip-rule="evenodd" d="M286.601 202.427C283.108 204.001 282.872 201.474 279.614 202.619C282.802 202.217 283.151 204.84 286.601 202.427Z" fill="white"/>
<path opacity="0.3" d="M209.824 202.086C210.176 202.086 210.462 201.859 210.462 201.579C210.462 201.299 210.176 201.072 209.824 201.072C209.472 201.072 209.187 201.299 209.187 201.579C209.187 201.859 209.472 202.086 209.824 202.086Z" fill="white"/>
<path opacity="0.5" d="M278.697 205.233C279.049 205.233 279.335 205.006 279.335 204.726C279.335 204.446 279.049 204.219 278.697 204.219C278.345 204.219 278.06 204.446 278.06 204.726C278.06 205.006 278.345 205.233 278.697 205.233Z" fill="white"/>
<path d="M232.156 207.486C232.319 207.486 232.451 207.354 232.451 207.191C232.451 207.028 232.319 206.897 232.156 206.897C231.993 206.897 231.861 207.028 231.861 207.191C231.861 207.354 231.993 207.486 232.156 207.486Z" fill="white"/>
<path d="M240.61 200.169C240.773 200.169 240.905 200.037 240.905 199.875C240.905 199.712 240.773 199.58 240.61 199.58C240.447 199.58 240.315 199.712 240.315 199.875C240.315 200.037 240.447 200.169 240.61 200.169Z" fill="white"/>
<path d="M252.016 204.444C252.179 204.444 252.311 204.312 252.311 204.149C252.311 203.986 252.179 203.854 252.016 203.854C251.853 203.854 251.721 203.986 251.721 204.149C251.721 204.312 251.853 204.444 252.016 204.444Z" fill="white"/>
<path d="M206.837 203.876C207 203.876 207.132 203.744 207.132 203.581C207.132 203.418 207 203.286 206.837 203.286C206.675 203.286 206.542 203.418 206.542 203.581C206.542 203.744 206.675 203.876 206.837 203.876Z" fill="white"/>
<path d="M210.689 206.131C210.852 206.131 210.984 205.999 210.984 205.836C210.984 205.674 210.852 205.542 210.689 205.542C210.526 205.542 210.394 205.674 210.394 205.836C210.394 205.999 210.526 206.131 210.689 206.131Z" fill="white"/>
<path d="M262.104 199.549C262.266 199.549 262.399 199.417 262.399 199.254C262.399 199.091 262.266 198.959 262.104 198.959C261.941 198.959 261.809 199.091 261.809 199.254C261.809 199.417 261.941 199.549 262.104 199.549Z" fill="white"/>
<path d="M138.178 175.194H235.676C235.676 175.194 216.612 157.915 185.743 158.184C154.875 158.454 138.178 175.194 138.178 175.194Z" fill="#F7EEDA"/>
<path d="M182.445 125.149H180.911V161.908H182.445V125.149Z" fill="#FB9D6C"/>
<path d="M181.678 125.149C181.678 125.149 168.601 126.325 169.752 139.687C170.483 138.952 171.073 138.09 171.495 137.144C171.743 137.554 171.835 138.039 171.757 138.511C172.379 137.735 172.806 136.821 173.004 135.846C173.187 136.216 173.239 136.636 173.152 137.039C173.74 136.445 174.216 135.748 174.555 134.984C174.694 135.258 174.694 135.581 174.555 135.855C175.213 135.089 175.631 134.147 175.758 133.146C176.052 133.428 176.199 133.829 176.159 134.235C176.76 133.364 177.192 132.389 177.432 131.36C177.604 131.433 177.736 131.575 177.797 131.751C177.859 131.926 177.843 132.12 177.755 132.283C179.719 130.329 181.08 127.853 181.678 125.149Z" fill="#3BC5CE"/>
<path d="M181.678 125.149C181.678 125.149 181.434 111.526 168.304 111.691C168.962 112.486 169.76 113.153 170.658 113.66C170.247 113.888 169.763 113.95 169.307 113.834C170.009 114.529 170.871 115.041 171.818 115.324C171.449 115.486 171.035 115.511 170.65 115.393C171.183 116.039 171.83 116.582 172.559 116.996C172.289 117.152 171.957 117.152 171.687 116.996C172.372 117.728 173.262 118.235 174.241 118.451C173.954 118.732 173.548 118.858 173.152 118.791C173.152 118.791 174.895 120.219 175.863 120.324C175.786 120.489 175.641 120.613 175.466 120.665C175.291 120.717 175.102 120.691 174.948 120.594C174.948 120.594 177.694 124.113 181.678 125.149Z" fill="#3BC5CE"/>
<path d="M181.678 125.149C181.678 125.149 170.658 115.298 160.362 126.604C161.534 126.626 162.701 126.438 163.806 126.047C163.653 126.571 163.32 127.024 162.864 127.327C163.993 127.235 165.083 126.876 166.047 126.282C165.88 126.717 165.573 127.085 165.175 127.327C166.127 127.348 167.075 127.198 167.973 126.883C167.862 127.229 167.588 127.498 167.241 127.606C168.39 127.555 169.499 127.171 170.432 126.499C170.423 126.965 170.201 127.402 169.83 127.684C169.83 127.684 172.35 127.249 173.204 126.508C173.274 126.708 173.258 126.928 173.158 127.115C173.059 127.302 172.886 127.439 172.681 127.492C175.842 127.586 178.964 126.773 181.678 125.149Z" fill="#3BC5CE"/>
<path d="M185.61 132.327C185.521 132.163 185.506 131.97 185.567 131.794C185.629 131.618 185.761 131.477 185.932 131.404C186.174 132.433 186.605 133.408 187.205 134.278C187.165 133.873 187.313 133.472 187.606 133.189C187.733 134.19 188.152 135.132 188.809 135.898C188.671 135.624 188.671 135.301 188.809 135.027C189.149 135.792 189.624 136.488 190.213 137.083C190.123 136.681 190.172 136.26 190.352 135.89C190.55 136.864 190.977 137.778 191.599 138.555C191.52 138.083 191.613 137.597 191.861 137.187C192.283 138.134 192.874 138.996 193.604 139.731C194.711 126.369 181.678 125.193 181.678 125.193C182.278 127.898 183.643 130.374 185.61 132.327Z" fill="#3BC5CE"/>
<g opacity="0.2">
<path d="M181.678 125.149C181.678 125.149 168.601 126.325 169.752 139.687C170.483 138.952 171.073 138.09 171.495 137.144C171.743 137.554 171.835 138.039 171.757 138.511C172.379 137.735 172.806 136.821 173.004 135.846C173.187 136.216 173.239 136.636 173.152 137.039C173.74 136.445 174.216 135.748 174.555 134.984C174.694 135.258 174.694 135.581 174.555 135.855C175.213 135.089 175.631 134.147 175.758 133.146C176.052 133.428 176.199 133.829 176.159 134.235C176.76 133.364 177.192 132.389 177.432 131.36C177.604 131.433 177.736 131.575 177.797 131.751C177.859 131.926 177.843 132.12 177.755 132.283C179.719 130.329 181.08 127.853 181.678 125.149Z" fill="#171714"/>
</g>
<g opacity="0.2">
<path d="M185.61 132.327C185.521 132.163 185.506 131.97 185.567 131.794C185.629 131.618 185.761 131.477 185.932 131.404C186.174 132.433 186.605 133.408 187.205 134.278C187.165 133.873 187.313 133.472 187.606 133.189C187.733 134.19 188.152 135.132 188.809 135.898C188.671 135.624 188.671 135.301 188.809 135.027C189.149 135.792 189.624 136.488 190.213 137.083C190.123 136.681 190.172 136.26 190.352 135.89C190.55 136.864 190.977 137.778 191.599 138.555C191.52 138.083 191.613 137.597 191.861 137.187C192.283 138.134 192.874 138.996 193.604 139.731C194.711 126.369 181.678 125.193 181.678 125.193C182.278 127.898 183.643 130.374 185.61 132.327Z" fill="#171714"/>
</g>
<path d="M188.356 120.541C188.201 120.621 188.019 120.634 187.855 120.576C187.69 120.519 187.556 120.396 187.484 120.236C188.452 120.132 190.196 118.703 190.196 118.703C189.799 118.771 189.394 118.645 189.106 118.364C190.085 118.148 190.976 117.641 191.66 116.909C191.39 117.065 191.058 117.065 190.788 116.909C191.517 116.496 192.164 115.952 192.698 115.306C192.312 115.423 191.898 115.399 191.529 115.237C192.476 114.954 193.338 114.442 194.04 113.747C193.584 113.863 193.101 113.801 192.689 113.573C193.587 113.066 194.385 112.398 195.043 111.604C181.966 111.413 181.713 125.062 181.713 125.062C185.662 124.113 188.356 120.541 188.356 120.541Z" fill="#3BC5CE"/>
<g opacity="0.3">
<path d="M181.678 125.149C181.678 125.149 181.434 111.526 168.304 111.691C168.962 112.486 169.76 113.153 170.658 113.66C170.247 113.888 169.763 113.95 169.307 113.834C170.009 114.529 170.871 115.041 171.818 115.324C171.449 115.486 171.035 115.511 170.65 115.393C171.183 116.039 171.83 116.582 172.559 116.996C172.289 117.152 171.957 117.152 171.687 116.996C172.372 117.728 173.262 118.235 174.241 118.451C173.954 118.732 173.548 118.858 173.152 118.791C173.152 118.791 174.895 120.219 175.863 120.324C175.786 120.489 175.641 120.613 175.466 120.665C175.291 120.717 175.102 120.691 174.948 120.594C174.948 120.594 177.694 124.113 181.678 125.149Z" fill="white"/>
</g>
<g opacity="0.3">
<path d="M188.356 120.541C188.201 120.621 188.019 120.634 187.855 120.576C187.69 120.519 187.556 120.396 187.484 120.236C188.452 120.132 190.196 118.703 190.196 118.703C189.799 118.771 189.394 118.645 189.106 118.364C190.085 118.148 190.976 117.641 191.66 116.909C191.39 117.065 191.058 117.065 190.788 116.909C191.517 116.496 192.164 115.952 192.698 115.306C192.312 115.423 191.898 115.399 191.529 115.237C192.476 114.954 193.338 114.442 194.04 113.747C193.584 113.863 193.101 113.801 192.689 113.573C193.587 113.066 194.385 112.398 195.043 111.604C181.966 111.413 181.713 125.062 181.713 125.062C185.662 124.113 188.356 120.541 188.356 120.541Z" fill="white"/>
</g>
<path d="M190.684 127.484C190.481 127.43 190.31 127.294 190.21 127.109C190.111 126.924 190.093 126.707 190.161 126.508C191.032 127.257 193.535 127.684 193.535 127.684C193.167 127.4 192.948 126.964 192.942 126.499C193.875 127.171 194.984 127.555 196.133 127.606C195.784 127.5 195.511 127.229 195.4 126.883C196.299 127.198 197.247 127.348 198.199 127.327C197.8 127.084 197.494 126.717 197.327 126.282C198.29 126.876 199.381 127.234 200.509 127.327C200.054 127.024 199.72 126.571 199.567 126.047C200.672 126.438 201.839 126.626 203.011 126.604C192.715 115.28 181.695 125.149 181.695 125.149C184.407 126.768 187.526 127.578 190.684 127.484Z" fill="#3BC5CE"/>
<path d="M206.565 142.986H205.463V169.461H206.565V142.986Z" fill="#FB9D6C"/>
<path d="M206.014 142.986C206.014 142.986 196.644 143.861 197.439 153.488C197.96 152.959 198.381 152.339 198.68 151.659C198.858 151.956 198.923 152.307 198.864 152.648C199.303 152.088 199.602 151.431 199.738 150.731C199.873 151.002 199.91 151.312 199.843 151.607C200.264 151.179 200.605 150.677 200.848 150.128C200.955 150.33 200.955 150.573 200.848 150.775C201.324 150.225 201.628 149.546 201.722 148.824C201.935 149.027 202.041 149.318 202.011 149.611C202.426 148.982 202.723 148.282 202.885 147.546C203.006 147.6 203.099 147.703 203.142 147.829C203.185 147.955 203.174 148.093 203.112 148.211C204.568 146.791 205.577 144.974 206.014 142.986Z" fill="#3BC5CE"/>
<path d="M206.014 142.986C206.014 142.986 205.839 133.149 196.399 133.289C196.874 133.861 197.448 134.341 198.095 134.707C197.799 134.869 197.452 134.913 197.124 134.829C197.631 135.329 198.252 135.696 198.934 135.897C198.658 136.021 198.346 136.036 198.06 135.941C198.443 136.406 198.908 136.798 199.432 137.096C199.235 137.21 198.991 137.21 198.794 137.096C199.287 137.621 199.927 137.984 200.63 138.137C200.425 138.345 200.129 138.437 199.843 138.382C200.415 138.873 201.077 139.248 201.792 139.485C201.737 139.604 201.633 139.693 201.508 139.73C201.382 139.767 201.247 139.748 201.136 139.678C202.4 141.239 204.097 142.39 206.014 142.986Z" fill="#3BC5CE"/>
<path d="M206.014 142.986C206.014 142.986 198.095 135.888 190.691 144.036C191.533 144.052 192.371 143.916 193.165 143.634C193.055 144.009 192.817 144.335 192.492 144.553C193.304 144.487 194.089 144.229 194.782 143.8C194.659 144.115 194.434 144.38 194.144 144.553C194.828 144.567 195.509 144.457 196.154 144.229C196.071 144.478 195.872 144.67 195.621 144.745C196.445 144.708 197.241 144.432 197.911 143.949C197.913 144.291 197.755 144.615 197.483 144.824C198.34 144.686 199.164 144.389 199.913 143.949C199.961 144.093 199.949 144.25 199.878 144.384C199.807 144.519 199.683 144.617 199.537 144.658C201.811 144.733 204.059 144.152 206.014 142.986Z" fill="#3BC5CE"/>
<path d="M208.846 148.158C208.784 148.041 208.772 147.903 208.816 147.776C208.859 147.65 208.952 147.548 209.073 147.493C209.235 148.23 209.532 148.93 209.947 149.559C209.917 149.266 210.023 148.975 210.236 148.771C210.33 149.493 210.634 150.172 211.11 150.723C211.003 150.52 211.003 150.278 211.11 150.075C211.353 150.625 211.694 151.126 212.115 151.554C212.048 151.259 212.085 150.95 212.22 150.679C212.356 151.378 212.656 152.035 213.094 152.596C213.037 152.257 213.102 151.91 213.278 151.615C213.575 152.295 213.992 152.915 214.51 153.445C215.306 143.817 205.935 142.942 205.935 142.942C206.376 144.928 207.388 146.742 208.846 148.158Z" fill="#3BC5CE"/>
<g opacity="0.2">
<path d="M206.014 142.986C206.014 142.986 196.644 143.861 197.439 153.488C197.96 152.959 198.381 152.339 198.68 151.659C198.858 151.956 198.923 152.307 198.864 152.648C199.303 152.088 199.602 151.431 199.738 150.731C199.873 151.002 199.91 151.312 199.843 151.607C200.264 151.179 200.605 150.677 200.848 150.128C200.955 150.33 200.955 150.573 200.848 150.775C201.324 150.225 201.628 149.546 201.722 148.824C201.935 149.027 202.041 149.318 202.011 149.611C202.426 148.982 202.723 148.282 202.885 147.546C203.006 147.6 203.099 147.703 203.142 147.829C203.185 147.955 203.174 148.093 203.112 148.211C204.568 146.791 205.577 144.974 206.014 142.986Z" fill="#171714"/>
</g>
<g opacity="0.2">
<path d="M208.846 148.158C208.784 148.041 208.772 147.903 208.816 147.776C208.859 147.65 208.952 147.548 209.073 147.493C209.235 148.23 209.532 148.93 209.947 149.559C209.917 149.266 210.023 148.975 210.236 148.771C210.33 149.493 210.634 150.172 211.11 150.723C211.003 150.52 211.003 150.278 211.11 150.075C211.353 150.625 211.694 151.126 212.115 151.554C212.048 151.259 212.085 150.95 212.22 150.679C212.356 151.378 212.656 152.035 213.094 152.596C213.037 152.257 213.102 151.91 213.278 151.615C213.575 152.295 213.992 152.915 214.51 153.445C215.306 143.817 205.935 142.942 205.935 142.942C206.376 144.928 207.388 146.742 208.846 148.158Z" fill="#171714"/>
</g>
<path d="M210.839 139.669C210.728 139.742 210.59 139.763 210.462 139.726C210.335 139.689 210.229 139.598 210.175 139.476C210.89 139.239 211.552 138.864 212.124 138.374C211.837 138.429 211.542 138.337 211.337 138.129C212.04 137.975 212.68 137.612 213.173 137.087C212.975 137.199 212.733 137.199 212.535 137.087C213.059 136.789 213.524 136.398 213.907 135.932C213.62 136.027 213.309 136.012 213.033 135.888C213.714 135.685 214.335 135.318 214.842 134.82C214.515 134.904 214.168 134.861 213.872 134.698C214.54 134.338 215.136 133.858 215.629 133.28C206.215 133.14 206.014 142.977 206.014 142.977C207.912 142.372 209.59 141.222 210.839 139.669Z" fill="#3BC5CE"/>
<g opacity="0.3">
<path d="M206.014 142.986C206.014 142.986 205.839 133.149 196.399 133.289C196.874 133.861 197.448 134.341 198.095 134.707C197.799 134.869 197.452 134.913 197.124 134.829C197.631 135.329 198.252 135.696 198.934 135.897C198.658 136.021 198.346 136.036 198.06 135.941C198.443 136.406 198.908 136.798 199.432 137.096C199.235 137.21 198.991 137.21 198.794 137.096C199.287 137.621 199.927 137.984 200.63 138.137C200.425 138.345 200.129 138.437 199.843 138.382C200.415 138.873 201.077 139.248 201.792 139.485C201.737 139.604 201.633 139.693 201.508 139.73C201.382 139.767 201.247 139.748 201.136 139.678C202.4 141.239 204.097 142.39 206.014 142.986Z" fill="white"/>
</g>
<g opacity="0.3">
<path d="M210.839 139.669C210.728 139.742 210.59 139.763 210.462 139.726C210.335 139.689 210.229 139.598 210.175 139.476C210.89 139.239 211.552 138.864 212.124 138.374C211.837 138.429 211.542 138.337 211.337 138.129C212.04 137.975 212.68 137.612 213.173 137.087C212.975 137.199 212.733 137.199 212.535 137.087C213.059 136.789 213.524 136.398 213.907 135.932C213.62 136.027 213.309 136.012 213.033 135.888C213.714 135.685 214.335 135.318 214.842 134.82C214.515 134.904 214.168 134.861 213.872 134.698C214.54 134.338 215.136 133.858 215.629 133.28C206.215 133.14 206.014 142.977 206.014 142.977C207.912 142.372 209.59 141.222 210.839 139.669Z" fill="white"/>
</g>
<path d="M212.491 144.658C212.343 144.62 212.218 144.521 212.147 144.386C212.075 144.251 212.064 144.092 212.115 143.949C212.864 144.389 213.688 144.686 214.545 144.824C214.273 144.615 214.115 144.291 214.117 143.949C214.787 144.432 215.582 144.708 216.407 144.745C216.158 144.669 215.963 144.476 215.883 144.229C216.528 144.457 217.209 144.567 217.893 144.553C217.603 144.38 217.378 144.115 217.255 143.8C217.948 144.228 218.733 144.486 219.545 144.553C219.217 144.336 218.975 144.011 218.863 143.634C219.657 143.916 220.495 144.052 221.337 144.036C213.933 135.888 206.014 142.986 206.014 142.986C207.969 144.152 210.217 144.733 212.491 144.658Z" fill="#3BC5CE"/>
<path d="M71.2452 225.458C83.4248 225.458 93.2983 215.591 93.2983 203.419C93.2983 191.247 83.4248 181.38 71.2452 181.38C59.0656 181.38 49.1922 191.247 49.1922 203.419C49.1922 215.591 59.0656 225.458 71.2452 225.458Z" fill="white"/>
<path d="M71.1163 225.458C73.7588 225.461 76.3801 224.983 78.8542 224.047L71.1163 203.29L63.3783 224.047C65.8524 224.983 68.4737 225.461 71.1163 225.458Z" fill="#FFDE99"/>
<path d="M48.9342 203.29C48.9313 205.931 49.4095 208.55 50.3458 211.023L71.1162 203.29L50.3458 195.557C49.4097 198.03 48.9315 200.649 48.9342 203.29Z" fill="#FFDE99"/>
<path d="M71.1163 181.122C68.4732 181.122 65.8517 181.602 63.3783 182.541L71.1163 203.29L78.8542 182.541C76.3807 181.603 73.7593 181.122 71.1163 181.122Z" fill="#FFDE99"/>
<path d="M93.2983 203.29C93.2986 200.649 92.8176 198.029 91.8785 195.557L71.1163 203.29L91.8785 211.023C92.8178 208.551 93.2988 205.931 93.2983 203.29Z" fill="#FFDE99"/>
<path d="M71.3742 206.641C73.2261 206.641 74.7273 205.141 74.7273 203.29C74.7273 201.439 73.2261 199.939 71.3742 199.939C69.5223 199.939 68.0211 201.439 68.0211 203.29C68.0211 205.141 69.5223 206.641 71.3742 206.641Z" fill="#FB9D6C"/>
<path d="M79.7659 120.24C79.7659 120.24 90.1975 124.529 90.5528 125.494C90.9081 126.459 83.3954 125.095 83.3954 125.095C83.3954 125.095 80.7748 125.575 79.7977 124.572C78.8205 123.57 79.7659 120.24 79.7659 120.24Z" fill="#FFD5C5"/>
<path d="M82.6 121.339L80.09 120.24C80.09 120.24 79.1 123.62 80.09 124.662C80.4703 124.998 80.9494 125.204 81.4568 125.25C81.7189 123.915 82.1015 122.606 82.6 121.339Z" fill="#E5C7BE"/>
<path d="M59.59 149.385L55.9326 160.32L50.15 158.722C50.15 158.722 51.8675 154.648 54.4746 147.942L59.59 149.385Z" fill="#FFD5C5"/>
<path d="M92.7298 127.902L83.485 137.294L89.2646 139.101L96.17 131.652L92.7298 127.902Z" fill="#FFD5C5"/>
<path opacity="0.15" d="M73.16 243.132C86.5198 243.132 97.35 242.076 97.35 240.774C97.35 239.472 86.5198 238.417 73.16 238.417C59.8002 238.417 48.97 239.472 48.97 240.774C48.97 242.076 59.8002 243.132 73.16 243.132Z" fill="#1C1918"/>
<path d="M73.455 234.322L77.8349 207.069L74.9777 177.024L82.7305 172.108L83.78 208.355L77.3678 235.764L73.455 234.322Z" fill="#FFD5C5"/>
<path d="M78.4155 233.407C76.8041 234.543 74.7171 234.817 72.8556 234.136C72.8556 234.136 72.1654 236.384 72.9309 236.941C73.6965 237.499 82.281 242.21 84.0883 241.23C85.8956 240.25 78.4155 233.407 78.4155 233.407Z" fill="#3D3939"/>
<path d="M81.7835 236.943C83.9639 238.976 85.3857 240.942 84.2827 241.523C83.3583 242.007 80.7252 241.118 78.175 240.017C78.4526 238.307 79.9627 237.021 81.7835 236.943Z" fill="#F2F2F2"/>
<path d="M84.37 241.014C80.1721 240.191 76.1696 238.611 72.57 236.354V237.871C72.57 237.871 80.2152 242.071 84.1278 241.95L84.37 241.014Z" fill="#F2F2F2"/>
<path d="M80.535 235.764C79.499 235.92 78.6116 236.585 78.175 237.532" stroke="#F2F2F2" stroke-width="2.97" stroke-linecap="round" stroke-linejoin="round"/>
<path d="M77.29 236.059C77.7266 235.111 78.614 234.446 79.65 234.291" stroke="#F2F2F2" stroke-width="2.97" stroke-linecap="round" stroke-linejoin="round"/>
<path d="M71.98 236.943C71.98 236.943 80.9207 242.263 84.665 241.601" stroke="#3D3939" stroke-width="1.62"/>
<path d="M71.6328 236.059L72.57 176.569L64.31 172.108L66.6968 235.374L71.6328 236.059Z" fill="#FFD5C5"/>
<path d="M77.585 139.996L86.5913 134.091L91.745 137.633L85.2013 144.406L77.585 139.996Z" fill="#FFE29A"/>
<path d="M85.55 134.171L91.2857 138.806L92.335 137.451L88.1636 132.028L85.55 134.171Z" fill="#EFB4B4"/>
<path d="M50.15 158.838C50.15 158.838 56.56 171.068 63.6507 172.992L63.72 169.692C63.72 169.692 60.6316 166.79 56.4843 159.106C53.4086 153.377 50.15 158.838 50.15 158.838Z" fill="#FFD5C5"/>
<path d="M65.0045 166.762L63.425 193.292C66.3336 194.723 69.6239 195.188 72.8151 194.616L73.6608 182.278H74.4941L74.9729 194.616C74.9729 194.616 80.5697 195.904 84.96 194.256L83.2623 165.624L65.0045 166.762Z" fill="#4CDBC4"/>
<path d="M75.815 133.115L74.8656 154.131L69.03 140.56L69.1313 129.965L75.815 133.115Z" fill="#E5C7BE"/>
<path d="M87.22 141.183C87.22 141.183 83.9265 160.57 83.5516 173.192L79.177 175.939L75.4585 172.824L71.7776 175.821C71.7776 175.821 66.878 174.693 64.6282 171.69C61.366 152.951 58.41 138.112 58.41 138.112C58.41 138.112 61.341 137.32 69.1591 137.333L74.0024 148.995C74.0024 148.995 73.7712 138.112 75.7148 137.563C78.6582 137.763 83.8828 138.118 87.32 138.685L87.22 141.183Z" fill="#FFE29A"/>
<path d="M58.8518 152.657L63.13 144.374L58.4221 137.922L53.395 149.491L58.8518 152.657Z" fill="#FFE29A"/>
<path d="M74.045 149.121L71.3051 138.217L69.62 139.03L74.045 149.121Z" fill="#BF8686"/>
<path d="M74.4778 138.217L74.34 149.121L75.225 139.757L74.4778 138.217Z" fill="#BF8686"/>
<path d="M77.585 137.626L75.3558 142.637L74.34 138.271L76.3942 135.564L77.585 137.626Z" fill="#EFB4B4"/>
<path d="M66.67 137.109L69.6552 141.459L71.095 138.233L68.2153 135.859L66.67 137.109Z" fill="#EFB4B4"/>
<path d="M60.77 151.194L54.0302 146.174L52.51 149.854L59.9339 153.541L60.77 151.194Z" fill="#EFB4B4"/>
<path d="M71.409 114.413C66.829 115.457 66.9471 118.607 66.9471 118.607C66.9471 118.607 67.09 121.036 67.1832 123.926C66.7661 123.329 65.9819 123.114 65.3189 123.416C63.7591 124.081 64.9087 129.008 67.2826 128.574C67.3025 129.523 67.4402 130.466 67.6928 131.382C68.3577 132.78 71.2909 134.911 73.9072 135.241C76.5234 135.57 80.83 133.054 80.83 129.99C80.83 126.927 79.8357 117.737 79.8357 117.737C79.8357 117.737 79.0216 112.679 71.409 114.413Z" fill="#FFD5C5"/>
<path d="M73.75 120.802C73.75 120.802 73.4808 120.802 73.1386 120.802C72.7964 120.802 72.3813 120.759 72.0167 120.802C71.927 120.802 71.8316 120.802 71.7475 120.802C71.6623 120.816 71.5779 120.837 71.4951 120.866C71.3337 120.907 71.1772 120.975 71.0295 121.067C70.9038 121.138 70.782 121.219 70.6649 121.311L70.5078 121.419C70.5041 121.342 70.5041 121.265 70.5078 121.189C70.5251 120.985 70.5789 120.789 70.6649 120.615C70.7145 120.485 70.783 120.368 70.8668 120.271C70.952 120.148 71.0524 120.044 71.1641 119.962C71.282 119.873 71.4083 119.803 71.5399 119.754C71.673 119.703 71.8105 119.671 71.9494 119.661C72.0838 119.647 72.2189 119.647 72.3533 119.661C72.4836 119.695 72.6099 119.751 72.7291 119.826C72.9304 119.921 73.1195 120.054 73.29 120.221C73.472 120.373 73.6284 120.571 73.75 120.802Z" fill="#997D52"/>
<path d="M76.7 120.799C76.776 120.57 76.898 120.365 77.0563 120.2C77.2116 120.027 77.3953 119.89 77.5972 119.796C77.848 119.676 78.1215 119.629 78.3925 119.659C78.6825 119.693 78.9572 119.823 79.1816 120.034C79.2796 120.126 79.3635 120.236 79.4297 120.359C79.4948 120.459 79.5443 120.571 79.5761 120.69C79.6314 120.858 79.6552 121.038 79.646 121.217C79.6513 121.284 79.6513 121.351 79.646 121.419L79.487 121.318C79.3915 121.26 79.277 121.159 79.137 121.08C79.0711 121.037 79.0031 120.998 78.9334 120.964C78.8652 120.928 78.7951 120.897 78.7234 120.871C78.5872 120.819 78.4464 120.785 78.3035 120.77C77.9731 120.741 77.6412 120.741 77.3108 120.77C76.9736 120.806 76.7 120.799 76.7 120.799Z" fill="#997D52"/>
<path d="M71.98 129.67L77.585 129.987C77.585 129.987 76.2242 132.789 71.98 129.67Z" fill="white"/>
<path d="M61.655 172.201C61.655 172.201 64.8146 175.786 65.1179 169.928C65.1179 169.928 70.2174 170.176 65.8825 168.844C65.8825 168.844 71.0769 168.318 65.7245 167.934C65.7245 167.934 70.3881 165.073 63.8983 167.457C63.8983 167.457 62.5776 168.076 62.2932 170.591L61.655 172.201Z" fill="#FFD5C5"/>
<path d="M97.35 129.866C97.35 129.866 89.8996 122.846 82.6 122.303L83.1402 124.574C83.1402 124.574 86.0237 126.417 90.5969 130.869C95.1702 135.321 97.35 129.866 97.35 129.866Z" fill="#FFD5C5"/>
<path d="M71.6877 123.662C71.6877 124.23 72.0771 124.68 72.4989 124.66C72.9208 124.64 73.1966 124.171 73.1561 123.602C73.1155 123.034 72.7666 122.584 72.3448 122.598C71.9229 122.611 71.6552 123.093 71.6877 123.662Z" fill="#3F3838"/>
<path d="M76.7039 123.957C76.7039 124.525 77.093 124.968 77.5145 124.955C77.936 124.942 78.2116 124.459 78.1711 123.891C78.1305 123.322 77.782 122.879 77.3605 122.892C76.939 122.906 76.6634 123.388 76.7039 123.957Z" fill="#3F3838"/>
<path d="M66.1653 234.291C66.1653 234.291 68.125 236.337 71.9364 236.25C71.9364 236.25 72.2281 238.296 71.3022 238.577C70.3763 238.857 60.3182 240.723 58.6186 239.45C56.919 238.177 66.1653 234.291 66.1653 234.291Z" fill="#3D3939"/>
<path d="M61.6964 236.059C58.97 237.295 57.0603 238.653 58.1148 239.428C59.0022 240.069 61.9729 239.954 64.8986 239.62C64.9564 237.853 63.2396 236.379 61.6964 236.059Z" fill="#F2F2F2"/>
<path d="M58.115 239.225C62.6667 239.576 67.2437 239.203 71.685 238.122L71.3879 239.466C71.3879 239.466 62.3434 241.218 58.1908 240.115L58.115 239.225Z" fill="#F2F2F2"/>
<path d="M63.13 235.47C63.13 235.47 64.9334 236.131 65.195 237.532" stroke="#F2F2F2" stroke-width="2.82" stroke-linecap="round" stroke-linejoin="round"/>
<path d="M66.67 236.648C66.3947 235.211 64.605 234.585 64.605 234.585" stroke="#F2F2F2" stroke-width="2.82" stroke-linecap="round" stroke-linejoin="round"/>
<path d="M72.275 238.711C72.275 238.711 61.6843 241.268 57.82 239.645" stroke="#3D3939" stroke-width="1.56"/>
<path d="M85.1921 192.737C81.797 193.211 78.3623 193.401 74.93 193.305V195.282C74.93 195.282 81.7179 196.378 85.55 194.952L85.1921 192.737Z" fill="#50C2B7"/>
<path d="M73.75 193.281C69.8195 193.154 65.9073 192.676 62.0573 191.853L61.655 194.063C61.655 194.063 69.4375 196.647 73.6746 195.813L73.75 193.281Z" fill="#50C2B7"/>
<path d="M77.2664 115.84C77.2664 115.84 75.3056 118.884 70.2291 119.847L71.0286 117.76C68.9543 120.001 67.7955 122.912 67.7733 125.936C67.7035 128.185 66.6311 123.532 66.6311 123.532C66.6311 123.532 64.2007 122.463 64.9939 126.098C65.4825 128.34 67.2783 128.583 67.2783 128.583C67.3373 130.018 67.8055 131.408 68.63 132.596C68.7696 132.783 69.1757 133.056 69.3407 133.218V134.386C69.3407 134.386 66.8024 132.211 65.8125 130.397C64.1753 127.353 62.2082 124.625 63.0268 119.214C64.5243 109.267 77.9264 109.59 77.2664 115.84Z" fill="#448BFF"/>
<path d="M74.045 111.717C74.045 111.717 80.128 111.091 80.7911 116.236C80.7911 116.236 81.1163 118.902 79.8857 119.365L79.8028 117.269C79.8028 117.269 79.1652 120.016 74.9504 119.609L76.0217 116.217" fill="#448BFF"/>
<path d="M69.075 121.951L74.5243 121.713C74.5243 121.713 75.4506 125.72 71.945 126.11C68.4393 126.5 69.075 121.951 69.075 121.951Z" fill="#44484F"/>
<path d="M76.4467 121.981L81.3221 121.713C81.3221 121.713 82.147 125.714 79.0084 126.109C75.8698 126.505 76.4467 121.981 76.4467 121.981Z" fill="#44484F"/>
<path d="M75.52 123.187C75.7175 123.309 75.9025 123.45 76.0723 123.608C76.241 123.77 76.4003 123.941 76.5494 124.121C76.8396 124.489 77.0841 124.89 77.2774 125.315C77.4706 125.74 77.6179 126.184 77.7168 126.639C77.7672 126.866 77.8049 127.095 77.8298 127.326C77.8612 127.555 77.8612 127.784 77.88 128.013V128.099L77.7921 128.137C77.2586 128.365 76.7251 128.588 76.1728 128.786C76.6623 128.471 77.1645 128.167 77.6666 127.889L77.5913 128.025C77.5264 127.584 77.4384 127.146 77.3277 126.714C77.2774 126.497 77.2147 126.287 77.1456 126.095C77.0766 125.903 76.995 125.674 76.9197 125.476C76.7386 125.066 76.5288 124.669 76.292 124.288C76.0742 123.896 75.8155 123.526 75.52 123.187Z" fill="#D69F8A"/>
<path d="M66.375 123.943L68.9514 123.187L69.325 123.904L66.4974 124.66L66.375 123.943Z" fill="#44484F"/>
<path d="M74.045 123.505C74.045 123.505 75.9582 122.633 76.995 123.776" stroke="#44484F" stroke-width="3.48"/>
<path d="M77.0271 122.208L81.0432 122.008C81.0432 122.008 81.7262 125.476 79.1458 125.818C76.5654 126.16 77.0271 122.208 77.0271 122.208Z" fill="#616670"/>
<path d="M69.6557 122.214L73.9589 122.008C73.9589 122.008 74.6852 125.476 71.9192 125.818C69.1533 126.16 69.6557 122.214 69.6557 122.214Z" fill="#616670"/>
<path opacity="0.1" d="M173.165 238.708C173.165 240.174 160.909 241.364 145.73 241.364C130.551 241.364 118.295 240.174 118.295 238.708C118.295 237.243 130.551 236.059 145.73 236.059C160.909 236.059 173.165 237.249 173.165 238.708Z" fill="black"/>
<path d="M133.154 146.118C135.961 148.1 142.775 146.082 145.521 146.338C147.236 146.502 143.884 152.235 145.593 152.363C145.636 143.216 145.399 124.964 142.896 122.793C142.896 122.793 131.014 119.69 131.427 138.185C131.548 143.575 130.354 144.136 133.154 146.118Z" fill="#E46D89"/>
<path d="M132.229 164.552C132.229 164.552 122.257 178.217 132.021 202.031C132.021 202.031 128.699 212.411 135.558 231.126L137.84 233.996C137.84 233.996 140.96 210.628 138.048 203.35L138.659 187.26C138.659 187.26 143.028 202.031 144.894 205.774C146.76 209.517 149.47 228.043 150.094 231.126L152.168 231.786C152.168 231.786 157.986 212.606 150.332 202.91C150.332 202.91 157.191 180.201 143.474 165.431C143.474 165.431 155.098 148.676 150.54 146.917C145.983 145.159 136.182 144.285 132.437 147.137C128.693 149.989 132.229 164.552 132.229 164.552Z" fill="#F4B5A8"/>
<path opacity="0.1" d="M130.685 152.952C130.765 156.532 131.2 160.095 131.982 163.589C135.981 163.552 139.967 164.039 143.84 165.035C145.947 161.924 147.859 158.686 149.565 155.338C143.29 154.633 136.96 153.885 130.685 152.952Z" fill="black"/>
<path d="M145.252 145.712L146.327 133.796L139.98 138.499L139.178 145.032L134.859 146.119C134.859 146.119 130.747 155.732 139.822 156.449C148.897 157.166 151.63 147.821 151.63 147.821L145.252 145.712Z" fill="#F4B5A8"/>
<path opacity="0.1" d="M145.022 144.7L146.025 133.501L139.636 138.288L138.945 144.36C140.975 144.434 142.999 144.552 145.022 144.7Z" fill="black"/>
<path d="M145.398 125.377C145.398 125.377 136.599 122.686 133.969 130.893C131.934 137.253 135.151 141.687 139.111 142.501C142.205 143.109 146.233 141.742 148.282 137.138C150.775 131.598 151.623 124.879 145.398 125.377Z" fill="#F4B5A8"/>
<path d="M138.945 130.379C139.185 130.19 139.444 130.036 139.717 129.921C139.997 129.804 140.287 129.724 140.582 129.681C140.753 129.667 140.925 129.667 141.097 129.681C141.274 129.688 141.45 129.711 141.624 129.752C141.967 129.828 142.294 129.982 142.586 130.203C142.721 130.3 142.846 130.414 142.96 130.541C143.062 130.651 143.155 130.771 143.236 130.901C143.314 131 143.382 131.109 143.438 131.226L143.567 131.501L143.665 131.733L143.499 131.55L143.316 131.338C143.235 131.254 143.151 131.174 143.064 131.099C142.971 131.001 142.868 130.916 142.758 130.845C142.641 130.758 142.518 130.683 142.39 130.619C142.258 130.547 142.12 130.488 141.979 130.443C141.835 130.396 141.687 130.363 141.538 130.344C141.389 130.334 141.239 130.334 141.09 130.344C140.943 130.344 140.796 130.344 140.649 130.386C140.388 130.422 140.13 130.481 139.877 130.563C139.627 130.642 139.381 130.738 139.141 130.852L138.945 130.379Z" fill="#442727"/>
<path d="M136.769 131.223L136.27 131.025C136.109 130.96 135.945 130.903 135.778 130.855C135.598 130.801 135.412 130.767 135.223 130.753C135.135 130.744 135.047 130.744 134.958 130.753C134.874 130.766 134.792 130.787 134.712 130.815C134.561 130.875 134.423 130.959 134.306 131.065C134.248 131.107 134.194 131.155 134.146 131.206L134.035 131.325C134.002 131.365 133.967 131.403 133.93 131.439C133.93 131.439 133.93 131.382 133.93 131.291C133.951 131.161 133.994 131.034 134.059 130.917C134.099 130.832 134.153 130.754 134.219 130.685C134.289 130.598 134.377 130.524 134.478 130.469C134.581 130.398 134.698 130.346 134.823 130.316C134.952 130.284 135.084 130.265 135.217 130.26C135.871 130.297 136.476 130.59 136.88 131.065L136.769 131.223Z" fill="#442727"/>
<g opacity="0.8">
<path d="M136.794 133.53C136.729 133.981 136.62 134.424 136.471 134.85C136.329 135.281 136.162 135.701 135.971 136.107L135.852 135.737C136.416 136.041 136.946 136.419 137.43 136.862C136.813 136.736 136.212 136.524 135.641 136.233L135.414 136.126L135.522 135.862C135.69 135.448 135.879 135.045 136.09 134.655C136.293 134.257 136.529 133.881 136.794 133.53Z" fill="#9B5D5A"/>
</g>
<path d="M141.305 137.627C141.305 137.627 138.623 140.066 136.88 137.929L141.305 137.627Z" fill="white"/>
<path d="M125.514 168.532C127.398 167.77 132.632 160.081 134.821 156.444C135.775 154.853 138.693 152.398 139.24 144.995C136.863 145.391 133.204 149.108 130.803 149.26C131.793 146.165 128.803 152.623 128.711 152.77C127.344 155.091 123.848 161.872 123.848 161.872C123.848 161.872 111.35 155.414 110.378 157.096C109.405 158.777 123.623 169.294 125.514 168.532Z" fill="#F4B5A8"/>
<path d="M172.233 156.364C171.259 154.668 158.779 161.191 158.779 161.191C158.779 161.191 155.244 154.335 153.881 152.011C153.82 151.912 152.457 148.928 151.86 147.942L151.672 148.065C151.702 148.176 151.739 148.3 151.787 148.46C151.596 148.444 151.407 148.411 151.222 148.361C149.186 149.618 147.42 151.274 146.025 153.232C146.725 154.329 147.394 155.094 147.765 155.71C149.962 159.409 155.195 167.165 157.069 167.942C158.943 168.718 173.2 158.059 172.233 156.364Z" fill="#F4B5A8"/>
<path d="M134.544 132.617C134.544 132.617 134.639 132.849 134.784 133.168C134.859 133.341 134.949 133.505 135.055 133.658C135.099 133.729 135.155 133.791 135.218 133.842C135.266 133.872 135.321 133.884 135.376 133.876H135.47L135.584 133.794C135.662 133.743 135.734 133.681 135.798 133.61C135.943 133.474 136.062 133.311 136.188 133.195C136.313 133.04 136.445 132.893 136.585 132.753C136.535 132.954 136.474 133.152 136.402 133.345C136.319 133.544 136.213 133.732 136.087 133.903C136.006 133.991 135.955 134.107 135.829 134.182L135.665 134.304L135.439 134.379C135.274 134.404 135.106 134.358 134.973 134.25C134.866 134.161 134.78 134.047 134.721 133.916C134.664 133.81 134.621 133.696 134.595 133.576C134.571 133.475 134.552 133.373 134.538 133.27C134.512 133.053 134.514 132.834 134.544 132.617Z" fill="#3F3838"/>
<path d="M139.855 132.912C139.855 132.912 139.949 133.144 140.1 133.458C140.173 133.631 140.261 133.796 140.365 133.949C140.409 134.02 140.465 134.083 140.529 134.134C140.576 134.164 140.631 134.176 140.686 134.168H140.787L140.894 134.093C140.971 134.037 141.043 133.973 141.108 133.902C141.253 133.772 141.379 133.601 141.498 133.485C141.719 133.219 141.895 133.049 141.895 133.049C141.844 133.25 141.783 133.448 141.712 133.642C141.627 133.839 141.522 134.024 141.398 134.195C141.316 134.284 141.265 134.4 141.146 134.475L140.976 134.598L140.755 134.673C140.588 134.7 140.418 134.653 140.283 134.543C140.176 134.454 140.09 134.34 140.031 134.209C139.977 134.101 139.934 133.986 139.905 133.867C139.881 133.769 139.862 133.668 139.848 133.567C139.822 133.35 139.824 133.129 139.855 132.912Z" fill="#3F3838"/>
<path d="M169.92 156.568C170.681 155.405 171.354 154.462 172.782 154.63C174.21 154.798 174.179 154.798 174.179 154.798C174.179 154.798 175.969 148.911 175.058 155.444C175.058 155.444 179.797 150.093 175.632 156.09C175.632 156.09 180.49 153.273 175.894 156.859C175.894 156.859 181.431 157.79 175.27 157.654L171.641 157.402C171.641 157.402 172.246 157.072 169.92 156.568Z" fill="#F4B5A8"/>
<path d="M114.165 157.837C113.405 156.736 112.732 155.831 111.299 155.991C109.867 156.151 109.91 156.151 109.91 156.151C109.91 156.151 108.116 150.554 109.026 156.766C109.026 156.766 104.298 151.667 108.459 157.345C108.459 157.345 103.606 154.663 108.197 158.077C108.197 158.077 102.665 158.962 108.789 158.833L112.415 158.6C112.415 158.6 111.841 158.335 114.165 157.837Z" fill="#F4B5A8"/>
<path d="M138.572 226.956L141.6 238.362C141.6 238.362 138.154 240.814 134.597 238.803C134.597 238.803 133.76 231.052 134.597 225.521C135.434 219.99 138.572 226.956 138.572 226.956Z" fill="#F4B5A8"/>
<path d="M149.047 226.956L146.025 238.362C146.025 238.362 149.477 240.814 153.028 238.803C153.028 238.803 153.865 231.052 153.028 225.521C152.191 219.99 149.047 226.956 149.047 226.956Z" fill="#F4B5A8"/>
<path d="M134.815 237.695C134.862 238.253 134.897 238.587 134.897 238.587C138.302 240.4 141.6 238.186 141.6 238.186L141.335 237.238C140.451 237.729 137.713 238.983 134.815 237.695Z" fill="#308761"/>
<path d="M146.526 237.238L146.32 238.077C146.32 238.077 149.63 240.51 153.034 238.515C153.034 238.515 153.034 238.223 153.105 237.718C150.102 239.257 147.252 237.7 146.526 237.238Z" fill="#308761"/>
<path d="M133.606 146.465C133.606 146.465 132.868 151.145 139.032 151.728C145.195 152.31 148.865 146.174 148.865 146.174C148.865 146.174 153.267 146.939 155.76 152.893L149.45 158.738L148.719 158.131C148.719 158.131 146.353 163.934 145.78 163.855L130.082 162.247C129.231 159.271 129.333 156.105 130.375 153.191L127.735 152.165C127.735 152.165 130.667 146.939 133.606 146.465Z" fill="#FF7AA7"/>
<path d="M139.565 125.196C139.565 125.196 139.235 128.489 143.652 129.589C148.069 130.689 142.11 134.304 143.652 138.253C145.194 142.203 138.249 146.012 144.545 147.902C144.545 147.902 156.469 150.758 153.93 139.785C153.138 136.893 152.832 133.892 153.025 130.901C153.496 126.314 148.742 123.306 147.17 122.565C143.517 120.858 139.13 121.708 139.565 125.196Z" fill="#E46D89"/>
<path d="M132.334 164.446C128.539 170.19 126.87 177.069 127.613 183.904L138.791 187.138L151.925 183.611C151.925 183.611 150.815 170.834 143.598 165.306C143.586 165.324 135.112 166.16 132.334 164.446Z" fill="#236CE4"/>
<path d="M130.205 176.528L129.8 184.548L138.73 187.138L138.945 187.077C135.458 184.076 132.503 180.51 130.205 176.528Z" fill="#0D439B"/>
<path d="M138.65 186.877L139.066 188.317L152.515 185.008L151.958 182.423L138.65 186.877Z" fill="#0D439B"/>
<path d="M126.555 182.717L138.522 186.546L138.945 188.022L126.698 185.37L126.555 182.717Z" fill="#0D439B"/>
<path opacity="0.3" d="M136.096 165.624C136.096 165.624 131.949 177.833 138.578 187.138L141.6 185.683C141.6 185.683 135.427 179.723 137.974 165.624H136.096Z" fill="#448BFF"/>
<path d="M134.225 234.469C134.225 234.469 138.601 235.521 139.092 237.827C139.092 237.827 140.103 235.234 141.01 234.291" stroke="#308761" stroke-width="4.11"/>
<path d="M153.695 235.312C153.695 235.312 149.235 235.765 148.594 237.532C148.594 237.532 147.755 235.405 146.91 234.585" stroke="#308761" stroke-width="3.81"/>
</g>
<defs>
<linearGradient id="paint0_linear_3_365" x1="148.233" y1="246.079" x2="148.233" y2="166.687" gradientUnits="userSpaceOnUse">
<stop stop-color="white"/>
<stop offset="1" stop-color="#3BC5CE"/>
</linearGradient>
<clipPath id="clip0_3_365">
<rect width="295" height="295" fill="white"/>
</clipPath>
</defs>
</svg>
