<svg width="28" height="28" viewBox="0 0 28 28" fill="none" xmlns="http://www.w3.org/2000/svg">
<path d="M16.7515 1.18521C16.7515 1.18521 12.7342 -1.70793 7.02709 1.54616C7.02709 1.54616 2.94602 3.9252 3.30949 10.2256C3.30949 10.2256 2.04691 13.1132 0 12.7523C0 12.7523 2.41038 14.1141 3.2521 14.2344C3.2521 14.2344 1.4475 14.9399 0.242313 14.4914C0.242313 14.4914 3.13095 15.8915 4.82076 15.886C4.82076 15.886 2.18082 16.7611 0.797084 16.1321C0.797084 16.1321 2.77385 17.6799 5.98132 17.2314C5.98132 17.2314 3.61557 18.3362 2.53154 18.5221C2.53154 18.5221 7.77316 19.966 9.57776 16.8705L16.5921 7.7973L18.6007 2.57982L16.7515 1.18521Z" fill="#3F2820"/>
<path d="M15.9671 0.857051C15.9671 0.857051 25.0475 -0.00159138 24.6649 10.5099C24.6649 10.5099 22.3502 15.9352 22.8221 17.6908C22.8221 17.6908 20.3479 18.2049 18.8813 15.8806L15.2338 4.83306C15.2338 4.83306 15.2593 1.42583 15.9671 0.857051Z" fill="#3F2820"/>
<path d="M15.2084 22.6895H13.5887C12.2113 22.6895 11.0954 21.7324 11.0954 20.5511V17.4556C11.0954 16.2743 12.2113 15.3172 13.5887 15.3172H15.2084C16.5857 15.3172 17.7016 16.2743 17.7016 17.4556V20.5511C17.7016 21.7324 16.5857 22.6895 15.2084 22.6895Z" fill="#EDBB98"/>
<path d="M17.7016 20.4363V20.4855C17.7016 21.6668 16.5857 22.6239 15.2083 22.6239H13.5887C12.2113 22.6239 11.0954 21.6668 11.0954 20.4855V20.4363C5.90479 21.3989 1.86835 24.3631 0.784319 27.9781C0.771566 28.0274 7.65199 27.9781 14.3921 27.9781C21.1323 27.9781 28.0191 28.0274 28 27.9781C26.9287 24.3576 22.8859 21.3989 17.7016 20.4363Z" fill="#3BC5CE"/>
<path d="M22.2632 13.7065C23.2888 13.8977 24.3706 13.0645 24.6795 11.8454C24.9884 10.6264 24.4075 9.48324 23.3819 9.29206C22.3564 9.10088 21.2746 9.9341 20.9657 11.1531C20.6567 12.3721 21.2377 13.5153 22.2632 13.7065Z" fill="#F4C5A2"/>
<path d="M5.41643 9.4348C4.39088 9.62598 3.80995 10.7692 4.11888 11.9882C4.42781 13.2072 5.50962 14.0404 6.53517 13.8492C7.56072 13.6581 8.14165 12.5149 7.83272 11.2959C7.52379 10.0768 6.44198 9.24362 5.41643 9.4348Z" fill="#F4C5A2"/>
<path d="M14.424 19.5394C18.9389 19.5394 22.5989 15.8763 22.5989 11.3576C22.5989 6.83901 18.9389 3.17593 14.424 3.17593C9.90917 3.17593 6.24915 6.83901 6.24915 11.3576C6.24915 15.8763 9.90917 19.5394 14.424 19.5394Z" fill="#F4C5A2"/>
<path d="M15.9672 9.24114C16.1585 8.95675 16.4518 8.74345 16.7834 8.57938C17.115 8.42078 17.5039 8.3278 17.8993 8.32233C18.097 8.3114 18.2946 8.33874 18.4923 8.37156C18.6836 8.42078 18.8749 8.46453 19.0407 8.5575C19.2129 8.63407 19.3659 8.74345 19.4998 8.85283C19.57 8.90752 19.6274 8.97315 19.6848 9.03878C19.7422 9.10441 19.7932 9.17004 19.8378 9.24114C19.6465 9.20832 19.4871 9.14816 19.3149 9.10988C19.1491 9.07707 18.9961 9.02784 18.8367 9.01144C18.6836 8.97862 18.5242 8.97315 18.3775 8.95128C18.2245 8.95128 18.0715 8.93487 17.9184 8.94034C17.6123 8.94581 17.3063 8.97862 16.9874 9.03331C16.6622 9.09347 16.337 9.16457 15.9672 9.24114Z" fill="#333333"/>
<path d="M17.8993 11.3577C18.4417 11.3577 18.8813 10.9806 18.8813 10.5155C18.8813 10.0503 18.4417 9.67322 17.8993 9.67322C17.357 9.67322 16.9173 10.0503 16.9173 10.5155C16.9173 10.9806 17.357 11.3577 17.8993 11.3577Z" fill="#333333"/>
<path d="M18.0651 10.1107C18.2024 10.1107 18.3138 10.0152 18.3138 9.89744C18.3138 9.77964 18.2024 9.68414 18.0651 9.68414C17.9278 9.68414 17.8164 9.77964 17.8164 9.89744C17.8164 10.0152 17.9278 10.1107 18.0651 10.1107Z" fill="#F2F2F2"/>
<path d="M9.01025 9.24114C9.20155 8.95675 9.49488 8.74345 9.82647 8.57938C10.1581 8.42078 10.547 8.3278 10.9424 8.32233C11.1401 8.3114 11.3377 8.33874 11.5354 8.37156C11.7267 8.42078 11.918 8.46453 12.0838 8.5575C12.256 8.63407 12.409 8.74345 12.5429 8.85283C12.6131 8.90752 12.6705 8.97315 12.7279 9.03878C12.7852 9.10441 12.8363 9.17004 12.8809 9.24114C12.6896 9.20832 12.5302 9.14816 12.358 9.10988C12.1922 9.07707 12.0392 9.02784 11.8798 9.01144C11.7267 8.97862 11.5673 8.97315 11.4206 8.95128C11.2676 8.95128 11.1146 8.93487 10.9615 8.94034C10.6554 8.94581 10.3494 8.97862 10.0305 9.03331C9.70531 9.09347 9.37372 9.16457 9.01025 9.24114Z" fill="#333333"/>
<path d="M10.9423 11.3577C11.4847 11.3577 11.9243 10.9806 11.9243 10.5155C11.9243 10.0503 11.4847 9.67322 10.9423 9.67322C10.4 9.67322 9.96033 10.0503 9.96033 10.5155C9.96033 10.9806 10.4 11.3577 10.9423 11.3577Z" fill="#333333"/>
<path d="M11.1018 10.1107C11.2391 10.1107 11.3505 10.0152 11.3505 9.89744C11.3505 9.77964 11.2391 9.68414 11.1018 9.68414C10.9644 9.68414 10.8531 9.77964 10.8531 9.89744C10.8531 10.0152 10.9644 10.1107 11.1018 10.1107Z" fill="#F2F2F2"/>
<path d="M11.4334 15.1258C11.9244 15.3063 12.4154 15.443 12.9128 15.536C13.4102 15.6235 13.9076 15.6782 14.4113 15.6673C14.5388 15.6727 14.66 15.6563 14.7875 15.6509C14.9151 15.6454 15.0362 15.6399 15.1638 15.6235C15.2913 15.6071 15.4125 15.5907 15.54 15.5798L15.9098 15.5087L16.0948 15.4758C16.1585 15.4649 16.2159 15.443 16.2797 15.4321L16.6559 15.3391C16.9046 15.2735 17.1469 15.186 17.4083 15.1258C17.2043 15.2735 16.9939 15.4212 16.7643 15.5469C16.5284 15.6563 16.2924 15.7876 16.031 15.8587C15.9035 15.9024 15.7759 15.9462 15.642 15.979C15.5081 16.0063 15.3742 16.0337 15.2403 16.061C15.1064 16.0938 14.9661 16.0993 14.8322 16.1103C14.6919 16.1212 14.558 16.1376 14.4177 16.1321C13.8629 16.1431 13.3082 16.0501 12.7916 15.8806C12.2815 15.7165 11.8033 15.4649 11.4334 15.1258Z" fill="#F4A56E"/>
<path d="M13.0403 13.3101C13.3017 13.3703 13.5377 13.4195 13.7672 13.4578C13.9968 13.496 14.2136 13.5179 14.4304 13.5179C14.6472 13.5179 14.864 13.507 15.0872 13.4632C15.202 13.4523 15.3104 13.414 15.4315 13.3921C15.5527 13.3703 15.6675 13.3265 15.8078 13.3046C15.744 13.4085 15.6611 13.5015 15.5654 13.589C15.4634 13.6656 15.3614 13.7476 15.2339 13.8023C14.9915 13.9281 14.7046 13.9828 14.4176 13.9828C14.1307 13.9828 13.8501 13.9117 13.6078 13.7968C13.3719 13.682 13.1614 13.5234 13.0403 13.3101Z" fill="#F4A56E"/>
<path d="M17.7016 4.83309C17.7016 4.83309 15.3677 8.42626 10.8594 9.24115C10.8594 9.24115 11.3122 8.60674 11.4333 7.5184C11.4333 7.5184 8.32152 8.40985 7.83052 11.2975C7.83052 11.2975 7.70299 12.8507 8.18124 13.6437C8.18124 13.6437 6.64446 11.6038 6.96329 9.89744C6.96329 9.89744 5.36275 8.77081 4.39349 10.1107C4.39349 10.1107 9.74352 0.0750084 17.8929 3.95257L17.7016 4.83309Z" fill="#3F2820"/>
<path d="M17.7016 4.83304C17.7016 4.83304 20.7752 6.41907 20.2906 9.2411C20.2906 9.2411 20.7306 9.06062 21.0749 8.08713C21.0749 8.08713 21.4384 9.43252 20.654 11.1334C20.654 11.1334 21.8529 10.149 21.9166 9.6841C21.9166 9.6841 21.6743 12.5882 20.9538 13.3046C20.9538 13.3046 22.3502 11.2045 22.8285 9.28485C22.8285 9.28485 22.4268 4.18222 15.9736 3.26889L17.7016 4.83304Z" fill="#3F2820"/>
<path d="M14.4623 24.0841C15.3216 24.0841 16.0182 23.7462 16.0182 23.3294C16.0182 22.9126 15.3216 22.5747 14.4623 22.5747C13.603 22.5747 12.9064 22.9126 12.9064 23.3294C12.9064 23.7462 13.603 24.0841 14.4623 24.0841Z" fill="#110102"/>
<path d="M11.1018 20.4363L14.4623 22.4927L12.205 24.8116C12.205 24.8061 10.158 22.0278 11.1018 20.4363Z" fill="#1C8F97"/>
<path d="M17.7016 20.4363L14.3411 22.4927L16.5985 24.8116C16.5985 24.8061 18.639 22.0278 17.7016 20.4363Z" fill="#1C8F97"/>
<path d="M16.8408 27.9781L15.1063 23.8162H13.6843L11.9435 27.9781H14.3921H16.8408Z" fill="#110102"/>
</svg>
