<svg width="1778" height="1668" viewBox="0 0 1778 1668" fill="none" xmlns="http://www.w3.org/2000/svg">
<g id="pool-wheel">
<g id="background-complete">
<path id="Vector" d="M220.484 1571.35C246.216 1607.22 288.154 1629.3 331.552 1637.4C374.95 1645.51 419.884 1640.75 462.936 1630.99C472.355 1629.32 481.437 1626.11 489.82 1621.51C494.001 1619.18 497.629 1615.98 500.454 1612.12C503.278 1608.27 505.232 1603.84 506.181 1599.15C508.408 1584.14 495.965 1569.97 481.486 1565.4C466.885 1560.81 451.06 1562.19 437.474 1569.24C423.39 1576.4 407.718 1579.88 391.925 1579.34C358.359 1579.34 329.67 1551.45 296.258 1548.19C268.299 1545.5 241.454 1558.37 216.605 1571.46" fill="#EBEBEB"/>
<path id="Vector_2" d="M516.127 1630.91C483.227 1636.98 450.676 1644.82 418.617 1654.38C416.351 1655.03 413.739 1656.11 413.24 1658.41C412.549 1661.45 416.044 1663.64 419.001 1664.6C440.661 1671.51 464.088 1665.29 485.979 1659.1L523.501 1648.47C528.34 1647.08 534.14 1644.63 534.447 1639.59C534.353 1637.82 533.701 1636.12 532.583 1634.74C531.466 1633.36 529.94 1632.37 528.225 1631.91C524.711 1631.06 521.052 1631 517.51 1631.72" fill="#EBEBEB"/>
<path id="Vector_3" d="M1046.89 1439.2C1004.65 1445.48 963.726 1458.67 925.757 1478.22C921.917 1480.29 917.385 1482.98 916.694 1487.39C915.58 1494.31 923.837 1498.65 930.673 1500.14C962.895 1507.02 996.308 1500.49 1028.64 1493.96C1040.17 1491.62 1052.19 1489.12 1061.83 1482.44C1071.47 1475.76 1078.15 1463.24 1074.62 1451.72C1071.08 1440.19 1054.61 1434.43 1046.58 1443.11" fill="#EBEBEB"/>
<path id="Vector_4" d="M736.996 106.574H1112.37C1112.37 106.574 1079.15 46.3162 982.558 54.9573C890.386 63.3681 885.585 25.2317 838.654 20.3926C791.723 15.5536 752.665 51.8465 736.996 106.574Z" fill="#F5F5F5"/>
<path id="Vector_5" d="M1081.84 432.135L1033.83 640.483L1054.15 640.445L1102.23 434.093L1081.84 432.135Z" fill="#E0E0E0"/>
<path id="Vector_6" d="M1169.36 432.135L1217.52 640.483H1236.8L1190.22 432.135H1169.36Z" fill="#E0E0E0"/>
<path id="Vector_7" d="M1049.46 275.633L1076.77 419.077H1107.8L1078.65 275.633H1049.46Z" fill="#E0E0E0"/>
<path id="Vector_8" d="M573.543 432.135L534.408 640.483H554.302L595.204 432.135H573.543Z" fill="#E0E0E0"/>
<path id="Vector_9" d="M655.846 432.135L700.588 639.369H720.29L677.084 432.135H655.846Z" fill="#E0E0E0"/>
<path id="Vector_10" d="M541.129 275.633L568.474 419.077H599.505L570.317 275.633H541.129Z" fill="#E0E0E0"/>
<path id="Vector_11" d="M479.681 262.614L485.25 288.691H1108.76L1101.46 262.614H479.681Z" fill="#EBEBEB"/>
<path id="Vector_12" d="M491.587 313.271L498.154 339.348H1117.44L1111.79 313.271H491.587Z" fill="#EBEBEB"/>
<path id="Vector_13" d="M503.876 365.693L510.021 391.77H1127.38L1121.55 365.693H503.876Z" fill="#EBEBEB"/>
<path id="Vector_14" d="M1216.79 419.115H551.076V445.192H1216.79V419.115Z" fill="#EBEBEB"/>
<path id="Vector_15" d="M1110.41 40.2865H1285.31C1285.31 40.2865 1269.94 12.1355 1224.82 16.2448C1181.84 20.0853 1179.65 2.38055 1157.8 0.191458C1135.95 -1.99764 1117.71 14.7854 1110.41 40.2865Z" fill="#EBEBEB"/>
<path id="Vector_16" d="M1443.88 93.1705C1443.88 93.1705 1412.77 95.0523 1424.68 163.798C1436.58 232.543 1448.84 268.375 1448.84 268.375C1448.84 268.375 1449.99 283.737 1437.7 282.393C1425.41 281.049 1401.14 269.028 1391.61 281.663C1382.09 294.298 1388.16 311.926 1406.09 330.783C1424.03 349.64 1461.89 392.232 1465.27 396.264C1468.65 400.297 1470.8 407.786 1462.28 408.131C1453.75 408.477 1394.42 396.84 1390.58 425.337C1386.73 453.834 1445.38 498.307 1451.72 503.108C1458.05 507.908 1458.78 511.633 1457.02 515.397C1455.25 519.161 1435.62 513.362 1418.61 510.75C1401.6 508.139 1381.43 508.062 1380.59 524.691C1379.74 541.321 1408.89 585.717 1501.03 624.199L1544.85 639.216L1580.45 609.221C1652.73 540.322 1664.06 488.437 1657.26 473.19C1650.46 457.943 1631.68 465.24 1616.74 473.804C1601.8 482.369 1585.6 494.735 1582.56 491.893C1579.53 489.051 1578.99 485.403 1583.14 478.49C1587.29 471.577 1626.19 409.36 1612.4 384.013C1598.62 358.666 1547.38 390.888 1539.43 393.614C1531.48 396.341 1530.64 388.353 1532.41 383.591C1534.17 378.828 1554.22 325.291 1564.24 301.25C1574.27 277.208 1574.11 259.004 1560.21 250.209C1546.31 241.414 1528.33 261.731 1517.39 267.376C1506.44 273.022 1502.03 258.274 1502.03 258.274C1502.03 258.274 1500.38 220.484 1487.05 152.007C1473.72 83.5307 1443.34 93.2473 1443.34 93.2473" fill="#EBEBEB"/>
<path id="Vector_17" d="M1544 639.331C1534.4 588.981 1518.89 510.251 1505.18 433.287C1491.47 356.323 1478.98 286.656 1469.65 236.268C1464.97 211.151 1461.16 190.758 1458.55 176.625C1457.25 169.635 1456.25 164.182 1455.52 160.418C1455.21 158.574 1454.98 157.192 1454.79 156.193C1454.6 155.195 1454.6 154.734 1454.6 154.734L1454.94 156.155C1455.13 157.153 1455.44 158.536 1455.83 160.341C1456.59 164.182 1457.67 169.558 1459.09 176.51C1461.93 190.566 1465.85 211.074 1470.61 236.076C1480.17 286.425 1492.85 356.054 1506.56 433.018C1520.27 509.982 1535.63 588.751 1544.96 639.139" fill="#E0E0E0"/>
<path id="Vector_18" d="M1424.99 299.791C1425.98 300.301 1426.92 300.906 1427.79 301.596C1429.56 302.825 1432.09 304.668 1435.16 307.011C1441.27 311.658 1449.6 318.302 1458.63 325.829L1481.67 345.032L1488.7 350.831C1489.61 351.486 1490.44 352.232 1491.2 353.059C1490.17 352.6 1489.22 352.006 1488.36 351.292C1486.59 350.063 1484.09 348.181 1481.06 345.838C1474.95 341.115 1466.73 334.317 1457.71 326.866L1434.66 307.664L1427.6 301.864C1426.64 301.29 1425.76 300.593 1424.99 299.791V299.791Z" fill="#E0E0E0"/>
<path id="Vector_19" d="M1495.11 351.176C1494.77 350.946 1507.75 333.203 1524.03 311.581C1540.32 289.959 1553.84 272.599 1554.14 272.83C1554.45 273.06 1541.51 290.804 1525.19 312.426C1508.86 334.048 1495.42 351.407 1495.11 351.176Z" fill="#E0E0E0"/>
<path id="Vector_20" d="M1510.86 470.348C1510.86 470.348 1511.74 469.465 1513.47 468.159L1520.92 462.59C1527.22 457.866 1535.86 451.337 1545.16 443.771C1554.45 436.206 1562.63 429.101 1568.51 423.878L1575.5 417.733C1576.29 416.917 1577.18 416.195 1578.15 415.582C1577.5 416.531 1576.74 417.395 1575.88 418.155C1574.34 419.691 1572.04 421.996 1569.2 424.646C1563.48 430.061 1555.37 437.319 1546.15 444.885C1536.94 452.451 1528.07 458.903 1521.61 463.397C1518.39 465.662 1515.74 467.429 1513.93 468.62C1512.97 469.294 1511.94 469.873 1510.86 470.348V470.348Z" fill="#E0E0E0"/>
<path id="Vector_21" d="M1437.31 437.742C1438.36 437.936 1439.38 438.259 1440.35 438.702L1448.34 441.889C1455.06 444.616 1464.31 448.495 1474.49 452.835C1484.67 457.175 1493.89 461.207 1500.53 464.357L1508.21 467.967C1509.2 468.344 1510.15 468.848 1511.01 469.464C1509.97 469.242 1508.95 468.907 1507.98 468.466L1499.99 465.317C1493.27 462.59 1484.02 458.711 1473.84 454.333C1463.66 449.955 1454.44 445.999 1447.8 443.003L1440.12 439.432C1439.12 438.974 1438.18 438.407 1437.31 437.742Z" fill="#E0E0E0"/>
<path id="Vector_22" d="M1437.7 544.7C1439.02 544.997 1440.3 545.422 1441.54 545.968L1451.79 550C1460.43 553.457 1472.34 558.334 1485.47 563.788C1498.61 569.241 1510.4 574.234 1518.96 577.921L1529.06 582.376C1530.32 582.877 1531.52 583.48 1532.67 584.181C1531.35 583.907 1530.06 583.481 1528.83 582.913L1518.58 578.881C1509.94 575.424 1498.03 570.547 1484.9 565.093C1471.76 559.64 1459.97 554.647 1451.41 550.96L1441.35 546.505C1440.08 546.008 1438.86 545.404 1437.7 544.7V544.7Z" fill="#E0E0E0"/>
<path id="Vector_23" d="M1530.68 582.606C1531.68 581.568 1532.78 580.617 1533.94 579.764L1543.12 572.352C1550.8 566.092 1561.56 557.412 1573.08 547.504C1584.6 537.595 1594.81 528.301 1602.15 521.619L1610.87 513.669C1611.9 512.647 1613.01 511.698 1614.17 510.827C1613.31 511.996 1612.33 513.076 1611.25 514.053C1609.29 516.05 1606.45 518.892 1602.88 522.387C1595.7 529.3 1585.6 538.67 1574.04 548.579C1562.48 558.488 1551.69 567.09 1543.77 573.158C1539.93 576.192 1536.55 578.573 1534.29 580.225C1533.15 581.117 1531.94 581.914 1530.68 582.606V582.606Z" fill="#E0E0E0"/>
</g>
<g id="ball">
<path id="Vector_24" d="M386.471 1418.38C387.447 1421.38 387.94 1424.52 387.931 1427.67C387.935 1433.97 385.99 1440.12 382.362 1445.26C451.952 1505.64 450.07 1550.53 449.994 1551.65C460.165 1538.96 468.29 1524.75 474.074 1509.55C474.112 1508.59 475.917 1426.18 386.471 1418.38Z" fill="#3BC5CE"/>
<path id="Vector_25" d="M361.508 1457.9C360.147 1458.1 358.774 1458.2 357.399 1458.21C354.566 1458.21 351.747 1457.81 349.026 1457.02C337.228 1491.6 315.738 1522.06 287.117 1544.77C314.001 1544.46 338.657 1559.67 363.928 1569.35C378.099 1533.29 370.61 1489.24 361.508 1457.9Z" fill="#3BC5CE"/>
<path id="Vector_26" d="M397.302 1312.04C400.374 1313.57 403.37 1315.22 406.289 1316.91C403.37 1315.22 400.374 1313.69 397.302 1312.04Z" fill="#3BC5CE"/>
<path id="Vector_27" d="M330.822 1411.85C333.166 1407.89 336.37 1404.5 340.199 1401.94C344.029 1399.38 348.384 1397.71 352.944 1397.06C355.203 1364.49 366.7 1333.24 386.087 1306.97C368.489 1299.81 349.738 1295.91 330.746 1295.44C291.611 1341.45 310.429 1385.01 330.822 1411.85Z" fill="#3BC5CE"/>
<path id="Vector_28" d="M332.167 1444.84C331.413 1443.74 330.746 1442.59 330.17 1441.38C329.939 1440.96 329.747 1440.54 329.555 1440.12C329.363 1439.69 329.171 1439.2 328.979 1438.73C327.438 1435.09 326.641 1431.17 326.636 1427.21C232.083 1387.12 217.873 1339.96 217.604 1338.88C202.155 1353.6 189.859 1371.3 181.461 1390.92C173.064 1410.53 168.74 1431.65 168.752 1452.98C168.752 1456.82 168.944 1460.89 169.252 1464.77C228.357 1498.92 296.373 1467.31 332.167 1444.84Z" fill="#3BC5CE"/>
<path id="Vector_29" d="M455.102 1361.5C446.743 1349.83 436.848 1339.34 425.683 1330.32C436.801 1339.39 446.69 1349.87 455.102 1361.5Z" fill="#3BC5CE"/>
<path id="Vector_30" d="M371.954 1400.56C376.108 1402.88 379.66 1406.14 382.324 1410.08C382.938 1410.97 383.553 1411.89 384.09 1412.85C403.907 1404.48 448.15 1390.81 480.449 1417.69C475.876 1397.79 467.461 1378.98 455.678 1362.31C416.773 1349.94 388.853 1375.98 371.954 1400.56Z" fill="#3BC5CE"/>
<path id="Vector_31" d="M407.325 1317.53C410.321 1319.29 413.201 1321.18 416.043 1323.1C413.201 1321.37 410.321 1319.29 407.325 1317.53Z" fill="#3BC5CE"/>
<path id="Vector_32" d="M417.426 1324.1C419.961 1325.9 422.496 1327.94 424.915 1329.7C422.496 1327.78 419.961 1325.9 417.426 1324.1Z" fill="#3BC5CE"/>
<path id="Vector_33" d="M170.788 1478.56C170.788 1477.52 170.481 1476.53 170.365 1475.57C170.481 1476.56 170.634 1477.56 170.788 1478.56Z" fill="#3BC5CE"/>
<path id="Vector_34" d="M169.943 1471.15C169.943 1469.92 169.674 1468.84 169.597 1467.96L169.943 1471.15Z" fill="#3BC5CE"/>
<path id="Vector_35" d="M386.587 1307.16C390.043 1308.58 393.384 1310.08 396.649 1311.69C393.346 1310.08 390.005 1308.54 386.587 1307.16Z" fill="#3BC5CE"/>
<path id="Vector_36" opacity="0.4" d="M416.043 1323.1L417.426 1324.1L416.043 1323.1Z" fill="white"/>
<path id="Vector_37" opacity="0.4" d="M330.746 1295.45C330.746 1295.45 262.96 1289.49 217.565 1339.11C246.882 1310.97 285.96 1295.28 326.598 1295.33C328.019 1295.33 329.363 1295.41 330.746 1295.45Z" fill="white"/>
<path id="Vector_38" opacity="0.4" d="M170.366 1475.57C170.135 1474.03 169.943 1472.53 169.789 1471C169.943 1472.34 169.943 1473.84 170.366 1475.57Z" fill="white"/>
<path id="Vector_39" opacity="0.4" d="M433.403 1569.5L435.63 1568.54C440.869 1563.34 445.673 1557.71 449.994 1551.72V1551.72C444.926 1558.07 439.38 1564.01 433.403 1569.5Z" fill="white"/>
<path id="Vector_40" opacity="0.4" d="M480.449 1417.69C483.134 1429.34 484.5 1441.26 484.52 1453.21C484.521 1472.48 480.98 1491.57 474.074 1509.55V1509.55C485.974 1480.38 488.221 1448.16 480.487 1417.61L480.449 1417.69Z" fill="white"/>
<path id="Vector_41" opacity="0.4" d="M455.716 1362.31L455.102 1361.5L455.678 1362.31H455.716Z" fill="white"/>
<path id="Vector_42" opacity="0.4" d="M170.788 1478.56C174.283 1500.61 185.152 1544.35 218.372 1569.97L219.716 1569.35C193.689 1545.43 176.457 1513.45 170.788 1478.56V1478.56Z" fill="white"/>
<path id="Vector_43" opacity="0.4" d="M424.915 1329.7L425.683 1330.32L424.915 1329.7Z" fill="white"/>
<path id="Vector_44" opacity="0.4" d="M386.088 1306.93L386.587 1307.12L386.088 1306.93Z" fill="white"/>
<path id="Vector_45" opacity="0.4" d="M396.534 1311.69L397.187 1312.04L396.534 1311.69Z" fill="white"/>
<path id="Vector_46" opacity="0.4" d="M406.289 1316.91L407.326 1317.53L406.289 1316.91Z" fill="white"/>
<path id="Vector_47" d="M382.362 1445.26C379.932 1448.68 376.829 1451.57 373.242 1453.74C369.656 1455.91 365.662 1457.33 361.508 1457.9C370.61 1489.24 378.099 1533.29 364.12 1569.27C377.269 1574.93 391.525 1577.56 405.828 1576.96C415.364 1575.97 424.677 1573.44 433.403 1569.47C439.383 1563.95 444.929 1557.98 449.994 1551.61C450.07 1550.53 451.952 1505.71 382.362 1445.26Z" fill="#3BC5CE"/>
<path id="Vector_48" opacity="0.4" d="M382.362 1445.26C379.932 1448.68 376.829 1451.57 373.242 1453.74C369.656 1455.91 365.662 1457.33 361.508 1457.9C370.61 1489.24 378.099 1533.29 364.12 1569.27C377.269 1574.93 391.525 1577.56 405.828 1576.96C415.364 1575.97 424.677 1573.44 433.403 1569.47C439.383 1563.95 444.929 1557.98 449.994 1551.61C450.07 1550.53 451.952 1505.71 382.362 1445.26Z" fill="white"/>
<path id="Vector_49" d="M349.026 1457.02C342.162 1455.04 336.2 1450.74 332.167 1444.84C296.373 1467.15 228.473 1498.92 169.252 1465C169.252 1465.96 169.252 1466.89 169.252 1467.81C169.252 1468.73 169.444 1469.77 169.597 1470.99C169.751 1472.22 169.943 1474.03 170.173 1475.56C170.404 1477.1 170.442 1477.52 170.596 1478.56C176.358 1513.5 193.715 1545.48 219.87 1569.35C240.532 1559.79 260.464 1546.61 283.008 1544.92C284.467 1544.92 285.888 1544.92 287.271 1544.92C315.859 1522.15 337.296 1491.63 349.026 1457.02Z" fill="#3BC5CE"/>
<path id="Vector_50" opacity="0.4" d="M349.026 1457.02C342.162 1455.04 336.2 1450.74 332.167 1444.84C296.373 1467.15 228.473 1498.92 169.252 1465C169.252 1465.96 169.252 1466.89 169.252 1467.81C169.252 1468.73 169.444 1469.77 169.597 1470.99C169.751 1472.22 169.943 1474.03 170.173 1475.56C170.404 1477.1 170.442 1477.52 170.596 1478.56C176.358 1513.5 193.715 1545.48 219.87 1569.35C240.532 1559.79 260.464 1546.61 283.008 1544.92C284.467 1544.92 285.888 1544.92 287.271 1544.92C315.859 1522.15 337.296 1491.63 349.026 1457.02Z" fill="white"/>
<path id="Vector_51" d="M480.449 1417.69C448.15 1390.8 403.907 1404.48 384.09 1412.85C385.063 1414.61 385.861 1416.46 386.471 1418.38C475.917 1426.06 474.112 1508.59 474.074 1509.63C480.989 1491.63 484.53 1472.5 484.52 1453.21C484.5 1441.26 483.134 1429.34 480.449 1417.69V1417.69Z" fill="#3BC5CE"/>
<path id="Vector_52" opacity="0.4" d="M480.449 1417.69C448.15 1390.8 403.907 1404.48 384.09 1412.85C385.063 1414.61 385.861 1416.46 386.471 1418.38C475.917 1426.06 474.112 1508.59 474.074 1509.63C480.989 1491.63 484.53 1472.5 484.52 1453.21C484.5 1441.26 483.134 1429.34 480.449 1417.69V1417.69Z" fill="white"/>
<path id="Vector_53" d="M330.17 1441.38C329.939 1440.96 329.747 1440.54 329.555 1440.12C329.747 1440.42 329.939 1440.96 330.17 1441.38Z" fill="#3BC5CE"/>
<path id="Vector_54" opacity="0.4" d="M330.17 1441.38C329.939 1440.96 329.747 1440.54 329.555 1440.12C329.747 1440.42 329.939 1440.96 330.17 1441.38Z" fill="white"/>
<path id="Vector_55" d="M326.636 1427.33C326.641 1431.29 327.438 1435.2 328.979 1438.85C327.586 1435.33 326.87 1431.58 326.867 1427.79C326.85 1421.3 328.905 1414.97 332.731 1409.73C336.557 1404.49 341.955 1400.61 348.141 1398.65C354.327 1396.68 360.977 1396.75 367.125 1398.82C373.272 1400.9 378.597 1404.89 382.324 1410.2C379.66 1406.26 376.108 1403 371.954 1400.68C388.776 1376.1 416.773 1350.06 455.678 1362.27L455.102 1361.46C446.69 1349.84 436.801 1339.35 425.683 1330.28L424.915 1329.66C422.496 1327.74 419.961 1325.82 417.426 1324.06L416.043 1323.06C413.202 1321.14 410.321 1319.22 407.325 1317.49L406.289 1316.87C403.37 1315.19 400.374 1313.53 397.302 1312L396.649 1311.65C393.384 1310.04 390.043 1308.54 386.587 1307.12L386.087 1306.93C366.7 1333.2 355.203 1364.45 352.944 1397.03C348.384 1397.68 344.029 1399.34 340.199 1401.9C336.37 1404.46 333.166 1407.85 330.822 1411.81C310.429 1384.93 291.611 1341.42 330.822 1295.41C329.44 1295.41 328.096 1295.41 326.713 1295.41C286.075 1295.35 246.997 1311.05 217.681 1339.19C217.873 1340.07 232.083 1387.23 326.636 1427.33Z" fill="#3BC5CE"/>
<path id="Vector_56" opacity="0.4" d="M326.636 1427.33C326.641 1431.29 327.438 1435.2 328.979 1438.85C327.586 1435.33 326.87 1431.58 326.867 1427.79C326.85 1421.3 328.905 1414.97 332.731 1409.73C336.557 1404.49 341.955 1400.61 348.141 1398.65C354.327 1396.68 360.977 1396.75 367.125 1398.82C373.272 1400.9 378.597 1404.89 382.324 1410.2C379.66 1406.26 376.108 1403 371.954 1400.68C388.776 1376.1 416.773 1350.06 455.678 1362.27L455.102 1361.46C446.69 1349.84 436.801 1339.35 425.683 1330.28L424.915 1329.66C422.496 1327.74 419.961 1325.82 417.426 1324.06L416.043 1323.06C413.202 1321.14 410.321 1319.22 407.325 1317.49L406.289 1316.87C403.37 1315.19 400.374 1313.53 397.302 1312L396.649 1311.65C393.384 1310.04 390.043 1308.54 386.587 1307.12L386.087 1306.93C366.7 1333.2 355.203 1364.45 352.944 1397.03C348.384 1397.68 344.029 1399.34 340.199 1401.9C336.37 1404.46 333.166 1407.85 330.822 1411.81C310.429 1384.93 291.611 1341.42 330.822 1295.41C329.44 1295.41 328.096 1295.41 326.713 1295.41C286.075 1295.35 246.997 1311.05 217.681 1339.19C217.873 1340.07 232.083 1387.23 326.636 1427.33Z" fill="white"/>
<path id="Vector_57" d="M357.399 1397.14C349.283 1397.14 341.497 1400.35 335.741 1406.07C329.985 1411.79 326.725 1419.56 326.675 1427.67C326.678 1431.46 327.394 1435.21 328.787 1438.73C328.787 1439.2 329.133 1439.66 329.363 1440.12C329.593 1440.58 329.747 1440.96 329.977 1441.38C330.554 1442.59 331.221 1443.74 331.974 1444.84C336.008 1450.74 341.97 1455.04 348.834 1457.02C351.555 1457.81 354.374 1458.21 357.207 1458.21C358.582 1458.2 359.955 1458.1 361.316 1457.9C368.636 1456.92 375.352 1453.32 380.213 1447.76C385.073 1442.2 387.748 1435.06 387.739 1427.67C387.747 1424.52 387.255 1421.38 386.279 1418.38C385.669 1416.46 384.871 1414.61 383.898 1412.85C383.361 1411.89 382.746 1410.97 382.132 1410.08C379.339 1406.11 375.638 1402.86 371.335 1400.61C367.033 1398.36 362.255 1397.17 357.399 1397.14V1397.14Z" fill="#FAFAFA"/>
</g>
<g id="Pool">
<path id="Vector_58" d="M615.635 999.61C615.326 1000.06 614.965 1000.47 614.56 1000.84C613.459 1002.02 612.265 1003.11 610.988 1004.1C606.138 1008 600.486 1010.78 594.436 1012.25C584.858 1014.54 574.913 1014.85 565.209 1013.17C559.151 1012.27 553.178 1010.87 547.351 1008.98C541.168 1006.98 534.792 1004.49 528.148 1001.84C521.504 999.188 514.514 996.384 507.102 993.965C499.457 991.334 491.53 989.607 483.483 988.818C474.874 988.05 466.196 988.91 457.905 991.353C449.115 994.059 440.601 997.595 432.481 1001.91C424.032 1006.18 415.544 1010.94 406.481 1015.13C397.262 1019.6 387.401 1022.61 377.254 1024.04C366.647 1025.08 355.938 1024.05 345.724 1021C335.328 1017.88 325.164 1014.03 315.307 1009.48C305.283 1005.1 295.413 1000.69 285.312 997.383C275.446 993.912 265.046 992.209 254.588 992.352C244.548 992.771 234.675 995.064 225.477 999.111C216.337 1002.95 207.734 1007.37 199.246 1011.63C191.046 1015.93 182.535 1019.6 173.784 1022.61C165.398 1025.42 156.583 1026.72 147.745 1026.46C139.609 1025.99 131.574 1024.43 123.857 1021.81C116.176 1019.43 109.416 1016.51 102.772 1013.74C96.1283 1010.98 89.8682 1008.29 83.8002 1006.06C78.0928 1004.02 72.2211 1002.46 66.2491 1001.42C56.7222 999.452 46.8952 999.452 37.3683 1001.42C31.3809 1002.74 25.7568 1005.36 20.8925 1009.1C17.5897 1011.67 16.1687 1013.47 16.0535 1013.36C16.378 1012.92 16.7377 1012.51 17.1288 1012.13C18.1836 1010.91 19.354 1009.79 20.6237 1008.79C25.4644 1004.87 31.1202 1002.09 37.1763 1000.65C46.7429 998.556 56.6354 998.439 66.2491 1000.3C72.2879 1001.35 78.2245 1002.91 83.9922 1004.99C90.0987 1007.14 96.4355 1009.79 103.195 1012.67C109.954 1015.55 116.79 1018.24 124.241 1020.58C131.901 1023.14 139.872 1024.65 147.937 1025.07C156.572 1025.31 165.181 1024.01 173.361 1021.23C182.045 1018.19 190.491 1014.5 198.632 1010.21C207.081 1005.95 215.684 1001.38 224.939 997.575C234.354 993.421 244.461 991.063 254.742 990.623C265.369 990.474 275.939 992.203 285.965 995.731C296.227 999.275 306.303 1003.34 316.152 1007.91C325.93 1012.42 336.002 1016.27 346.3 1019.43C356.25 1022.41 366.685 1023.43 377.024 1022.42C386.973 1021.06 396.643 1018.13 405.674 1013.74C414.661 1009.6 423.148 1004.87 431.674 1000.61C439.908 996.264 448.537 992.715 457.444 990.009C465.942 987.544 474.824 986.684 483.637 987.474C491.792 988.345 499.82 990.149 507.563 992.851C515.052 995.347 522.042 998.189 528.686 1000.88C535.33 1003.57 541.667 1006.1 547.889 1008.1C553.636 1010.02 559.532 1011.47 565.517 1012.44C575.088 1014.17 584.908 1013.96 594.397 1011.82C600.387 1010.47 606.018 1007.85 610.912 1004.14C614.099 1001.22 615.443 999.495 615.635 999.61Z" fill="#263238"/>
<path id="Vector_59" d="M1733.03 1024.34C1733.03 1024.34 1732.69 1024.77 1731.92 1025.53C1730.83 1026.72 1729.65 1027.81 1728.39 1028.8C1723.53 1032.71 1717.86 1035.49 1711.8 1036.94C1702.22 1039.23 1692.28 1039.56 1682.57 1037.9C1676.51 1036.98 1670.54 1035.56 1664.71 1033.68C1658.53 1031.68 1652.15 1029.18 1645.51 1026.53C1638.86 1023.88 1631.84 1021.08 1624.42 1018.85C1616.79 1016.19 1608.86 1014.45 1600.81 1013.67C1592.19 1012.89 1583.51 1013.77 1575.23 1016.24C1566.44 1018.91 1557.94 1022.43 1549.84 1026.76C1541.39 1031.03 1532.87 1035.79 1523.8 1039.97C1514.59 1044.45 1504.72 1047.46 1494.58 1048.88C1483.97 1049.92 1473.26 1048.89 1463.05 1045.85C1452.66 1042.71 1442.49 1038.86 1432.63 1034.33C1422.61 1029.91 1412.73 1025.5 1402.67 1022.19C1392.81 1018.73 1382.41 1017.02 1371.95 1017.16C1361.91 1017.58 1352.04 1019.87 1342.84 1023.92C1333.7 1027.76 1325.13 1032.18 1316.61 1036.44C1308.38 1040.77 1299.85 1044.46 1291.07 1047.5C1282.69 1050.3 1273.89 1051.6 1265.07 1051.34C1256.85 1050.89 1248.74 1049.32 1240.95 1046.66C1233.27 1044.28 1226.47 1041.36 1219.83 1038.59C1213.18 1035.83 1206.92 1033.14 1200.89 1030.91C1195.2 1028.83 1189.34 1027.24 1183.38 1026.15C1173.87 1024.18 1164.05 1024.18 1154.54 1026.15C1148.54 1027.47 1142.9 1030.09 1138.02 1033.83C1134.72 1036.44 1133.34 1038.21 1133.22 1038.09C1133.11 1037.98 1133.53 1037.63 1134.3 1036.86C1135.33 1035.62 1136.5 1034.5 1137.79 1033.52C1142.62 1029.59 1148.28 1026.81 1154.34 1025.38C1163.95 1023.21 1173.9 1023.04 1183.57 1024.88C1189.61 1025.93 1195.55 1027.49 1201.31 1029.57C1207.42 1031.72 1213.76 1034.37 1220.52 1037.25C1227.28 1040.13 1234.07 1042.82 1241.52 1045.16C1249.18 1047.72 1257.16 1049.23 1265.22 1049.65C1273.86 1049.87 1282.46 1048.57 1290.64 1045.81C1299.33 1042.75 1307.77 1039.05 1315.92 1034.75C1324.36 1030.49 1333.01 1025.92 1342.26 1022.12C1351.66 1017.96 1361.76 1015.6 1372.03 1015.16C1382.67 1015.02 1393.25 1016.75 1403.29 1020.27C1413.5 1023.58 1423.41 1027.95 1433.44 1032.45C1443.21 1036.96 1453.29 1040.81 1463.58 1043.97C1473.54 1046.94 1483.97 1047.97 1494.31 1047C1504.25 1045.61 1513.92 1042.67 1522.96 1038.28C1531.94 1034.14 1540.47 1029.41 1548.96 1025.15C1557.19 1020.81 1565.82 1017.26 1574.73 1014.55C1583.22 1012.08 1592.11 1011.23 1600.92 1012.05C1609.09 1012.9 1617.13 1014.69 1624.89 1017.39C1632.34 1019.89 1639.33 1022.73 1645.97 1025.42C1652.61 1028.11 1658.99 1030.64 1665.17 1032.68C1670.92 1034.58 1676.82 1036.02 1682.8 1036.98C1692.36 1038.71 1702.17 1038.5 1711.64 1036.36C1717.64 1035.02 1723.27 1032.4 1728.16 1028.68C1731.31 1025.92 1732.77 1024.23 1733.03 1024.34Z" fill="#263238"/>
<path id="Vector_60" d="M1678.19 1410.16C1677.92 1410.54 1677.62 1410.89 1677.27 1411.2C1676.37 1412.22 1675.36 1413.14 1674.27 1413.96C1670.18 1417.29 1665.39 1419.65 1660.26 1420.88C1652.16 1422.85 1643.74 1423.14 1635.52 1421.72C1630.41 1420.94 1625.36 1419.76 1620.43 1418.19C1615.17 1416.5 1609.79 1414.35 1604.15 1412.16C1592.89 1407.78 1580.49 1402.44 1566.39 1401.14C1559.13 1400.5 1551.8 1401.24 1544.81 1403.33C1537.39 1405.6 1530.2 1408.59 1523.34 1412.24C1516.24 1415.85 1509.02 1419.92 1501.37 1423.41C1493.57 1427.24 1485.21 1429.83 1476.6 1431.09C1467.56 1431.99 1458.42 1431.1 1449.72 1428.48C1440.93 1425.81 1432.33 1422.56 1423.99 1418.73C1415.5 1414.89 1407.17 1411.24 1398.64 1408.47C1390.37 1405.54 1381.64 1404.1 1372.87 1404.21C1364.4 1404.58 1356.07 1406.51 1348.29 1409.89C1340.61 1413.08 1333.31 1416.88 1326.13 1420.49C1319.17 1424.15 1311.94 1427.28 1304.51 1429.86C1297.41 1432.26 1289.95 1433.39 1282.46 1433.2C1267.87 1432.51 1255.35 1426.94 1244.06 1422.37C1234.25 1417.72 1223.94 1414.2 1213.34 1411.89C1205.3 1410.24 1197.02 1410.24 1188.99 1411.89C1183.92 1413.01 1179.16 1415.22 1175.05 1418.38C1172.24 1420.57 1171.2 1422.03 1170.94 1421.95C1170.67 1421.88 1171.2 1421.57 1171.86 1420.88C1172.74 1419.85 1173.72 1418.91 1174.78 1418.07C1178.85 1414.71 1183.65 1412.34 1188.79 1411.16C1196.92 1409.3 1205.34 1409.14 1213.53 1410.7C1224.28 1412.9 1234.73 1416.36 1244.67 1420.99C1255.85 1425.49 1268.33 1430.86 1282.46 1431.48C1289.75 1431.61 1297 1430.46 1303.89 1428.1C1311.24 1425.53 1318.38 1422.41 1325.25 1418.76C1332.39 1415.15 1339.69 1411.08 1347.52 1408.05C1355.5 1404.55 1364.05 1402.55 1372.76 1402.17C1381.77 1402.05 1390.74 1403.52 1399.25 1406.51C1407.9 1409.32 1416.27 1413.08 1424.76 1416.81C1433.01 1420.62 1441.51 1423.86 1450.22 1426.48C1458.62 1429.02 1467.44 1429.9 1476.18 1429.06C1493.42 1426.98 1508.02 1417.73 1522.27 1410.62C1529.23 1406.95 1536.54 1403.95 1544.08 1401.67C1551.28 1399.56 1558.81 1398.83 1566.28 1399.52C1573.19 1400.26 1580 1401.79 1586.56 1404.09C1592.86 1406.17 1598.77 1408.59 1604.38 1410.85C1609.98 1413.12 1615.36 1415.31 1620.55 1417C1625.39 1418.62 1630.36 1419.84 1635.41 1420.65C1643.49 1422.11 1651.78 1421.95 1659.8 1420.19C1664.86 1419.04 1669.63 1416.83 1673.78 1413.69C1676.85 1411.51 1678.08 1410.05 1678.19 1410.16Z" fill="#263238"/>
<path id="Vector_61" d="M646.167 1555.26C645.827 1555.68 645.454 1556.08 645.054 1556.45C643.971 1557.65 642.789 1558.75 641.52 1559.75C636.651 1563.63 630.987 1566.4 624.929 1567.85C615.354 1570.16 605.409 1570.49 595.703 1568.81C589.646 1567.89 583.674 1566.48 577.845 1564.59C571.661 1562.63 565.325 1560.1 558.642 1557.45C551.96 1554.8 544.97 1552.03 537.558 1549.76C529.914 1547.12 521.987 1545.38 513.938 1544.58C505.339 1543.83 496.675 1544.7 488.399 1547.15C479.604 1549.83 471.09 1553.36 462.975 1557.68C454.526 1561.94 446 1566.7 436.936 1570.89C427.722 1575.38 417.86 1578.4 407.71 1579.84C397.1 1580.86 386.391 1579.82 376.179 1576.76C365.783 1573.64 355.619 1569.79 345.762 1565.24C335.738 1560.83 325.868 1556.41 315.806 1553.11C305.971 1549.61 295.597 1547.87 285.159 1547.96C275.109 1548.4 265.227 1550.69 256.009 1554.72C246.869 1558.56 238.304 1563.01 229.778 1567.24C221.556 1571.56 213.018 1575.26 204.239 1578.3C195.876 1581.14 187.066 1582.44 178.239 1582.14C170.025 1581.7 161.91 1580.13 154.12 1577.49C146.439 1575.07 139.641 1572.15 133.036 1569.39C126.43 1566.62 120.093 1563.97 114.064 1561.71C108.37 1559.63 102.512 1558.04 96.5507 1556.95C87.035 1555 77.2242 1555 67.7084 1556.95C61.7067 1558.26 56.0685 1560.89 51.1942 1564.63C47.8914 1567.2 46.5088 1568.97 46.3936 1568.85C46.6992 1568.4 47.0604 1567.99 47.4689 1567.62C48.5339 1566.41 49.7034 1565.29 50.9638 1564.28C55.7945 1560.35 61.4541 1557.57 67.5164 1556.14C77.1243 1553.99 87.0718 1553.83 96.7428 1555.68C102.777 1556.73 108.712 1558.28 114.486 1560.33C120.592 1562.52 126.929 1565.13 133.689 1568.01C140.448 1570.89 147.246 1573.58 154.696 1575.92C162.352 1578.49 170.325 1580 178.392 1580.41C187.027 1580.63 195.632 1579.33 203.816 1576.57C212.506 1573.53 220.954 1569.83 229.087 1565.51C237.536 1561.25 246.177 1556.68 255.433 1552.88C264.828 1548.74 274.906 1546.39 285.159 1545.92C295.799 1545.77 306.381 1547.5 316.42 1551.03C326.636 1554.37 336.545 1558.71 346.569 1563.21C356.34 1567.74 366.413 1571.59 376.717 1574.73C386.665 1577.72 397.1 1578.75 407.441 1577.76C417.4 1576.37 427.08 1573.43 436.129 1569.04C445.078 1564.9 453.604 1560.21 462.091 1555.91C470.326 1551.58 478.955 1548.04 487.861 1545.35C496.355 1542.87 505.241 1542.01 514.054 1542.81C522.225 1543.66 530.268 1545.47 538.018 1548.19C545.469 1550.65 552.459 1553.53 559.103 1556.18C565.747 1558.83 572.122 1561.4 578.305 1563.44C584.058 1565.34 589.952 1566.78 595.933 1567.74C605.491 1569.46 615.295 1569.26 624.776 1567.16C630.766 1565.81 636.398 1563.19 641.29 1559.48C644.478 1556.87 645.937 1555.14 646.167 1555.26Z" fill="#263238"/>
<path id="Vector_62" d="M1768.56 704.62C1768.56 705.157 1372.6 705.618 884.318 705.618C396.034 705.618 0 705.157 0 704.62C0 704.082 395.842 703.621 884.318 703.621C1372.79 703.621 1768.56 704.044 1768.56 704.62Z" fill="#263238"/>
<path id="Vector_63" d="M1768.56 643.594C1768.56 644.17 1372.6 644.592 884.318 644.592C396.034 644.592 0 644.17 0 643.594C0 643.018 395.842 642.595 884.318 642.595C1372.79 642.595 1768.56 643.056 1768.56 643.594Z" fill="#263238"/>
<path id="Vector_64" d="M1.95853 705.925C0.968831 695.587 0.635317 685.197 0.959992 674.817C0.636961 664.437 0.970472 654.047 1.95853 643.709C2.94658 654.047 3.2801 664.437 2.95706 674.817C3.28174 685.197 2.94822 695.587 1.95853 705.925V705.925Z" fill="#263238"/>
<path id="Vector_65" d="M296.373 705.925C295.383 695.587 295.05 685.197 295.374 674.817C295.051 664.437 295.385 654.047 296.373 643.709C297.384 654.046 297.717 664.437 297.371 674.817C297.719 685.197 297.385 695.589 296.373 705.925V705.925Z" fill="#263238"/>
<path id="Vector_66" d="M590.825 705.925C589.836 695.587 589.502 685.197 589.827 674.817C589.504 664.437 589.837 654.047 590.825 643.709C591.814 654.047 592.147 664.437 591.824 674.817C592.149 685.197 591.815 695.587 590.825 705.925V705.925Z" fill="#263238"/>
<path id="Vector_67" d="M885.24 705.925C884.25 695.587 883.916 685.197 884.241 674.817C883.918 664.437 884.252 654.047 885.24 643.709C886.251 654.046 886.584 664.437 886.238 674.817C886.586 685.197 886.252 695.589 885.24 705.925V705.925Z" fill="#263238"/>
<path id="Vector_68" d="M1474.11 705.925C1473.12 695.587 1472.78 685.197 1473.11 674.817C1472.78 664.437 1473.12 654.047 1474.11 643.709C1475.12 654.046 1475.45 664.437 1475.1 674.817C1475.45 685.197 1475.12 695.589 1474.11 705.925V705.925Z" fill="#263238"/>
<path id="Vector_69" d="M1768.56 705.925C1767.55 695.589 1767.21 685.197 1767.56 674.817C1767.21 664.437 1767.55 654.046 1768.56 643.709C1769.55 654.047 1769.88 664.437 1769.56 674.817C1769.88 685.197 1769.55 695.587 1768.56 705.925Z" fill="#263238"/>
<path id="Vector_70" d="M1179.69 705.925C1178.7 695.587 1178.37 685.197 1178.69 674.817C1178.37 664.437 1178.7 654.047 1179.69 643.709C1180.68 654.047 1181.01 664.437 1180.69 674.817C1181.02 685.197 1180.68 695.587 1179.69 705.925Z" fill="#263238"/>
<path id="Vector_71" d="M29.0344 1000.53C28.4968 1000.53 28.0359 935.819 28.0359 855.974C28.0359 776.13 28.4968 711.379 29.0344 711.379C29.5721 711.379 30.033 776.092 30.033 855.974C30.033 935.857 29.5721 1000.53 29.0344 1000.53Z" fill="#EBEBEB"/>
<path id="Vector_72" d="M183.385 1000.53C182.847 1000.53 182.386 935.819 182.386 855.974C182.386 776.13 182.847 711.379 183.385 711.379C183.922 711.379 184.383 776.092 184.383 855.974C184.383 935.857 183.922 1000.53 183.385 1000.53Z" fill="#EBEBEB"/>
<path id="Vector_73" d="M337.735 1000.53C337.198 1000.53 336.737 935.819 336.737 855.974C336.737 776.13 337.198 711.379 337.735 711.379C338.273 711.379 338.926 776.015 338.926 855.974C338.926 935.934 338.273 1000.53 337.735 1000.53Z" fill="#EBEBEB"/>
<path id="Vector_74" d="M492.086 1000.53C491.548 1000.53 491.087 935.819 491.087 855.974C491.087 776.13 491.548 711.379 492.086 711.379C492.623 711.379 493.084 776.092 493.084 855.974C493.084 935.857 492.547 1000.53 492.086 1000.53Z" fill="#EBEBEB"/>
<path id="Vector_75" d="M646.436 1000.53C645.899 1000.53 645.438 935.819 645.438 855.974C645.438 776.13 645.899 711.379 646.436 711.379C646.974 711.379 647.435 776.092 647.435 855.974C647.435 935.857 646.974 1000.53 646.436 1000.53Z" fill="#EBEBEB"/>
<path id="Vector_76" d="M800.787 1000.53C800.249 1000.53 799.788 935.819 799.788 855.974C799.788 776.13 800.249 711.379 800.787 711.379C801.324 711.379 801.785 776.092 801.785 855.974C801.785 935.857 801.324 1000.53 800.787 1000.53Z" fill="#EBEBEB"/>
<path id="Vector_77" d="M955.137 1000.53C954.599 1000.53 954.139 935.819 954.139 855.974C954.139 776.13 954.599 711.379 955.137 711.379C955.675 711.379 956.136 776.092 956.136 855.974C956.136 935.857 955.675 1000.53 955.137 1000.53Z" fill="#EBEBEB"/>
<path id="Vector_78" d="M1109.49 1000.53C1108.95 1000.53 1108.49 935.819 1108.49 855.974C1108.49 776.13 1108.95 711.379 1109.49 711.379C1110.03 711.379 1110.49 776.092 1110.49 855.974C1110.49 935.857 1110.03 1000.53 1109.49 1000.53Z" fill="#EBEBEB"/>
<path id="Vector_79" d="M1263.84 1000.53C1263.3 1000.53 1262.84 935.819 1262.84 855.974C1262.84 776.13 1263.3 711.379 1263.84 711.379C1264.38 711.379 1264.84 776.092 1264.84 855.974C1264.84 935.857 1264.49 1000.53 1263.84 1000.53Z" fill="#EBEBEB"/>
<path id="Vector_80" d="M1418.11 1000.53C1417.57 1000.53 1417.11 935.819 1417.11 855.974C1417.11 776.13 1417.57 711.379 1418.11 711.379C1418.65 711.379 1419.11 776.092 1419.11 855.974C1419.11 935.857 1418.76 1000.53 1418.11 1000.53Z" fill="#EBEBEB"/>
<path id="Vector_81" d="M1572.54 1000.53C1572 1000.53 1571.54 935.819 1571.54 855.974C1571.54 776.13 1572 711.379 1572.54 711.379C1573.08 711.379 1573.54 776.092 1573.54 855.974C1573.54 935.857 1573.12 1000.53 1572.54 1000.53Z" fill="#EBEBEB"/>
<path id="Vector_82" d="M1726.89 1000.53C1726.35 1000.53 1725.89 935.819 1725.89 855.974C1725.89 776.13 1726.35 711.379 1726.89 711.379C1727.43 711.379 1727.89 776.092 1727.89 855.974C1727.89 935.857 1727.47 1000.53 1726.89 1000.53Z" fill="#EBEBEB"/>
<path id="Vector_83" d="M1777.93 870.338C1777.93 870.876 1384.66 871.337 899.718 871.337C414.776 871.337 21.4302 870.876 21.4302 870.338C21.4302 869.8 414.584 869.339 899.642 869.339C1384.7 869.339 1777.93 869.8 1777.93 870.338Z" fill="#EBEBEB"/>
</g>
<g id="character">
<path id="Vector_84" d="M257.353 1208.57C237.229 1218.4 239.687 1245.79 257.353 1258.5C275.02 1271.21 300.905 1272.02 323.833 1268.64C346.761 1265.26 368.997 1258.27 392.271 1257.46C458.481 1255.2 510.252 1301.21 561.254 1336.42C689.757 1425.06 869.455 1459.32 1031.33 1426.14C1193.21 1392.96 1333.39 1292.95 1398.03 1164.68C1405.32 1150.16 1411.35 1132.38 1400.29 1119.63C1388.27 1105.72 1363.73 1106.18 1343.34 1108.1C1122.01 1130.03 901.293 1165.71 678.505 1161.41C607.532 1160.03 533.179 1155.04 468.736 1179.88C452.759 1186.03 436.475 1194.13 419.001 1192.63C405.405 1191.44 393.653 1184.57 380.826 1180.65C332.666 1165.87 282.048 1193.59 241.492 1219.83" fill="#EBEBEB"/>
<g id="Vector_85">
<path id="Vector_86" d="M901.907 1365.61C1164.18 1365.61 1376.79 1239.13 1376.79 1083.1C1376.79 927.077 1164.18 800.594 901.907 800.594C639.638 800.594 427.027 927.077 427.027 1083.1C427.027 1239.13 639.638 1365.61 901.907 1365.61Z" fill="#3BC5CE"/>
<g id="Group" opacity="0.3">
<path id="Vector_87" d="M429.101 1106.57C422.303 1121.93 434.939 1140.71 451.146 1145.32C467.353 1149.93 484.75 1143.86 499.191 1135.18C513.631 1126.5 526.42 1115.13 541.436 1107.53C583.682 1086.02 634.607 1097.77 680.501 1109.91L816.264 1145.93C873.372 1161.07 931.172 1176.31 990.239 1177.85C1049.31 1179.38 1110.87 1166.02 1156.96 1129.34C1182.69 1108.87 1206.27 1080.26 1239.1 1078.03C1256.16 1076.92 1272.75 1083.41 1288.57 1089.86C1304.39 1096.31 1320.95 1102.92 1338.04 1102.04C1355.13 1101.15 1372.99 1090.28 1376.13 1073.46C1380.55 1049.54 1355.59 1031.22 1333.89 1020.58C1286.92 997.229 1236.3 976.413 1184.11 979.332C1108.83 983.557 1044.35 1035.6 970.307 1049.73C850.944 1072.54 732.925 993.888 611.603 1001.34C574.894 1003.79 539.129 1014.03 506.683 1031.37C474.237 1048.72 445.853 1072.76 423.417 1101.92" fill="black"/>
</g>
<path id="Vector_88" d="M1191.52 526.918C1187.76 523.137 1185.13 518.376 1183.93 513.176C1182.74 507.976 1183.03 502.545 1184.76 497.5C1186.6 492.493 1189.56 487.97 1193.41 484.271C1197.25 480.572 1201.89 477.794 1206.96 476.147C1214.45 473.65 1224.59 474.572 1227.74 481.792C1234.08 475.136 1242.81 471.273 1252.01 471.053C1261.2 470.834 1270.1 474.275 1276.76 480.621C1283.42 486.967 1287.28 495.697 1287.5 504.89C1287.72 514.084 1284.28 522.989 1277.93 529.645C1283.31 535.56 1279.78 545.775 1273.17 550.307C1270.03 552.614 1266.12 553.618 1262.26 553.111C1260.33 552.815 1258.55 551.91 1257.16 550.528C1255.78 549.147 1254.88 547.361 1254.58 545.43" fill="#263238"/>
<path id="Vector_89" d="M1184.68 545.161C1185.54 540.257 1186.83 535.438 1188.53 530.759C1188.83 529.565 1189.45 528.475 1190.32 527.603C1191.2 526.732 1192.29 526.11 1193.48 525.805C1194.61 525.677 1195.75 525.741 1196.86 525.997C1215.56 529.261 1234.42 532.564 1251.97 539.784C1255.5 541.205 1259.34 543.279 1260.23 546.966C1260.51 548.822 1260.34 550.721 1259.73 552.496C1258.53 557.081 1256.85 561.523 1254.7 565.746C1254.32 566.678 1253.7 567.489 1252.89 568.089C1252.03 568.532 1251.06 568.731 1250.09 568.665C1238.91 568.825 1227.85 566.323 1217.83 561.368" fill="#3BC5CE"/>
<path id="Vector_90" d="M1258 559.793C1256.84 560.684 1255.93 561.859 1255.36 563.205C1254.79 564.551 1254.57 566.021 1254.74 567.474C1255.17 570.423 1256.25 573.241 1257.89 575.732C1260.26 580.122 1263.64 583.886 1267.76 586.715C1274.82 591.17 1283.81 590.902 1292.14 590.556C1291.3 586.295 1290.19 582.088 1288.84 577.959C1287.51 573.323 1285.45 568.928 1282.73 564.94C1279.98 560.909 1275.9 557.963 1271.21 556.606C1268.89 555.963 1266.43 555.94 1264.09 556.539C1261.76 557.139 1259.61 558.34 1257.89 560.024" fill="#3BC5CE"/>
<g id="Group_2" opacity="0.3">
<path id="Vector_91" d="M1258 559.793C1256.84 560.684 1255.93 561.859 1255.36 563.205C1254.79 564.551 1254.57 566.021 1254.74 567.474C1255.17 570.423 1256.25 573.241 1257.89 575.732C1260.26 580.122 1263.64 583.886 1267.76 586.715C1274.82 591.17 1283.81 590.902 1292.14 590.556C1291.3 586.295 1290.19 582.088 1288.84 577.959C1287.51 573.323 1285.45 568.928 1282.73 564.94C1279.98 560.909 1275.9 557.963 1271.21 556.606C1268.89 555.963 1266.43 555.94 1264.09 556.539C1261.76 557.139 1259.61 558.34 1257.89 560.024" fill="black"/>
</g>
<path id="Vector_92" d="M1258.85 553.879C1259.83 552.154 1261.23 550.698 1262.91 549.64C1264.59 548.581 1266.5 547.953 1268.49 547.811C1271.59 547.815 1274.65 548.483 1277.47 549.77C1280.33 551.429 1283.49 552.487 1286.77 552.88C1290.02 552.824 1293.23 552.078 1296.18 550.691C1296.77 552.795 1296.87 555.01 1296.46 557.158C1296.04 559.306 1295.13 561.327 1293.79 563.058C1291.57 565.612 1288.8 567.633 1285.69 568.972C1282.66 570.574 1279.32 571.505 1275.9 571.699C1271.59 571.556 1267.4 570.228 1263.8 567.859C1261.45 566.644 1259.45 564.861 1257.96 562.674C1257.36 561.251 1257.13 559.7 1257.28 558.164C1257.43 556.627 1257.97 555.154 1258.85 553.879" fill="#3BC5CE"/>
<path id="Vector_93" d="M1275.63 562.021C1275.36 562.021 1274.82 561.253 1273.17 560.292C1271.34 558.826 1269.3 557.659 1267.1 556.836C1264.88 556.205 1262.53 556.205 1260.3 556.836C1258.58 557.335 1257.58 557.988 1257.39 557.758C1257.19 557.527 1257.92 556.49 1259.77 555.53C1262.15 554.354 1264.87 554.068 1267.45 554.724C1269.94 555.584 1272.16 557.079 1273.9 559.063C1275.55 560.446 1276.01 561.982 1275.63 562.021Z" fill="#263238"/>
<path id="Vector_94" d="M1279.12 555.261C1275.57 554.126 1271.82 553.721 1268.1 554.071C1264.39 554.421 1260.78 555.518 1257.5 557.297C1257.5 557.105 1258.15 556.029 1259.96 554.801C1262.36 553.251 1265.1 552.315 1267.95 552.074C1270.78 551.802 1273.64 552.21 1276.28 553.264C1278.28 554.109 1279.28 555.031 1279.12 555.261Z" fill="#263238"/>
<path id="Vector_95" d="M1252.01 568.012C1251.82 567.782 1252.7 566.822 1253.74 565.055C1255.1 562.75 1256.21 560.303 1257.04 557.758C1259.31 551.69 1260.46 546.774 1260.88 546.736C1261.3 546.697 1261.34 548.118 1260.88 550.307C1260.44 553.067 1259.75 555.78 1258.81 558.411C1257.92 561.135 1256.54 563.674 1254.74 565.9C1253.43 567.551 1252.16 568.204 1252.01 568.012Z" fill="#263238"/>
<path id="Vector_96" d="M1194.94 542.396C1194.25 539.637 1194.4 536.736 1195.36 534.062C1196.36 529.492 1198.17 526.112 1198.66 526.381C1198.05 531.879 1196.87 537.298 1195.13 542.549L1194.94 542.396Z" fill="#FAFAFA"/>
<path id="Vector_97" d="M1206.54 543.855C1206.11 541.286 1206.31 538.651 1207.11 536.174C1208 532.026 1209.11 528.762 1209.69 528.839C1210.26 528.916 1209.96 532.372 1209.07 536.52C1208.19 540.668 1207.08 543.97 1206.54 543.855Z" fill="#FAFAFA"/>
<path id="Vector_98" d="M1215.52 545.315C1214.99 545.123 1215.91 541.82 1217.21 537.903C1218.52 533.985 1219.4 530.836 1219.94 530.913C1220.48 530.99 1220.48 534.485 1219.1 538.594C1217.71 542.703 1216.02 545.584 1215.52 545.315Z" fill="#FAFAFA"/>
<path id="Vector_99" d="M1227.81 549.424C1227.77 543.791 1229.09 538.232 1231.65 533.217C1231.97 536.032 1231.64 538.881 1230.69 541.551C1230.36 544.363 1229.37 547.059 1227.81 549.424V549.424Z" fill="#FAFAFA"/>
<path id="Vector_100" d="M1236.84 554.57C1237.56 551.341 1238.63 548.199 1240.03 545.199C1240.81 541.976 1241.97 538.857 1243.48 535.905C1243.67 542.738 1241.3 549.394 1236.84 554.57V554.57Z" fill="#FAFAFA"/>
<path id="Vector_101" d="M1245.63 566.092C1246.94 561.969 1248.49 557.929 1250.28 553.994C1251.43 549.818 1252.83 545.714 1254.47 541.705C1254.42 550.609 1251.3 559.224 1245.63 566.092V566.092Z" fill="#FAFAFA"/>
<path id="Vector_102" d="M1160.8 540.245C1153.65 537.19 1145.64 536.863 1138.27 539.327C1130.9 541.79 1124.69 546.873 1120.82 553.61C1116.02 562.674 1115.75 574.195 1108.8 581.723C1105.15 585.563 1100.12 587.983 1096.28 591.67C1090.56 597.905 1087.27 605.988 1087.02 614.444C1085.52 633.454 1102.08 660.53 1115.79 673.588" fill="#263238"/>
<path id="Vector_103" d="M1241.45 609.144L1208.38 792.414C1206.06 803.203 1199.61 812.655 1190.41 818.748C1181.21 824.842 1169.98 827.093 1159.15 825.02V825.02C1148.18 822.881 1138.52 816.489 1132.25 807.241C1125.99 797.992 1123.65 786.641 1125.73 775.669L1137.02 717.255C1137.02 717.255 1108.8 706.809 1110.14 667.597C1110.75 648.087 1117.82 617.286 1124.2 592.208C1130.03 569.702 1150.5 543.894 1180.88 549.962C1180.96 549.847 1248.21 557.797 1241.45 609.144Z" fill="#FFBE9D"/>
<path id="Vector_104" d="M1125.93 619.437C1125.79 620.072 1125.78 620.728 1125.9 621.367C1126.02 622.005 1126.27 622.614 1126.63 623.157C1126.98 623.699 1127.45 624.166 1127.98 624.53C1128.52 624.893 1129.13 625.146 1129.77 625.274C1130.38 625.436 1131.01 625.477 1131.64 625.393C1132.26 625.309 1132.87 625.102 1133.41 624.784C1133.96 624.467 1134.44 624.045 1134.82 623.542C1135.2 623.04 1135.48 622.467 1135.64 621.856C1135.89 620.574 1135.63 619.245 1134.91 618.154C1134.19 617.062 1133.08 616.296 1131.8 616.019C1131.19 615.851 1130.55 615.807 1129.93 615.888C1129.3 615.97 1128.69 616.176 1128.15 616.494C1127.6 616.813 1127.12 617.237 1126.74 617.742C1126.36 618.247 1126.08 618.823 1125.93 619.437Z" fill="#263238"/>
<path id="Vector_105" d="M1125.85 614.213C1126.35 614.943 1130.57 612.946 1135.8 613.945C1141.02 614.943 1144.4 618.361 1145.09 617.785C1145.78 617.209 1145.09 616.287 1143.59 614.751C1141.62 612.744 1139.07 611.402 1136.29 610.911C1133.57 610.368 1130.75 610.704 1128.23 611.871C1126.23 612.831 1125.62 613.868 1125.85 614.213Z" fill="#263238"/>
<path id="Vector_106" d="M1176.7 629.23C1176.56 629.866 1176.55 630.522 1176.68 631.16C1176.8 631.799 1177.04 632.407 1177.4 632.95C1177.76 633.493 1178.22 633.959 1178.76 634.323C1179.29 634.686 1179.9 634.939 1180.54 635.067C1181.15 635.235 1181.79 635.279 1182.41 635.198C1183.04 635.116 1183.65 634.91 1184.19 634.592C1184.74 634.273 1185.22 633.849 1185.6 633.344C1185.98 632.839 1186.26 632.263 1186.41 631.649C1186.55 631.014 1186.55 630.358 1186.43 629.719C1186.31 629.081 1186.07 628.472 1185.71 627.929C1185.35 627.387 1184.89 626.92 1184.35 626.556C1183.82 626.193 1183.21 625.94 1182.57 625.812C1181.96 625.633 1181.32 625.581 1180.69 625.657C1180.06 625.734 1179.45 625.939 1178.9 626.258C1178.35 626.578 1177.87 627.007 1177.49 627.517C1177.11 628.028 1176.84 628.611 1176.7 629.23V629.23Z" fill="#263238"/>
<path id="Vector_107" d="M1177.46 624.16C1177.96 624.89 1182.19 622.893 1187.41 623.891C1192.63 624.89 1196.01 628.308 1196.71 627.732C1197.4 627.156 1196.71 626.234 1195.21 624.698C1193.23 622.699 1190.68 621.358 1187.91 620.857C1185.19 620.304 1182.35 620.655 1179.85 621.856C1178 622.778 1177.23 623.815 1177.46 624.16Z" fill="#263238"/>
<path id="Vector_108" d="M1151.89 660.146C1149.28 658.775 1146.52 657.706 1143.67 656.958C1142.36 656.574 1141.13 656.075 1141.1 655.115C1141.24 653.695 1141.81 652.354 1142.75 651.275L1148.7 641.827C1156.99 628.347 1163.29 617.171 1162.72 616.863C1162.14 616.556 1155.04 627.156 1146.7 640.636C1144.71 643.978 1142.86 647.127 1140.94 650.161C1139.76 651.609 1139.14 653.438 1139.21 655.307C1139.32 655.819 1139.54 656.301 1139.86 656.714C1140.17 657.127 1140.59 657.461 1141.06 657.688C1141.76 658.022 1142.49 658.28 1143.25 658.456C1146.04 659.398 1148.94 659.966 1151.89 660.146Z" fill="#263238"/>
<path id="Vector_109" d="M1137.14 717.255C1155 720.946 1173.53 719.617 1190.68 713.414C1190.68 713.414 1173.28 737.148 1135.91 726.241L1137.14 717.255Z" fill="#EB996E"/>
<path id="Vector_110" d="M1150.66 678.619C1150.34 677.728 1150.29 676.765 1150.51 675.846C1150.73 674.926 1151.21 674.089 1151.89 673.434C1152.59 672.814 1153.46 672.412 1154.38 672.275C1155.31 672.139 1156.26 672.275 1157.11 672.666C1157.18 671.709 1157.58 670.806 1158.23 670.106C1158.89 669.407 1159.77 668.955 1160.72 668.826C1161.64 668.731 1162.58 668.856 1163.45 669.189C1164.31 669.523 1165.09 670.056 1165.71 670.746C1166.92 672.078 1167.65 673.769 1167.8 675.558C1167.96 677.347 1167.52 679.137 1166.56 680.655C1165.53 682.128 1164.08 683.259 1162.41 683.903C1160.73 684.546 1158.9 684.672 1157.15 684.265C1155.41 683.802 1153.83 682.875 1152.58 681.583C1151.33 680.29 1150.45 678.682 1150.04 676.929" fill="#EB996E"/>
<path id="Vector_111" d="M1166.63 666.752C1165.79 666.56 1164.68 672.244 1158.95 675.355C1153.23 678.465 1147.43 676.66 1147.16 677.428C1146.89 678.197 1148.32 678.811 1151 679.387C1154.33 680.075 1157.8 679.572 1160.8 677.966C1163.67 676.412 1165.82 673.792 1166.79 670.669C1167.4 668.48 1167.06 666.79 1166.63 666.752Z" fill="#263238"/>
<path id="Vector_112" d="M1174.66 614.06C1174.89 615.596 1180.27 615.942 1186.18 617.901C1192.1 619.859 1196.82 622.471 1197.9 621.357C1198.4 620.819 1197.9 619.322 1196.05 617.516C1193.7 615.285 1190.86 613.64 1187.76 612.716C1184.68 611.722 1181.42 611.484 1178.23 612.025C1175.93 612.447 1174.55 613.369 1174.66 614.06Z" fill="#263238"/>
<path id="Vector_113" d="M1128.54 604.19C1129.23 605.572 1133.11 605.035 1137.45 605.803C1141.79 606.571 1145.32 608.184 1146.39 607.07C1146.89 606.533 1146.39 605.227 1145.17 603.806C1143.27 602.013 1140.87 600.847 1138.29 600.465C1135.69 599.956 1132.99 600.32 1130.61 601.502C1129 602.423 1128.23 603.537 1128.54 604.19Z" fill="#263238"/>
<path id="Vector_114" d="M1189.1 646.128C1188.94 646.379 1188.68 646.558 1188.39 646.63C1188.1 646.701 1187.79 646.659 1187.53 646.512C1187.28 646.341 1187.11 646.081 1187.05 645.787C1187 645.493 1187.06 645.189 1187.22 644.938C1187.3 644.809 1187.4 644.697 1187.52 644.61C1187.65 644.522 1187.79 644.46 1187.93 644.428C1188.08 644.395 1188.23 644.393 1188.38 644.422C1188.53 644.45 1188.67 644.508 1188.79 644.592C1189.04 644.756 1189.21 645.009 1189.26 645.297C1189.32 645.585 1189.26 645.883 1189.1 646.128V646.128Z" fill="#263238"/>
<path id="Vector_115" d="M1275.17 642.864C1275.08 628.562 1271.5 614.498 1264.76 601.885C1263.63 599.608 1262.68 597.245 1261.92 594.819C1260.35 588.325 1258.45 581.916 1256.23 575.616C1254.28 570.954 1251.03 566.954 1246.86 564.095C1244.93 561.44 1242.69 559.028 1240.18 556.913C1228.93 547.542 1213.64 545.046 1199.16 542.933C1184.68 540.821 1155.84 521.503 1146.7 557.95C1148.17 556.823 1149.87 556.054 1151.69 555.705C1153.5 555.356 1155.37 555.437 1157.15 555.941C1158.92 556.445 1160.56 557.358 1161.92 558.607C1163.28 559.857 1164.33 561.407 1164.98 563.134C1167.15 568.399 1167.15 574.307 1164.98 579.572C1162.72 585.563 1160.64 592.246 1162.95 598.198C1164.35 601.156 1166.51 603.69 1169.21 605.544C1171.91 607.399 1175.05 608.508 1178.31 608.76C1184.88 609.133 1191.46 608.327 1197.74 606.379C1197.74 606.379 1197.74 631.381 1212.64 640.291L1200.78 673.665C1199.55 678.619 1198.63 682.997 1198.01 686.838C1196.01 699.05 1209.92 728.238 1223.97 713.721C1223.97 713.721 1274.51 667.021 1274.94 644.822L1275.17 642.864Z" fill="#263238"/>
<path id="Vector_116" d="M1109.18 561.906C1108.98 561.123 1108.6 560.398 1108.08 559.785C1107.55 559.172 1106.89 558.689 1106.15 558.372C1105.3 558.026 1104.37 557.94 1103.47 558.125C1102.58 558.31 1101.76 558.757 1101.12 559.409C1100.26 560.259 1099.66 561.336 1099.4 562.513C1099.13 563.69 1099.21 564.918 1099.62 566.053C1100.09 567.452 1100.91 568.713 1101.99 569.724C1103.06 570.735 1104.37 571.466 1105.8 571.853C1107.44 572.325 1109.17 572.425 1110.86 572.146C1112.55 571.867 1114.15 571.216 1115.56 570.24C1117.04 569.077 1118.21 567.57 1118.97 565.849C1119.74 564.129 1120.07 562.247 1119.93 560.369C1119.57 555.986 1119.57 551.58 1119.93 547.196C1120.73 542.903 1122.54 538.861 1125.21 535.407C1127.88 531.954 1131.34 529.188 1135.3 527.341C1138.56 525.912 1142.09 525.193 1145.65 525.233C1149.21 525.273 1152.73 526.07 1155.96 527.571C1160.31 529.527 1164.04 532.635 1166.75 536.558C1167.49 537.595 1168.11 538.716 1168.59 539.899C1168.81 540.294 1168.95 540.723 1169.02 541.167C1168.82 541.167 1168.09 539.554 1166.14 537.019C1163.3 533.435 1159.6 530.633 1155.38 528.877C1152.35 527.553 1149.08 526.87 1145.78 526.87C1142.48 526.87 1139.21 527.553 1136.18 528.877C1132.51 530.618 1129.3 533.202 1126.82 536.419C1124.33 539.636 1122.65 543.395 1121.89 547.388C1121.57 551.671 1121.57 555.972 1121.89 560.254C1121.91 562.452 1121.49 564.633 1120.66 566.668C1119.83 568.686 1118.41 570.411 1116.59 571.622C1114.95 572.706 1113.08 573.418 1111.13 573.71C1109.18 574.002 1107.19 573.866 1105.3 573.312C1103.65 572.811 1102.14 571.912 1100.92 570.693C1099.69 569.474 1098.78 567.973 1098.27 566.322C1097.84 564.939 1097.81 563.461 1098.19 562.062C1098.56 560.662 1099.32 559.396 1100.39 558.411C1101.19 557.663 1102.2 557.177 1103.28 557.019C1104.37 556.861 1105.47 557.039 1106.45 557.527C1107.07 557.797 1107.62 558.193 1108.07 558.689C1108.52 559.185 1108.86 559.771 1109.07 560.408C1109.33 561.445 1109.22 561.906 1109.18 561.906Z" fill="#263238"/>
<path id="Vector_117" d="M1424.33 980.292L1324.21 840.612C1313.17 825.152 1298.97 812.217 1282.54 802.668C1259.39 789.737 1235.48 778.195 1210.95 768.103L1116.67 740.835L1042.7 804.934L1058.37 881.014L1196.94 926.678C1239.83 896.3 1259.34 906.016 1259.34 906.016L1338.46 982.827L1209.84 959.438L1203.27 1015.39L1356.89 1057.1C1374.56 1061.9 1406.09 1062.25 1423.33 1041.74C1430.02 1032.94 1433.72 1022.23 1433.9 1011.18C1434.08 1000.13 1430.73 989.307 1424.33 980.292V980.292Z" fill="#FFBE9D"/>
<path id="Vector_118" d="M695.211 659.34L849.177 760.307C849.177 760.307 1053.07 736.342 1065.55 735.613C1083.67 735.068 1101.78 737.111 1119.32 741.681L1046.73 814.42C1046.73 814.42 925.834 789.226 801.862 806.47L670.708 703.045L695.211 659.34Z" fill="#FFBE9D"/>
<path id="Vector_119" d="M1209.84 959.745L1162.29 984.632L1134.49 1069.81L1141.29 1073.5L1165.98 1037.09L1203.27 1015.7L1209.84 959.745Z" fill="#FFBE9D"/>
<path id="Vector_120" d="M695.211 659.34C693.62 657.867 691.868 656.578 689.988 655.499L663.296 627.924C663.296 627.924 626.197 625.582 624.238 625.582C612.448 625.582 619.284 636.719 619.284 636.719C610.489 639.868 619.898 649.93 619.898 649.93C609.222 655.576 619.284 664.409 619.284 664.409C608.761 669.555 617.095 677.39 617.095 677.39L636.297 695.402L638.87 696.132L644.9 690.87L675.317 707.385L676.507 705.964" fill="#FFBE9D"/>
<path id="Vector_121" d="M684.572 654.117L642.019 634.914C641.17 637.047 640.832 639.35 641.032 641.637C641.232 643.925 641.965 646.134 643.172 648.087C645.644 651.977 648.869 655.332 652.658 657.957C656.428 660.582 660.009 663.469 663.373 666.598C661.84 670.818 661.276 675.328 661.721 679.795C662.167 684.263 663.61 688.573 665.946 692.407C668.413 696.158 672.098 698.944 676.379 700.294C680.661 701.644 685.277 701.476 689.45 699.819" fill="#FFBE9D"/>
<g id="glass">
<path id="Vector_122" d="M621.665 597.277C622.151 600.195 623.057 603.028 624.353 605.688C626.04 608.859 628.383 611.635 631.228 613.83C635.156 616.783 639.877 618.494 644.785 618.745H645.169V619.129C648.087 646.82 652.85 690.909 658.38 745.099V745.943H657.535C654.194 746.366 650.814 746.827 647.435 747.403C645.706 747.71 644.017 748.056 642.327 748.44L639.869 749.169C639.509 749.273 639.162 749.415 638.832 749.592C638.64 749.592 638.563 749.784 638.64 749.592C638.687 749.503 638.711 749.404 638.711 749.304C638.711 749.203 638.687 749.105 638.64 749.016C638.64 748.785 638.64 749.016 638.64 749.016C640.239 749.383 641.877 749.551 643.517 749.515H648.894C652.504 749.515 656.153 749.093 659.839 748.747C667.34 748.127 674.785 746.959 682.114 745.252C682.865 745.046 683.587 744.75 684.265 744.369C684.073 744.369 684.265 744.791 684.265 745.022C684.265 745.252 684.265 745.252 684.265 745.252H683.843C683.412 745.153 682.976 745.077 682.537 745.022C680.655 745.022 678.696 745.022 676.776 745.022C672.936 745.022 669.095 745.367 665.024 745.675H664.064V744.753C661.721 721.71 659.263 697.745 656.767 673.012C654.885 654.501 652.927 636.297 651.275 618.707V617.862L652.12 617.632C657.512 616.23 662.233 612.965 665.447 608.414C668.637 603.959 670.134 598.512 669.671 593.052C668.57 581.94 667.495 571.11 666.445 560.562C664.333 539.477 662.336 519.506 660.492 500.957L661.376 501.686L612.563 506.525L613.177 505.757C615.942 534.062 618.131 556.951 619.668 572.851C620.397 580.532 620.935 586.792 621.357 591.017C621.357 593.052 621.626 594.627 621.703 595.779C621.746 596.316 621.746 596.855 621.703 597.392C621.572 596.862 621.483 596.323 621.434 595.779C621.434 594.627 621.127 593.091 620.858 591.094C620.397 586.831 619.706 580.724 618.823 572.928C617.133 557.105 614.675 534.062 611.603 505.796V505.104H612.332L661.107 499.997H661.913V500.842C663.795 519.391 665.754 539.247 668.058 560.446C669.134 570.969 670.209 581.838 671.361 592.937C671.837 598.827 670.233 604.698 666.829 609.528C663.342 614.461 658.23 618.009 652.389 619.552L653.119 618.477C654.885 636.105 656.729 654.27 658.611 672.82C661.145 697.553 663.565 721.671 665.869 744.522L664.832 743.678C668.673 743.332 672.782 743.101 676.738 743.025C678.696 743.025 680.578 743.025 682.691 743.025L684.265 743.255C684.584 743.338 684.893 743.454 685.187 743.601C685.494 743.739 685.74 743.985 685.878 744.292C685.956 744.511 685.976 744.746 685.935 744.975C685.895 745.204 685.796 745.419 685.648 745.598C684.746 746.308 683.696 746.806 682.575 747.057C675.137 748.816 667.575 749.997 659.955 750.59C656.114 750.936 652.542 751.205 648.894 751.32C647.051 751.32 645.053 751.32 643.402 751.32C641.464 751.403 639.527 751.143 637.68 750.552C637.68 750.552 636.489 749.669 637.065 748.824C637.268 748.502 637.562 748.248 637.91 748.094C638.352 747.86 638.815 747.667 639.293 747.518C640.176 747.211 641.059 746.98 641.904 746.75L647.127 745.713C650.545 745.137 653.963 744.676 657.343 744.254L656.575 745.214C651.275 690.986 646.935 646.858 644.209 619.129L644.631 619.514C639.099 619.286 633.812 617.167 629.653 613.512C625.495 609.856 622.716 604.885 621.78 599.428C621.703 598.045 621.665 597.277 621.665 597.277Z" fill="#263238"/>
<g id="vasf">
<path id="Vector_123" d="M621.665 597.277L612.371 505.719L661.184 500.765L670.478 592.323C671.057 598.137 669.536 603.966 666.19 608.757C662.844 613.547 657.894 616.981 652.235 618.438L665.024 744.484C676.277 743.524 685.033 743.601 685.148 744.791C685.264 745.982 674.817 748.209 661.76 749.515C648.702 750.821 638.025 750.859 637.91 749.515C637.795 748.171 646.167 746.558 657.689 745.29L644.9 619.245C639.038 618.972 633.469 616.605 629.205 612.573C624.941 608.542 622.265 603.114 621.665 597.277V597.277Z" fill="#F5F5F5"/>
<path id="Vector_124" d="M662.681 548.425C658.073 547.081 653.387 550.461 650.2 554.071C647.012 557.681 644.055 562.021 639.485 563.519C636.279 564.211 632.976 564.328 629.73 563.864C626.465 563.864 625.889 562.405 623.278 564.517C623.278 564.517 625.39 596.739 629.653 605.38C636.028 618.246 663.334 616.902 666.138 598.544C667.789 587.829 662.681 548.425 662.681 548.425Z" fill="#3BC5CE"/>
</g>
</g>
<path id="Vector_125" d="M680.732 652.388C676.847 651.329 673.067 649.915 669.441 648.164C662.489 645.245 652.696 641.02 641.367 635.989L643.056 635.144C642.632 638.11 642.877 641.132 643.775 643.99C644.672 646.848 646.198 649.468 648.241 651.659C650.958 654.603 654.043 657.184 657.42 659.34C659.033 660.492 660.684 661.414 662.413 662.681C663.298 663.393 664.041 664.266 664.602 665.254C665.103 666.292 665.303 667.45 665.178 668.595C664.947 670.746 664.41 672.436 664.179 673.972C663.672 678.391 664.179 682.867 665.663 687.06C667.148 691.253 669.569 695.052 672.744 698.167C673.992 699.191 675.184 700.28 676.315 701.432C674.736 700.913 673.292 700.047 672.091 698.897C668.579 696.013 665.835 692.306 664.102 688.105C662.877 685.197 662.125 682.111 661.875 678.965C661.722 677.214 661.722 675.454 661.875 673.703C661.875 671.86 662.605 669.863 662.758 668.442C663.296 665.292 659.263 663.756 655.922 661.452C652.33 659.144 649.074 656.353 646.244 653.156C643.934 650.679 642.223 647.705 641.245 644.462C640.266 641.219 640.045 637.795 640.598 634.453L640.944 632.994L642.288 633.608C653.579 638.793 663.219 643.325 670.017 646.628C673.74 648.252 677.323 650.179 680.732 652.388V652.388Z" fill="#EB996E"/>
<path id="Vector_126" d="M636.72 694.826C636.72 694.826 637.449 695.479 638.947 695.364C639.437 695.315 639.909 695.159 640.333 694.908C640.756 694.657 641.119 694.316 641.397 693.911C641.675 693.505 641.861 693.043 641.942 692.558C642.023 692.072 641.997 691.575 641.866 691.101C641.482 688.412 638.755 686.339 635.375 684.15L624.545 676.468L626.004 674.433C628.611 676.315 631.388 677.949 634.3 679.31C636.76 680.5 639.333 681.439 641.981 682.114C644.362 682.652 646.321 681 645.514 679.502C644.14 677.713 642.525 676.124 640.714 674.779L635.913 670.554C632.603 667.935 629.567 664.989 626.849 661.759C630.517 663.865 633.954 666.349 637.104 669.171L642.058 673.012L644.823 675.239C645.985 676.074 646.954 677.148 647.665 678.389C648.07 679.231 648.172 680.187 647.956 681.096C647.739 682.005 647.216 682.812 646.474 683.381C645.785 683.899 644.994 684.265 644.154 684.457C643.314 684.649 642.443 684.662 641.597 684.495C638.665 683.815 635.819 682.81 633.109 681.5C630.036 680.086 627.115 678.361 624.391 676.353L625.889 674.318L636.528 681.999C638.139 683.14 639.643 684.426 641.021 685.839C642.281 687.138 643.089 688.808 643.325 690.602C643.437 691.371 643.37 692.155 643.131 692.894C642.891 693.633 642.484 694.307 641.943 694.865C641.525 695.247 641.033 695.539 640.498 695.724C639.963 695.909 639.396 695.982 638.832 695.94C636.374 695.364 636.604 694.826 636.72 694.826Z" fill="#EB996E"/>
<path id="Vector_127" d="M641.213 674.394C641.021 673.972 643.364 673.396 645.322 671.322C645.81 670.741 646.077 670.007 646.077 669.248C646.077 668.49 645.81 667.755 645.322 667.174C643.894 665.395 642.242 663.807 640.406 662.45C632.725 655.768 626.811 649.93 627.272 649.393C627.733 648.855 634.377 653.848 642.096 660.492C644.12 662.016 645.884 663.857 647.319 665.945C648.041 667.088 648.353 668.443 648.203 669.786C648.051 670.92 647.507 671.966 646.667 672.743C645.567 673.678 644.244 674.313 642.826 674.586C641.827 674.586 641.29 674.586 641.213 674.394Z" fill="#EB996E"/>
<path id="Vector_128" d="M642.672 663.872C642.672 663.526 644.785 663.872 646.513 661.951C647.383 660.476 647.709 658.744 647.436 657.053C647.162 655.363 646.306 653.821 645.015 652.696C638.947 646.013 633.993 640.176 634.569 639.676C635.145 639.177 640.675 644.093 647.012 651.198C648.621 653.026 649.627 655.306 649.893 657.727C650.017 658.768 649.89 659.824 649.522 660.806C649.155 661.789 648.558 662.668 647.78 663.372C647.268 663.849 646.662 664.211 646 664.436C645.338 664.661 644.636 664.744 643.94 664.678C643.018 664.409 642.596 663.987 642.672 663.872Z" fill="#EB996E"/>
<path id="Vector_129" d="M1263.76 875.215C1258.24 877.343 1253.11 880.381 1248.59 884.202C1244.5 888.486 1241.16 893.434 1238.72 898.834C1238.62 897 1239 895.172 1239.83 893.534C1241.48 889.442 1243.99 885.759 1247.21 882.742C1250.39 879.712 1254.21 877.429 1258.38 876.06C1260.07 875.31 1261.93 875.018 1263.76 875.215V875.215Z" fill="#EB996E"/>
<path id="Vector_130" d="M1367.92 1004.22C1363.18 998.893 1357.77 994.207 1351.82 990.278C1345.56 986.882 1338.89 984.301 1331.97 982.597C1334.11 982.259 1336.29 982.376 1338.38 982.942C1343.49 983.938 1348.39 985.809 1352.86 988.473C1357.34 991.147 1361.3 994.593 1364.57 998.65C1366.09 1000.23 1367.24 1002.13 1367.92 1004.22V1004.22Z" fill="#EB996E"/>
<path id="Vector_131" d="M1119.86 833.2C1114.05 834.373 1108.54 836.698 1103.65 840.036C1099.14 843.846 1095.42 848.504 1092.7 853.747C1092.73 851.909 1093.23 850.11 1094.16 848.524C1096.1 844.549 1098.94 841.087 1102.47 838.418C1105.99 835.749 1110.09 833.948 1114.44 833.162C1116.22 832.674 1118.09 832.687 1119.86 833.2Z" fill="#EB996E"/>
<path id="Vector_132" d="M840.267 781.353C839.22 777.279 839.433 772.983 840.88 769.033C842.327 765.083 844.939 761.665 848.37 759.231C846.282 762.611 844.397 766.112 842.725 769.716C841.692 773.547 840.872 777.432 840.267 781.353V781.353Z" fill="#EB996E"/>
<path id="Vector_133" d="M1160.07 1087.6L1159.11 1088.25L1156.15 1090.02L1144.63 1096.62L1136.33 1101.35C1133.26 1103 1129.8 1104.53 1126.16 1106.34C1118.74 1109.76 1110.56 1114.02 1100.88 1117.67L1085.91 1123.58C1080.68 1125.58 1075.04 1127.12 1069.32 1129.04C1057.79 1132.88 1045.31 1135.83 1032.14 1139.14C974.461 1151.93 914.796 1152.97 856.705 1142.21C843.416 1139.4 830.704 1137.02 819.183 1133.45C813.384 1131.72 807.661 1130.38 802.438 1128.57L787.076 1123.16C777.321 1120.01 768.949 1115.9 761.46 1112.75C757.619 1111.1 754.201 1109.64 751.09 1108.14L742.641 1103.69L731.12 1097.5L728.124 1095.81C727.759 1095.67 727.422 1095.46 727.125 1095.2C727.504 1095.3 727.865 1095.46 728.201 1095.66L731.312 1097.12L743.14 1103L751.628 1107.26C754.777 1108.76 758.31 1110.1 762.036 1111.71C769.717 1114.79 777.936 1118.78 787.729 1121.85L803.091 1127.08C808.352 1128.88 814.036 1130.19 819.797 1131.84C831.319 1135.37 843.992 1137.64 857.204 1140.4C915.085 1150.91 974.472 1149.87 1031.95 1137.33C1045.08 1134.1 1057.64 1131.38 1069.01 1127.46C1074.73 1125.58 1080.53 1124.08 1085.6 1122.12L1100.54 1116.32C1110.22 1112.94 1118.44 1108.64 1125.85 1105.3C1129.69 1103.57 1132.99 1102.07 1136.1 1100.5L1144.47 1095.93L1156 1089.67L1159.03 1088.06C1159.35 1087.85 1159.7 1087.7 1160.07 1087.6Z" fill="#263238"/>
<path id="Vector_134" d="M1353.59 1063.21C1353.59 1063.21 1353.4 1064.17 1352.98 1065.94C1352.55 1067.7 1351.82 1070.43 1350.94 1073.89C1350.48 1075.65 1350.06 1077.73 1349.4 1079.72C1348.75 1081.72 1347.91 1084.14 1347.06 1086.64C1346.22 1089.13 1345.3 1091.82 1344.34 1094.7C1343.38 1097.58 1341.92 1100.5 1340.49 1103.65C1338.08 1110.06 1334.35 1116.75 1330.7 1124.2L1324.13 1135.49C1321.94 1139.33 1319.1 1143.17 1316.45 1147.32C1303.95 1165.47 1289.5 1182.22 1273.36 1197.24C1263.99 1206.01 1254.13 1214.25 1243.83 1221.9C1232.62 1230.13 1220.92 1237.69 1208.8 1244.52C1195.84 1251.84 1182.43 1258.35 1168.67 1264.03C1154.06 1270.01 1139.15 1275.23 1124 1279.66C1091.45 1289.07 1058.14 1295.66 1024.46 1299.36C1006.95 1301.36 989.087 1302.82 970.921 1303.86C952.756 1304.89 934.321 1305.43 915.656 1305.66C878.327 1306.08 841.842 1305.66 806.662 1303.36C772.832 1301.31 739.222 1296.55 706.156 1289.11C690.771 1285.58 675.591 1281.2 660.684 1276.01C653.349 1273.67 646.398 1270.67 639.446 1268.06L629.423 1263.76L624.391 1261.57L619.552 1259.11C595.494 1247.4 573.004 1232.7 552.612 1215.37C515.205 1183.49 493.391 1149.01 482.83 1123.85L478.989 1114.94C477.914 1112.1 477.069 1109.37 476.224 1106.88C475.379 1104.38 474.611 1102.08 473.881 1099.96C473.152 1097.85 472.845 1095.85 472.345 1094.13C471.5 1090.67 470.848 1088.02 470.425 1086.18C470.003 1084.33 469.811 1083.45 469.811 1083.45C469.811 1083.45 470.118 1084.33 470.617 1086.14C471.116 1087.94 471.808 1090.59 472.768 1094.01C473.229 1095.74 473.689 1097.85 474.381 1099.81L476.762 1106.68C477.684 1109.18 478.529 1111.87 479.604 1114.67C480.679 1117.48 482.1 1120.43 483.444 1123.54C494.159 1148.51 516.05 1182.69 553.38 1214.3C573.753 1231.46 596.189 1246.01 620.167 1257.62L625.006 1260.04L629.999 1262.22L640.099 1266.64C647.012 1269.25 653.963 1272.21 661.26 1274.55C676.118 1279.69 691.247 1284.01 706.579 1287.5C739.557 1294.89 773.078 1299.6 806.816 1301.59C841.88 1303.97 878.327 1304.28 915.618 1303.86C934.283 1303.63 952.679 1303.02 970.806 1302.05C988.934 1301.08 1006.74 1299.59 1024.23 1297.6C1057.82 1293.94 1091.03 1287.41 1123.51 1278.09C1138.6 1273.74 1153.45 1268.61 1168.02 1262.72C1181.71 1257.13 1195.07 1250.71 1208 1243.52C1220.07 1236.77 1231.73 1229.29 1242.91 1221.13C1253.18 1213.53 1263.02 1205.38 1272.4 1196.71C1288.52 1181.76 1302.98 1165.13 1315.53 1147.09C1318.14 1143.01 1320.98 1139.4 1323.21 1135.37L1329.82 1124.2C1333.66 1116.75 1337.27 1110.14 1339.76 1103.76L1343.61 1094.89C1344.6 1092.01 1345.56 1089.36 1346.45 1086.87L1348.98 1079.42C1349.67 1077.34 1350.13 1075.34 1350.63 1073.62C1351.59 1070.2 1352.32 1067.59 1352.82 1065.94C1353.32 1064.28 1353.59 1063.21 1353.59 1063.21Z" fill="#263238"/>
<path id="Vector_135" d="M920.534 1363.61C920.482 1363.14 920.482 1362.67 920.534 1362.19C920.418 1360.8 920.418 1359.4 920.534 1358.01C921.482 1352.67 923.903 1347.71 927.524 1343.68C933.25 1337.34 940.235 1332.27 948.032 1328.78C956.942 1324.52 967.811 1321.1 978.065 1314.34C983.466 1310.88 987.915 1306.13 991.007 1300.51C994.119 1294.31 995.536 1287.39 995.117 1280.47C993.982 1265.02 987.646 1250.41 977.143 1239.03C965.799 1226.21 951.04 1216.88 934.59 1212.14C916.973 1206.81 898.099 1207.37 880.823 1213.72C863.387 1220.44 848.025 1232.04 829.821 1235.15C821.003 1236.43 812.029 1236.11 803.321 1234.23C794.834 1232.65 786.692 1230.58 778.627 1229.35C758.708 1225.93 738.235 1230.23 721.376 1241.38C704.516 1252.52 692.537 1269.67 687.875 1289.34C684.603 1302.71 684.695 1316.68 688.144 1330.01C688.605 1331.78 689.027 1333.12 689.296 1333.85C689.44 1334.3 689.542 1334.76 689.603 1335.23C689.41 1334.81 689.243 1334.37 689.104 1333.93C688.797 1333.04 688.259 1331.74 687.76 1330.09C686.242 1324.96 685.276 1319.68 684.88 1314.34C684.2 1305.87 684.835 1297.35 686.762 1289.07C689.272 1278.04 694.075 1267.67 700.856 1258.61C709.904 1246.94 721.912 1237.89 735.635 1232.42C749.358 1226.95 764.295 1225.25 778.896 1227.51C787.076 1228.7 795.256 1230.77 803.667 1232.31C812.151 1234.12 820.887 1234.42 829.475 1233.19C847.065 1230.19 862.312 1218.71 880.132 1211.8C897.776 1205.29 917.063 1204.74 935.051 1210.22C951.841 1215.05 966.9 1224.58 978.449 1237.68C989.193 1249.38 995.64 1264.39 996.73 1280.24C997.089 1287.46 995.554 1294.65 992.275 1301.09C989.051 1306.9 984.415 1311.8 978.795 1315.34C968.195 1322.21 957.288 1325.48 948.416 1329.66C940.704 1333 933.772 1337.9 928.061 1344.07C924.437 1347.94 921.951 1352.74 920.88 1357.93C920.38 1361.58 920.726 1363.61 920.534 1363.61Z" fill="#FAFAFA"/>
<path id="Vector_136" d="M1256.16 1268.29C1255.96 1268.29 1256.16 1265.22 1255.81 1259.73C1255.19 1252 1253.08 1244.46 1249.59 1237.53C1244.5 1227.18 1236.09 1218.84 1225.7 1213.83C1219.46 1210.72 1212.6 1209.03 1205.63 1208.89C1198.66 1208.75 1191.74 1210.16 1185.38 1213.03C1179.06 1215.97 1173.55 1220.38 1169.3 1225.9C1165.06 1231.43 1162.2 1237.89 1160.99 1244.75C1159.58 1256.16 1162.1 1267.72 1168.13 1277.51C1172.04 1284.23 1176.74 1290.44 1182.15 1296.02C1185.99 1299.86 1188.29 1302.01 1188.18 1302.13C1188.06 1302.24 1187.53 1301.74 1186.37 1300.82C1185.22 1299.9 1183.65 1298.48 1181.61 1296.56C1175.92 1291.12 1170.97 1284.95 1166.9 1278.2C1160.54 1268.18 1157.83 1256.27 1159.22 1244.48C1161.14 1233.52 1167.02 1223.65 1175.73 1216.74C1184.44 1209.82 1195.39 1206.34 1206.5 1206.96C1213.48 1207.31 1220.31 1209.07 1226.58 1212.14C1237.25 1217.38 1245.83 1226.07 1250.93 1236.8C1254.36 1243.94 1256.32 1251.7 1256.69 1259.61C1256.83 1261.74 1256.83 1263.87 1256.69 1265.99C1256.62 1266.78 1256.44 1267.55 1256.16 1268.29V1268.29Z" fill="#FAFAFA"/>
<path id="Vector_137" d="M1266.72 1032.45C1269.68 1035.62 1272.26 1039.12 1274.4 1042.89C1280.73 1053.08 1284.23 1064.77 1284.54 1076.77C1284.7 1085.09 1282.82 1093.33 1279.08 1100.77C1274.85 1109.4 1268.17 1116.6 1259.88 1121.47C1255.37 1124.04 1250.4 1125.73 1245.25 1126.42C1239.95 1127.04 1234.61 1127.27 1229.27 1127.12C1223.86 1126.91 1218.44 1127.28 1213.1 1128.23C1207.72 1129.36 1202.69 1131.77 1198.43 1135.26C1189.68 1142.32 1183.88 1152.08 1177.39 1160.68C1170.9 1169.28 1163.45 1177.54 1153.62 1180.81C1144.37 1183.65 1134.41 1183.13 1125.5 1179.35C1117.79 1176.25 1110.87 1171.47 1105.22 1165.37C1097.35 1156.43 1090.94 1146.29 1086.25 1135.33C1084.52 1131.49 1083.26 1128.54 1082.41 1126.5C1081.94 1125.49 1081.55 1124.43 1081.26 1123.35C1081.84 1124.32 1082.35 1125.32 1082.8 1126.35C1083.83 1128.5 1085.25 1131.38 1086.98 1135.03C1091.88 1145.72 1098.35 1155.63 1106.18 1164.41C1111.76 1170.27 1118.55 1174.84 1126.08 1177.81C1134.61 1181.38 1144.14 1181.81 1152.96 1179.04C1162.22 1175.93 1169.48 1168.06 1175.77 1159.53C1182.07 1151 1187.99 1141.13 1197.13 1133.68C1201.6 1130.05 1206.86 1127.51 1212.49 1126.27C1217.97 1125.31 1223.53 1124.94 1229.08 1125.16C1234.33 1125.3 1239.57 1125.1 1244.79 1124.54C1249.71 1123.9 1254.46 1122.31 1258.77 1119.86C1266.79 1115.22 1273.26 1108.33 1277.39 1100.04C1281.08 1092.85 1282.98 1084.88 1282.93 1076.8C1282.74 1065.02 1279.51 1053.49 1273.55 1043.32C1271.96 1040.53 1270.23 1037.82 1268.37 1035.21C1267.75 1034.33 1267.2 1033.41 1266.72 1032.45V1032.45Z" fill="#FAFAFA"/>
<path id="Vector_138" d="M824.022 1131.3C824.09 1132.03 824.09 1132.76 824.022 1133.49C823.822 1135.61 823.488 1137.71 823.023 1139.79C821.406 1147.46 818.413 1154.77 814.19 1161.37C807.964 1171.33 798.969 1179.26 788.305 1184.18C775.137 1190.25 760.177 1191.17 746.366 1186.76C739.546 1184.4 733.275 1180.69 727.934 1175.83C722.593 1170.98 718.293 1165.09 715.297 1158.53C712.7 1152.81 711.301 1146.61 711.187 1140.33C711.135 1134.87 712.019 1129.44 713.799 1124.27C716.31 1116.79 720.716 1110.08 726.588 1104.8C727.494 1103.98 728.456 1103.22 729.468 1102.54C730.168 1101.98 730.913 1101.47 731.696 1101.04C732.31 1100.61 732.966 1100.25 733.654 1099.96C733.654 1099.96 731.081 1101.65 727.125 1105.38C721.613 1110.7 717.498 1117.29 715.143 1124.58C713.512 1129.6 712.733 1134.86 712.839 1140.13C713.02 1146.18 714.431 1152.13 716.986 1157.61C719.898 1163.9 724.047 1169.54 729.188 1174.19C734.328 1178.85 740.354 1182.41 746.904 1184.68C760.232 1188.96 774.676 1188.13 787.422 1182.34C797.834 1177.64 806.673 1170.04 812.884 1160.45C817.128 1154.02 820.257 1146.92 822.14 1139.44C823.522 1134.3 823.83 1131.26 824.022 1131.3Z" fill="#FAFAFA"/>
<path id="Vector_139" d="M544.317 1044.85L545.162 1044.58L547.696 1043.93C549.924 1043.43 553.227 1042.66 557.528 1041.93C562.759 1040.99 568.079 1040.63 573.389 1040.86C580.544 1041.09 587.494 1043.3 593.475 1047.23C596.959 1049.54 599.927 1052.55 602.193 1056.07C604.667 1059.93 605.912 1064.46 605.765 1069.05C605.765 1078.72 599.966 1087.4 595.972 1096.66C591.585 1106.31 590.821 1117.22 593.821 1127.38C597.355 1138.33 601.51 1149.06 606.264 1159.53C608.515 1165.01 610.275 1170.68 611.526 1176.47C612.665 1182.14 612.95 1187.95 612.371 1193.71C611.2 1204.63 607.232 1215.07 600.849 1224.01C597.879 1228.14 594.438 1231.9 590.595 1235.23C586.906 1238.25 582.871 1240.83 578.574 1242.91C570.78 1246.59 562.271 1248.52 553.649 1248.55C541.181 1248.72 528.952 1245.13 518.547 1238.26C514.737 1235.82 511.319 1232.81 508.408 1229.35C511.722 1232.36 515.252 1235.12 518.969 1237.61C529.316 1244.08 541.33 1247.39 553.534 1247.13C561.921 1247.02 570.181 1245.07 577.729 1241.41C581.864 1239.32 585.732 1236.74 589.251 1233.73C592.961 1230.47 596.286 1226.8 599.159 1222.78C605.283 1214.07 609.09 1203.95 610.22 1193.36C610.982 1181.95 608.911 1170.52 604.19 1160.11C599.375 1149.58 595.207 1138.77 591.709 1127.73C590.225 1122.33 589.641 1116.73 589.98 1111.14C590.388 1105.81 591.768 1100.61 594.051 1095.78C598.238 1086.41 603.691 1077.92 603.883 1068.89C603.878 1064.76 602.817 1060.69 600.801 1057.08C598.784 1053.48 595.88 1050.44 592.362 1048.27C586.661 1044.43 580.023 1042.21 573.159 1041.86C567.912 1041.57 562.65 1041.82 557.451 1042.59C553.15 1043.2 549.77 1043.81 547.581 1044.24C546.51 1044.52 545.418 1044.73 544.317 1044.85V1044.85Z" fill="#FAFAFA"/>
<path id="Vector_140" d="M988.473 805.356C988.717 805.963 988.897 806.594 989.01 807.238C989.444 809.055 989.726 810.905 989.855 812.768C990.338 819.668 989.41 826.594 987.129 833.123C983.404 844.045 976.153 853.419 966.516 859.767C956.879 866.115 945.404 869.077 933.899 868.187C921.175 867.539 909.057 862.551 899.565 854.054C892.01 847.032 886.389 838.184 883.243 828.361C881.151 821.774 880.228 814.872 880.516 807.968C880.595 806.112 880.8 804.265 881.13 802.437C881.193 801.782 881.334 801.138 881.553 800.517C881.783 800.517 881.322 803.205 881.284 808.198C881.316 814.963 882.432 821.679 884.587 828.092C887.821 837.569 893.396 846.076 900.794 852.825C910.019 860.935 921.71 865.697 933.976 866.344C946.24 867.165 958.399 863.629 968.31 856.358C974.952 851.242 980.295 844.633 983.904 837.066C987.514 829.499 989.29 821.188 989.087 812.807C988.895 808.006 988.242 805.395 988.473 805.356Z" fill="#FAFAFA"/>
<path id="Vector_141" d="M996.461 926.64C993.758 923.152 990.695 919.959 987.321 917.115C983.223 913.773 978.448 911.362 973.326 910.05C968.204 908.738 962.857 908.556 957.658 909.517C952.458 910.478 947.53 912.559 943.215 915.615C938.9 918.671 935.302 922.63 932.67 927.216C930.539 931.081 928.827 935.162 927.562 939.391C927.499 938.174 927.628 936.956 927.946 935.78C928.651 932.535 929.843 929.415 931.479 926.525C933.871 922.187 937.079 918.353 940.927 915.234C945.652 911.285 951.316 908.623 957.372 907.506C963.428 906.389 969.669 906.855 975.492 908.858C980.196 910.398 984.563 912.823 988.358 916.002C990.92 918.126 993.147 920.624 994.963 923.414C995.633 924.401 996.139 925.491 996.461 926.64Z" fill="#FAFAFA"/>
<path id="Vector_142" d="M632.687 895.762C627.688 888.855 621.544 882.854 614.521 878.019C607.151 873.739 599.116 870.728 590.749 869.109C593.311 868.73 595.924 868.874 598.43 869.531C610.782 871.858 621.776 878.825 629.154 889.003C630.783 890.989 631.986 893.29 632.687 895.762V895.762Z" fill="#FAFAFA"/>
<path id="Vector_143" d="M99.8918 792.683L200.667 899.526C202.227 901.004 204.211 901.955 206.341 902.245C208.47 902.534 210.637 902.147 212.534 901.139L243.258 884.778L727.202 1095.2C727.202 1095.2 807.469 1139.14 879.018 1144.7L902.061 973.072L256.163 839.767L106.843 785.04L99.8918 792.683Z" fill="#FFBE9D"/>
<path id="Vector_144" d="M732.31 974.531L879.018 1144.7C1034.02 1164.75 1119.4 1106.3 1119.4 1106.3L842.418 872.258C814.883 848.996 779.26 837.577 743.332 840.497V840.497C718.466 842.535 694.635 851.355 674.434 865.998L348.412 1076.34L383.629 1120.74L732.31 974.531Z" fill="#FFBE9D"/>
<path id="Vector_145" d="M352.79 1073.5L236.307 1099.62L203.739 1099.16L201.858 1108.8L359.511 1144.7C364.165 1145.78 369.054 1144.97 373.111 1142.45C377.169 1139.93 380.067 1135.91 381.171 1131.26L384.705 1116.59L363.543 1083.83" fill="#FFBE9D"/>
<path id="Vector_146" d="M650.2 882.435C650.507 882.896 584.181 926.064 502.033 978.794C419.884 1031.52 353.059 1074 352.79 1073.5C352.521 1073 418.809 1029.91 500.957 977.143C583.106 924.374 650.008 881.974 650.2 882.435Z" fill="#EB996E"/>
<path id="Vector_147" d="M879.018 1144.7L878.288 1143.97L876.33 1141.75L868.917 1133.18L841.765 1101.11L752.626 994.924L733.155 971.574L734.307 971.843L626.12 1019.12L594.051 1032.95L585.372 1036.59L583.106 1037.48L582.299 1037.75C582.514 1037.56 582.761 1037.42 583.029 1037.32L585.218 1036.25L593.744 1032.41L625.582 1018.04L733.501 970.153L734.192 969.846L734.653 970.422L754.163 993.772L842.763 1100.38C853.978 1113.98 863.041 1125.04 869.455 1132.84L876.637 1141.75L878.442 1144.09C878.864 1144.7 879.056 1144.7 879.018 1144.7Z" fill="#EB996E"/>
<path id="Vector_148" d="M756.736 927.177C757.114 929.736 756.997 932.344 756.39 934.858C754.336 947.3 748.282 958.734 739.146 967.426C737.398 969.342 735.299 970.906 732.963 972.035C739.057 965.939 744.325 959.07 748.632 951.603C752.379 943.846 755.103 935.635 756.736 927.177V927.177Z" fill="#EB996E"/>
<path id="Vector_149" d="M959.63 971.344L1013.4 914.35C1013.4 914.35 1002.72 856.205 1017.24 830.857C1031.29 806.432 1116.71 740.989 1116.71 740.989C1121.19 742.02 1125.62 743.303 1129.96 744.83C1129.96 744.83 1027.88 824.444 1096.81 856.205C1144.24 878.096 1202.54 838.654 1234.11 778.204L1244.98 783.235L1209.88 919.266C1209.88 919.266 1149.66 993.58 1154.11 1014.13C1160.91 1045.54 1124.08 1108.33 1119.55 1106.3L959.63 971.344Z" fill="#263238"/>
<path id="Vector_150" d="M1138.48 1065.13C1139.22 1062.4 1139.22 1059.52 1138.48 1056.8C1137.57 1053.62 1135.85 1050.74 1133.49 1048.42C1130.37 1045.44 1126.56 1043.29 1122.39 1042.16C1117.2 1040.85 1111.91 1039.94 1106.57 1039.44C1100.26 1038.93 1094.1 1037.26 1088.4 1034.52C1082.42 1030.84 1077.63 1025.5 1074.62 1019.16C1071.08 1013.01 1067.63 1006.33 1061.48 1002.26C1055.31 998.504 1048.27 996.425 1041.05 996.23C1034.06 995.731 1027.15 996.23 1020.58 996.23C1014.27 996.343 1007.99 995.409 1001.99 993.465C996.782 991.624 992.018 988.706 988.012 984.901C982.14 979.499 977.963 972.507 975.991 964.776C975.451 962.702 975.117 960.579 974.992 958.439C974.9 957.7 974.9 956.952 974.992 956.212C975.413 959.03 975.977 961.824 976.682 964.584C978.903 971.999 983.146 978.648 988.934 983.787C992.849 987.371 997.465 990.104 1002.49 991.813C1008.33 993.64 1014.43 994.484 1020.54 994.31C1027.07 994.31 1033.94 993.887 1041.16 994.31C1048.73 994.506 1056.11 996.691 1062.56 1000.65C1069.24 1005.1 1072.81 1012.17 1076.27 1018.24C1079.07 1024.34 1083.58 1029.5 1089.25 1033.1C1094.73 1035.77 1100.65 1037.44 1106.72 1038.01C1112.15 1038.56 1117.52 1039.56 1122.78 1041.01C1127.14 1042.26 1131.11 1044.61 1134.3 1047.85C1136.72 1050.34 1138.43 1053.42 1139.25 1056.8C1139.77 1058.91 1139.77 1061.13 1139.25 1063.25C1139.09 1063.91 1138.83 1064.54 1138.48 1065.13V1065.13Z" fill="#FAFAFA"/>
<path id="Vector_151" d="M1151.46 1005.64C1151.27 1005.64 1150.62 1003.26 1148.7 999.149C1145.9 993.425 1142.13 988.228 1137.56 983.787C1130.82 977.124 1122.41 972.389 1113.21 970.076C1102.84 967.465 1090.94 968.809 1078.65 969.654C1066.78 970.78 1054.81 969.069 1043.74 964.661C1034.74 961.05 1026.53 955.714 1019.58 948.953C1014.87 944.442 1010.85 939.266 1007.64 933.591C1006.74 932.063 1005.93 930.486 1005.22 928.867C1004.95 928.312 1004.73 927.734 1004.56 927.139C1004.76 927.139 1005.83 929.367 1008.4 933.169C1011.82 938.591 1015.94 943.537 1020.66 947.878C1027.61 954.346 1035.71 959.452 1044.54 962.933C1055.4 967.112 1067.07 968.716 1078.65 967.618C1090.98 966.812 1103.15 965.429 1113.94 968.233C1123.4 970.718 1132.01 975.737 1138.83 982.75C1143.27 987.399 1146.81 992.828 1149.28 998.765C1149.97 1000.39 1150.54 1002.08 1150.97 1003.8C1151.25 1004.37 1151.42 1005 1151.46 1005.64Z" fill="#FAFAFA"/>
<path id="Vector_152" d="M1173.55 956.826C1172.93 957.067 1172.29 957.21 1171.63 957.249C1170.36 957.441 1168.48 957.71 1166.06 957.979C1159.21 958.859 1152.28 959.027 1145.4 958.478C1140.59 958.103 1135.87 957.029 1131.38 955.29C1126.19 953.221 1121.5 950.065 1117.63 946.035C1113.48 941.925 1109.95 937.009 1105.84 932.324C1101.76 927.443 1096.85 923.332 1091.32 920.188C1079.8 913.697 1067.4 910.932 1056.41 907.668C1046.43 905.17 1036.92 901.1 1028.22 895.609C1024.9 893.415 1021.84 890.837 1019.12 887.928C1017.08 885.739 1015.32 883.3 1013.9 880.669C1012.96 879.025 1012.2 877.287 1011.63 875.484C1011.37 874.874 1011.22 874.225 1011.17 873.564C1011.4 873.564 1012.09 876.137 1014.55 880.285C1016.09 882.761 1017.89 885.066 1019.93 887.159C1022.67 889.882 1025.71 892.29 1028.99 894.341C1037.64 899.605 1047.06 903.492 1056.91 905.863C1067.89 909.012 1080.49 911.739 1092.32 918.383C1098.02 921.655 1103.1 925.921 1107.3 930.98C1111.41 935.78 1114.98 940.696 1118.82 944.729C1125.91 951.916 1135.37 956.295 1145.43 957.057C1152.23 957.653 1159.07 957.653 1165.87 957.057L1171.47 956.711C1172.17 956.683 1172.86 956.722 1173.55 956.826V956.826Z" fill="#FAFAFA"/>
<path id="Vector_153" d="M1206.19 921.148C1205.96 921.148 1205.23 918.076 1202.7 913.006C1199.05 905.878 1193.79 899.698 1187.33 894.956C1177.77 887.856 1165.95 884.471 1154.08 885.431C1147.39 885.815 1140.4 887.044 1132.99 887.774C1125.27 888.825 1117.41 888.21 1109.95 885.969C1102.64 883.363 1095.86 879.46 1089.94 874.447C1084.46 869.917 1079.23 865.097 1074.27 860.007C1064.75 850.482 1055.53 842.379 1046.27 838.27C1039.04 834.806 1030.96 833.473 1023 834.429C1020.1 834.937 1017.26 835.722 1014.51 836.772C1017.05 835.157 1019.91 834.097 1022.88 833.661C1031.02 832.385 1039.35 833.562 1046.81 837.041C1056.45 841.112 1066.01 849.292 1075.58 858.778C1080.52 863.784 1085.73 868.527 1091.17 872.988C1096.93 877.784 1103.5 881.516 1110.56 884.01C1117.74 886.176 1125.29 886.779 1132.72 885.777C1139.98 885.085 1147.01 883.895 1153.85 883.549C1160.34 883.116 1166.85 883.911 1173.05 885.892C1178.44 887.643 1183.49 890.306 1187.99 893.765C1194.57 898.7 1199.85 905.175 1203.35 912.622C1204.3 914.624 1205.07 916.706 1205.65 918.844C1205.9 919.594 1206.08 920.365 1206.19 921.148V921.148Z" fill="#FAFAFA"/>
<path id="Vector_154" d="M1220.32 871.106C1217.86 871.434 1215.35 871.184 1212.99 870.376C1207.16 868.821 1201.78 865.928 1197.27 861.928C1192.75 857.928 1189.23 852.931 1186.99 847.333C1185.92 845.087 1185.36 842.637 1185.34 840.151C1186.44 842.295 1187.41 844.5 1188.26 846.757C1190.78 851.939 1194.31 856.571 1198.63 860.391C1202.93 864.202 1207.96 867.114 1213.41 868.955C1217.6 870.453 1220.36 870.76 1220.32 871.106Z" fill="#FAFAFA"/>
<path id="Vector_155" d="M1232.92 836.311C1229.67 832.753 1226.22 829.38 1222.59 826.21C1218.56 823.558 1214.39 821.11 1210.11 818.875C1215.09 819.58 1219.8 821.554 1223.8 824.607C1227.79 827.661 1230.93 831.691 1232.92 836.311V836.311Z" fill="#FAFAFA"/>
<path id="Vector_156" d="M1076.92 807.123C1073.33 803.951 1069.47 801.086 1065.4 798.558C1061 796.594 1056.46 794.988 1051.8 793.758C1056.86 793.03 1062.01 794.104 1066.36 796.792C1070.99 798.872 1074.74 802.534 1076.92 807.123Z" fill="#FAFAFA"/>
</g>
</g>
<g id="Plants">
<path id="Vector_157" d="M229.509 565.055C232.428 553.534 225.016 542.281 216.644 534.062C208.271 525.844 198.324 518.431 193.985 507.524C186.956 489.896 196.404 467.045 184.422 452.336C177.355 443.656 164.681 440.814 158.421 431.52C155.531 426.414 153.616 420.814 152.776 415.006C146.113 385.685 131.695 358.693 111.029 336.852C109.604 362.983 115.256 389.015 127.39 412.203C132.267 421.458 138.22 430.483 139.833 440.814C142.445 457.559 133.074 474.841 137.222 491.317C141.907 510.174 163.068 522.771 164.105 542.166C164.95 558.565 150.663 572.89 151.7 589.327C152.56 596.291 155.061 602.952 158.997 608.76C171.671 629.845 190.298 644.362 218.525 643.863L253.09 645.092L229.509 565.055Z" fill="#3BC5CE"/>
<g id="Group_3" opacity="0.3">
<path id="Vector_158" d="M229.509 565.055C232.428 553.534 225.016 542.281 216.644 534.062C208.271 525.844 198.324 518.431 193.985 507.524C186.956 489.896 196.404 467.045 184.422 452.336C177.355 443.656 164.681 440.814 158.421 431.52C155.531 426.414 153.616 420.814 152.776 415.006C146.113 385.685 131.695 358.693 111.029 336.852C109.604 362.983 115.256 389.015 127.39 412.203C132.267 421.458 138.22 430.483 139.833 440.814C142.445 457.559 133.074 474.841 137.222 491.317C141.907 510.174 163.068 522.771 164.105 542.166C164.95 558.565 150.663 572.89 151.7 589.327C152.56 596.291 155.061 602.952 158.997 608.76C171.671 629.845 190.298 644.362 218.525 643.863L253.09 645.092L229.509 565.055Z" fill="black"/>
</g>
<path id="Vector_159" d="M260.08 645.937C263.231 646.485 266.453 646.485 269.605 645.937C273.442 645.373 277.212 644.421 280.857 643.095C285.879 641.336 290.567 638.739 294.722 635.414C297.228 633.36 299.193 630.722 300.444 627.733C301.477 624.385 302.02 620.905 302.057 617.402C302.122 613.664 302.391 609.933 302.863 606.226C303.525 602.271 304.96 598.486 307.088 595.088C311.159 587.945 317.918 581.147 320.107 571.431C322.296 561.714 320.799 551.537 319.186 541.129C317.573 530.721 315.998 519.468 319.992 508.638C323.986 497.808 331.245 487.976 335.085 475.878C338.926 463.781 337.121 450.339 337.927 437.473C338.158 430.84 339.684 424.317 342.421 418.271C345.224 412.164 349.103 406.403 352.137 399.951C358.244 386.932 359.357 372.184 361.009 357.706C361.854 350.409 362.66 343.073 363.505 335.623C364.014 328.135 365.301 320.722 367.346 313.501C369.682 306.217 372.439 299.074 375.603 292.11C377.185 288.495 378.469 284.757 379.443 280.934C380.096 276.863 380.288 273.061 380.557 269.066C380.922 261.079 380.613 253.075 379.635 245.14C378.675 237.152 377.254 229.24 376.371 221.252C376.394 220.791 376.394 220.33 376.371 219.869V218.256L374.95 218.986C367.572 222.633 361.143 227.945 356.17 234.502C351.344 240.931 347.464 248.018 344.648 255.548C338.849 270.411 336.967 285.965 333.856 300.828C331.691 315.514 326.876 329.685 319.647 342.651C315.806 348.796 311.313 354.403 307.28 360.432C302.993 366.28 300.067 373.011 298.716 380.134C296.642 394.767 304.707 407.594 303.055 420.537C302.233 426.901 300.06 433.016 296.68 438.472C293.569 444.002 289.882 449.11 286.349 454.256C282.79 459.293 279.693 464.64 277.094 470.233C274.657 475.708 273.213 481.573 272.831 487.554C271.986 499.075 273.637 510.289 272.831 520.697C271.877 530.638 268.981 540.294 264.305 549.117C260.118 557.643 255.471 565.324 251.592 572.775C249.684 576.421 247.967 580.164 246.446 583.989C245.078 587.516 244.061 591.169 243.412 594.896C242.389 601.43 242.298 608.077 243.143 614.636C244.07 623.773 247.498 632.478 253.052 639.792C253.89 640.888 254.828 641.904 255.855 642.826C256.536 643.55 257.296 644.194 258.121 644.746C259.389 645.706 260.08 646.129 260.08 646.129C257.605 644.193 255.362 641.976 253.398 639.523C248.062 632.194 244.823 623.551 244.027 614.521C243.257 608.056 243.399 601.514 244.449 595.088C245.102 591.433 246.131 587.855 247.522 584.411C248.981 580.84 250.824 577.23 252.783 573.543C256.624 566.169 261.424 558.488 265.687 549.924C270.496 540.969 273.497 531.156 274.52 521.043C275.442 510.366 273.829 499.267 274.52 487.899C274.897 482.103 276.301 476.42 278.668 471.116C281.257 465.643 284.329 460.412 287.847 455.485C291.342 450.377 295.067 445.231 298.293 439.624C301.807 433.933 304.059 427.556 304.899 420.921C306.55 407.133 298.562 394.037 300.636 380.634C301.964 373.809 304.798 367.367 308.931 361.777C312.772 355.901 317.496 350.255 321.375 343.957C328.756 330.781 333.688 316.377 335.93 301.442C338.849 286.502 340.961 271.102 346.607 256.546C349.353 249.228 353.101 242.326 357.744 236.038C362.454 229.722 368.55 224.571 375.564 220.983L373.99 220.1V221.482C374.873 229.586 376.294 237.497 377.216 245.37C378.211 253.189 378.519 261.079 378.138 268.951C377.907 272.792 377.677 276.863 377.101 280.473C376.106 284.166 374.822 287.774 373.26 291.265C370.032 298.29 367.249 305.512 364.926 312.887C362.867 320.222 361.58 327.751 361.086 335.354C360.279 342.804 359.434 350.178 358.628 357.475C356.976 371.992 355.901 386.51 349.987 399.106C347.068 405.328 343.189 411.127 340.308 417.464C337.505 423.736 335.94 430.492 335.7 437.358C334.932 450.685 336.66 463.742 333.05 475.571C329.44 487.4 321.951 497.116 318.149 508.292C314.347 519.468 315.729 531.335 317.381 541.551C319.032 551.767 320.722 562.098 318.494 571.277C316.267 580.456 309.93 587.292 305.782 594.666C303.625 598.196 302.164 602.107 301.481 606.187C301.038 609.935 300.795 613.704 300.751 617.478C300.76 620.886 300.268 624.276 299.292 627.541C298.145 630.377 296.295 632.876 293.915 634.799C289.873 638.102 285.303 640.699 280.396 642.48C276.801 643.841 273.085 644.857 269.297 645.514C266.976 645.918 264.625 646.136 262.269 646.167L260.08 645.937Z" fill="#263238"/>
<path id="Vector_160" d="M369.304 238.726C369.163 239.059 369.06 239.407 368.997 239.763C368.767 240.57 368.536 241.606 368.229 242.874C367.538 245.601 366.731 249.71 365.425 254.818C364.12 259.926 360.932 265.763 358.244 272.907C355.555 280.05 352.636 288.269 350.025 297.409C347.413 306.55 345.071 316.881 342.613 327.826C340.523 339.541 336.8 350.905 331.552 361.584C328.71 367.191 325.522 372.875 322.988 379.097C320.511 385.482 318.847 392.153 318.033 398.953C316.265 413.012 313.778 426.971 310.583 440.776C303.631 469.08 297.026 496.079 291.034 520.659C285.043 545.238 279.513 567.206 274.635 585.947C269.758 604.689 266.378 619.36 263.767 629.921C262.576 634.991 261.616 638.985 260.925 641.904C260.656 643.171 260.426 644.208 260.272 645.015C260.232 645.372 260.232 645.733 260.272 646.09C260.272 646.09 260.272 645.783 260.656 645.091C261.04 644.4 261.194 643.248 261.578 642.019C262.346 639.1 263.421 635.144 264.804 630.113C267.569 619.59 271.525 604.689 276.325 586.331C281.126 567.974 286.656 545.584 292.84 521.158C299.023 496.732 305.59 469.58 312.58 441.237C315.794 427.384 318.281 413.372 320.03 399.26C320.815 392.686 322.415 386.236 324.793 380.057C327.251 373.989 330.4 368.344 333.242 362.66C338.491 351.809 342.201 340.278 344.264 328.402C346.645 317.38 348.873 307.164 351.407 297.985C353.942 288.806 356.592 280.588 359.088 273.483C361.585 266.378 364.696 260.502 365.963 255.202C367.23 249.902 367.806 245.869 368.344 243.104C368.575 241.837 368.767 240.8 368.882 239.955C369.091 239.572 369.234 239.157 369.304 238.726V238.726Z" fill="#263238"/>
<path id="Vector_161" d="M266.186 646.052C288.769 632.648 295.259 591.9 285.85 567.398C276.44 542.895 259.926 520.467 257.391 494.428C255.433 474.342 262 453.718 257.391 434.055C251.055 407.555 225.17 387.009 225.477 359.779C225.477 344.417 234.348 330.092 233.657 314.807C232.812 296.104 218.295 281.241 209.5 264.88C195.866 239.61 194.983 209.73 190.298 181.426C185.612 153.121 174.936 122.743 149.742 108.84C145.901 132.881 139.68 149.357 141.677 181.81C142.406 193.523 155.963 215.914 157.845 241.568C158.921 256.93 159.689 272.292 160.649 287.654C161.609 303.016 162.531 317.764 167.869 331.744C171.978 342.42 178.546 352.137 181.58 363.197C187.34 383.975 179.813 406.48 184.422 427.565C188.262 445.385 200.667 460.747 203.202 478.835C206.735 504.26 190.298 530.644 198.708 554.878C202.895 566.937 212.803 576.577 215.607 589.02C217.796 598.66 215.607 608.837 217.373 618.515C220.561 634.108 250.325 646.244 266.186 645.399" fill="#3BC5CE"/>
<path id="Vector_162" d="M155.963 132.458C155.895 132.904 155.895 133.357 155.963 133.803C155.963 134.801 156.271 136.107 156.463 137.643C157 141.1 157.576 146.208 158.767 153.005C159.958 159.803 163.414 167.1 166.141 176.048C168.868 184.997 171.902 195.251 174.436 206.773C176.971 218.294 179.16 231.198 181.426 245.178C183.692 259.157 186.15 274.02 192.948 288.384C196.097 295.604 199.669 302.824 202.319 310.505C204.918 318.416 206.518 326.622 207.081 334.931C208.344 352.563 210.562 370.115 213.725 387.507L233.35 487.975C239.687 518.7 245.371 546.466 250.171 569.817C254.972 593.167 258.928 611.755 261.693 624.928C263.076 631.304 264.151 636.45 264.919 639.906C265.303 641.519 265.61 642.787 265.802 643.747C265.897 644.191 266.025 644.628 266.186 645.053C266.246 644.606 266.246 644.154 266.186 643.708C266.186 642.671 265.802 641.404 265.533 639.868C264.842 636.296 263.882 631.265 262.691 624.851C260.08 611.64 256.393 592.783 251.861 569.586C247.329 546.39 241.492 518.354 235.232 487.515C228.972 456.675 222.904 422.687 216.029 387.085C212.885 369.74 210.654 352.241 209.347 334.662C208.798 326.194 207.171 317.831 204.508 309.775C201.781 302.094 198.171 294.682 194.983 287.5C188.185 273.367 185.804 258.581 183.462 244.832C181.119 231.083 178.853 218.217 176.165 206.427C173.476 194.637 170.404 184.574 167.408 175.626C164.413 166.678 161.033 159.189 159.727 152.583C158.421 145.977 157.692 141.061 157.039 137.528L156.309 133.687C156.231 133.268 156.115 132.857 155.963 132.458V132.458Z" fill="#263238"/>
<path id="right-leaf" d="M1496 642.787C1447.72 613.023 1434.74 549.616 1433.51 495.426C1433.28 486.363 1431.75 476.915 1435.59 468.735C1439.43 460.554 1449.14 454.563 1457.48 457.904C1464.35 460.708 1467.73 468.312 1471.84 474.572C1477.32 482.952 1485.05 489.609 1494.15 493.775C1500.11 496.425 1507.33 497.846 1512.82 494.389C1520.5 489.665 1520.5 478.835 1520.08 469.848C1519.03 453.129 1517.98 436.397 1516.93 419.653C1515.87 410.686 1516.27 401.607 1518.12 392.769C1519.06 388.38 1521.04 384.282 1523.9 380.825C1526.76 377.367 1530.42 374.653 1534.56 372.914C1542.97 370.033 1553.76 374.373 1556.1 383.053C1556.65 386.754 1556.94 390.487 1556.99 394.228C1557.04 396.089 1557.65 397.892 1558.72 399.414C1559.79 400.936 1561.28 402.111 1563.01 402.793C1564.89 402.911 1566.76 402.542 1568.45 401.721C1570.14 400.9 1571.59 399.655 1572.65 398.107C1580.99 388.061 1587.61 376.707 1592.24 364.503C1596.9 352.305 1602.98 340.703 1610.37 329.938C1618.05 319.569 1629.38 311.043 1642.21 309.583C1655.03 308.124 1669.09 315.306 1673.16 327.749C1677.23 340.192 1670.47 353.481 1663.02 364.196C1651.98 380.118 1638.68 394.349 1623.54 406.441C1620.59 408.329 1618.31 411.096 1617.01 414.353C1615.4 420.459 1621.39 426.066 1627.42 427.718C1634.26 429.561 1641.48 428.447 1648.54 428.87C1655.61 429.292 1663.33 431.942 1666.36 438.433C1670.59 447.381 1663.44 457.443 1656.26 464.164C1641.85 477.657 1625.22 488.57 1607.1 496.425C1600.4 498.691 1594.16 502.167 1588.71 506.679C1583.68 511.633 1581.03 519.89 1584.48 525.881C1587.94 531.873 1596.43 533.563 1603.3 531.911C1609.94 529.586 1616.37 526.682 1622.5 523.231C1634.56 517.893 1650.58 517.816 1659.07 528.032C1661.69 531.566 1663.45 535.659 1664.23 539.99C1665 544.322 1664.76 548.773 1663.52 552.996C1661 561.425 1656.81 569.262 1651.19 576.039C1632.97 600.646 1608.54 619.981 1580.41 632.072C1571.79 635.761 1562.77 638.454 1553.53 640.099C1534.45 642.746 1515.17 643.672 1495.92 642.864" fill="#3BC5CE"/>
<path id="Vector_163" d="M1499.65 642.787C1499.65 642.787 1502.53 632.034 1509.02 604.382C1516.28 574.448 1525.26 544.956 1535.9 516.05C1538.7 508.369 1541.43 500.688 1544.16 493.199C1546.88 485.71 1549.61 478.298 1552.72 471.193C1558.68 457.576 1565.4 444.305 1572.85 431.443C1579.87 419.077 1586.98 407.632 1593.7 396.879C1600.42 386.125 1606.91 376.409 1613.21 367.729C1623.06 353.968 1633.99 341.011 1645.89 328.978C1650.12 324.715 1653.57 321.528 1655.8 319.377L1658.41 316.958C1658.71 316.672 1659.03 316.415 1659.37 316.189C1659.12 316.523 1658.84 316.831 1658.53 317.111L1655.99 319.608C1653.77 321.835 1650.5 325.099 1646.35 329.439C1634.67 341.61 1623.91 354.64 1614.17 368.421C1607.95 377.138 1601.53 386.932 1594.97 397.608C1588.4 408.285 1581.26 419.768 1574.27 432.173C1566.92 445.023 1560.25 458.253 1554.3 471.807C1551.22 478.874 1548.57 486.248 1545.81 493.737C1543.04 501.226 1540.36 508.868 1537.55 516.549C1526.91 545.472 1517.87 574.961 1510.48 604.881C1503.99 632.495 1502.8 642.634 1502.8 642.634" fill="#263238"/>
<path id="Vector_164" d="M1553.3 470.885C1552.79 469.647 1552.42 468.36 1552.18 467.045C1551.57 464.587 1550.8 461.015 1549.92 456.599C1548.15 447.727 1546.08 435.361 1543.89 421.765C1541.7 408.17 1539.51 395.88 1537.59 387.2C1536.63 382.822 1535.86 379.251 1535.25 376.793C1534.88 375.541 1534.65 374.253 1534.56 372.952C1535.13 374.184 1535.58 375.471 1535.9 376.793C1536.67 379.212 1537.63 382.745 1538.74 387.124C1540.93 395.918 1543.35 408.208 1545.54 421.688C1547.73 435.169 1549.61 447.266 1551.07 456.56C1551.76 460.746 1552.34 464.241 1552.84 467.122C1553.11 468.358 1553.27 469.619 1553.3 470.885Z" fill="#263238"/>
<path id="Vector_165" d="M1667.75 442.696C1666.25 443.123 1664.72 443.393 1663.18 443.503C1660.22 443.963 1655.96 444.54 1650.69 445.461C1640.17 447.228 1625.73 450.147 1609.95 454.064C1594.16 457.981 1580.03 462.168 1569.89 465.586C1564.82 467.199 1560.75 468.62 1557.95 469.426C1556.5 470.008 1555.01 470.471 1553.49 470.809C1554.83 470.012 1556.25 469.343 1557.71 468.812C1560.44 467.659 1564.47 466.085 1569.54 464.28C1579.61 460.67 1593.74 456.292 1609.56 452.336C1623.06 448.929 1636.72 446.224 1650.5 444.232C1655.8 443.464 1660.1 443.042 1663.1 442.811C1664.64 442.629 1666.2 442.59 1667.75 442.696V442.696Z" fill="#263238"/>
<path id="Vector_166" d="M1510.28 602.078C1510.28 602.078 1509.9 601.617 1509.4 600.695L1507.17 596.855C1505.29 593.283 1502.64 588.098 1499.49 581.493C1493.16 568.588 1484.98 550.461 1476.22 530.375C1467.46 510.289 1459.47 491.97 1453.44 479.066L1446.22 463.704L1444.27 459.479C1443.84 458.519 1443.65 457.981 1443.73 457.981C1444.08 458.384 1444.36 458.837 1444.57 459.326L1446.8 463.397C1448.68 466.93 1451.33 472.115 1454.48 478.759C1460.82 491.663 1469 509.752 1477.75 529.876C1486.51 550 1494.5 568.281 1500.53 581.185C1503.52 587.522 1505.94 592.707 1507.75 596.547C1508.52 598.237 1509.17 599.62 1509.71 600.734C1509.94 601.161 1510.14 601.612 1510.28 602.078Z" fill="#263238"/>
<path id="Vector_167" d="M1660.95 543.855C1660.49 544.17 1659.98 544.416 1659.45 544.585L1655.07 546.313L1638.94 552.573C1625.35 557.873 1606.6 565.401 1585.94 573.735C1565.28 582.069 1546.42 589.442 1532.71 594.473C1525.84 596.97 1520.27 598.928 1516.39 600.234L1511.9 601.694C1511.39 601.88 1510.86 602.009 1510.32 602.078C1510.32 602.078 1510.78 601.771 1511.78 601.348L1516.16 599.62L1532.29 593.36C1545.92 588.06 1564.63 580.532 1585.33 572.198C1606.03 563.865 1624.81 556.491 1638.56 551.46C1645.39 548.963 1651 547.005 1654.88 545.699L1659.33 544.278C1659.85 544.064 1660.39 543.921 1660.95 543.855V543.855Z" fill="#263238"/>
</g>
</g>
</svg>
