<svg width="692" height="630" viewBox="0 0 692 630" fill="none" xmlns="http://www.w3.org/2000/svg">
<path d="M345.672 629.191C536.507 629.191 691.209 538.304 691.209 426.189C691.209 314.074 536.507 223.187 345.672 223.187C154.837 223.187 0.135254 314.074 0.135254 426.189C0.135254 538.304 154.837 629.191 345.672 629.191Z" fill="#F5F5F5"/>
<path d="M311.599 418.646L449.962 498.522C452.264 499.685 454.806 500.291 457.384 500.291C459.963 500.291 462.505 499.685 464.807 498.522L585.438 429.968C589.534 427.61 589.534 423.771 585.438 421.397L447.181 341.536C444.88 340.37 442.337 339.762 439.758 339.762C437.179 339.762 434.636 340.37 432.336 341.536L311.599 410.09C307.487 412.448 307.487 416.273 311.599 418.646Z" fill="#E0E0E0"/>
<path d="M251.102 485.038C219.357 502.634 167.961 502.634 136.216 485.038C104.47 467.443 104.47 438.872 136.216 421.261C167.961 403.65 219.357 403.635 251.102 421.261C282.847 438.887 282.847 467.412 251.102 485.038Z" fill="#E0E0E0"/>
<path d="M634.688 501.516C608.294 516.149 565.529 516.149 539.135 501.516C512.742 486.883 512.742 463.149 539.135 448.501C565.529 433.853 608.294 433.853 634.688 448.501C661.082 463.149 661.067 486.883 634.688 501.516Z" fill="#E0E0E0"/>
<path d="M172.269 515.997L166.918 519.021C166.918 519.021 118.846 522.044 86.7991 503.602C49.3702 482.076 38.7886 451.238 38.7886 451.238L44.1399 448.214C44.1399 448.214 104.002 462.711 129.61 478.448C145.702 488.661 160.096 501.331 172.269 515.997V515.997Z" fill="#E0E0E0"/>
<path d="M460 356.713L462.902 355.035C463.558 354.602 464.044 353.956 464.278 353.206L485.774 266.315C485.92 265.54 485.808 264.738 485.456 264.033L481.707 257.412C481.543 257.127 481.272 256.919 480.955 256.834C480.637 256.749 480.299 256.794 480.014 256.958L477.112 258.621C476.43 259.036 475.916 259.679 475.661 260.435L452.895 352.435C452.823 352.784 452.86 353.146 453 353.473C453.141 353.8 453.378 354.076 453.681 354.264L457.838 356.668C458.171 356.839 458.539 356.932 458.914 356.94C459.288 356.948 459.66 356.87 460 356.713V356.713Z" fill="#263238"/>
<path d="M485.804 265.166L480.74 268.099C480.702 267.697 480.584 267.306 480.392 266.95L476.598 260.435C476.295 259.921 475.948 259.906 475.751 260.314C476.013 259.669 476.46 259.117 477.036 258.727L479.939 257.064C480.08 256.98 480.237 256.925 480.4 256.903C480.563 256.88 480.729 256.89 480.888 256.933C481.047 256.975 481.196 257.048 481.326 257.149C481.456 257.249 481.565 257.374 481.647 257.517L485.456 264.123C485.629 264.449 485.746 264.802 485.804 265.166V265.166Z" fill="#455A64"/>
<path d="M476.583 260.435L480.392 267.026C480.756 267.728 480.873 268.532 480.725 269.308L459.214 356.123C459.188 356.27 459.127 356.408 459.035 356.525C458.943 356.641 458.823 356.733 458.686 356.792C458.549 356.851 458.4 356.874 458.252 356.86C458.104 356.846 457.962 356.796 457.838 356.713L453.681 354.309C453.378 354.122 453.141 353.846 453 353.519C452.86 353.191 452.823 352.829 452.895 352.48L475.661 260.435C475.827 259.815 476.25 259.77 476.583 260.435Z" fill="#37474F"/>
<path d="M563.549 424.118L551.622 417.225C550.605 416.575 549.772 415.674 549.203 414.61L424.476 152.487C424.259 152.028 424.223 151.504 424.374 151.02C424.526 150.536 424.853 150.126 425.292 149.871L427.106 148.813C427.607 148.56 428.161 148.427 428.723 148.427C429.285 148.427 429.839 148.56 430.341 148.813L442.268 155.706C443.281 156.361 444.113 157.261 444.686 158.322L569.384 420.445C569.593 420.905 569.625 421.426 569.475 421.908C569.324 422.391 569.001 422.801 568.568 423.06L566.739 424.118C566.244 424.367 565.698 424.496 565.144 424.496C564.59 424.496 564.044 424.367 563.549 424.118V424.118Z" fill="#37474F"/>
<path d="M442.404 157.46L440.59 158.503C440.155 158.765 439.832 159.178 439.681 159.663C439.531 160.148 439.563 160.671 439.774 161.133L564.531 423.241C564.63 423.46 564.773 423.655 564.952 423.814C565.131 423.973 565.342 424.092 565.571 424.163C565.799 424.235 566.04 424.257 566.278 424.228C566.516 424.2 566.745 424.121 566.95 423.997L568.764 422.939C569.198 422.68 569.521 422.27 569.671 421.787C569.822 421.305 569.79 420.784 569.58 420.324L444.853 158.216C444.755 157.993 444.611 157.794 444.429 157.632C444.248 157.47 444.034 157.349 443.801 157.277C443.569 157.206 443.324 157.185 443.083 157.216C442.841 157.248 442.61 157.331 442.404 157.46V157.46Z" fill="#455A64"/>
<path d="M444.55 158.11C444.314 157.742 443.944 157.48 443.519 157.378C443.093 157.277 442.645 157.344 442.268 157.566L440.439 158.624C440.199 158.766 439.993 158.956 439.831 159.183C439.67 159.409 439.557 159.667 439.501 159.939L424.385 151.172C424.445 150.901 424.561 150.646 424.725 150.422C424.889 150.198 425.097 150.011 425.337 149.872L427.151 148.828C427.65 148.568 428.205 148.431 428.769 148.431C429.332 148.431 429.887 148.568 430.386 148.828L442.313 155.707C443.236 156.322 444.003 157.145 444.55 158.11V158.11Z" fill="#455A64"/>
<path d="M568.416 320.554V320.645C568.423 320.615 568.423 320.584 568.416 320.554V320.554Z" fill="#263238"/>
<path d="M568.416 320.66V326.48C568.361 327.081 568.15 327.657 567.802 328.15C567.455 328.644 566.984 329.037 566.436 329.291C564.798 330.077 562.998 330.467 561.181 330.431C559.364 330.394 557.581 329.931 555.975 329.08L497.837 295.506C497.594 295.398 497.383 295.228 497.226 295.013C497.07 294.798 496.973 294.546 496.945 294.281V288.461C496.969 288.727 497.062 288.981 497.216 289.199C497.37 289.417 497.579 289.59 497.822 289.701L555.96 323.275C557.567 324.124 559.35 324.584 561.167 324.618C562.984 324.652 564.784 324.26 566.421 323.471C566.974 323.223 567.451 322.831 567.801 322.337C568.152 321.843 568.365 321.264 568.416 320.66V320.66Z" fill="#263238"/>
<path d="M566.436 323.471C564.799 324.26 562.999 324.652 561.182 324.618C559.365 324.584 557.582 324.124 555.975 323.275L497.837 289.701C497.575 289.613 497.348 289.446 497.187 289.222C497.026 288.998 496.939 288.729 496.939 288.454C496.939 288.178 497.026 287.909 497.187 287.685C497.348 287.461 497.575 287.294 497.837 287.206L503.626 283.866C504.295 283.53 505.033 283.356 505.78 283.356C506.528 283.356 507.266 283.53 507.935 283.866L566.088 317.44C566.728 317.72 567.282 318.166 567.691 318.732C568.101 319.299 568.351 319.964 568.416 320.66C568.366 321.262 568.156 321.84 567.808 322.334C567.46 322.828 566.986 323.221 566.436 323.471V323.471Z" fill="#37474F"/>
<path d="M579.149 350.092L446.455 352.934C445.236 353.009 444.047 353.338 442.963 353.901L441.134 354.959C440.94 355.026 440.772 355.151 440.653 355.318C440.534 355.484 440.47 355.684 440.47 355.889C440.47 356.094 440.534 356.294 440.653 356.46C440.772 356.627 440.94 356.752 441.134 356.819L467.135 367.673C468.211 368.23 469.4 368.535 470.612 368.564L574.1 366.357C575.315 366.275 576.499 365.941 577.577 365.375L579.391 364.332C579.862 364.022 580.254 363.607 580.535 363.118C580.816 362.63 580.978 362.083 581.009 361.52V351.921C581.009 351.678 580.96 351.438 580.867 351.214C580.773 350.99 580.635 350.787 580.462 350.617C580.289 350.446 580.084 350.312 579.859 350.222C579.633 350.132 579.392 350.088 579.149 350.092V350.092Z" fill="#455A64"/>
<path d="M575.96 364.437V354.838C575.96 354.596 575.911 354.355 575.818 354.131C575.724 353.907 575.586 353.704 575.413 353.534C575.24 353.364 575.035 353.23 574.81 353.14C574.584 353.05 574.343 353.005 574.1 353.009L441.391 355.851C440.348 355.851 440.242 356.305 441.134 356.819L467.135 367.672C468.211 368.23 469.4 368.535 470.612 368.564L574.1 366.342C574.598 366.33 575.07 366.124 575.418 365.769C575.765 365.413 575.96 364.935 575.96 364.437Z" fill="#263238"/>
<path d="M581.009 351.921V361.52C580.978 362.081 580.816 362.626 580.535 363.112C580.254 363.598 579.862 364.011 579.391 364.317L577.577 365.375C576.501 365.943 575.315 366.273 574.1 366.342C574.598 366.33 575.071 366.125 575.418 365.769C575.765 365.413 575.96 364.935 575.96 364.438V354.839C575.971 354.547 575.91 354.256 575.784 353.993C575.657 353.73 575.469 353.501 575.234 353.327L580.283 350.409C580.518 350.583 580.706 350.812 580.833 351.075C580.959 351.339 581.02 351.629 581.009 351.921Z" fill="#263238"/>
<path d="M570.019 360.205L565.998 362.533C566.254 362.347 566.456 362.097 566.584 361.807C566.711 361.518 566.759 361.199 566.723 360.885C566.668 360.011 566.412 359.162 565.974 358.404C565.536 357.646 564.928 357 564.199 356.516C563.969 356.354 563.707 356.244 563.43 356.195C563.153 356.145 562.868 356.157 562.597 356.229L566.451 354.007C566.738 353.869 567.057 353.811 567.374 353.841C567.691 353.87 567.994 353.985 568.25 354.173C568.986 354.654 569.598 355.302 570.036 356.064C570.475 356.825 570.728 357.68 570.775 358.557C570.816 358.875 570.767 359.198 570.633 359.49C570.5 359.781 570.287 360.029 570.019 360.205Z" fill="#455A64"/>
<path d="M566.738 360.825C566.684 359.951 566.427 359.102 565.989 358.344C565.551 357.586 564.944 356.94 564.214 356.456C563.984 356.294 563.722 356.184 563.445 356.134C563.168 356.085 562.883 356.096 562.612 356.169L562.279 356.365L470.491 409.274L474.043 415.471L566.013 362.382C566.259 362.208 566.456 361.973 566.584 361.7C566.711 361.427 566.764 361.125 566.738 360.825V360.825Z" fill="#3BC5CE"/>
<path opacity="0.1" d="M566.738 360.825C566.684 359.951 566.427 359.102 565.989 358.344C565.551 357.586 564.944 356.94 564.214 356.456C563.984 356.294 563.722 356.184 563.445 356.134C563.168 356.085 562.883 356.096 562.612 356.169L562.279 356.365L470.491 409.274L474.043 415.471L566.013 362.382C566.259 362.208 566.456 361.973 566.584 361.7C566.711 361.427 566.764 361.125 566.738 360.825V360.825Z" fill="black"/>
<path d="M472.259 409.546C472.995 410.027 473.607 410.674 474.046 411.436C474.484 412.198 474.737 413.052 474.784 413.93C474.784 415.532 473.65 416.182 472.259 415.441C471.521 414.965 470.906 414.321 470.465 413.562C470.023 412.802 469.768 411.949 469.72 411.072C469.72 409.395 470.853 408.745 472.259 409.546Z" fill="#E0E0E0"/>
<path d="M431.081 163.31C430.852 163.146 430.589 163.037 430.312 162.99C430.034 162.943 429.749 162.959 429.479 163.038L429.147 163.219L332.959 218.773L336.512 224.971L432.865 169.342C433.125 169.159 433.331 168.91 433.462 168.62C433.592 168.33 433.642 168.01 433.606 167.694C433.548 166.819 433.29 165.969 432.852 165.209C432.415 164.449 431.809 163.8 431.081 163.31V163.31Z" fill="#3BC5CE"/>
<path opacity="0.1" d="M431.081 163.31C430.852 163.146 430.589 163.037 430.312 162.99C430.034 162.943 429.749 162.959 429.479 163.038L429.147 163.219L332.959 218.773L336.512 224.971L432.865 169.342C433.125 169.159 433.331 168.91 433.462 168.62C433.592 168.33 433.642 168.01 433.606 167.694C433.548 166.819 433.29 165.969 432.852 165.209C432.415 164.449 431.809 163.8 431.081 163.31V163.31Z" fill="black"/>
<path d="M436.886 166.999L432.865 169.311C433.12 169.128 433.322 168.88 433.449 168.594C433.577 168.307 433.626 167.991 433.591 167.679C433.533 166.804 433.275 165.954 432.837 165.194C432.4 164.434 431.794 163.785 431.066 163.295C430.837 163.131 430.574 163.022 430.296 162.975C430.019 162.927 429.734 162.944 429.464 163.023L433.334 160.816C433.618 160.68 433.933 160.623 434.246 160.649C434.56 160.676 434.861 160.785 435.118 160.967C435.855 161.447 436.469 162.094 436.911 162.856C437.352 163.617 437.608 164.472 437.657 165.351C437.692 165.67 437.638 165.992 437.502 166.283C437.366 166.573 437.153 166.821 436.886 166.999Z" fill="#37474F"/>
<path d="M474.149 407.308C439.854 402.364 408.295 385.802 384.743 360.387C361.192 334.973 347.074 302.247 344.75 267.676L337.267 224.563L432.911 169.327L442.238 210.55C463.839 291.893 496.582 335.323 562.37 356.335L474.149 407.308Z" fill="#3BC5CE"/>
<path opacity="0.07" d="M528.856 357.907C507.602 346.358 484.201 337.333 467.543 319.798C454.255 305.8 446.379 287.494 440.847 269.006C434.783 248.928 431.055 228.217 429.736 207.285C429.283 200.013 428.663 191.76 422.994 187.179C419.353 184.296 414.904 182.621 410.266 182.387L378.853 200.527C379.201 206.574 383.388 212.046 384.9 213.603C387.107 215.909 389.583 217.939 392.277 219.65C393.879 220.633 391.415 234.48 391.143 236.188C389.964 243.413 384.401 247.404 383.162 254.403C376.914 290.265 383.799 327.178 402.556 358.376C409.616 370.016 422.934 378.783 434.604 385.45C445.986 391.98 456.115 394.716 468.631 398.632C474.859 400.597 481.375 403.167 481.375 403.167C481.873 404.315 483.506 410.196 483.506 410.196L547.707 373.13C543.292 366.388 535.991 361.792 528.856 357.907Z" fill="black"/>
<path d="M549.732 278.046L550.73 307.312C550.749 307.752 550.857 308.184 551.047 308.581C551.638 309.741 552.587 310.68 553.753 311.257C556.019 312.369 558.508 312.947 561.032 312.947C563.555 312.947 566.045 312.369 568.311 311.257C569.471 310.677 570.415 309.739 571.001 308.581C571.166 308.229 571.269 307.85 571.304 307.463V307.463C571.311 307.352 571.311 307.241 571.304 307.13V307.13L572.286 278.061C572.798 277.359 573.097 276.525 573.148 275.657L571.939 311.091V311.454C571.787 312.356 571.417 313.208 570.861 313.935C570.305 314.662 569.58 315.242 568.749 315.626C566.355 316.841 563.709 317.474 561.024 317.474C558.34 317.474 555.693 316.841 553.3 315.626C552.438 315.236 551.691 314.631 551.133 313.868C550.574 313.105 550.222 312.211 550.11 311.272V311.166L548.901 275.657C548.951 276.515 549.239 277.342 549.732 278.046V278.046Z" fill="#3BC5CE"/>
<path opacity="0.83" d="M549.732 278.046L550.73 307.312C550.749 307.752 550.857 308.184 551.047 308.581C551.638 309.741 552.587 310.68 553.753 311.257C556.019 312.369 558.508 312.947 561.032 312.947C563.555 312.947 566.045 312.369 568.311 311.257C569.471 310.677 570.415 309.739 571.001 308.581C571.166 308.229 571.269 307.85 571.304 307.463V307.463C571.311 307.352 571.311 307.241 571.304 307.13V307.13L572.286 278.061C572.798 277.359 573.097 276.525 573.148 275.657L571.939 311.091V311.454C571.787 312.356 571.417 313.208 570.861 313.935C570.305 314.662 569.58 315.242 568.749 315.626C566.355 316.841 563.709 317.474 561.024 317.474C558.34 317.474 555.693 316.841 553.3 315.626C552.438 315.236 551.691 314.631 551.133 313.868C550.574 313.105 550.222 312.211 550.11 311.272V311.166L548.901 275.657C548.951 276.515 549.239 277.342 549.732 278.046V278.046Z" fill="white"/>
<path d="M552.438 280.434C555.099 281.783 558.041 282.487 561.024 282.487C564.008 282.487 566.95 281.783 569.611 280.434C570.677 279.859 571.598 279.047 572.301 278.061L571.319 307.13V307.463C571.284 307.85 571.182 308.229 571.016 308.581C570.43 309.739 569.486 310.677 568.326 311.257C566.06 312.369 563.57 312.947 561.047 312.947C558.524 312.947 556.034 312.369 553.768 311.257C552.602 310.68 551.653 309.741 551.062 308.581C550.872 308.184 550.764 307.752 550.745 307.312V307.312L549.732 278.046C550.441 279.037 551.366 279.854 552.438 280.434V280.434Z" fill="#3BC5CE"/>
<path opacity="0.7" d="M552.438 280.434C555.099 281.783 558.041 282.487 561.024 282.487C564.008 282.487 566.95 281.783 569.611 280.434C570.677 279.859 571.598 279.047 572.301 278.061L571.319 307.13V307.463C571.284 307.85 571.182 308.229 571.016 308.581C570.43 309.739 569.486 310.677 568.326 311.257C566.06 312.369 563.57 312.947 561.047 312.947C558.524 312.947 556.034 312.369 553.768 311.257C552.602 310.68 551.653 309.741 551.062 308.581C550.872 308.184 550.764 307.752 550.745 307.312V307.312L549.732 278.046C550.441 279.037 551.366 279.854 552.438 280.434V280.434Z" fill="white"/>
<path d="M571.319 307.402C571.179 308.249 570.829 309.047 570.301 309.723C569.773 310.399 569.083 310.932 568.295 311.272C566.03 312.384 563.54 312.962 561.017 312.962C558.493 312.962 556.003 312.384 553.738 311.272C552.947 310.937 552.255 310.405 551.726 309.728C551.197 309.051 550.849 308.251 550.715 307.402L549.853 282.414C549.762 280.767 550.851 279.104 553.118 277.879C555.575 276.695 558.267 276.081 560.994 276.081C563.721 276.081 566.413 276.695 568.87 277.879C571.137 279.134 572.226 280.797 572.135 282.414L571.319 307.402Z" fill="#3BC5CE"/>
<path opacity="0.05" d="M568.311 311.272C566.045 312.384 563.555 312.962 561.032 312.962C558.508 312.962 556.019 312.384 553.753 311.272C549.732 309.02 549.732 305.377 553.753 303.124C556.019 302.013 558.508 301.435 561.032 301.435C563.555 301.435 566.045 302.013 568.311 303.124C572.316 305.377 572.316 309.02 568.311 311.272Z" fill="black"/>
<path opacity="0.15" d="M571.319 307.402C571.179 308.249 570.829 309.047 570.301 309.723C569.773 310.399 569.083 310.932 568.295 311.272C566.03 312.384 563.54 312.962 561.017 312.962C558.493 312.962 556.003 312.384 553.738 311.272C552.947 310.937 552.255 310.405 551.726 309.728C551.197 309.051 550.849 308.251 550.715 307.402L549.853 282.414C549.762 280.767 550.851 279.104 553.118 277.879C555.575 276.695 558.267 276.081 560.994 276.081C563.721 276.081 566.413 276.695 568.87 277.879C571.137 279.134 572.226 280.797 572.135 282.414L571.319 307.402Z" fill="white"/>
<path opacity="0.4" d="M568.9 286.602C566.443 287.786 563.751 288.401 561.024 288.401C558.297 288.401 555.605 287.786 553.149 286.602C548.795 284.183 548.795 280.268 553.149 277.849C555.605 276.665 558.297 276.05 561.024 276.05C563.751 276.05 566.443 276.665 568.9 277.849C573.254 280.268 573.254 284.183 568.9 286.602Z" fill="white"/>
<path opacity="0.2" d="M553.149 286.602C557.487 288.685 562.469 288.983 567.026 287.433C560.979 288.476 555.386 285.68 555.87 282.067V281.84C554.653 281.527 553.484 281.054 552.393 280.434C551.902 280.152 551.437 279.829 551.002 279.467C548.976 281.78 549.732 284.621 553.149 286.602Z" fill="#3BC5CE"/>
<path d="M548.886 275.551C548.94 276.411 549.233 277.238 549.732 277.94C550.441 278.931 551.366 279.748 552.438 280.328C555.099 281.678 558.041 282.381 561.024 282.381C564.008 282.381 566.95 281.678 569.611 280.328C570.677 279.753 571.598 278.942 572.301 277.955C572.813 277.253 573.112 276.419 573.163 275.551C573.239 273.692 572.06 271.833 569.611 270.427C566.95 269.078 564.008 268.375 561.024 268.375C558.041 268.375 555.099 269.078 552.438 270.427C550.019 271.923 548.84 273.768 548.886 275.551ZM552.982 271.016C555.489 269.801 558.238 269.169 561.024 269.169C563.81 269.169 566.56 269.801 569.066 271.016C573.511 273.48 573.511 277.486 569.066 279.95C566.558 281.16 563.809 281.788 561.024 281.788C558.24 281.788 555.491 281.16 552.982 279.95C548.553 277.486 548.553 273.48 552.982 271.016Z" fill="#3BC5CE"/>
<path opacity="0.88" d="M548.886 275.551C548.94 276.411 549.233 277.238 549.732 277.94C550.441 278.931 551.366 279.748 552.438 280.328C555.099 281.678 558.041 282.381 561.024 282.381C564.008 282.381 566.95 281.678 569.611 280.328C570.677 279.753 571.598 278.942 572.301 277.955C572.813 277.253 573.112 276.419 573.163 275.551C573.239 273.692 572.06 271.833 569.611 270.427C566.95 269.078 564.008 268.375 561.024 268.375C558.041 268.375 555.099 269.078 552.438 270.427C550.019 271.923 548.84 273.768 548.886 275.551ZM552.982 271.016C555.489 269.801 558.238 269.169 561.024 269.169C563.81 269.169 566.56 269.801 569.066 271.016C573.511 273.48 573.511 277.486 569.066 279.95C566.558 281.16 563.809 281.788 561.024 281.788C558.24 281.788 555.491 281.16 552.982 279.95C548.553 277.486 548.553 273.48 552.982 271.016Z" fill="white"/>
<path d="M552.982 279.95C555.491 281.16 558.24 281.788 561.024 281.788C563.809 281.788 566.558 281.16 569.066 279.95C573.511 277.486 573.511 273.48 569.066 271.016C566.56 269.801 563.81 269.169 561.024 269.169C558.238 269.169 555.489 269.801 552.982 271.016C548.553 273.48 548.553 277.486 552.982 279.95Z" fill="#3BC5CE"/>
<path opacity="0.7" d="M552.982 279.95C555.491 281.16 558.24 281.788 561.024 281.788C563.809 281.788 566.558 281.16 569.066 279.95C573.511 277.486 573.511 273.48 569.066 271.016C566.56 269.801 563.81 269.169 561.024 269.169C558.238 269.169 555.489 269.801 552.982 271.016C548.553 273.48 548.553 277.486 552.982 279.95Z" fill="white"/>
<path d="M570.502 278.968C570.057 279.342 569.576 279.671 569.066 279.95C566.558 281.16 563.809 281.788 561.024 281.788C558.24 281.788 555.491 281.16 552.982 279.95C552.475 279.667 551.994 279.338 551.546 278.968C552.041 278.542 552.578 278.167 553.149 277.849C555.605 276.665 558.297 276.05 561.024 276.05C563.751 276.05 566.443 276.665 568.9 277.849C569.471 278.167 570.008 278.542 570.502 278.968V278.968Z" fill="#3BC5CE"/>
<path opacity="0.35" d="M570.502 278.968C570.057 279.342 569.576 279.671 569.066 279.95C566.558 281.16 563.809 281.788 561.024 281.788C558.24 281.788 555.491 281.16 552.982 279.95C552.475 279.667 551.994 279.338 551.546 278.968C552.041 278.542 552.578 278.167 553.149 277.849C555.605 276.665 558.297 276.05 561.024 276.05C563.751 276.05 566.443 276.665 568.9 277.849C569.471 278.167 570.008 278.542 570.502 278.968V278.968Z" fill="white"/>
<path opacity="0.03" d="M568.9 277.849L568.492 277.638L567.827 277.335C566.537 276.792 565.179 276.426 563.791 276.247C563.398 276.247 563.005 276.156 562.627 276.126H561.614H559.981C558.763 276.197 557.554 276.379 556.368 276.67C555.257 276.947 554.186 277.364 553.179 277.91L552.74 278.167H552.665L552.332 278.393L552 278.635L551.652 278.922C552.097 279.296 552.578 279.626 553.088 279.905C554.089 280.437 555.15 280.848 556.247 281.129C557.532 278.106 563.745 276.307 568.9 277.849Z" fill="black"/>
<path opacity="0.1" d="M550.79 308.808V310.819V310.97C550.941 313.993 555.431 316.382 560.964 316.382C566.496 316.382 570.971 313.978 571.137 311V310.819L571.213 308.778C570.669 311.605 566.285 313.812 560.964 313.812C555.643 313.812 551.35 311.68 550.79 308.808Z" fill="#3BC5CE"/>
<path opacity="0.5" d="M562.884 290.23L565.03 293.737C565.104 293.856 565.206 293.956 565.327 294.027C565.449 294.098 565.585 294.139 565.726 294.145L570.17 293.752C570.397 293.752 570.457 293.51 570.306 293.253L568.16 289.761C568.087 289.639 567.986 289.536 567.865 289.462C567.744 289.388 567.606 289.346 567.464 289.338L563.02 289.746C562.793 289.761 562.733 289.988 562.884 290.23Z" fill="white"/>
<path opacity="0.4" d="M561.659 294.795L563.806 298.302C563.884 298.428 563.994 298.532 564.123 298.604L565.363 294.069C565.232 293.994 565.118 293.89 565.03 293.767L562.884 290.26C562.748 290.033 562.793 289.822 562.99 289.776C562.886 289.794 562.788 289.838 562.706 289.904C562.624 289.971 562.561 290.057 562.521 290.154L561.463 294.039C561.441 294.306 561.51 294.573 561.659 294.795V294.795Z" fill="white"/>
<path opacity="0.3" d="M564.123 298.604C564.173 298.643 564.23 298.674 564.29 298.695H564.486L568.93 298.302C569.042 298.289 569.147 298.246 569.236 298.176C569.324 298.107 569.391 298.014 569.429 297.909L570.487 294.039C570.521 293.782 570.468 293.522 570.336 293.298C570.442 293.525 570.336 293.707 570.17 293.737L565.726 294.13C565.596 294.135 565.469 294.098 565.363 294.024L564.123 298.604Z" fill="white"/>
<path opacity="0.5" d="M558.092 303.427L561.72 304.651C561.844 304.694 561.976 304.706 562.106 304.685C562.235 304.664 562.357 304.611 562.461 304.53L565.408 301.598C565.544 301.446 565.408 301.25 565.197 301.174L561.584 299.95C561.461 299.907 561.329 299.894 561.201 299.913C561.072 299.931 560.949 299.98 560.843 300.056L557.82 303.079C557.744 303.155 557.835 303.336 558.092 303.427Z" fill="white"/>
<path opacity="0.4" d="M559.815 308.007L563.428 309.231C563.567 309.269 563.713 309.269 563.851 309.231L562.128 304.696C561.994 304.726 561.854 304.726 561.72 304.696L558.092 303.472C557.85 303.396 557.759 303.215 557.88 303.064C557.813 303.138 557.767 303.23 557.748 303.329C557.73 303.427 557.739 303.529 557.774 303.623L559.21 307.599C559.362 307.797 559.575 307.94 559.815 308.007V308.007Z" fill="white"/>
<path opacity="0.3" d="M563.851 309.262C563.906 309.27 563.962 309.27 564.018 309.262H564.108L567.056 306.329C567.13 306.256 567.182 306.163 567.206 306.061C567.23 305.96 567.225 305.854 567.192 305.755L565.756 301.779C565.621 301.577 565.425 301.423 565.197 301.341C565.408 301.431 565.484 301.613 565.333 301.749L562.4 304.681C562.309 304.767 562.192 304.82 562.068 304.833L563.851 309.262Z" fill="white"/>
<path opacity="0.4" d="M551.879 297.395L555.703 296.428C555.818 296.382 555.92 296.308 555.999 296.213C556.079 296.118 556.133 296.005 556.157 295.883L556.943 292.18C556.943 291.923 556.943 291.742 556.701 291.802L552.877 292.754C552.76 292.801 552.657 292.877 552.577 292.975C552.498 293.073 552.445 293.19 552.423 293.314L551.622 297.017C551.561 297.274 551.682 297.44 551.879 297.395Z" fill="white"/>
<path opacity="0.3" d="M554.585 301.068L558.409 300.116C558.52 300.076 558.619 300.008 558.696 299.92L555.975 296.231C555.912 296.328 555.815 296.398 555.703 296.428L551.879 297.395C551.682 297.395 551.576 297.289 551.607 297.047C551.569 297.283 551.6 297.525 551.697 297.743L554.056 300.887C554.118 300.964 554.201 301.021 554.294 301.053C554.388 301.085 554.488 301.091 554.585 301.068Z" fill="white"/>
<path opacity="0.5" d="M558.696 299.92C558.732 299.873 558.763 299.822 558.787 299.768V299.768C558.796 299.734 558.796 299.697 558.787 299.663L559.588 295.959C559.646 295.716 559.619 295.46 559.513 295.233L557.291 291.968C557.233 291.898 557.158 291.844 557.073 291.812C556.988 291.78 556.896 291.772 556.807 291.787C556.973 291.787 557.064 291.938 557.003 292.18L556.217 295.883C556.188 296.013 556.125 296.133 556.036 296.231L558.696 299.92Z" fill="white"/>
<path d="M547.933 272.8C548.227 273.46 548.571 274.097 548.961 274.705C549.011 274.457 549.082 274.215 549.173 273.979C549.504 273.165 550.021 272.44 550.685 271.863C551.111 271.459 551.577 271.099 552.075 270.79L552.771 271.183V278.227L552.922 278.303L553.33 278.469H553.527L553.723 278.545H553.904L554.464 278.65H554.675C555.137 278.699 555.603 278.663 556.051 278.545C556.25 278.502 556.442 278.436 556.625 278.348V278.348L558.137 277.698C558.473 277.548 558.788 277.355 559.074 277.124L559.21 277.003L559.316 276.897L559.437 276.761L559.558 276.64L559.755 276.368L559.875 276.217L559.966 276.065L560.057 275.899L560.148 275.733L560.238 275.552C560.233 275.496 560.233 275.441 560.238 275.385C560.254 275.326 560.28 275.27 560.314 275.219C560.332 275.146 560.358 275.075 560.389 275.007C560.385 274.942 560.385 274.876 560.389 274.811C560.389 274.735 560.389 274.66 560.389 274.584C560.432 274.465 560.467 274.344 560.495 274.221C560.495 274.085 560.495 273.934 560.571 273.798V273.601C560.577 273.521 560.577 273.44 560.571 273.36C560.571 273.284 560.571 273.208 560.571 273.148C560.571 273.088 560.571 272.997 560.571 272.921V272.528C560.577 270.809 560.216 269.108 559.513 267.54C557.578 263.141 553.693 260.586 550.821 261.841L549.309 262.506C546.709 263.791 545.998 268.386 547.933 272.8Z" fill="#3BC5CE"/>
<path opacity="0.1" d="M552.755 277.305V278.227L552.907 278.303L553.315 278.469H553.511L553.708 278.545H553.889L554.449 278.65H554.66C555.121 278.699 555.588 278.663 556.036 278.545C556.234 278.502 556.427 278.436 556.61 278.348L558.122 277.698C558.458 277.548 558.773 277.355 559.059 277.124L559.195 277.003L559.301 276.897L559.422 276.761L559.543 276.64L559.739 276.368L559.86 276.217L559.951 276.065L560.042 275.899L560.132 275.733L560.223 275.552C560.217 275.496 560.217 275.441 560.223 275.385C560.239 275.326 560.265 275.27 560.299 275.219C560.317 275.146 560.342 275.075 560.374 275.007C560.37 274.942 560.37 274.876 560.374 274.811C560.374 274.735 560.374 274.66 560.374 274.584C560.417 274.465 560.452 274.344 560.48 274.221C560.48 274.085 560.48 273.934 560.556 273.798V273.601C560.562 273.521 560.562 273.44 560.556 273.36C560.556 273.284 560.556 273.208 560.556 273.148C560.556 273.088 560.556 272.997 560.556 272.921V272.528L559.044 273.42L558.016 274.01L555.854 275.264L555.779 275.552L553.799 276.685L553.436 276.897L552.755 277.305Z" fill="black"/>
<path opacity="0.95" d="M547.933 272.8C548.227 273.46 548.571 274.097 548.961 274.705C549.011 274.458 549.082 274.215 549.173 273.979C549.504 273.165 550.021 272.44 550.685 271.863C551.111 271.459 551.577 271.1 552.075 270.79L552.771 271.183V278.227L552.922 278.303L553.33 278.469H553.527L553.723 278.545H553.904L554.464 278.65H554.675C555.137 278.699 555.603 278.663 556.051 278.545C556.25 278.502 556.442 278.436 556.625 278.348V278.348C557.498 277.841 558.212 277.102 558.69 276.214C559.168 275.325 559.39 274.321 559.331 273.314C559.378 271.525 559.022 269.747 558.288 268.114C556.353 263.7 552.468 261.145 549.581 262.4C546.694 263.655 545.998 268.386 547.933 272.8Z" fill="white"/>
<path d="M549.037 265.514C548.553 264.849 548.568 264.002 549.037 263.67L549.354 263.519L549.732 263.458C550.276 263.277 550.957 263.897 551.108 264.698L551.924 269.369C551.924 269.596 551.773 269.686 551.622 269.49L549.037 265.514Z" fill="#3BC5CE"/>
<path d="M548.221 268.416C547.954 268.218 547.742 267.957 547.602 267.656C547.462 267.355 547.399 267.024 547.419 266.693C547.419 266.497 547.419 266.3 547.51 266.104C547.551 265.925 547.602 265.748 547.661 265.575C547.828 265.076 548.372 265.197 548.78 265.832L551.501 269.989C551.622 270.185 551.576 270.412 551.501 270.321L548.221 268.416Z" fill="#3BC5CE"/>
<path d="M549.097 271.908C548.719 272.075 548.145 271.515 547.933 270.76C547.933 270.608 547.843 270.472 547.812 270.321C547.782 270.17 547.737 270.019 547.707 269.868C547.555 269.127 547.888 268.704 548.372 268.991L551.047 270.578C551.183 270.669 551.259 270.971 551.153 271.017L549.097 271.908Z" fill="#3BC5CE"/>
<path d="M549.173 274.04C549.503 273.225 550.021 272.5 550.685 271.924L549.173 272.543C548.855 272.634 548.84 273.345 549.173 274.04Z" fill="#3BC5CE"/>
<path d="M552.755 273.798V277.653L552.892 277.728C553.345 277.97 553.632 277.547 553.511 276.867C553.517 276.827 553.517 276.786 553.511 276.746L552.755 273.798Z" fill="#3BC5CE"/>
<path d="M556.202 276.005C556.64 276.61 556.64 277.517 556.202 277.743C556.042 277.841 555.876 277.927 555.703 278C555.538 278.076 555.366 278.137 555.189 278.182C554.675 278.318 554.071 277.743 553.919 277.003L552.771 272.06C552.771 271.833 552.922 271.742 553.058 271.924L556.202 276.005Z" fill="#3BC5CE"/>
<path d="M553.965 271.772L557.548 273.133C557.884 273.296 558.153 273.57 558.31 273.909C558.467 274.248 558.502 274.63 558.409 274.992C558.368 275.127 558.318 275.258 558.258 275.385C558.212 275.52 558.156 275.651 558.092 275.778C557.789 276.398 557.003 276.368 556.58 275.703L553.889 272.165C553.663 271.969 553.768 271.697 553.965 271.772Z" fill="#3BC5CE"/>
<path d="M556.898 269.127C557.412 268.9 558.077 269.369 558.273 270.109C558.35 270.368 558.41 270.63 558.455 270.896C558.455 271.137 558.53 271.394 558.56 271.651C558.636 272.392 558.137 272.876 557.532 272.634L553.511 271.122C553.33 271.122 553.27 270.744 553.436 270.684L556.898 269.127Z" fill="#3BC5CE"/>
<path d="M554.811 266.179C555.068 265.559 555.824 265.514 556.323 266.104L556.61 266.466C556.701 266.587 556.807 266.708 556.898 266.844C557.007 266.971 557.088 267.12 557.136 267.28C557.183 267.441 557.196 267.61 557.173 267.776C557.15 267.942 557.092 268.101 557.003 268.243C556.914 268.384 556.795 268.505 556.656 268.598L553.632 269.928C553.466 270.004 553.27 269.762 553.345 269.58L554.811 266.179Z" fill="#3BC5CE"/>
<path d="M551.471 264.29C551.319 263.488 551.803 262.899 552.438 263.065C552.664 263.127 552.886 263.203 553.103 263.292L553.768 263.579C554.086 263.765 554.331 264.053 554.463 264.396C554.595 264.74 554.606 265.118 554.494 265.469L552.756 269.732C552.756 269.928 552.423 269.837 552.378 269.596L551.471 264.29Z" fill="#3BC5CE"/>
<g opacity="0.45">
<path d="M549.037 265.514C548.553 264.849 548.568 264.002 549.037 263.67L549.354 263.519L549.732 263.458C550.276 263.277 550.957 263.897 551.108 264.698L551.924 269.369C551.924 269.596 551.773 269.686 551.622 269.49L549.037 265.514Z" fill="white"/>
<path d="M548.221 268.416C547.954 268.218 547.742 267.957 547.602 267.656C547.462 267.355 547.399 267.024 547.419 266.693C547.419 266.497 547.419 266.3 547.51 266.104C547.551 265.925 547.602 265.748 547.661 265.575C547.828 265.076 548.372 265.197 548.78 265.832L551.501 269.989C551.622 270.185 551.576 270.412 551.501 270.321L548.221 268.416Z" fill="white"/>
<path d="M549.097 271.908C548.719 272.075 548.145 271.515 547.933 270.76C547.933 270.608 547.843 270.472 547.812 270.321C547.782 270.17 547.737 270.019 547.707 269.868C547.555 269.127 547.888 268.704 548.372 268.991L551.047 270.578C551.183 270.669 551.259 270.971 551.153 271.017L549.097 271.908Z" fill="white"/>
<path d="M549.173 274.04C549.503 273.225 550.021 272.5 550.685 271.924L549.173 272.543C548.855 272.634 548.84 273.345 549.173 274.04Z" fill="white"/>
<path d="M552.755 273.798V277.653L552.892 277.728C553.345 277.97 553.632 277.547 553.511 276.867C553.517 276.827 553.517 276.786 553.511 276.746L552.755 273.798Z" fill="white"/>
<path d="M556.202 276.005C556.64 276.61 556.64 277.517 556.202 277.743C556.042 277.841 555.876 277.927 555.703 278C555.538 278.076 555.366 278.137 555.189 278.182C554.675 278.318 554.071 277.743 553.919 277.003L552.771 272.06C552.771 271.833 552.922 271.742 553.058 271.924L556.202 276.005Z" fill="white"/>
<path d="M553.965 271.772L557.548 273.133C557.884 273.296 558.153 273.57 558.31 273.909C558.467 274.248 558.502 274.63 558.409 274.992C558.368 275.127 558.318 275.258 558.258 275.385C558.212 275.52 558.156 275.651 558.092 275.778C557.789 276.398 557.003 276.368 556.58 275.703L553.889 272.165C553.663 271.969 553.768 271.697 553.965 271.772Z" fill="white"/>
<path d="M556.898 269.127C557.412 268.9 558.077 269.369 558.273 270.11C558.35 270.368 558.41 270.63 558.455 270.896C558.455 271.138 558.53 271.395 558.56 271.652C558.636 272.392 558.137 272.876 557.532 272.634L553.511 271.122C553.33 271.122 553.27 270.745 553.436 270.684L556.898 269.127Z" fill="white"/>
<path d="M554.811 266.179C555.068 265.559 555.824 265.514 556.323 266.104L556.61 266.466C556.701 266.587 556.807 266.708 556.898 266.844C557.007 266.971 557.088 267.12 557.136 267.28C557.183 267.441 557.196 267.61 557.173 267.776C557.15 267.942 557.092 268.101 557.003 268.243C556.914 268.384 556.795 268.505 556.656 268.598L553.632 269.928C553.466 270.004 553.27 269.762 553.345 269.58L554.811 266.179Z" fill="white"/>
<path d="M551.471 264.29C551.319 263.488 551.803 262.899 552.438 263.065C552.664 263.127 552.886 263.203 553.103 263.292L553.768 263.579C554.086 263.765 554.331 264.053 554.463 264.396C554.595 264.74 554.606 265.118 554.494 265.469L552.756 269.732C552.756 269.928 552.423 269.837 552.378 269.596L551.471 264.29Z" fill="white"/>
</g>
<path opacity="0.07" d="M556.051 278.696C555.603 278.815 555.136 278.85 554.675 278.802H554.464L553.904 278.696H553.723L553.526 278.62H553.33L552.922 278.454L552.771 278.378V271.334L556.64 278.666L556.051 278.696Z" fill="black"/>
<path d="M587.69 265.363C585.318 264.668 582.835 264.432 580.374 264.667C577.258 263.283 574.032 262.161 570.729 261.312L572.241 257.396L574.433 251.592C580.117 255.114 584.334 258.424 587.69 265.363Z" fill="#3BC5CE"/>
<path opacity="0.15" d="M587.69 265.363C585.318 264.668 582.835 264.432 580.374 264.667C577.258 263.283 574.032 262.161 570.729 261.312L572.241 257.396L574.433 251.592C580.117 255.114 584.334 258.424 587.69 265.363Z" fill="black"/>
<path d="M587.69 265.363C585.318 264.668 582.835 264.432 580.374 264.667C580.495 258.621 578.136 254.192 574.826 251.864C580.048 255.37 584.439 259.978 587.69 265.363V265.363Z" fill="#EBEBEB"/>
<path opacity="0.15" d="M572.211 257.411L571.757 258.606C574.884 259.315 577.812 260.715 580.328 262.702C582.935 263.098 585.438 264.007 587.69 265.378C587.69 265.378 582.989 259.634 572.211 257.411Z" fill="black"/>
<path d="M555.31 253.103C557.552 254.153 559.574 255.62 561.266 257.427C564.52 258.465 567.685 259.764 570.729 261.312L572.241 257.396L574.433 251.592C567.872 250.443 562.43 250.125 555.31 253.103Z" fill="#3BC5CE"/>
<path d="M555.31 253.103C557.552 254.153 559.574 255.62 561.266 257.427C564.52 258.465 567.685 259.764 570.729 261.312L572.241 257.396L574.433 251.592C567.872 250.443 562.43 250.125 555.31 253.103Z" fill="#EBEBEB"/>
<path d="M555.31 253.103C557.552 254.153 559.574 255.62 561.266 257.427C565.197 252.892 569.868 251.063 573.889 251.516C567.654 250.686 561.314 251.228 555.31 253.103V253.103Z" fill="#3BC5CE"/>
<path opacity="0.15" d="M555.31 253.103C557.552 254.153 559.574 255.62 561.266 257.427C565.197 252.892 569.868 251.063 573.889 251.516C567.654 250.686 561.314 251.228 555.31 253.103V253.103Z" fill="black"/>
<path opacity="0.15" d="M572.211 257.411L571.757 258.606C568.942 257.064 565.817 256.175 562.612 256.006C560.392 254.571 557.911 253.59 555.31 253.118C555.31 253.118 562.702 251.985 572.211 257.411Z" fill="black"/>
<path d="M574.463 251.894L559.664 295.838C559.648 295.868 559.627 295.894 559.601 295.914C559.575 295.935 559.545 295.95 559.513 295.959C559.421 295.969 559.329 295.957 559.242 295.926C559.156 295.895 559.078 295.844 559.014 295.778C558.998 295.75 558.99 295.719 558.99 295.687C558.99 295.655 558.998 295.624 559.014 295.596L573.828 251.652L574.463 251.894Z" fill="#455A64"/>
<path d="M574.161 251.864C574.085 251.864 574.161 251.773 574.161 251.728C574.201 251.583 574.251 251.442 574.312 251.304C574.433 250.957 574.614 250.503 574.796 250.05C574.901 249.823 574.992 249.596 575.098 249.385L575.234 249.082L575.355 248.81L575.476 248.583L575.431 248.341L575.521 248.19C575.521 248.19 575.521 248.19 575.521 248.372C575.521 248.553 575.521 248.478 575.521 248.553C575.527 248.639 575.527 248.725 575.521 248.81V249.097C575.527 249.208 575.527 249.319 575.521 249.43L575.34 250.125C575.204 250.609 575.053 251.078 574.947 251.425L574.796 251.849C574.796 251.849 574.796 251.939 574.69 251.939H574.478L574.161 251.864Z" fill="#455A64"/>
<path d="M587.69 265.363C585.629 263.773 583.284 262.588 580.782 261.871C578.155 259.957 575.106 258.702 571.893 258.213L574.403 251.592C580.228 254.592 584.9 259.434 587.69 265.363Z" fill="#3BC5CE"/>
<path d="M580.782 261.946C578.155 260.033 575.106 258.778 571.893 258.288L574.403 251.667C576.475 253.275 578.099 255.388 579.119 257.804C579.778 259.141 580.333 260.526 580.782 261.946V261.946Z" fill="#F0F0F0"/>
<path d="M555.325 253.103C557.946 253.278 560.51 253.945 562.884 255.068C566.116 255.372 569.227 256.45 571.954 258.213L574.463 251.592C568.091 249.977 561.365 250.508 555.325 253.103V253.103Z" fill="#F0F0F0"/>
<path d="M562.823 255.068C566.056 255.372 569.167 256.45 571.893 258.213L574.403 251.592C571.796 251.443 569.194 251.963 566.844 253.103C565.452 253.647 564.107 254.304 562.823 255.068V255.068Z" fill="#3BC5CE"/>
<path opacity="0.3" d="M558.953 295.596L563.488 282.354L564.305 282.233L559.77 295.838C559.754 295.868 559.733 295.893 559.707 295.914C559.681 295.935 559.651 295.95 559.619 295.959C559.527 295.969 559.435 295.957 559.348 295.926C559.262 295.895 559.184 295.844 559.12 295.778C559.074 295.774 559.032 295.753 559.001 295.719C558.97 295.686 558.953 295.642 558.953 295.596V295.596Z" fill="white"/>
<path opacity="0.5" d="M563.428 282.354L563.67 281.613L564.501 281.492L564.244 282.233L563.428 282.354Z" fill="white"/>
<path d="M521.011 364.74C529.158 368.504 546.331 353.644 549.415 346.086C552.499 338.528 552.347 334.461 546.391 331.513C540.435 328.566 508.706 350.848 521.011 364.74Z" fill="#3BC5CE"/>
<path d="M521.283 366.252C529.43 370 546.391 353.554 549.475 345.995C552.559 338.437 552.408 334.37 546.452 331.423C540.496 328.475 504.382 356.486 521.283 366.252Z" fill="#263238"/>
<path d="M514.495 363.833C516.536 365.193 520.754 369.577 509.492 380.552C498.23 391.527 492.742 400.204 484.156 396.621C469.448 390.438 496.113 356.562 514.495 363.833Z" fill="#263238"/>
<path d="M636.079 463.875C622.776 455.274 613.54 442.424 605.951 429.212C600.766 417.361 575.793 360.25 571.183 352.117C565.665 342.352 530.292 325.119 512.953 317.122C507.179 314.447 476.023 303.23 476.023 303.23L443.069 292.18C441.557 303.82 440.227 312.859 444.807 324.318C449.388 335.776 460.725 342.125 477.429 350.515C491.246 357.454 530.141 367.415 534.238 368.927C538.334 370.439 542.446 369.94 544.169 377.498C545.893 385.057 545.379 388.533 553.421 397.981C563.73 410.075 581.855 425.191 588.295 438.298C589.15 441.34 589.356 444.528 588.9 447.655C587.101 459.537 597.44 459.461 604.198 466.339C607.886 470.088 610.335 474.169 615.263 476.497C619.768 478.552 624.673 479.584 629.624 479.521C634.068 479.521 640.81 477.782 643.818 474.139C647.809 469.332 640.523 466.762 636.079 463.875Z" fill="#FFA8A7"/>
<path d="M546.815 372.631C545.953 363.017 533.3 358.784 523.127 353.16C514.495 348.384 470.944 326.767 470.944 326.767C474.527 319.208 471.912 301.265 471.912 301.265L441.981 313.494C442.445 317.23 443.396 320.889 444.807 324.378C449.342 335.852 460.725 342.186 477.429 350.575C491.246 357.514 530.141 367.476 534.238 368.988C538.334 370.499 542.446 370 544.169 377.559C545.893 385.117 545.379 388.594 553.421 398.042C546.331 387.929 547.298 378.133 546.815 372.631Z" fill="#F28F8F"/>
<path d="M596.685 496.255C593.661 499.883 586.934 501.561 582.475 501.621C577.53 501.669 572.634 500.637 568.129 498.598C563.186 496.24 560.752 492.143 557.079 488.425C550.307 481.531 539.952 481.622 541.736 469.74C542.218 466.616 542.022 463.425 541.161 460.383C540.798 459.703 540.436 459.008 540.042 458.297C532.847 445.66 516.067 431.54 506.302 420.052C498.245 410.619 498.744 407.052 497.02 399.569C495.297 392.086 491.216 392.555 487.104 390.998C485.381 390.348 477.55 388.231 467.996 385.54C462.932 384.165 457.415 382.593 452.063 381.005C451.929 380.983 451.798 380.948 451.67 380.9C432.699 373.976 419.23 363.183 413.969 355.443C408.709 347.703 404.34 336.411 401.876 324.031L414.196 316.85L426.683 314.537L467.346 306.979C467.333 307.018 467.333 307.061 467.346 307.1C466.999 308.869 460.574 329.473 460.574 329.473C470.615 337.824 481.386 345.256 492.758 351.679C507.013 359.57 520.708 368.307 523.989 374.067C528.312 381.746 550.549 432.372 557.593 448.456C557.956 449.318 558.258 449.968 558.545 450.678C566.345 463.815 575.914 476.18 588.99 485.084C592.754 487.684 600.691 491.357 596.685 496.255Z" fill="#FFA8A7"/>
<path d="M513.588 363.228L514.495 363.833C514.495 363.833 505.712 361.701 494.224 371.86C488.177 377.196 476.174 390 484.156 396.621C484.156 396.621 437.854 377.876 423.387 367.718C408.92 357.56 404.657 345.043 400.41 325.225L471.957 301.356C471.957 301.356 500.936 311.454 519.181 319.163C540.511 328.233 546.391 331.483 546.391 331.483C546.391 331.483 540.828 330.894 531.925 339.042C519.091 350.666 516.627 363.032 521.237 366.373L513.588 363.228Z" fill="#455A64"/>
<path d="M513.588 363.228L474.98 340.976C474.98 340.976 481.858 332.965 484.262 324.348C484.65 327.129 484.468 329.959 483.727 332.667C482.986 335.375 481.703 337.904 479.954 340.1L504.019 354.823L521.283 366.252L513.588 363.228Z" fill="#37474F"/>
<path d="M437.279 222.265C449.811 220.33 455.57 222.265 465.789 239.12C474.043 252.725 487.21 277.426 487.21 277.426C487.21 277.426 529.793 289.519 536.157 289.746C541.615 289.958 545.424 287.796 550.942 288.869C557.608 290.154 561.07 290.925 564.547 291.318C565.605 291.439 565.469 295.46 558.893 295.853C555.802 296.034 552.703 296.034 549.611 295.853L550.14 310.728C544.834 309.927 540.133 307.448 534.192 306.873C528.856 306.359 484.927 301.371 473.998 296.549C466.439 289.444 450.083 264.274 450.083 264.274L437.279 222.265Z" fill="#FFA8A7"/>
<path d="M399.911 230.897L388.83 234.147C388.83 234.147 390.463 270.427 384.22 274.569C388.12 309.761 404.159 343.441 404.159 343.441C404.159 343.441 423.493 345.511 449.599 332.179C472.486 320.493 471.912 301.25 471.912 301.25C471.912 301.25 463.582 292.089 461.542 287.645C456.115 275.748 457.974 254.615 455.208 246.452C449.01 228.07 437.279 222.265 437.279 222.265L422.828 224.578L399.911 230.897Z" fill="#FAFAFA"/>
<path d="M411.656 324.076C402.405 317.787 394.786 286.088 394.56 279.225C394.333 272.362 398.505 250.276 395.572 243.308L389.012 242.642C389.012 253.617 388.513 271.682 384.22 274.569C388.12 309.761 404.159 343.44 404.159 343.44C404.159 343.44 423.493 345.511 449.599 332.179C455.345 329.372 460.414 325.355 464.459 320.403C451.806 328.551 420.621 330.183 411.656 324.076Z" fill="#EBEBEB"/>
<path d="M380.562 171.579C382.224 169.342 385.323 167.558 388.014 169.372C388.426 169.691 388.78 170.08 389.057 170.521C389.238 170.789 389.404 171.067 389.556 171.352C390.841 173.726 390.584 176.099 391.068 178.638L392.292 185.048L393.804 193.241L395.482 192.909L397.356 204.503L398.505 214.223H397.522C396.321 214.036 395.178 213.582 394.175 212.894C393.173 212.206 392.339 211.301 391.733 210.247C389.858 207.542 387.591 205.093 385.822 202.251C383.993 199.345 382.372 196.314 380.97 193.181C378.999 189.227 377.897 184.897 377.735 180.483C377.72 177.278 378.697 174.147 380.531 171.518L380.562 171.579Z" fill="#263238"/>
<path d="M439.577 160.967C439.711 160.931 439.852 160.931 439.985 160.967C440.159 161.004 440.314 161.1 440.424 161.239C442.194 163.039 443.338 165.36 443.689 167.86C444.021 169.752 443.843 171.698 443.175 173.499C442.483 175.304 441.125 176.776 439.381 177.611C438.877 177.867 438.311 177.977 437.748 177.928C437.115 177.812 436.528 177.518 436.055 177.082C435.215 176.348 434.455 175.527 433.787 174.633C432.42 173.212 431.637 171.328 431.595 169.357C431.612 169.03 431.711 168.713 431.883 168.435C432.069 168.217 432.282 168.024 432.518 167.86C433.476 167.065 434.389 166.217 435.254 165.321C436.07 164.58 436.871 163.809 437.642 163.038C438.413 162.267 438.655 161.39 439.577 160.967Z" fill="#263238"/>
<path d="M396.026 194.844C394.847 195.705 392.821 193.468 391.128 192.002C389.435 190.535 384.159 188.812 382.149 194.36C380.138 199.908 384.991 206.453 388.785 208.131C390.133 208.774 391.665 208.919 393.109 208.54C394.554 208.161 395.817 207.282 396.676 206.06L398.959 230.776C401.346 233.591 404.289 235.883 407.603 237.508C410.916 239.134 414.53 240.058 418.217 240.224C430.522 240.692 427.045 230.927 422.586 226.407L421.83 218.849C424.93 219.045 428.042 218.903 431.112 218.426C436.07 217.156 440.363 215.569 441.21 207.043C442.026 198.759 442.222 191.064 439.018 173.091C435.647 154.27 411.808 157.369 400.712 165.986C389.616 174.602 396.026 194.844 396.026 194.844Z" fill="#FFA8A7"/>
<path d="M396.237 196.945C395.603 197.02 392.821 193.271 391.128 192.002C390.418 191.473 390.251 190.233 390.115 189.447C389.616 186.726 389.858 184.005 389.163 181.344C388.268 178.849 387.07 176.473 385.595 174.27C384.159 171.874 383.455 169.11 383.57 166.318C383.952 163.268 385.469 160.472 387.817 158.488C390.152 156.525 392.863 155.059 395.784 154.18C402.012 152.109 408.633 151.625 415.088 150.401C421.543 149.176 428.103 147.045 432.744 142.404C433.107 142.041 433.591 141.633 434.059 141.814C434.224 141.885 434.365 142 434.468 142.147C436.569 144.505 435.495 148.194 436.1 151.292C438.395 151.33 440.621 150.511 442.343 148.995C444.188 150.128 444.49 152.683 444.384 154.845C444.287 158.511 443.167 162.077 441.149 165.139C439.199 167.936 434.921 168.329 431.852 167.513C431.671 167.435 431.473 167.409 431.278 167.437C430.975 167.556 430.73 167.789 430.598 168.087C428.345 171.519 423.946 172.94 419.85 173.045C415.753 173.151 411.687 172.199 407.575 172.002C405.99 171.87 404.396 172.087 402.904 172.637C401.09 173.423 400.652 174.678 399.881 176.371C399.472 177.158 399.143 177.983 398.898 178.835C398.714 179.725 398.628 180.632 398.641 181.541C398.565 183.506 399.593 196.552 396.237 196.945Z" fill="#263238"/>
<path d="M421.755 218.879C421.755 218.879 410.281 217.715 406.154 216.007C403.726 215.026 401.65 213.334 400.198 211.154C401.014 213.398 402.274 215.454 403.902 217.201C407.137 220.587 422.042 221.872 422.042 221.872L421.755 218.879Z" fill="#F28F8F"/>
<path d="M418.323 189.296C418.379 189.897 418.194 190.496 417.808 190.961C417.423 191.426 416.868 191.719 416.267 191.775C415.666 191.831 415.067 191.646 414.602 191.26C414.137 190.875 413.844 190.32 413.788 189.719C413.75 189.418 413.773 189.112 413.854 188.82C413.936 188.527 414.076 188.254 414.264 188.016C414.453 187.778 414.687 187.58 414.953 187.434C415.219 187.288 415.512 187.196 415.814 187.164C416.119 187.137 416.426 187.171 416.718 187.264C417.01 187.357 417.28 187.507 417.514 187.705C417.747 187.904 417.939 188.146 418.078 188.419C418.217 188.692 418.3 188.99 418.323 189.296V189.296Z" fill="#263238"/>
<path d="M413.093 179.168L408.558 182.297C408.148 181.668 407.997 180.906 408.134 180.168C408.272 179.43 408.689 178.774 409.298 178.336C409.601 178.138 409.94 178.003 410.296 177.937C410.652 177.872 411.017 177.878 411.37 177.956C411.723 178.033 412.058 178.18 412.353 178.388C412.649 178.596 412.9 178.861 413.093 179.168V179.168Z" fill="#263238"/>
<path d="M418.429 204.216L424.324 205.728C424.236 206.121 424.069 206.493 423.835 206.821C423.6 207.15 423.302 207.428 422.958 207.639C422.614 207.85 422.232 207.991 421.833 208.052C421.434 208.113 421.027 208.094 420.636 207.995C419.855 207.765 419.192 207.246 418.782 206.544C418.372 205.841 418.245 205.009 418.429 204.216V204.216Z" fill="#F28F8F"/>
<path d="M437.234 179.031L432.518 176.008C432.695 175.691 432.936 175.414 433.224 175.193C433.512 174.972 433.843 174.812 434.195 174.723C434.547 174.634 434.914 174.618 435.273 174.675C435.631 174.732 435.975 174.862 436.282 175.056C436.93 175.462 437.392 176.105 437.571 176.849C437.749 177.592 437.628 178.376 437.234 179.031V179.031Z" fill="#263238"/>
<path d="M436.433 186.56C436.468 186.861 436.444 187.166 436.362 187.457C436.279 187.749 436.14 188.021 435.951 188.258C435.763 188.496 435.53 188.694 435.265 188.841C435 188.988 434.708 189.081 434.407 189.114C433.797 189.156 433.194 188.956 432.73 188.557C432.266 188.158 431.978 187.593 431.928 186.983C431.872 186.382 432.057 185.782 432.442 185.318C432.828 184.853 433.382 184.56 433.984 184.504C434.585 184.448 435.184 184.633 435.649 185.018C436.114 185.404 436.407 185.958 436.463 186.56H436.433Z" fill="#263238"/>
<path d="M402.481 187.95C402.073 184.927 405.716 183.612 413.198 182.705C417.733 182.146 437.143 179.606 437.143 179.606C443.19 179.258 444.203 181.012 444.475 184.519C444.959 190.566 444.55 194.587 437.899 195.403C433.364 195.962 429.192 194.103 428.542 188.948L428.33 187.346C428.295 187.064 428.204 186.791 428.063 186.545C427.922 186.298 427.734 186.081 427.51 185.907C427.285 185.733 427.028 185.605 426.754 185.53C426.48 185.455 426.193 185.435 425.912 185.471V185.471C425.345 185.547 424.831 185.843 424.482 186.297C424.134 186.75 423.979 187.323 424.052 187.89L424.234 189.402C424.4 190.569 424.323 191.758 424.007 192.894C423.221 196.098 419.956 201.374 412.034 200.452C404.113 199.53 403.1 192.123 402.481 187.95Z" fill="#455A64"/>
<path d="M424.808 186.287L426.864 199.772L434.785 196.189L424.808 186.287Z" fill="#F28F8F"/>
<path d="M351.643 419.281L355.241 421.246L380.683 318.392L375.588 309.579L370.509 312.512L345.052 415.366L351.643 419.281Z" fill="#263238"/>
<path d="M370.509 312.512L375.588 321.325L351.643 419.281L345.052 415.366L370.509 312.512Z" fill="#37474F"/>
<path d="M473.846 406.673C458.609 406.991 352.006 409.122 336.768 409.455C335.539 409.524 334.339 409.854 333.246 410.422L331.417 411.481C330.51 412.01 330.51 412.841 331.417 413.355L348.287 422.425C349.372 422.99 350.572 423.3 351.794 423.332L468.782 420.883C470.008 420.81 471.204 420.475 472.289 419.901L474.119 418.842C474.593 418.536 474.988 418.121 475.272 417.632C475.556 417.144 475.72 416.595 475.751 416.031V408.472C475.747 408.228 475.695 407.987 475.596 407.764C475.498 407.54 475.356 407.339 475.178 407.171C475.001 407.004 474.791 406.873 474.563 406.788C474.334 406.702 474.09 406.663 473.846 406.673V406.673Z" fill="#455A64"/>
<path d="M470.642 418.933V411.375C470.646 411.129 470.6 410.885 470.507 410.657C470.414 410.429 470.276 410.223 470.1 410.05C469.925 409.878 469.716 409.743 469.487 409.654C469.258 409.564 469.013 409.522 468.767 409.531L331.659 412.312C330.616 412.312 330.51 412.765 331.402 413.279L348.272 422.349C349.357 422.914 350.557 423.224 351.779 423.256L468.767 420.808C469.261 420.796 469.731 420.595 470.08 420.246C470.429 419.897 470.63 419.427 470.642 418.933Z" fill="#263238"/>
<path d="M475.736 408.578V416.061C475.707 416.628 475.544 417.18 475.26 417.671C474.977 418.163 474.58 418.58 474.104 418.888L472.274 419.946C471.186 420.512 469.992 420.847 468.767 420.929C469.269 420.917 469.745 420.709 470.096 420.351C470.446 419.992 470.642 419.51 470.642 419.009V411.45C470.651 411.159 470.59 410.869 470.464 410.606C470.338 410.343 470.15 410.114 469.916 409.939L475.011 407.006C475.255 407.185 475.45 407.423 475.577 407.698C475.704 407.973 475.759 408.276 475.736 408.578V408.578Z" fill="#263238"/>
<path d="M455.404 484.948L443.311 478.009C442.289 477.354 441.451 476.448 440.877 475.379L315.318 211.366C315.108 210.9 315.077 210.373 315.231 209.885C315.384 209.398 315.711 208.983 316.149 208.721L317.978 207.662C318.483 207.409 319.039 207.276 319.604 207.276C320.168 207.276 320.724 207.409 321.229 207.662L333.246 214.601C334.275 215.248 335.115 216.155 335.68 217.231L461.315 481.259C461.525 481.721 461.558 482.245 461.407 482.73C461.257 483.215 460.933 483.627 460.499 483.889L458.654 484.948C458.15 485.201 457.594 485.334 457.029 485.334C456.465 485.334 455.908 485.201 455.404 484.948V484.948Z" fill="#37474F"/>
<path d="M333.246 216.475L331.417 217.534C330.979 217.796 330.653 218.212 330.502 218.7C330.351 219.188 330.387 219.715 330.601 220.179L456.221 484.162C456.32 484.381 456.465 484.576 456.646 484.735C456.826 484.894 457.038 485.013 457.268 485.084C457.498 485.156 457.74 485.178 457.979 485.149C458.218 485.12 458.448 485.041 458.654 484.917L460.499 483.859C460.933 483.597 461.257 483.184 461.407 482.699C461.558 482.215 461.525 481.691 461.315 481.229L335.68 217.231C335.58 217.012 335.435 216.817 335.255 216.658C335.074 216.499 334.862 216.38 334.632 216.309C334.403 216.237 334.16 216.215 333.922 216.244C333.683 216.273 333.453 216.352 333.246 216.475V216.475Z" fill="#455A64"/>
<path d="M335.559 217.02C335.317 216.65 334.942 216.387 334.512 216.285C334.081 216.184 333.628 216.252 333.246 216.475L331.417 217.549C331.174 217.687 330.963 217.877 330.799 218.103C330.635 218.33 330.521 218.589 330.465 218.864L315.197 210.051C315.255 209.775 315.37 209.515 315.534 209.286C315.698 209.057 315.907 208.865 316.149 208.721L317.978 207.662C318.483 207.409 319.039 207.276 319.604 207.276C320.168 207.276 320.724 207.409 321.229 207.662L333.246 214.601C334.196 215.216 334.988 216.044 335.559 217.02Z" fill="#455A64"/>
<path d="M459.032 377.272V383.107C458.976 383.715 458.761 384.298 458.408 384.797C458.055 385.296 457.577 385.693 457.022 385.949C455.367 386.752 453.545 387.152 451.705 387.115C449.866 387.078 448.062 386.606 446.44 385.737L387.984 351.936C387.738 351.827 387.527 351.655 387.37 351.437C387.213 351.219 387.117 350.964 387.092 350.696V344.831C387.113 345.099 387.206 345.357 387.36 345.578C387.514 345.798 387.724 345.974 387.969 346.086L446.516 379.857C448.137 380.726 449.942 381.198 451.781 381.235C453.62 381.271 455.442 380.872 457.097 380.068C457.632 379.807 458.091 379.412 458.43 378.923C458.769 378.433 458.976 377.864 459.032 377.272V377.272Z" fill="#263238"/>
<path d="M457.037 380.114C455.382 380.917 453.56 381.317 451.721 381.28C449.881 381.243 448.077 380.771 446.455 379.902L387.984 346.086C387.717 346.002 387.483 345.835 387.318 345.609C387.152 345.384 387.063 345.111 387.063 344.831C387.063 344.551 387.152 344.279 387.318 344.053C387.483 343.827 387.717 343.66 387.984 343.577L393.819 340.206C394.493 339.87 395.235 339.695 395.988 339.695C396.741 339.695 397.483 339.87 398.157 340.206L456.734 374.037C457.376 374.321 457.93 374.77 458.342 375.339C458.753 375.907 459.007 376.574 459.078 377.272C459.019 377.883 458.799 378.469 458.441 378.968C458.082 379.467 457.598 379.863 457.037 380.114V380.114Z" fill="#37474F"/>
<path d="M389.889 233.648C378.385 236.429 377.795 237.866 367.35 256.792C364.16 262.642 356.859 274.524 354.425 279.829C344.206 271.394 322.513 252.922 320.533 247.631C320.306 247.011 320.019 245.53 319.777 244.396C319.147 241.588 318.129 238.882 316.754 236.354C316.22 235.248 315.75 234.113 315.348 232.953C315.286 232.63 315.134 232.331 314.91 232.091C314.662 231.894 314.348 231.802 314.033 231.834C313.622 231.897 313.235 232.071 312.915 232.337C312.596 232.604 312.355 232.952 312.219 233.346C311.478 235.22 312.31 237.382 312.582 239.256C312.675 239.732 312.623 240.224 312.431 240.67C312.24 241.115 311.918 241.491 311.509 241.751C310.968 242.115 310.331 242.31 309.679 242.31C307.125 242.31 305.84 239.725 305.417 238.395C304.95 236.63 305.138 234.756 305.946 233.119C306.096 232.719 306.339 232.36 306.654 232.071C306.969 231.782 307.348 231.571 307.76 231.456C308.969 231.199 309.815 232.257 310.995 232.272C311.376 232.299 311.755 232.187 312.061 231.956C312.366 231.725 312.578 231.392 312.657 231.018C312.668 230.702 312.595 230.389 312.446 230.111C311.883 229.035 310.997 228.164 309.911 227.622C308.826 227.079 307.597 226.892 306.399 227.087C305.215 227.307 304.088 227.768 303.09 228.442C302.091 229.115 301.242 229.987 300.594 231.003C300.161 231.57 299.855 232.224 299.698 232.921C299.542 233.618 299.538 234.34 299.687 235.039C297.435 231.925 295.969 230.08 293.777 226.558C291.403 222.719 288.637 218.048 286.914 221.57C285.402 224.593 295.53 239.075 295.53 239.075C292.59 236.316 289.978 233.226 287.745 229.869C285.825 227.118 284.556 224.034 282.394 225.666C278.947 228.266 291.464 242.748 291.464 242.748C286.37 239.271 281.668 231.35 279.733 233.074C277.798 234.797 279.854 237.956 285.78 245.167C290.194 250.473 295.167 256.323 301.441 259.392C303.275 260.29 305.021 261.358 306.656 262.581C313.685 268.628 319.732 276.186 325.96 283.019C334.713 292.603 351.417 309.443 357.887 308.203C364.356 306.964 372.535 293.087 377.327 285.921C385.822 273.163 386.684 272.044 386.684 272.044C397.719 259.014 398.702 237.276 389.889 233.648Z" fill="#FFA8A7"/>
<path d="M354.425 279.83C354.425 279.83 359.595 284.606 360.471 287.615C360.471 287.615 360.849 283.76 355.604 277.426L354.425 279.83Z" fill="#F28F8F"/>
<path d="M271.087 441.14C271.087 441.14 259.537 433.687 270.618 403.015C284.087 365.723 320.805 358.572 345.642 362.336C338.046 366.133 331.187 371.252 325.386 377.453L300.05 382.88L321.682 383.394C319.48 388.34 316.219 392.742 312.128 396.288C312.128 396.288 297.314 397.271 287.942 400.823L306.55 402.335C305.791 405.851 304.117 409.105 301.698 411.768C297.526 416.817 286.944 432.342 271.087 441.14Z" fill="#3BC5CE"/>
<path opacity="0.1" d="M271.087 441.14C271.087 441.14 259.537 433.687 270.618 403.015C284.087 365.723 320.805 358.572 345.642 362.336C338.046 366.133 331.187 371.252 325.386 377.453L300.05 382.88L321.682 383.394C319.48 388.34 316.219 392.742 312.128 396.288C312.128 396.288 297.314 397.271 287.942 400.823L306.55 402.335C305.791 405.851 304.117 409.105 301.698 411.768C297.526 416.817 286.944 432.342 271.087 441.14Z" fill="black"/>
<path d="M270.663 440.414C270.663 440.414 276.272 420.551 300.504 411.934C324.736 403.318 358.325 420.883 369.844 432.644C369.844 432.644 356.027 430.482 334.365 436.937L316.769 426.718L325.703 439.31L310.889 442.772L293.52 431.48L302.968 444.465C302.968 444.465 284.238 449.922 270.663 440.414Z" fill="#3BC5CE"/>
<path d="M270.663 440.414C270.663 440.414 276.272 420.551 300.504 411.934C324.736 403.318 358.325 420.883 369.844 432.644C357.694 433.99 345.639 436.08 333.745 438.902L316.769 426.809L325.703 439.401L310.889 442.772L293.52 431.48L302.968 444.465C302.968 444.465 284.238 449.922 270.663 440.414Z" fill="#3BC5CE"/>
<path d="M137.546 437.769C130.575 434.723 124.01 430.823 118 426.159C111.609 420.635 106.156 414.11 101.855 406.84L121.507 408.155L99.2553 401.987C96.3244 396.754 93.9289 391.239 92.1051 385.525L112.906 387.883L90.8051 378.345C86.7992 371.951 82.5967 357.438 73.9802 350.455C73.9802 350.455 92.3772 353.478 115.158 373.205C137.047 392.313 141.476 424.965 137.546 437.769Z" fill="#3BC5CE"/>
<path d="M274.609 242.068L268.35 424.209C268.229 426.952 267.582 429.646 266.446 432.145C263.725 438.192 258.116 443.997 249.591 448.774C224.588 462.757 184.014 462.757 158.996 448.774C150.486 443.997 144.877 438.192 142.156 432.145C141.162 429.956 140.539 427.616 140.312 425.222V425.207C140.26 424.517 140.26 423.825 140.312 423.136V423.03L134.024 242.189C130.868 237.786 129.038 232.572 128.748 227.163L136.306 447.731V449.968C137.062 459.386 143.668 468.697 156.139 475.908C182.699 491.236 225.752 491.236 252.297 475.908C265.252 468.35 271.948 458.66 272.19 448.864V448.154L279.748 227.163C279.489 232.52 277.706 237.691 274.609 242.068V242.068Z" fill="#3BC5CE"/>
<path opacity="0.9" d="M274.609 242.068L268.35 424.209C268.229 426.952 267.582 429.646 266.446 432.145C263.725 438.192 258.116 443.997 249.591 448.774C224.588 462.757 184.014 462.757 158.996 448.774C150.486 443.997 144.877 438.192 142.156 432.145C141.162 429.956 140.539 427.616 140.312 425.222V425.207C140.26 424.517 140.26 423.825 140.312 423.136V423.03L134.024 242.189C130.868 237.786 129.038 232.572 128.748 227.163L136.306 447.731V449.968C137.062 459.386 143.668 468.697 156.139 475.908C182.699 491.236 225.752 491.236 252.297 475.908C265.252 468.35 271.948 458.66 272.19 448.864V448.154L279.748 227.163C279.489 232.52 277.706 237.691 274.609 242.068V242.068Z" fill="white"/>
<path d="M257.723 256.943C228.231 273.98 180.387 273.98 150.894 256.943C144.239 253.347 138.474 248.306 134.024 242.189L140.206 423.03V423.136V425.207V425.282C140.433 427.676 141.057 430.016 142.051 432.206C144.772 438.252 150.38 444.057 158.891 448.834C183.909 462.817 224.482 462.817 249.485 448.834C258.011 444.057 263.619 438.252 266.34 432.206C267.476 429.706 268.123 427.012 268.245 424.27V424.27L274.609 242.068C270.167 248.23 264.396 253.314 257.723 256.943V256.943Z" fill="#3BC5CE"/>
<path opacity="0.7" d="M257.723 256.943C228.231 273.98 180.387 273.98 150.894 256.943C144.239 253.347 138.474 248.306 134.024 242.189L140.206 423.03V423.136V425.207V425.282C140.433 427.676 141.057 430.016 142.051 432.206C144.772 438.252 150.38 444.057 158.891 448.834C183.909 462.817 224.482 462.817 249.485 448.834C258.011 444.057 263.619 438.252 266.34 432.206C267.476 429.706 268.123 427.012 268.245 424.27V424.27L274.609 242.068C270.167 248.23 264.396 253.314 257.723 256.943V256.943Z" fill="white"/>
<path d="M140.282 424.768C140.841 433.506 147.084 442.152 159.012 448.834C184.03 462.832 224.588 462.832 249.606 448.834C261.533 442.152 267.746 433.506 268.335 424.768L273.626 269.278C274.216 259.029 267.443 248.674 253.355 240.859C226.266 225.833 182.306 225.833 155.263 240.859C141.174 248.674 134.417 258.999 134.991 269.278L140.282 424.768Z" fill="#3BC5CE"/>
<path opacity="0.05" d="M204.316 459.325C239.698 459.325 268.381 443.278 268.381 423.483C268.381 403.689 239.698 387.642 204.316 387.642C168.934 387.642 140.252 403.689 140.252 423.483C140.252 443.278 168.934 459.325 204.316 459.325Z" fill="black"/>
<path opacity="0.1" d="M140.282 424.768C140.841 433.506 147.084 442.152 159.012 448.834C184.03 462.832 224.588 462.832 249.606 448.834C261.533 442.152 267.746 433.506 268.335 424.768L273.626 269.278C274.216 259.029 267.443 248.674 253.355 240.859C226.266 225.833 182.306 225.833 155.263 240.859C141.174 248.674 134.417 258.999 134.991 269.278L140.282 424.768Z" fill="white"/>
<path opacity="0.5" d="M204.316 306.526C242.62 306.526 273.671 289.301 273.671 268.054C273.671 246.806 242.62 229.582 204.316 229.582C166.012 229.582 134.961 246.806 134.961 268.054C134.961 289.301 166.012 306.526 204.316 306.526Z" fill="white"/>
<path opacity="0.2" d="M253.34 295.279C229.878 308.294 193.765 310.018 166.917 300.464C204.316 306.979 239.478 289.55 236.363 267.086C236.363 266.618 236.212 266.149 236.107 265.665C243.661 263.711 250.928 260.779 257.723 256.943C260.784 255.173 263.692 253.15 266.415 250.896C279.325 265.333 274.971 283.276 253.34 295.279Z" fill="#3BC5CE"/>
<path d="M257.723 195.267C228.231 178.231 180.387 178.231 150.894 195.267C135.671 204.05 128.31 215.644 128.808 227.163C129.098 232.572 130.929 237.786 134.084 242.189C138.517 248.299 144.261 253.34 150.894 256.943C180.387 273.98 228.231 273.98 257.723 256.943C264.396 253.314 270.167 248.23 274.609 242.068C277.728 237.697 279.532 232.526 279.809 227.163V226.876C280.187 215.448 272.81 203.974 257.723 195.267ZM254.352 253.859C226.704 269.188 181.913 269.188 154.28 253.859C126.647 238.531 126.647 213.679 154.28 198.351C181.913 183.022 226.704 183.007 254.352 198.351C282.001 213.694 281.971 238.531 254.352 253.859V253.859Z" fill="#3BC5CE"/>
<path opacity="0.88" d="M257.723 195.267C228.231 178.231 180.387 178.231 150.894 195.267C135.671 204.05 128.31 215.644 128.808 227.163C129.098 232.572 130.929 237.786 134.084 242.189C138.517 248.299 144.261 253.34 150.894 256.943C180.387 273.98 228.231 273.98 257.723 256.943C264.396 253.314 270.167 248.23 274.609 242.068C277.728 237.697 279.532 232.526 279.809 227.163V226.876C280.187 215.448 272.81 203.974 257.723 195.267ZM254.352 253.859C226.704 269.188 181.913 269.188 154.28 253.859C126.647 238.531 126.647 213.679 154.28 198.351C181.913 183.022 226.704 183.007 254.352 198.351C282.001 213.694 281.971 238.531 254.352 253.859V253.859Z" fill="white"/>
<path d="M254.352 253.859C226.704 269.188 181.913 269.188 154.28 253.859C126.647 238.531 126.647 213.679 154.28 198.351C181.913 183.022 226.704 183.007 254.352 198.351C282.001 213.694 281.971 238.531 254.352 253.859Z" fill="#3BC5CE"/>
<path opacity="0.7" d="M254.352 253.859C226.704 269.188 181.913 269.188 154.28 253.859C126.647 238.531 126.647 213.679 154.28 198.351C181.913 183.022 226.704 183.007 254.352 198.351C282.001 213.694 281.971 238.531 254.352 253.859Z" fill="white"/>
<path d="M145.346 247.812C148.124 250.108 151.116 252.133 154.28 253.859C181.913 269.187 226.704 269.187 254.352 253.859C257.512 252.126 260.503 250.102 263.286 247.812C260.246 245.13 256.915 242.798 253.355 240.859C226.266 225.833 182.306 225.833 155.263 240.859C151.705 242.794 148.378 245.127 145.346 247.812V247.812Z" fill="#3BC5CE"/>
<path opacity="0.45" d="M145.346 247.812C148.124 250.108 151.116 252.133 154.28 253.859C181.913 269.187 226.704 269.187 254.352 253.859C257.512 252.126 260.503 250.102 263.286 247.812C260.246 245.13 256.915 242.798 253.355 240.859C226.266 225.833 182.306 225.833 155.263 240.859C151.705 242.794 148.378 245.127 145.346 247.812V247.812Z" fill="white"/>
<path opacity="0.03" d="M155.278 240.859C156.109 240.375 156.986 239.922 157.848 239.483H157.984C159.344 238.818 160.75 238.168 162.201 237.563C170.244 234.225 178.691 231.958 187.325 230.821C189.713 230.489 192.132 230.217 194.581 230.035C196.652 229.854 198.753 229.748 200.854 229.703C202.003 229.703 203.152 229.703 204.316 229.703C206.538 229.703 208.745 229.703 210.968 229.884C218.578 230.246 226.133 231.365 233.522 233.225C240.427 234.946 247.086 237.536 253.34 240.934C254.277 241.448 255.169 241.978 256.03 242.446L256.529 242.764C257.24 243.232 257.935 243.671 258.6 244.139L258.948 244.381C259.673 244.91 260.46 245.424 261.049 245.893L261.17 245.999C261.911 246.573 262.606 247.163 263.271 247.767C260.496 250.06 257.51 252.084 254.352 253.814C248.148 257.187 241.546 259.772 234.701 261.508C226.054 242.401 187.355 231.275 155.278 240.859Z" fill="black"/>
<path opacity="0.1" d="M268.033 433.869L267.61 446.431V447.338C266.748 466.007 238.722 481.002 204.301 481.002C169.88 481.002 142.035 466.097 141.008 447.504V446.4L140.615 433.733C144.016 451.298 171.271 464.994 204.377 464.994C237.482 464.994 264.526 451.374 268.033 433.869Z" fill="#3BC5CE"/>
<path opacity="0.5" d="M192.691 317.878L179.374 339.692C178.928 340.443 178.302 341.071 177.552 341.52C176.803 341.968 175.953 342.223 175.08 342.261L147.417 339.767C146.011 339.631 145.648 338.256 146.601 336.744L159.964 314.976C160.411 314.225 161.037 313.596 161.786 313.145C162.535 312.694 163.384 312.435 164.257 312.391L191.92 314.9C193.296 315.006 193.659 316.367 192.691 317.878Z" fill="white"/>
<path opacity="0.45" d="M200.401 346.343L187.053 368.111C186.547 368.892 185.87 369.549 185.073 370.031L177.363 341.611C178.16 341.13 178.837 340.473 179.343 339.692L192.707 317.878C193.614 316.367 193.326 315.112 192.102 314.855C192.751 314.949 193.364 315.216 193.874 315.629C194.385 316.041 194.775 316.583 195.004 317.198L201.58 341.385C201.773 343.124 201.356 344.876 200.401 346.343Z" fill="white"/>
<path opacity="0.35" d="M185.073 370.031C184.726 370.24 184.355 370.408 183.969 370.53L183.727 370.605C183.524 370.657 183.317 370.687 183.107 370.696H182.76L155.081 368.202C154.392 368.136 153.735 367.88 153.185 367.46C152.634 367.041 152.213 366.475 151.967 365.828L145.406 341.642C145.22 340.066 145.554 338.474 146.359 337.107C145.679 338.497 146.087 339.646 147.387 339.782L175.05 342.292C175.871 342.312 176.679 342.08 177.363 341.626L185.073 370.031Z" fill="white"/>
<path opacity="0.5" d="M222.517 400.037L199.978 407.596C199.219 407.851 198.411 407.918 197.621 407.792C196.831 407.665 196.083 407.349 195.443 406.87L177.151 388.579C176.214 387.642 176.774 386.463 178.391 385.918L200.93 378.36C201.687 378.103 202.495 378.033 203.285 378.157C204.075 378.281 204.823 378.594 205.465 379.071L223.756 397.377C224.724 398.299 224.134 399.508 222.517 400.037Z" fill="white"/>
<path opacity="0.4" d="M211.859 428.547L189.305 436.106C188.482 436.374 187.606 436.442 186.75 436.302L197.423 407.777C198.277 407.922 199.153 407.86 199.978 407.596L222.532 400.037C224.043 399.523 224.633 398.42 223.892 397.528C224.302 397.984 224.581 398.542 224.7 399.143C224.82 399.744 224.776 400.366 224.572 400.944L215.654 425.69C214.754 427.05 213.414 428.058 211.859 428.547Z" fill="white"/>
<path opacity="0.3" d="M186.751 436.348C186.376 436.297 186.009 436.195 185.662 436.045L185.451 435.954C185.277 435.866 185.11 435.765 184.952 435.652C184.864 435.59 184.783 435.519 184.71 435.441L166.404 417.149C165.948 416.69 165.63 416.113 165.485 415.482C165.341 414.852 165.376 414.193 165.587 413.582L174.521 388.821C175.326 387.563 176.529 386.611 177.938 386.115C176.607 386.689 176.214 387.763 177.076 388.624L195.367 406.931C195.945 407.43 196.663 407.742 197.423 407.822L186.751 436.348Z" fill="white"/>
<path opacity="0.45" d="M261.276 362.442L237.467 356.486C236.747 356.19 236.113 355.721 235.619 355.119C235.126 354.518 234.789 353.803 234.64 353.04L229.682 329.972C229.349 328.384 230.045 327.326 231.194 327.628L255.002 333.6C255.72 333.894 256.354 334.361 256.847 334.96C257.34 335.559 257.678 336.27 257.829 337.031L262.787 360.099C263.196 361.717 262.515 362.745 261.276 362.442Z" fill="white"/>
<path opacity="0.35" d="M244.375 385.374L220.582 379.403C219.883 379.19 219.272 378.755 218.843 378.163L235.744 355.247C236.179 355.832 236.787 356.266 237.482 356.486L261.291 362.442C262.44 362.729 263.135 361.807 262.908 360.356C263.201 361.808 263.01 363.316 262.364 364.649L247.686 384.301C247.29 384.772 246.77 385.123 246.185 385.313C245.599 385.502 244.972 385.524 244.375 385.374Z" fill="white"/>
<path opacity="0.5" d="M218.828 378.164C218.582 377.873 218.374 377.553 218.208 377.211L218.087 376.984C217.994 376.778 217.913 376.566 217.846 376.35C217.846 376.229 217.846 376.093 217.74 375.957L212.781 352.888C212.431 351.365 212.601 349.768 213.265 348.353L227.959 328.702C228.309 328.252 228.776 327.905 229.309 327.7C229.841 327.495 230.42 327.439 230.982 327.538C229.954 327.462 229.38 328.46 229.697 329.941L234.655 352.994C234.843 353.804 235.216 354.559 235.744 355.201L218.828 378.164Z" fill="white"/>
<path d="M285.795 209.386C283.99 213.518 281.851 217.497 279.401 221.283C279.097 219.737 278.662 218.22 278.101 216.748C276.078 211.716 272.953 207.201 268.955 203.536C266.299 201.042 263.408 198.809 260.323 196.869L256 199.364V243.202H255.864C255.547 243.383 255.229 243.519 254.897 243.671C254.08 244.064 253.249 244.396 252.433 244.698L251.208 245.137C250.8 245.288 250.392 245.409 249.984 245.53L248.82 245.862C248.755 245.876 248.688 245.876 248.623 245.862C247.486 246.169 246.33 246.396 245.161 246.543H245.01L243.861 246.649C240.978 246.929 238.068 246.709 235.26 245.999C234.042 245.695 232.854 245.285 231.708 244.774L231.345 244.623C229.319 243.716 223.696 241.282 222.184 240.602C220.105 239.686 218.166 238.48 216.425 237.019C216.137 236.777 215.85 236.535 215.563 236.263L214.883 235.613C214.626 235.341 214.354 235.084 214.112 234.812C213.87 234.54 213.628 234.283 213.401 234.011L213.205 233.784C212.781 233.27 212.358 232.726 211.95 232.167L211.255 231.154C211.058 230.852 210.862 230.549 210.68 230.232C210.499 229.914 210.272 229.567 210.091 229.219C209.909 228.871 209.698 228.524 209.516 228.161C209.335 227.798 209.169 227.45 209.002 227.088C208.836 226.725 208.655 226.347 208.488 225.984C208.322 225.621 208.201 225.304 208.065 224.941L207.581 223.671C207.46 223.278 207.309 222.885 207.188 222.492C207.067 222.099 206.886 221.54 206.765 221.071C206.553 220.3 206.357 219.559 206.16 218.743C205.964 217.927 205.813 217.02 205.662 216.128C205.586 215.72 205.525 215.297 205.465 214.873C205.405 214.45 205.329 213.906 205.268 213.362C205.208 212.817 205.163 212.44 205.132 211.986C205.102 211.533 205.057 211.064 205.027 210.595V209.174V207.738C204.993 197.036 207.246 186.45 211.633 176.689C223.62 149.237 247.837 133.334 265.735 141.149L275.274 145.321C293.006 153.333 297.798 181.934 285.795 209.386Z" fill="#3BC5CE"/>
<path opacity="0.1" d="M256 237.458V243.217H255.864C255.547 243.398 255.229 243.534 254.897 243.686C254.08 244.064 253.249 244.411 252.433 244.714L251.208 245.152C250.8 245.303 250.392 245.424 249.984 245.545L248.82 245.878C248.755 245.891 248.688 245.891 248.623 245.878C247.483 246.168 246.327 246.395 245.161 246.558H245.01L243.861 246.664C240.978 246.944 238.068 246.724 235.26 246.014C234.042 245.71 232.854 245.3 231.708 244.789L231.345 244.638C229.319 243.731 223.696 241.297 222.184 240.617C220.105 239.701 218.166 238.495 216.425 237.034C216.137 236.792 215.85 236.551 215.563 236.278L214.883 235.628C214.626 235.356 214.354 235.099 214.112 234.827C213.87 234.555 213.628 234.298 213.401 234.026L213.205 233.799C212.781 233.285 212.358 232.741 211.95 232.182L211.255 231.169C211.058 230.867 210.862 230.564 210.68 230.247C210.499 229.929 210.272 229.582 210.091 229.234C209.909 228.886 209.698 228.539 209.516 228.176C209.335 227.813 209.169 227.465 209.002 227.103C208.836 226.74 208.655 226.362 208.488 225.999C208.322 225.636 208.201 225.319 208.065 224.956L207.581 223.686C207.46 223.293 207.309 222.9 207.188 222.507C207.067 222.114 206.886 221.555 206.765 221.086C206.553 220.315 206.357 219.575 206.16 218.758C205.964 217.942 205.813 217.035 205.662 216.143C205.586 215.735 205.525 215.312 205.465 214.888C205.405 214.465 205.329 213.921 205.268 213.377C205.208 212.833 205.163 212.455 205.132 212.001C205.102 211.548 205.057 211.079 205.027 210.61V209.189V207.753L214.58 213.271L220.99 216.974L234.519 224.775L236.877 226.135L249.182 233.255L251.42 234.54L256 237.458Z" fill="black"/>
<path opacity="0.95" d="M285.795 209.386C283.99 213.518 281.851 217.497 279.401 221.283C279.097 219.737 278.662 218.22 278.101 216.748C276.078 211.716 272.953 207.201 268.955 203.536C266.299 201.042 263.408 198.809 260.323 196.869L256 199.364V243.202H255.864C255.546 243.383 255.229 243.519 254.896 243.671C254.08 244.064 253.249 244.396 252.432 244.698L251.208 245.137C250.8 245.288 250.392 245.409 249.984 245.53L248.82 245.862C248.755 245.876 248.688 245.876 248.623 245.862C247.486 246.169 246.33 246.396 245.161 246.543H245.01L243.861 246.649C240.978 246.929 238.068 246.709 235.26 245.999C234.042 245.695 232.854 245.285 231.707 244.774L231.345 244.623C220.929 239.846 215.049 227.995 214.459 213.316C214.199 202.163 216.44 191.094 221.02 180.921C233.023 153.469 257.3 137.567 275.153 145.382C293.006 153.197 297.798 181.934 285.795 209.386Z" fill="white"/>
<g opacity="0.95">
<path d="M265.388 144.838C268.554 144.818 271.691 145.461 274.594 146.727C282.832 150.325 288.425 158.7 290.375 170.309C292.325 181.919 290.3 195.811 284.601 208.857C283.226 211.973 281.661 215.002 279.915 217.927L278.962 219.363C279.129 219.983 279.265 220.618 279.401 221.253C281.851 217.467 283.99 213.488 285.795 209.356C297.798 181.904 293.006 153.303 275.123 145.488C272.051 144.156 268.736 143.476 265.388 143.492C249.228 143.492 230.922 158.307 220.99 181.027C216.41 191.2 214.168 202.269 214.429 213.422C215.019 228.025 220.899 239.952 231.315 244.729L231.677 244.88C232.823 245.391 234.012 245.801 235.23 246.104C237.25 246.62 239.327 246.879 241.412 246.875C242.214 246.875 243.015 246.875 243.831 246.754L244.98 246.649H245.131C246.299 246.502 247.456 246.275 248.593 245.968C248.658 245.982 248.725 245.982 248.789 245.968L249.953 245.636C250.362 245.515 250.77 245.394 251.178 245.243L252.402 244.804C253.219 244.502 254.05 244.169 254.866 243.776C255.199 243.625 255.516 243.489 255.834 243.308H255.97V241.887C255.849 241.887 254.458 242.582 254.307 242.627C253.554 242.996 252.782 243.324 251.994 243.61L251.465 243.807L250.755 244.048C250.422 244.169 250.105 244.275 249.772 244.366H249.591L248.472 244.683H248.306C247.222 244.97 246.121 245.187 245.01 245.333H244.829H244.315H243.756C242.985 245.333 242.244 245.439 241.458 245.439C239.48 245.444 237.51 245.2 235.593 244.714C234.45 244.419 233.333 244.035 232.252 243.565L232.07 243.474H231.919C222.26 239.045 216.379 228.055 215.79 213.241C215.544 202.31 217.75 191.463 222.245 181.496C231.692 159.864 249.455 144.747 265.433 144.747" fill="#3BC5CE"/>
</g>
<g opacity="0.35">
<path d="M265.388 144.838C268.554 144.818 271.691 145.461 274.594 146.727C282.832 150.325 288.425 158.7 290.375 170.309C292.325 181.919 290.3 195.811 284.601 208.857C283.226 211.973 281.661 215.002 279.915 217.927L278.962 219.363C279.129 219.983 279.265 220.618 279.401 221.253C281.851 217.467 283.99 213.488 285.795 209.356C297.798 181.904 293.006 153.303 275.123 145.488C272.051 144.156 268.736 143.476 265.388 143.492C249.228 143.492 230.922 158.307 220.99 181.027C216.41 191.2 214.168 202.269 214.429 213.422C215.019 228.025 220.899 239.952 231.315 244.729L231.677 244.88C232.823 245.391 234.012 245.801 235.23 246.104C237.25 246.62 239.327 246.879 241.412 246.875C242.214 246.875 243.015 246.875 243.831 246.754L244.98 246.649H245.131C246.299 246.502 247.456 246.275 248.593 245.968C248.658 245.982 248.725 245.982 248.789 245.968L249.953 245.636C250.362 245.515 250.77 245.394 251.178 245.243L252.402 244.804C253.219 244.502 254.05 244.169 254.866 243.776C255.199 243.625 255.516 243.489 255.834 243.308H255.97V241.887C255.849 241.887 254.458 242.582 254.307 242.627C253.554 242.996 252.782 243.324 251.994 243.61L251.465 243.807L250.755 244.048C250.422 244.169 250.105 244.275 249.772 244.366H249.591L248.472 244.683H248.306C247.222 244.97 246.121 245.187 245.01 245.333H244.829H244.315H243.756C242.985 245.333 242.244 245.439 241.458 245.439C239.48 245.444 237.51 245.2 235.593 244.714C234.45 244.419 233.333 244.035 232.252 243.565L232.07 243.474H231.919C222.26 239.045 216.379 228.055 215.79 213.241C215.544 202.31 217.75 191.463 222.245 181.496C231.692 159.864 249.455 144.747 265.433 144.747" fill="white"/>
</g>
<path d="M278.146 165.2C281.018 161.27 280.912 155.812 277.934 154.165C277.345 153.847 276.725 153.545 276.105 153.273C275.483 152.993 274.848 152.746 274.2 152.532C270.966 151.459 266.899 155.102 265.962 159.879L261.079 187.648C260.792 189.069 262.047 189.613 262.893 188.449L278.146 165.2Z" fill="#3BC5CE"/>
<path d="M282.983 182.327C284.551 181.155 285.807 179.616 286.64 177.844C287.473 176.073 287.857 174.124 287.76 172.169C287.624 170.975 287.428 169.811 287.186 168.692C286.968 167.618 286.686 166.557 286.339 165.517C285.372 162.494 282.152 163.295 279.718 167.029L263.543 191.715C262.803 192.848 263.09 194.179 263.967 193.665L282.983 182.327Z" fill="#3BC5CE"/>
<path d="M278.509 203.868C280.867 204.896 284.48 201.389 285.81 196.733C286.082 195.811 286.324 194.874 286.566 193.937C286.808 193 287.004 192.077 287.201 191.17C288.183 186.635 286.112 183.884 283.044 185.713L266.415 195.6C265.508 196.144 265.04 197.988 265.75 198.29L278.509 203.868Z" fill="#3BC5CE"/>
<path d="M278.101 216.733C276.078 211.7 272.953 207.186 268.955 203.521L277.874 207.421C280.051 208.373 280.141 212.802 278.101 216.733Z" fill="#3BC5CE"/>
<path d="M256 215.614V239.634C255.728 239.801 255.441 239.937 255.169 240.088C252.266 241.6 250.467 238.939 251.269 234.721C251.269 234.48 251.359 234.253 251.42 233.996L256 215.614Z" fill="#3BC5CE"/>
<path d="M234.368 229.385C231.632 233.149 231.571 238.455 234.368 240.148C235.33 240.769 236.341 241.31 237.391 241.766C238.449 242.231 239.54 242.616 240.657 242.915C243.801 243.761 247.64 240.133 248.532 235.583L255.698 204.76C255.985 203.354 254.745 202.825 253.914 203.974L234.368 229.385Z" fill="#3BC5CE"/>
<path d="M248.215 202.992L225.978 211.442C223.876 212.425 222.186 214.115 221.205 216.219C220.224 218.322 220.014 220.703 220.612 222.946C220.899 223.807 221.201 224.639 221.534 225.47C221.867 226.302 222.214 227.088 222.592 227.874C224.467 231.759 229.334 231.547 232.433 227.45L249.167 205.365C250.089 204.216 249.424 202.583 248.215 202.992Z" fill="#3BC5CE"/>
<path d="M230.03 186.514C226.84 185.109 222.622 188.026 221.413 192.561C220.99 194.179 220.627 195.811 220.34 197.444C220.053 199.076 219.826 200.633 219.66 202.206C219.206 206.741 222.335 209.764 226.084 208.343L251.087 198.653C252.236 198.2 252.599 196.31 251.586 195.872L230.03 186.514Z" fill="#3BC5CE"/>
<path d="M243.03 168.223C241.352 164.308 236.666 164.036 233.522 167.694C232.902 168.42 232.282 169.206 231.692 169.947C231.103 170.687 230.513 171.458 229.954 172.305C227.157 176.311 227.883 181.722 231.39 183.264L250.422 191.563C251.465 192.017 252.659 190.475 252.16 189.326L243.03 168.223Z" fill="#3BC5CE"/>
<path d="M263.8 156.432C264.692 151.489 261.744 147.785 257.754 148.874C256.36 149.249 254.988 149.698 253.642 150.219C252.246 150.765 250.879 151.381 249.545 152.063C247.578 153.214 246.059 154.997 245.236 157.122C244.412 159.247 244.333 161.588 245.01 163.764L255.592 190.369C256.076 191.578 257.708 190.944 257.98 189.432L263.8 156.432Z" fill="#3BC5CE"/>
<g opacity="0.45">
<path d="M278.146 165.2C281.018 161.27 280.912 155.812 277.934 154.165C277.345 153.847 276.725 153.545 276.105 153.273C275.483 152.993 274.848 152.746 274.2 152.532C270.966 151.459 266.899 155.102 265.962 159.879L261.079 187.648C260.792 189.069 262.047 189.613 262.893 188.449L278.146 165.2Z" fill="white"/>
<path d="M282.983 182.327C284.551 181.155 285.807 179.615 286.64 177.844C287.473 176.073 287.857 174.124 287.76 172.169C287.624 170.974 287.428 169.81 287.186 168.692C286.968 167.617 286.686 166.557 286.339 165.517C285.372 162.494 282.152 163.295 279.718 167.029L263.543 191.714C262.803 192.848 263.09 194.179 263.967 193.665L282.983 182.327Z" fill="white"/>
<path d="M278.509 203.868C280.867 204.896 284.48 201.389 285.81 196.733C286.082 195.811 286.324 194.874 286.566 193.937C286.808 192.999 287.004 192.077 287.201 191.17C288.183 186.635 286.112 183.884 283.044 185.713L266.415 195.599C265.508 196.144 265.04 197.988 265.75 198.29L278.509 203.868Z" fill="white"/>
<path d="M278.101 216.733C276.078 211.7 272.953 207.186 268.955 203.521L277.874 207.421C280.051 208.373 280.141 212.802 278.101 216.733Z" fill="white"/>
<path d="M256 215.614V239.634C255.728 239.801 255.441 239.937 255.169 240.088C252.266 241.6 250.467 238.939 251.269 234.721C251.269 234.48 251.359 234.253 251.42 233.996L256 215.614Z" fill="white"/>
<path d="M234.368 229.385C231.632 233.149 231.571 238.455 234.368 240.148C235.33 240.769 236.341 241.31 237.391 241.766C238.449 242.231 239.54 242.616 240.657 242.915C243.801 243.761 247.64 240.133 248.532 235.583L255.698 204.76C255.985 203.354 254.745 202.825 253.914 203.974L234.368 229.385Z" fill="white"/>
<path d="M248.215 202.992L225.978 211.442C223.876 212.424 222.186 214.115 221.205 216.219C220.224 218.322 220.014 220.703 220.612 222.946C220.899 223.807 221.201 224.639 221.534 225.47C221.867 226.301 222.214 227.087 222.592 227.874C224.467 231.759 229.334 231.547 232.433 227.45L249.167 205.365C250.089 204.216 249.424 202.583 248.215 202.992Z" fill="white"/>
<path d="M230.03 186.514C226.84 185.109 222.622 188.026 221.413 192.561C220.99 194.179 220.627 195.811 220.34 197.444C220.053 199.076 219.826 200.633 219.66 202.206C219.206 206.741 222.335 209.764 226.084 208.343L251.087 198.653C252.236 198.2 252.599 196.31 251.586 195.872L230.03 186.514Z" fill="white"/>
<path d="M243.03 168.223C241.352 164.308 236.666 164.036 233.522 167.694C232.902 168.42 232.282 169.206 231.692 169.946C231.103 170.687 230.513 171.458 229.954 172.305C227.157 176.311 227.883 181.722 231.39 183.264L250.422 191.563C251.465 192.017 252.659 190.475 252.16 189.326L243.03 168.223Z" fill="white"/>
<path d="M263.8 156.432C264.692 151.489 261.744 147.785 257.754 148.874C256.36 149.249 254.988 149.698 253.642 150.219C252.246 150.765 250.879 151.381 249.545 152.063C247.578 153.214 246.059 154.997 245.236 157.122C244.412 159.247 244.333 161.588 245.01 163.764L255.592 190.369C256.076 191.578 257.708 190.944 257.98 189.432L263.8 156.432Z" fill="white"/>
</g>
<path opacity="0.07" d="M235.305 246.135C238.114 246.845 241.024 247.065 243.907 246.785L245.056 246.679H245.207C246.375 246.532 247.532 246.305 248.668 245.999C248.733 246.012 248.8 246.012 248.865 245.999L250.029 245.666C250.437 245.545 250.845 245.424 251.253 245.273L252.478 244.835C253.294 244.532 254.126 244.2 254.942 243.807C255.274 243.655 255.592 243.519 255.909 243.338H256.045V199.5L231.934 245.016C233.027 245.476 234.154 245.85 235.305 246.135V246.135Z" fill="black"/>
<path d="M38.3199 163.099C47.269 159.032 69.3545 157.536 83.8967 158.76C99.2553 152.018 126.118 141.784 143.94 137.99L134.689 113.561L121.084 77.4476C85.4689 99.3366 59.2414 119.925 38.3199 163.099Z" fill="#3BC5CE"/>
<path opacity="0.15" d="M38.3199 163.099C47.269 159.032 69.3545 157.536 83.8967 158.76C99.2553 152.018 126.118 141.784 143.94 137.99L134.689 113.561L121.084 77.4476C85.4689 99.3366 59.2414 119.925 38.3199 163.099Z" fill="black"/>
<path d="M38.3199 163.099C47.269 159.032 69.3545 157.536 83.8967 158.76C83.156 120.968 97.7889 93.6224 118.408 79.1406C85.9192 100.964 58.5867 129.617 38.3199 163.099V163.099Z" fill="#EBEBEB"/>
<path opacity="0.15" d="M134.689 113.501L137.516 120.938C121.719 124.672 101.236 132.412 84.2142 146.455C68.508 147.634 44.034 158.896 38.3199 163.084C38.3199 163.099 68.0544 127.408 134.689 113.501Z" fill="black"/>
<path d="M239.84 86.82C230.438 89.6921 212.902 103.191 202.804 113.743C186.826 118.867 159.843 129.026 143.94 137.929L134.689 113.501L121.084 77.3872C162.201 70.2823 195.564 68.3171 239.84 86.82Z" fill="#3BC5CE"/>
<path d="M239.84 86.82C230.438 89.6921 212.902 103.191 202.804 113.743C186.826 118.867 159.843 129.026 143.94 137.929L134.689 113.501L121.084 77.3872C162.201 70.2823 195.564 68.3171 239.84 86.82Z" fill="#EBEBEB"/>
<path d="M239.84 86.8199C230.438 89.6921 212.902 103.191 202.804 113.743C178.391 85.021 149.261 74.137 124.198 76.9336C163.005 71.7743 202.472 75.1483 239.84 86.8199V86.8199Z" fill="#3BC5CE"/>
<path opacity="0.15" d="M239.84 86.8199C230.438 89.6921 212.902 103.191 202.804 113.743C178.391 85.021 149.261 74.137 124.198 76.9336C163.005 71.7743 202.472 75.1483 239.84 86.8199V86.8199Z" fill="black"/>
<path opacity="0.15" d="M134.689 113.501L137.516 120.938C151.801 113.274 172.284 105.504 194.43 104.733C206.977 95.2097 232.781 87.4549 239.78 86.82C239.84 86.82 193.871 79.8512 134.689 113.501Z" fill="black"/>
<path d="M120.661 79.2615L212.872 352.873C212.959 353.058 213.092 353.216 213.259 353.333C213.427 353.45 213.621 353.521 213.825 353.538C214.377 353.607 214.938 353.545 215.463 353.359C215.988 353.173 216.462 352.867 216.848 352.465C217 352.33 217.111 352.155 217.17 351.96C217.228 351.766 217.232 351.558 217.18 351.362L124.969 77.7499L120.661 79.2615Z" fill="#455A64"/>
<path d="M122.535 79.1255L122.898 78.929L123.336 78.6872C123.458 78.6099 123.574 78.524 123.684 78.4302C124.198 78.0674 123.88 77.9011 123.805 77.5685C123.593 76.9336 123.261 76.0569 122.883 74.9533C122.097 72.7917 120.993 69.9346 119.859 67.1078C119.285 65.7019 118.65 64.2961 118.06 62.9809C117.743 62.3309 117.471 61.6809 117.184 61.0913L116.307 59.3832C116.05 58.8692 115.793 58.4006 115.581 57.9773C115.37 57.5541 115.173 57.1912 115.007 56.8889C114.689 56.2994 114.493 55.9668 114.493 55.9668L114.659 57.025L114.886 58.2192C114.977 58.6878 115.067 59.2018 115.203 59.7309C115.339 60.2599 115.46 60.8948 115.596 61.5449C115.732 62.1949 115.914 62.86 116.08 63.5705C116.428 64.9763 116.806 66.4578 117.229 67.9241C118.045 70.9474 118.967 73.8045 119.693 75.9964L120.57 78.6116C120.736 78.9139 120.57 79.2465 121.22 79.2163C121.361 79.2235 121.502 79.2235 121.643 79.2163L122.127 79.1255H122.535Z" fill="#455A64"/>
<path d="M38.3199 163.099C51.1526 153.217 65.7326 145.842 81.2967 141.361C97.4413 127.983 123.941 120.273 136.639 118.686L121.023 77.3721C92.09 91.5213 59.2414 119.926 38.3199 163.099Z" fill="#3BC5CE"/>
<path d="M81.2966 141.361C97.4412 127.983 123.941 120.273 136.639 118.686L121.023 77.3721C108.325 85.4897 98.4994 101.71 91.6969 115.557C87.6284 123.903 84.1531 132.526 81.2966 141.361V141.361Z" fill="#F0F0F0"/>
<path d="M239.75 86.8502C223.593 87.9176 207.782 92.0203 193.145 98.9435C172.193 99.6086 147.236 111.385 136.639 118.595L121.023 77.372C152.058 68.8311 195.473 68.3474 239.75 86.8502Z" fill="#F0F0F0"/>
<path d="M193.145 99.0191C172.193 99.6843 147.236 111.46 136.639 118.671L121.023 77.3721C135.883 75.0743 153.978 80.6826 168.248 86.5781C176.833 90.1268 185.153 94.2844 193.145 99.0191V99.0191Z" fill="#3BC5CE"/>
<path opacity="0.3" d="M217.165 351.316L189.381 268.855C187.673 268.658 185.98 268.417 184.287 268.144L212.812 352.798C212.898 352.982 213.032 353.141 213.199 353.258C213.366 353.374 213.561 353.445 213.764 353.463C214.317 353.531 214.878 353.47 215.403 353.284C215.927 353.097 216.402 352.791 216.787 352.39C216.939 352.26 217.054 352.092 217.121 351.904C217.187 351.715 217.203 351.513 217.165 351.316Z" fill="white"/>
<path opacity="0.5" d="M189.381 268.855L187.869 264.32C186.146 264.093 184.438 263.821 182.729 263.534L184.241 268.19C185.98 268.417 187.673 268.658 189.381 268.855Z" fill="white"/>
<path d="M172.269 454.306C172.269 454.306 174.325 465.432 174.884 469.982C176.653 484.434 152.436 508.031 115.566 508.031C115.566 508.031 133.706 506.171 145.724 494.169C157.742 482.166 163.698 456.619 163.698 456.619L172.269 454.306Z" fill="#3BC5CE"/>
<path opacity="0.1" d="M172.269 454.306C172.269 454.306 174.325 465.432 174.884 469.982C176.653 484.434 152.436 508.031 115.566 508.031C115.566 508.031 133.706 506.171 145.724 494.169C157.742 482.166 163.698 456.619 163.698 456.619L172.269 454.306Z" fill="black"/>
<path opacity="0.95" d="M47.8585 382.442L41.5549 386.054C40.4155 400.74 41.7804 415.513 45.591 429.742C58.3193 477.979 94.1458 510.374 125.619 502.075L126.238 501.909C144.378 496.784 157.092 479.022 161.884 455.546L167.93 451.797L47.8585 382.442Z" fill="#3BC5CE"/>
<path opacity="0.9" d="M161.884 455.561C157.092 479.037 144.424 496.799 126.238 501.924L125.619 502.09C94.1458 510.389 58.3193 477.994 45.591 429.742C41.7532 415.513 40.3628 400.734 41.4793 386.039L161.884 455.561Z" fill="white"/>
<path opacity="0.95" d="M161.884 455.561L167.945 451.812L47.783 382.442L41.4794 386.054L161.884 455.561Z" fill="white"/>
<path d="M165.995 457.949C160.629 484.192 146.873 500.926 127.493 506.323L126.798 506.519C123.134 507.499 119.359 508.007 115.566 508.031C84.2142 508.031 52.9075 475.606 41.1165 430.936C37.3106 415.487 36.0444 399.522 37.3676 383.666L41.4793 386.039C40.3629 400.735 41.7533 415.513 45.5911 429.742C58.3193 477.979 94.1458 510.374 125.619 502.075L126.239 501.909C144.379 496.784 157.092 479.022 161.884 455.546L165.995 457.949Z" fill="#3BC5CE"/>
<path d="M58.9996 422.546C54.8425 423.634 49.7935 416.938 48.7958 408.941C48.5993 407.339 48.4179 406.129 48.2819 404.149C47.8888 398.435 48.8865 394.127 54.8878 397.09L80.9943 412.01C82.3548 413.128 82.6421 416.303 81.4176 416.62L58.9996 422.546Z" fill="#3BC5CE"/>
<path d="M74.2673 461.865C72.1964 467.291 66.9055 466.143 63.3985 459.461C62.1891 457.183 61.0403 454.835 59.9519 452.417C58.8332 449.922 57.7599 447.383 56.7622 444.858C53.9354 437.557 55.1599 429.742 59.1658 428.638L86.1642 421.503C87.3886 421.186 88.7038 424.073 88.0689 425.736L74.2673 461.865Z" fill="#3BC5CE"/>
<path d="M95.8994 479.082C96.6099 487.004 92.8761 491.508 88.1748 488.152C87.2527 487.472 86.3154 486.762 85.3933 485.991C84.4712 485.22 83.5491 484.479 82.6421 483.572C78.1071 479.354 75.764 469.771 77.8803 464.192L89.3539 434.125C89.9737 432.463 91.8179 433.989 92.0295 436.332L95.8994 479.082Z" fill="#3BC5CE"/>
<path d="M125.15 475.847C128.702 482.726 127.448 491.418 122.459 493.579C120.692 494.337 118.874 494.969 117.017 495.469C115.155 495.953 113.261 496.302 111.349 496.512C105.937 497.086 100.57 490.148 100.253 482.408L96.3226 429.847C96.2168 427.459 98.3936 426.9 99.482 429.016L125.15 475.847Z" fill="#3BC5CE"/>
<path d="M109.096 428.94L143.532 448.592C149.911 452.22 152.859 462.273 149.443 468.924C148.762 470.254 148.037 471.554 147.281 472.824C146.525 474.094 145.769 475.318 144.923 476.513C140.826 482.438 132.829 480.836 128.808 473.308L106.904 432.614C105.71 430.376 107.207 427.852 109.096 428.94Z" fill="#3BC5CE"/>
<g opacity="0.45">
<path d="M58.9996 422.546C54.8425 423.634 49.7935 416.938 48.7958 408.941C48.5993 407.339 48.4179 406.129 48.2819 404.149C47.8888 398.435 48.8865 394.127 54.8878 397.09L80.9943 412.01C82.3548 413.128 82.6421 416.303 81.4176 416.62L58.9996 422.546Z" fill="white"/>
<path d="M74.2675 461.864C72.1965 467.291 66.9056 466.142 63.3986 459.461C62.1892 457.183 61.0404 454.835 59.952 452.417C58.8333 449.922 57.7601 447.383 56.7624 444.858C53.9355 437.557 55.16 429.742 59.1659 428.638L86.1643 421.503C87.3887 421.185 88.7039 424.073 88.069 425.736L74.2675 461.864Z" fill="white"/>
<path d="M95.8994 479.082C96.6099 487.004 92.8761 491.508 88.1748 488.152C87.2527 487.472 86.3154 486.762 85.3933 485.991C84.4712 485.22 83.5491 484.479 82.6421 483.572C78.1071 479.354 75.764 469.771 77.8803 464.192L89.3539 434.125C89.9737 432.463 91.8179 433.989 92.0295 436.332L95.8994 479.082Z" fill="white"/>
<path d="M125.15 475.847C128.703 482.726 127.448 491.418 122.459 493.579C120.692 494.337 118.874 494.969 117.017 495.469C115.156 495.953 113.261 496.302 111.349 496.512C105.937 497.086 100.57 490.148 100.253 482.408L96.3227 429.847C96.2169 427.459 98.3937 426.9 99.4821 429.016L125.15 475.847Z" fill="white"/>
<path d="M109.096 428.94L143.532 448.592C149.911 452.22 152.859 462.273 149.443 468.924C148.762 470.254 148.037 471.554 147.281 472.824C146.525 474.094 145.769 475.318 144.923 476.513C140.826 482.438 132.829 480.836 128.808 473.308L106.904 432.614C105.71 430.376 107.207 427.852 109.096 428.94Z" fill="white"/>
</g>
<path d="M37.3676 383.681L43.8224 380.144L167.945 451.812L172.269 454.306L165.995 457.934L37.3676 383.681Z" fill="#3BC5CE"/>
<path opacity="0.95" d="M161.884 455.561L167.945 451.812L47.783 382.442L41.4794 386.054L161.884 455.561Z" fill="white"/>
<g opacity="0.3">
<path d="M121.598 474.23L96.5645 428.563C96.3818 428.965 96.2988 429.406 96.3226 429.848L100.253 482.408C100.311 484.778 100.867 487.11 101.885 489.251C102.903 491.391 104.361 493.294 106.164 494.834C106.705 494.91 107.255 494.91 107.796 494.834C111.627 494.427 115.374 493.438 118.907 491.901C123.895 489.8 125.15 481.138 121.598 474.23Z" fill="white"/>
<path d="M139.98 446.914L108.008 428.774C106.708 428.956 105.952 430.891 106.904 432.659L128.808 473.293C129.845 475.267 131.325 476.974 133.132 478.281C134.688 478.642 136.318 478.508 137.795 477.898C139.272 477.289 140.521 476.234 141.37 474.88C142.187 473.701 142.973 472.461 143.728 471.192C144.484 469.922 145.24 468.622 145.89 467.291C149.291 460.595 146.359 450.557 139.98 446.914Z" fill="white"/>
<path d="M92.347 477.465L88.6736 436.091L77.9559 464.193C75.8396 469.771 78.1826 479.309 82.7176 483.572C83.6246 484.419 84.5467 485.235 85.4689 485.991C86.391 486.747 86.8898 487.109 87.5852 487.639C90.6992 487.729 92.9063 483.648 92.347 477.465Z" fill="white"/>
<path d="M84.5013 424.043C84.7281 423.335 84.7281 422.574 84.5013 421.866L59.1658 428.563C55.1599 429.621 53.9354 437.481 56.7622 444.783C57.7599 447.368 58.8332 449.907 59.9519 452.341C61.0705 454.775 62.2042 457.118 63.4136 459.401C64.2059 460.997 65.2874 462.432 66.6032 463.633C68.3114 463.633 69.823 462.545 70.7149 460.187L84.5013 424.043Z" fill="white"/>
<path d="M55.4169 420.929L77.85 415.018C79.0745 414.685 78.7872 411.526 77.4267 410.392L52.7261 396.288C48.6446 395.321 47.9341 399.206 48.2667 404.149C48.4027 406.129 48.5841 407.339 48.7806 408.941C49.2269 413.5 51.2223 417.768 54.4343 421.034C54.7651 421.045 55.0958 421.009 55.4169 420.929V420.929Z" fill="white"/>
</g>
<path d="M510.746 21.3344L516.475 23.5716V10.7981C516.475 0.669887 524.548 -1.74878 533.315 3.23972C542.083 8.28869 549.188 20.6088 549.188 30.7218V32.5812C550.423 32.2017 551.729 32.1066 553.006 32.303C554.284 32.4993 555.5 32.982 556.565 33.7149V33.7149C559.888 35.8847 562.653 38.807 564.636 42.245C566.619 45.6829 567.764 49.5397 567.978 53.5027V54.3492L576.065 59.0203C578.26 60.4425 580.088 62.3624 581.401 64.6239C582.715 66.8854 583.476 69.4247 583.624 72.0357C583.624 76.8428 580.253 78.7777 576.065 76.3893L510.686 38.5976C508.489 37.1739 506.66 35.2516 505.346 32.9873C504.033 30.723 503.273 28.1806 503.127 25.567C503.218 20.8809 506.589 18.9459 510.746 21.3344Z" fill="#EBEBEB"/>
</svg>
