<svg width="692" height="649" viewBox="0 0 692 649" fill="none" xmlns="http://www.w3.org/2000/svg">
<path d="M327.173 453.719H17.7447C15.318 453.719 12.9907 452.755 11.2748 451.039C9.55885 449.323 8.59485 446.996 8.59485 444.569V9.62319C8.61598 7.21041 9.58929 4.90364 11.3029 3.20501C13.0166 1.50637 15.3318 0.553374 17.7447 0.553467H327.173C328.374 0.553467 329.564 0.790132 330.674 1.24996C331.784 1.70978 332.793 2.38375 333.643 3.23339C334.492 4.08304 335.166 5.09171 335.626 6.20182C336.086 7.31193 336.323 8.50173 336.323 9.70331V444.569C336.323 445.771 336.086 446.961 335.626 448.071C335.166 449.181 334.492 450.19 333.643 451.039C332.793 451.889 331.784 452.563 330.674 453.023C329.564 453.482 328.374 453.719 327.173 453.719V453.719ZM17.7447 0.873953C15.4256 0.878189 13.2026 1.80134 11.5627 3.44122C9.92284 5.0811 8.99969 7.30405 8.99545 9.62319V444.569C8.99969 446.888 9.92284 449.111 11.5627 450.751C13.2026 452.391 15.4256 453.314 17.7447 453.318H327.173C329.492 453.314 331.715 452.391 333.355 450.751C334.995 449.111 335.918 446.888 335.922 444.569V9.62319C335.918 7.30405 334.995 5.0811 333.355 3.44122C331.715 1.80134 329.492 0.878189 327.173 0.873953H17.7447Z" fill="#EBEBEB"/>
<path d="M673.777 453.719H364.349C361.922 453.719 359.595 452.755 357.879 451.039C356.163 449.323 355.199 446.996 355.199 444.569V9.62319C355.22 7.21041 356.194 4.90364 357.907 3.20501C359.621 1.50637 361.936 0.553374 364.349 0.553467H673.777C676.204 0.553467 678.531 1.51747 680.247 3.23339C681.963 4.94932 682.927 7.27662 682.927 9.70331V444.569C682.927 446.996 681.963 449.323 680.247 451.039C678.531 452.755 676.204 453.719 673.777 453.719V453.719ZM364.349 0.873953C362.03 0.878189 359.807 1.80134 358.167 3.44122C356.527 5.0811 355.604 7.30405 355.6 9.62319V444.569C355.604 446.888 356.527 449.111 358.167 450.751C359.807 452.391 362.03 453.314 364.349 453.318H673.777C676.096 453.314 678.319 452.391 679.959 450.751C681.599 449.111 682.522 446.888 682.527 444.569V9.62319C682.522 7.30405 681.599 5.0811 679.959 3.44122C678.319 1.80134 676.096 0.878189 673.777 0.873953H364.349Z" fill="#EBEBEB"/>
<path d="M342.941 35.8069H349.479L305.46 295.416H298.906L342.941 35.8069Z" fill="#E0E0E0"/>
<path d="M409.473 78.6876H338.935L339.576 74.9219H410.114L409.473 78.6876Z" fill="#E0E0E0"/>
<path d="M401.814 123.892H331.275L331.9 120.126H402.439L401.814 123.892Z" fill="#E0E0E0"/>
<path d="M394.138 169.112H323.599L324.24 165.347H394.779L394.138 169.112Z" fill="#E0E0E0"/>
<path d="M386.463 214.317H315.924L316.565 210.551H387.104L386.463 214.317Z" fill="#E0E0E0"/>
<path d="M378.803 259.537H308.264L308.905 255.771H379.444L378.803 259.537Z" fill="#E0E0E0"/>
<path d="M413.463 35.8069H420.017L375.999 295.416H369.429L413.463 35.8069Z" fill="#E0E0E0"/>
<path d="M648.619 283.814L639.966 291.826C638.639 293.064 637.069 294.012 635.356 294.611C633.643 295.209 631.824 295.445 630.015 295.304C528.181 287.676 453.572 88.8631 412.774 48.8827C411.518 47.6614 410.521 46.1981 409.846 44.581C409.171 42.9639 408.83 41.2266 408.845 39.4742C408.86 37.7218 409.23 35.9906 409.933 34.3853C410.636 32.78 411.657 31.3338 412.935 30.1343V30.1343C450.367 30.2144 532.091 283.814 648.619 283.814Z" fill="#EBEBEB"/>
<path d="M407.583 40.4858C442.051 40.4858 517.156 284.92 624.166 284.92C615.129 289.967 585.564 293.525 565.453 288.637C458.444 288.637 380.678 40.4858 346.21 40.4858H407.583Z" fill="#E0E0E0"/>
<path d="M577.76 283.814L569.107 291.826C567.78 293.064 566.21 294.012 564.497 294.611C562.784 295.209 560.965 295.445 559.156 295.303C457.322 287.756 382.713 88.9432 341.915 48.9627C340.658 47.7415 339.662 46.2781 338.987 44.661C338.311 43.0439 337.971 41.3067 337.986 39.5543C338.001 37.8019 338.371 36.0707 339.074 34.4654C339.777 32.86 340.798 31.4139 342.075 30.2144V30.2144C379.588 30.2144 461.328 283.814 577.76 283.814Z" fill="#EBEBEB"/>
<path d="M299.723 271.267C281.616 255.916 273.331 264.489 269.614 277.517C270.511 245.853 267.018 199.607 242.373 176.211C202.681 138.538 200.149 211.593 210.324 233.722C183.083 171.228 137.718 135.446 100.622 140.445C43.5598 148.137 124.658 270.899 124.658 270.899C124.658 270.899 59.7442 234.507 52.0045 279.504C44.2648 324.5 106.134 347.687 106.134 347.687C106.134 347.687 58.254 347.895 61.9236 378.325C65.5931 408.755 132.19 412.505 132.19 412.505C197.36 420.389 254.631 406.287 304.755 372.316C308.809 355.17 321.42 289.695 299.723 271.267Z" fill="#F0F0F0"/>
<path d="M421.411 274.648C438.605 255.098 446.794 263.703 450.672 277.853C449.069 242.359 451.505 189.944 474.884 160.539C512.493 113.204 516.547 194.992 507.141 221.159C532.107 147.448 575.292 101.538 611.299 102.484C666.679 103.942 590.804 252.15 590.804 252.15C590.804 252.15 652.818 202.972 661.31 252.647C669.803 302.322 610.369 336.117 610.369 336.117C610.369 336.117 656.728 330.316 653.827 364.961C650.927 399.605 586.525 412.232 586.525 412.232C518.743 424.475 458.78 423.449 418.687 388.757C414.393 370.088 400.788 298.075 421.411 274.648Z" fill="#F5F5F5"/>
<path d="M506.116 300.607C486.165 286.49 460.527 298.925 454.566 304.453C465.238 287.804 514.288 217.554 490.62 212.218C466.311 206.753 443.092 230.886 440.801 257.566C444.006 219.621 455.223 152.127 419.296 164.273C387.793 174.913 388.45 243.769 388.45 243.769C388.45 243.769 367.746 169.449 348.629 207.426C336.146 232.136 354.911 277.773 354.911 277.773C354.911 277.773 329.384 243.721 324.176 276.795C318.52 313.026 344.511 355.779 344.511 355.779C366.224 375.921 400.227 377.315 440.48 369.159C459.533 339.835 522.557 312.257 506.116 300.607Z" fill="#EBEBEB"/>
<path d="M18.8664 449.857C24.7313 437.342 40.8036 436.285 45.2744 437.326C35.3874 432.134 -8.3588 411.319 1.78455 402.073C12.1843 392.587 30.3558 397.955 38.9448 410.422C26.6702 392.715 2.29732 362.701 23.3532 358.583C41.8131 354.994 60.7538 389.029 60.7538 389.029C60.7538 389.029 50.1297 346.677 70.144 360.041C83.1877 368.694 86.713 396.352 86.713 396.352C86.713 396.352 89.7416 372.476 101.535 387.283C114.467 403.499 113.65 431.83 113.65 431.83C108.618 447.854 89.325 491.12 67.2596 498.331C49.7131 489.293 14.0591 460.177 18.8664 449.857Z" fill="#E0E0E0"/>
<path d="M577.023 352.622C590.836 352.35 600.531 376.514 601.716 395.679C603.671 384.671 613.542 349.385 626.666 345.395C641.665 340.828 642.322 375.841 633.076 387.763C646.28 370.762 667.56 338.457 677.815 357.317C686.805 373.838 660.093 402.185 660.093 402.185C660.093 402.185 697.221 379.286 690.539 402.393C686.212 417.424 660.942 429.138 660.942 429.138C660.942 429.138 684.626 424.811 674.082 440.531C662.528 457.773 635.271 465.545 635.271 465.545C618.526 465.545 571.446 460.257 557.874 441.412C561.207 421.879 547.186 353.215 577.023 352.622Z" fill="#E0E0E0"/>
<path d="M36.2206 516.951C36.2206 454.104 171.481 428.08 338.342 428.08C505.202 428.08 640.463 454.04 640.463 516.951C640.463 592.008 505.202 634.376 338.342 634.376C171.481 634.376 36.2206 592.008 36.2206 516.951Z" fill="#3BC5CE"/>
<path opacity="0.2" d="M338.342 428.08C195.966 428.08 76.5697 447.021 44.6334 491.649C76.5537 547.333 195.95 578.179 338.342 578.179C480.733 578.179 600.13 547.317 632.05 491.649C600.114 447.021 480.717 428.08 338.342 428.08Z" fill="black"/>
<path d="M36.2206 446.733C36.2206 383.885 171.481 357.862 338.342 357.862C505.202 357.862 640.463 383.885 640.463 446.733C640.463 521.79 505.202 564.158 338.342 564.158C171.481 564.158 36.2206 521.79 36.2206 446.733Z" fill="#3BC5CE"/>
<path opacity="0.6" d="M592.999 429.49C592.614 417.568 582.647 408.018 562.906 400.294C556.864 397.939 549.637 397.442 541.705 397.089C533.738 396.962 525.79 396.255 517.925 394.974C511.044 393.366 504.311 391.179 497.799 388.436C490.302 385.321 482.441 383.168 474.404 382.026C467.241 381.241 459.709 382.267 451.97 383.324C444.477 384.599 436.877 385.136 429.279 384.927C422.197 384.494 415.002 382.523 407.679 380.568C400.356 378.613 392.568 376.626 384.764 376.434C377.473 376.226 370.07 377.748 362.554 379.318C355.127 381.123 347.535 382.17 339.896 382.443C332.121 382.157 324.395 381.083 316.837 379.238C309.306 377.636 301.871 376.21 294.547 376.402C286.875 376.865 279.283 378.215 271.921 380.424C264.342 382.395 256.907 384.478 249.567 384.927C241.475 385.408 233.463 384.254 225.675 383.212C218.192 382.203 210.885 381.289 203.946 382.059C196.252 383.119 188.718 385.121 181.512 388.02C174.029 390.792 166.914 393.692 159.96 395.006C151.555 396.321 143.068 397.049 134.561 397.185C127.094 397.522 120.268 398.083 114.499 400.294C94.3726 408.05 84.053 417.616 83.7325 429.538C83.4569 430.823 83.3172 432.134 83.3159 433.448C83.3159 471.906 197.521 503.026 338.406 503.026C479.291 503.026 593.496 471.89 593.496 433.448C593.474 432.115 593.307 430.788 592.999 429.49V429.49Z" fill="white"/>
<path d="M374.252 474.07C369.445 474.486 364.638 474.727 359.83 475.063C355.023 475.4 350.296 475.768 345.633 476.489C343.311 476.791 341.01 477.235 338.742 477.819C336.565 478.301 334.489 479.158 332.605 480.351C332.236 480.574 331.919 480.871 331.673 481.225C331.427 481.578 331.259 481.979 331.179 482.402C331.294 483.358 331.777 484.232 332.525 484.838C334.312 486.38 336.329 487.635 338.502 488.556C336.025 488.228 333.647 487.37 331.531 486.04C330.913 485.65 330.381 485.137 329.967 484.533C329.554 483.93 329.268 483.248 329.128 482.531C329.046 481.711 329.226 480.887 329.641 480.175C329.994 479.53 330.461 478.955 331.019 478.476C332.015 477.588 333.145 476.864 334.368 476.329C335.519 475.798 336.702 475.338 337.909 474.951C340.292 474.263 342.717 473.728 345.168 473.349C350.01 472.691 354.898 472.439 359.782 472.596C364.636 472.711 369.474 473.204 374.252 474.07V474.07Z" fill="white"/>
<path d="M365.182 475.816C365.186 477.802 364.599 479.743 363.498 481.395C362.397 483.048 360.831 484.336 358.997 485.097C357.164 485.858 355.145 486.058 353.198 485.672C351.251 485.285 349.462 484.329 348.058 482.926C346.654 481.522 345.699 479.733 345.312 477.786C344.925 475.838 345.125 473.82 345.887 471.986C346.648 470.153 347.936 468.586 349.588 467.485C351.24 466.384 353.182 465.798 355.167 465.801C357.823 465.801 360.371 466.856 362.249 468.735C364.127 470.613 365.182 473.16 365.182 475.816Z" fill="#3BC5CE"/>
<path d="M353.485 472.147C351.882 473.269 349.879 473.317 349.174 472.259C348.469 471.201 349.254 469.455 350.921 468.333C352.587 467.211 354.526 467.163 355.231 468.221C355.936 469.279 355.151 471.041 353.485 472.147Z" fill="white"/>
<path d="M349.943 475.961C349.286 475.961 348.774 475.496 348.822 475.079C348.87 474.663 349.447 474.374 350.104 474.454C350.761 474.534 351.273 474.919 351.225 475.336C351.177 475.752 350.568 476.041 349.943 475.961Z" fill="white"/>
<path opacity="0.8" d="M408.256 441.461C409.038 443.144 409.305 445.022 409.021 446.857C408.736 448.692 407.915 450.401 406.659 451.769C405.404 453.137 403.771 454.103 401.967 454.543C400.163 454.983 398.269 454.878 396.525 454.242C394.78 453.606 393.263 452.467 392.166 450.97C391.069 449.472 390.44 447.682 390.36 445.827C390.279 443.972 390.75 442.135 391.714 440.548C392.677 438.96 394.09 437.694 395.773 436.91C398.032 435.861 400.615 435.751 402.955 436.604C405.295 437.457 407.201 439.204 408.256 441.461V441.461Z" fill="#3BC5CE"/>
<path d="M395.789 444.601C395.052 446.332 393.561 447.373 392.472 446.893C391.382 446.412 391.078 444.649 391.831 442.919C392.584 441.188 394.058 440.147 395.148 440.611C396.237 441.076 396.526 442.823 395.789 444.601Z" fill="white"/>
<path d="M396.462 440.499C396.045 440.018 395.949 439.426 396.253 439.169C396.558 438.913 397.119 439.073 397.535 439.538C397.952 440.002 398.048 440.595 397.76 440.868C397.471 441.14 396.878 440.964 396.462 440.499Z" fill="white"/>
<path opacity="0.8" d="M294.788 404.925C294.72 406.441 294.204 407.903 293.306 409.126C292.407 410.349 291.167 411.278 289.74 411.796C288.314 412.314 286.766 412.398 285.292 412.036C283.819 411.675 282.485 410.885 281.46 409.766C280.435 408.647 279.765 407.25 279.534 405.75C279.303 404.25 279.522 402.715 280.163 401.34C280.803 399.964 281.838 398.81 283.135 398.022C284.431 397.234 285.933 396.848 287.449 396.913C288.457 396.956 289.447 397.198 290.362 397.624C291.277 398.05 292.098 398.653 292.78 399.397C293.462 400.141 293.99 401.013 294.334 401.961C294.679 402.91 294.833 403.917 294.788 404.925V404.925Z" fill="#263238"/>
<path d="M284.596 402.522C283.411 403.499 281.936 403.691 281.392 402.938C280.847 402.185 281.231 400.775 282.417 399.734C283.603 398.692 285.077 398.564 285.622 399.317C286.167 400.07 285.782 401.544 284.596 402.522Z" fill="white"/>
<path d="M286.631 399.798C286.503 399.301 286.631 398.836 286.968 398.756C287.305 398.676 287.641 399.012 287.769 399.509C287.897 400.006 287.769 400.471 287.433 400.551C287.096 400.631 286.76 400.294 286.631 399.798Z" fill="white"/>
<path d="M307.687 415.694C303.94 416.838 300.084 417.595 296.182 417.953C292.259 418.314 288.311 418.314 284.388 417.953C280.385 417.67 276.46 416.7 272.787 415.085C271.819 414.641 270.936 414.034 270.175 413.29C269.747 412.874 269.414 412.371 269.197 411.816C269.098 411.509 269.039 411.192 269.021 410.87C269.036 410.554 269.096 410.241 269.197 409.941C269.668 408.953 270.451 408.148 271.425 407.649C271.855 407.4 272.299 407.175 272.755 406.976L274.133 406.48C273.324 407.002 272.553 407.58 271.825 408.21C271.135 408.737 270.626 409.465 270.367 410.294C270.191 410.999 270.639 411.575 271.28 412.088C271.982 412.615 272.76 413.031 273.588 413.322C275.341 413.953 277.149 414.42 278.988 414.716C280.854 415.065 282.737 415.316 284.628 415.469C288.41 415.854 292.24 415.966 296.086 415.982C299.932 415.998 303.777 415.854 307.687 415.694Z" fill="white"/>
<path d="M144.432 411.8C139.385 412.601 134.369 413.402 129.418 414.3C126.95 414.844 124.482 415.309 122.079 415.982C119.662 416.587 117.286 417.342 114.964 418.242C112.674 419.067 110.481 420.142 108.426 421.446C106.41 422.687 104.718 424.39 103.49 426.414C102.345 428.475 102.057 430.904 102.689 433.176C103.365 435.582 104.582 437.802 106.247 439.666C104.124 438.1 102.463 435.991 101.439 433.561C100.918 432.283 100.669 430.91 100.708 429.531C100.746 428.152 101.072 426.795 101.664 425.549C102.876 423.089 104.717 420.994 107 419.475C109.176 417.977 111.528 416.75 114.002 415.822C118.86 414.036 123.919 412.852 129.065 412.297C134.164 411.696 139.305 411.53 144.432 411.8V411.8Z" fill="white"/>
<path d="M472.865 464.167C474.66 464.092 476.455 464.092 478.249 464.167C480.06 464.167 481.855 464.279 483.65 464.455C487.361 464.674 491.004 465.559 494.402 467.067C495.37 467.547 496.219 468.237 496.886 469.086C497.272 469.609 497.521 470.22 497.611 470.864C497.7 471.508 497.627 472.164 497.398 472.772C496.957 473.8 496.263 474.698 495.379 475.384C494.614 476.057 493.742 476.598 492.799 476.986C489.407 478.343 485.907 479.415 482.336 480.191C475.312 481.756 468.2 482.896 461.039 483.604C453.899 484.311 446.727 484.659 439.551 484.646C446.682 483.877 453.764 483.043 460.815 481.89C467.866 480.736 474.884 479.534 481.759 477.82C485.171 477.052 488.515 476.007 491.758 474.695C493.151 474.199 494.325 473.229 495.075 471.955C495.17 471.729 495.202 471.482 495.168 471.239C495.134 470.997 495.036 470.768 494.883 470.577C494.446 470.014 493.901 469.546 493.28 469.199C490.172 467.696 486.864 466.649 483.457 466.09C481.711 465.753 479.964 465.449 478.201 465.144L472.865 464.167Z" fill="white"/>
<path d="M226.46 342.783C225.589 344.376 224.512 345.847 223.256 347.158C221.602 345.726 220.325 343.91 219.538 341.87C219.703 344.336 220.374 346.741 221.509 348.937C218.624 351.597 215.389 353.85 211.894 355.635C210.07 353.634 208.867 351.145 208.433 348.472C208.009 351.322 208.289 354.232 209.25 356.949L208.706 357.189C199.924 361.115 188.675 361.996 180.391 361.884C180.45 358.819 179.693 355.794 178.195 353.119C178.759 356.057 178.395 359.098 177.154 361.82C172.17 361.644 168.853 361.227 168.853 361.227C168.853 361.227 175.936 351.613 170.183 341.998C162.78 329.659 163.197 317.128 175.583 316.968C180.823 296.601 210.58 303.348 214.875 320.542C216.962 328.753 220.929 336.366 226.46 342.783V342.783Z" fill="#263238"/>
<path d="M210.02 367.284L211.975 365.938L214.042 364.416C215.42 363.391 216.766 362.301 218.08 361.211C220.706 359.011 223.185 356.639 225.499 354.113C227.736 351.638 229.767 348.985 231.572 346.181C233.287 343.478 234.67 340.578 235.69 337.543V341.037C234.757 337.931 233.661 334.877 232.405 331.887C231.108 328.682 229.794 325.477 228.415 322.272L224.297 312.658C222.951 309.453 221.541 306.248 220.227 302.947C219.905 302.163 219.883 301.287 220.166 300.488C220.449 299.689 221.017 299.022 221.761 298.615C222.505 298.208 223.373 298.09 224.199 298.283C225.024 298.477 225.75 298.968 226.236 299.662C228.303 302.579 230.21 305.543 232.165 308.524C234.12 311.504 235.899 314.565 237.726 317.625C239.552 320.686 241.267 323.811 242.933 327.016C244.744 330.357 246.318 333.821 247.645 337.383C247.999 338.371 248.055 339.441 247.805 340.46L247.693 340.86C246.638 345.059 245.021 349.097 242.885 352.863C240.853 356.515 238.447 359.946 235.706 363.102C233.058 366.218 230.176 369.126 227.085 371.803C225.483 373.117 223.977 374.383 222.278 375.601C221.461 376.21 220.676 376.819 219.794 377.396C218.913 377.973 218.192 378.485 217.054 379.158C215.499 380.134 213.62 380.451 211.83 380.041C210.04 379.631 208.487 378.527 207.512 376.971C206.536 375.416 206.219 373.536 206.629 371.747C207.039 369.957 208.144 368.404 209.699 367.429L210.02 367.284Z" fill="#FFB573"/>
<path d="M224.073 308.668L215.596 304.293L223.111 293.765C223.111 293.765 229.617 297.451 229.665 304.582L224.073 308.668Z" fill="#FFB573"/>
<path d="M213.353 293.973L215.917 291.89C216.653 291.294 217.577 290.977 218.525 290.998C219.473 291.019 220.382 291.374 221.092 292.002L223.111 293.765L215.596 304.293L212.391 299.149C211.899 298.316 211.726 297.333 211.902 296.381C212.079 295.43 212.594 294.575 213.353 293.973V293.973Z" fill="#FFB573"/>
<path d="M210.372 443.399C200.95 444.489 191.576 445.755 182.314 447.438C177.699 448.335 173.084 449.264 168.613 450.562C166.396 451.172 164.218 451.916 162.091 452.79C161.095 453.238 160.14 453.775 159.239 454.392C158.856 454.641 158.511 454.943 158.213 455.289C157.973 455.578 157.909 455.786 157.925 455.834C157.987 456.038 158.104 456.22 158.261 456.363C158.599 456.669 158.976 456.928 159.383 457.132C160.34 457.638 161.344 458.051 162.38 458.366C164.583 459.038 166.825 459.573 169.094 459.969C173.677 460.802 178.356 461.234 183.051 461.651C192.441 462.356 201.895 462.661 211.382 462.789C201.933 463.895 192.416 464.312 182.907 464.039C178.123 463.916 173.35 463.515 168.613 462.837C166.203 462.464 163.82 461.929 161.482 461.234C160.248 460.869 159.051 460.386 157.909 459.792C157.26 459.462 156.661 459.041 156.13 458.542C155.752 458.23 155.443 457.843 155.223 457.405C155.003 456.967 154.876 456.488 154.85 455.998C154.825 455.509 154.901 455.019 155.074 454.561C155.248 454.102 155.515 453.685 155.858 453.334C156.328 452.787 156.867 452.303 157.46 451.892C158.535 451.192 159.672 450.591 160.857 450.098C163.115 449.181 165.433 448.421 167.796 447.822C172.44 446.654 177.148 445.761 181.897 445.146C191.333 443.866 200.85 443.282 210.372 443.399V443.399Z" fill="white"/>
<path d="M215.019 439.121C219.287 437.758 223.668 436.782 228.111 436.205C232.589 435.565 237.122 435.399 241.635 435.708C243.939 435.896 246.22 436.303 248.446 436.926C249.591 437.269 250.702 437.72 251.763 438.272C252.922 438.843 253.944 439.657 254.759 440.659C255.207 441.209 255.535 441.847 255.72 442.532C255.905 443.217 255.943 443.933 255.833 444.634C255.551 445.901 254.899 447.056 253.958 447.951C252.264 449.512 250.245 450.678 248.045 451.364C249.879 450.169 251.503 448.68 252.852 446.957C253.441 446.217 253.797 445.319 253.878 444.377C253.884 443.975 253.805 443.577 253.648 443.207C253.491 442.837 253.258 442.504 252.965 442.23C251.458 440.973 249.654 440.123 247.725 439.762C245.656 439.268 243.549 438.946 241.427 438.801C237.081 438.487 232.721 438.423 228.367 438.608C223.977 438.753 219.506 439.009 215.019 439.121Z" fill="white"/>
<path d="M186.833 455.498C196.079 455.334 205.306 454.584 214.458 453.254C218.993 452.533 223.528 451.78 227.951 450.691C230.146 450.146 232.357 449.601 234.473 448.912C235.53 448.559 236.572 448.191 237.533 447.774C237.984 447.581 238.422 447.362 238.847 447.117L239.312 446.813C239.424 446.813 239.44 446.62 239.312 446.941C239.136 447.287 239.085 447.683 239.168 448.063C239.22 448.309 239.33 448.54 239.488 448.736C239.632 448.88 239.488 448.736 239.488 448.736C239.098 448.533 238.69 448.367 238.27 448.239C237.243 447.924 236.2 447.662 235.146 447.454C232.966 447.005 230.691 446.684 228.431 446.38C223.897 445.707 219.298 445.322 214.699 444.778C205.485 443.896 196.223 443.175 186.945 442.198C196.234 441.266 205.574 440.918 214.907 441.156C219.586 441.156 224.249 441.541 228.944 441.973C231.3 442.198 233.639 442.534 236.011 442.967C237.239 443.185 238.454 443.474 239.648 443.832C240.349 444.025 241.026 444.293 241.667 444.633C242.171 444.876 242.622 445.213 242.997 445.627C243.424 446.071 243.7 446.638 243.787 447.248C243.873 447.858 243.765 448.479 243.478 449.024C243.18 449.578 242.758 450.055 242.244 450.418C241.928 450.655 241.596 450.869 241.251 451.059C240.664 451.385 240.059 451.679 239.44 451.94C238.254 452.421 237.101 452.822 235.947 453.174C233.661 453.879 231.34 454.462 228.992 454.921C224.361 455.825 219.678 456.446 214.971 456.78C205.576 457.567 196.118 457.137 186.833 455.498V455.498Z" fill="white"/>
<path d="M230.531 381.754C232.63 394.349 234.745 415.053 234.937 447.726C224.714 456.7 188.643 456.86 176.048 453.943C178.74 443.4 180.567 422.712 173.18 388.629C170.904 378.165 177.074 367.701 186.528 365.97H186.784C194.486 364.508 202.274 363.55 210.1 363.102H210.34C220.227 362.878 228.784 370.842 230.531 381.754Z" fill="#3BC5CE"/>
<path opacity="0.3" d="M230.531 381.754C232.63 394.349 234.745 415.053 234.937 447.726C224.714 456.7 188.643 456.86 176.048 453.943C178.74 443.4 180.567 422.712 173.18 388.629C170.904 378.165 177.074 367.701 186.528 365.97H186.784C194.486 364.508 202.274 363.55 210.1 363.102H210.34C220.227 362.878 228.784 370.842 230.531 381.754Z" fill="black"/>
<g opacity="0.4">
<path d="M234.905 443.496C234.905 443.223 234.905 442.935 234.905 442.663C219.346 449.072 194.412 450.675 177.09 449.072L176.946 449.841C181.208 450.258 185.919 450.482 190.855 450.482C205.853 450.482 222.855 448.431 234.905 443.496Z" fill="#3BC5CE"/>
<path d="M234.777 435.964C234.777 435.676 234.777 435.42 234.777 435.131C219.602 441.541 195.325 443.335 177.987 441.957C177.987 442.214 177.987 442.47 177.987 442.727C181.721 443.031 185.775 443.207 190.005 443.207C205.148 443.207 222.567 441.076 234.777 435.964Z" fill="#3BC5CE"/>
<path d="M234.569 428.401C234.569 428.129 234.569 427.856 234.569 427.584C219.618 433.993 195.726 435.916 178.388 434.699C178.388 434.971 178.388 435.227 178.388 435.5C181.721 435.74 185.294 435.868 189.012 435.868C204.411 435.932 222.198 433.737 234.569 428.401Z" fill="#3BC5CE"/>
<path d="M234.28 421.014V420.18C219.442 426.59 195.694 428.657 178.372 427.552C178.372 427.824 178.372 428.096 178.372 428.353C181.432 428.561 184.685 428.673 187.986 428.673C203.642 428.673 221.765 426.414 234.28 421.014Z" fill="#3BC5CE"/>
<path d="M233.88 413.595V412.777C219.009 419.187 195.293 421.366 177.987 420.325C177.987 420.581 177.987 420.87 177.987 421.126C180.872 421.302 183.932 421.398 187.089 421.398C202.825 421.398 221.205 419.091 233.88 413.595Z" fill="#3BC5CE"/>
<path d="M233.367 406.224C233.367 405.951 233.367 405.679 233.367 405.406C218.416 411.896 194.572 414.107 177.282 413.066C177.282 413.338 177.282 413.611 177.362 413.867C180.166 414.043 183.131 414.139 186.208 414.139C201.959 414.139 220.564 411.784 233.367 406.224Z" fill="#3BC5CE"/>
<path d="M232.726 398.9C232.726 398.644 232.726 398.372 232.646 398.115C217.503 404.621 193.499 406.864 176.321 405.807C176.321 406.079 176.401 406.352 176.433 406.608C179.221 406.784 182.186 406.88 185.278 406.88C201.046 406.88 219.778 404.493 232.726 398.9Z" fill="#3BC5CE"/>
<path d="M231.989 391.657L231.893 390.872C216.477 397.394 192.217 399.637 175.167 398.532L175.311 399.317C178.163 399.509 181.224 399.621 184.413 399.621C200.069 399.557 218.865 397.218 231.989 391.657Z" fill="#3BC5CE"/>
<path d="M230.963 384.478C230.963 384.222 230.883 383.966 230.851 383.709C215.083 390.215 190.566 392.426 173.709 391.241C173.709 391.497 173.821 391.769 173.869 392.026C176.865 392.234 180.086 392.362 183.483 392.362C199.043 392.362 217.759 389.943 230.963 384.478Z" fill="#3BC5CE"/>
<path d="M229.441 377.54C229.441 377.3 229.265 377.059 229.169 376.819C213.144 383.052 189.108 385.167 172.731 383.966C172.715 384.227 172.715 384.489 172.731 384.751C175.776 384.975 179.141 385.103 182.586 385.103C197.793 385.135 216.173 382.812 229.441 377.54Z" fill="#3BC5CE"/>
<path d="M226.124 371.227L225.595 370.57C210.308 375.761 189.332 377.684 174.093 376.851L173.805 377.62C176.289 377.78 178.933 377.845 181.673 377.845C195.902 377.845 213 375.826 226.124 371.227Z" fill="#3BC5CE"/>
<path d="M219.955 365.634C219.618 365.442 219.282 365.233 218.929 365.057C205.832 368.334 192.369 369.922 178.869 369.784L178.067 370.569H180.759C193.982 370.616 207.156 368.957 219.955 365.634V365.634Z" fill="#3BC5CE"/>
</g>
<path d="M189.509 345.203C190.935 353.215 191.448 361.227 187.714 365.762C187.714 365.762 195.966 381.065 209.539 384.607C216.205 376.595 211.782 363.07 211.782 363.07C204.235 360.458 204.347 356.003 205.373 349.273L193.451 341.566C191.399 340.043 188.996 342.271 189.509 345.203Z" fill="#FFB573"/>
<path opacity="0.2" d="M205.357 349.273L193.435 341.565C191.928 350.619 192.473 355.058 197.2 357.477C199.818 358.702 202.778 358.985 205.581 358.279C204.523 355.907 204.748 352.911 205.357 349.273Z" fill="black"/>
<path d="M175.904 332.784C179.718 343.697 181.336 350.299 189.22 354.289C201.094 360.266 215.147 350.94 215.099 339.001C215.099 328.265 208.802 312.209 195.325 311.135C181.849 310.062 172.122 321.856 175.904 332.784Z" fill="#FFB573"/>
<path d="M182.618 317.064C187.425 322.432 188.627 335.765 179.045 339.178C170.488 331.486 168.533 316.808 182.618 317.064Z" fill="#263238"/>
<path d="M207.472 324.852C207.936 325.765 208.786 326.262 209.395 325.958C210.004 325.653 210.084 324.676 209.619 323.762C209.154 322.849 208.305 322.352 207.712 322.657C207.119 322.961 207.007 323.939 207.472 324.852Z" fill="#263238"/>
<path d="M207.536 322.785L209.555 321.038C209.555 321.038 208.401 324.868 207.536 322.785Z" fill="#263238"/>
<path d="M196.639 327.688C197.104 328.602 197.953 329.099 198.546 328.794C199.139 328.49 199.251 327.512 198.787 326.599C198.322 325.685 197.473 325.205 196.88 325.493C196.287 325.782 196.175 326.791 196.639 327.688Z" fill="#263238"/>
<path d="M196.736 325.621L198.69 323.907C198.69 323.907 197.569 327.704 196.736 325.621Z" fill="#263238"/>
<path d="M192.633 325.958C192.738 325.925 192.832 325.865 192.906 325.783C192.979 325.701 193.029 325.601 193.05 325.493C193.164 324.75 193.451 324.043 193.888 323.431C194.325 322.819 194.9 322.318 195.566 321.968C195.691 321.891 195.784 321.772 195.828 321.632C195.871 321.492 195.864 321.341 195.805 321.206C195.747 321.072 195.642 320.963 195.509 320.9C195.377 320.837 195.226 320.823 195.085 320.862C194.237 321.291 193.504 321.916 192.946 322.685C192.389 323.454 192.023 324.346 191.88 325.285C191.861 325.386 191.869 325.491 191.902 325.589C191.936 325.686 191.995 325.773 192.072 325.841C192.15 325.909 192.244 325.956 192.345 325.976C192.447 325.997 192.551 325.99 192.649 325.958H192.633Z" fill="#263238"/>
<path d="M209.555 318.811C209.674 318.772 209.78 318.7 209.859 318.603C209.955 318.473 209.995 318.311 209.971 318.152C209.947 317.992 209.861 317.849 209.731 317.753C208.991 317.158 208.117 316.751 207.185 316.566C206.253 316.382 205.29 316.427 204.379 316.696C204.229 316.75 204.107 316.861 204.038 317.005C203.969 317.149 203.959 317.314 204.011 317.465C204.068 317.612 204.18 317.732 204.323 317.801C204.465 317.869 204.629 317.881 204.78 317.833C205.504 317.631 206.266 317.605 207.002 317.759C207.739 317.912 208.427 318.24 209.01 318.715C209.089 318.769 209.178 318.805 209.272 318.821C209.366 318.838 209.463 318.834 209.555 318.811V318.811Z" fill="#263238"/>
<path d="M205.421 326.711C207.435 328.755 209.721 330.513 212.215 331.935C211.836 332.563 211.324 333.101 210.715 333.511C210.106 333.921 209.415 334.192 208.69 334.306L205.421 326.711Z" fill="#ED893E"/>
<path d="M175.6 343.472C177.342 345.086 179.634 345.974 182.009 345.956C184.974 345.828 185.07 342.751 183.099 340.171C181.32 337.896 177.651 335.22 175.231 336.582C172.811 337.944 173.292 341.405 175.6 343.472Z" fill="#FFB573"/>
<path d="M210.629 337.063C210.629 337.063 206.863 336.662 196.591 338.329C198.194 341.774 200.806 342.671 206.062 341.758C211.318 340.844 210.629 337.063 210.629 337.063Z" fill="#263238"/>
<path d="M210.148 337.063C210.11 337.502 209.959 337.923 209.709 338.286C209.459 338.648 209.119 338.939 208.722 339.13C205.687 339.618 202.611 339.806 199.54 339.691C199.034 339.719 198.53 339.603 198.088 339.356C197.645 339.109 197.282 338.742 197.04 338.297C201.362 337.486 205.75 337.073 210.148 337.063V337.063Z" fill="white"/>
<path d="M208.433 338.889C205.64 338.598 202.819 338.739 200.069 339.306C199.335 339.603 198.697 340.097 198.226 340.732C199.828 342.206 202.28 342.463 206.046 341.822C207.477 341.67 208.808 341.011 209.795 339.963C209.392 339.545 208.934 339.184 208.433 338.889Z" fill="white"/>
<path d="M184.797 366.387C172.715 369.592 170.568 378.213 172.699 388.036C173.148 390.103 174.029 392.715 174.414 394.686C174.414 394.75 197.2 391.769 184.797 366.387Z" fill="#FFB573"/>
<path d="M214.827 363.535C217.583 371.451 226.124 387.17 230.531 381.754C228.992 372.54 223.977 365.057 214.827 363.535Z" fill="#FFB573"/>
<path d="M184.846 381.514C181.977 383.725 179.189 385.6 176.305 387.523C173.42 389.446 170.52 391.241 167.539 392.955C161.586 396.447 155.445 399.609 149.144 402.425L148.743 402.602H148.583C146.403 403.31 144.099 403.55 141.82 403.307C140.034 403.13 138.268 402.781 136.548 402.265C133.486 401.356 130.514 400.165 127.671 398.708C124.978 397.367 122.357 395.886 119.819 394.269C117.287 392.667 114.884 390.952 112.48 389.013C111.821 388.495 111.374 387.755 111.222 386.931C111.07 386.107 111.224 385.255 111.654 384.536C112.084 383.817 112.762 383.28 113.56 383.024C114.358 382.769 115.221 382.813 115.989 383.148H116.102C118.633 384.206 121.261 385.344 123.873 386.353C126.485 387.363 129.081 388.324 131.661 389.141C134.115 389.959 136.627 390.591 139.176 391.032C140.234 391.223 141.307 391.309 142.381 391.289C142.987 391.314 143.59 391.199 144.144 390.952L143.583 391.192C149.272 387.988 154.8 384.783 160.36 381.241C163.117 379.479 165.841 377.716 168.549 375.889C171.257 374.063 173.981 372.188 176.561 370.425L176.673 370.345C177.41 369.807 178.245 369.42 179.131 369.205C180.017 368.99 180.937 368.952 181.838 369.093C182.739 369.233 183.604 369.55 184.382 370.025C185.161 370.499 185.838 371.123 186.376 371.859C186.914 372.596 187.301 373.431 187.516 374.317C187.731 375.203 187.769 376.123 187.628 377.024C187.488 377.925 187.171 378.79 186.696 379.568C186.221 380.347 185.598 381.024 184.862 381.562L184.846 381.514Z" fill="#FFB573"/>
<path d="M122.655 386.305L116.983 376.803L109.387 386.578C109.387 386.578 111.422 391.833 118.553 391.882L122.655 386.305Z" fill="#FFB573"/>
<path d="M107.897 375.072L105.734 378.037C105.175 378.797 104.903 379.731 104.968 380.673C105.032 381.615 105.429 382.503 106.086 383.18L109.387 386.578L116.983 376.803L113.506 374.223C112.648 373.595 111.577 373.331 110.526 373.49C109.475 373.65 108.53 374.218 107.897 375.072V375.072Z" fill="#FFB573"/>
<path d="M175.792 318.827C182.105 321.151 198.226 319.66 200.613 318.475C199.32 317.514 197.909 316.723 196.415 316.119C196.415 316.119 205.373 316.84 204.011 313.122C202.648 309.405 191.976 307.45 187.185 309.421C182.394 311.392 176.849 315.831 175.792 318.827Z" fill="#263238"/>
<path d="M400.9 333.377L399.154 332.704L397.551 332.047C396.51 331.598 395.516 331.118 394.523 330.653C392.52 329.675 390.581 328.666 388.642 327.592C384.774 325.416 381.068 322.963 377.553 320.253C373.937 317.492 370.574 314.414 367.506 311.055C364.316 307.57 361.551 303.719 359.269 299.582L358.949 298.989C358.27 297.775 357.968 296.385 358.084 294.999C358.454 291.062 359.086 287.154 359.975 283.301C360.744 279.632 361.657 276.042 362.586 272.485C364.525 265.37 366.641 258.384 369.237 251.461C369.63 250.403 370.391 249.522 371.38 248.978C372.368 248.434 373.519 248.263 374.624 248.495C375.728 248.728 376.712 249.35 377.397 250.247C378.081 251.144 378.421 252.257 378.354 253.384V253.384C377.922 260.627 377.201 267.806 376.544 274.969L375.566 285.577C375.422 287.339 375.294 289.054 375.198 290.752L375.101 293.22C375.101 294.021 375.101 294.71 375.101 295.464L373.916 290.881C377.938 296.506 382.936 301.363 388.674 305.222C391.658 307.315 394.755 309.241 397.952 310.991C399.554 311.888 401.157 312.754 402.759 313.539L405.227 314.709L406.429 315.254L407.486 315.718L408.015 315.959C410.319 316.908 412.15 318.734 413.108 321.035C414.065 323.335 414.069 325.922 413.119 328.225C412.169 330.529 410.343 332.36 408.043 333.318C405.742 334.275 403.156 334.279 400.852 333.329L400.9 333.377Z" fill="#FF8B7B"/>
<path d="M375.069 260.307L382.601 253.4L371.881 244.651C371.881 244.651 366.192 250.291 368.147 257.647L375.069 260.307Z" fill="#FF8B7B"/>
<path d="M382.216 242.215L378.547 240.613C377.678 240.23 376.702 240.169 375.792 240.439C374.883 240.708 374.098 241.293 373.579 242.087L371.88 244.683L382.601 253.432L384.444 247.022C384.728 246.087 384.659 245.08 384.248 244.193C383.837 243.307 383.114 242.602 382.216 242.215Z" fill="#FF8B7B"/>
<path d="M432.292 319.292L435.144 319.035L438.125 318.747C440.128 318.539 442.115 318.298 444.118 318.01C448.108 317.481 452.13 316.824 456.008 316.103C459.886 315.382 463.764 314.5 467.545 313.427C471.218 312.388 474.83 311.141 478.362 309.693L477.641 310.094C479.513 309.047 481.256 307.783 482.832 306.328C484.723 304.726 486.678 302.835 488.569 300.896C490.46 298.957 492.399 297.002 494.322 294.999C496.245 292.996 498.184 290.913 500.107 288.958L500.219 288.862C501.012 288.162 502.013 287.744 503.068 287.671C504.123 287.598 505.172 287.875 506.054 288.459C506.935 289.043 507.599 289.902 507.944 290.901C508.288 291.901 508.293 292.986 507.958 293.989C506.805 296.794 505.523 299.39 504.145 302.002C502.767 304.613 501.26 307.177 499.642 309.709C497.989 312.301 496.185 314.795 494.242 317.176C492.047 319.977 489.462 322.448 486.566 324.516L486.326 324.676L485.845 324.916C481.714 327.095 477.429 328.969 473.026 330.525C468.731 332.015 464.361 333.277 459.934 334.306C455.559 335.348 451.152 336.149 446.746 336.79C444.534 337.095 442.323 337.351 440.096 337.575C437.868 337.8 435.721 337.976 433.221 338.072C430.735 338.238 428.285 337.409 426.41 335.768C424.535 334.128 423.388 331.809 423.222 329.323C423.056 326.837 423.885 324.386 425.526 322.511C427.167 320.636 429.485 319.489 431.971 319.324L432.292 319.292Z" fill="#FF8B7B"/>
<path d="M496.549 294.294L498.793 284.343L511.724 289.278C511.724 289.278 509.673 297.018 502.302 298.893L496.549 294.294Z" fill="#FF8B7B"/>
<path d="M508.615 278.542L512.157 281.442C512.865 282.018 513.354 282.818 513.544 283.71C513.733 284.602 513.611 285.533 513.198 286.346L511.724 289.278L498.793 284.343L502.959 279.135C503.29 278.723 503.7 278.38 504.164 278.127C504.628 277.874 505.138 277.716 505.664 277.66C506.189 277.605 506.721 277.655 507.228 277.806C507.734 277.958 508.206 278.208 508.615 278.542V278.542Z" fill="#FF8B7B"/>
<path d="M403.448 402.762C412.958 402.626 422.464 403.188 431.891 404.445C436.64 405.061 441.348 405.954 445.993 407.121C448.349 407.722 450.662 408.482 452.915 409.396C454.107 409.886 455.249 410.487 456.328 411.191C456.925 411.597 457.464 412.082 457.931 412.633C458.273 412.983 458.538 413.4 458.712 413.858C458.885 414.316 458.962 414.804 458.938 415.293C458.914 415.782 458.79 416.26 458.572 416.699C458.355 417.137 458.049 417.526 457.674 417.841C457.138 418.34 456.534 418.761 455.88 419.091C454.744 419.687 453.553 420.17 452.322 420.533C449.979 421.227 447.591 421.763 445.175 422.135C440.438 422.815 435.666 423.216 430.882 423.337C421.378 423.611 411.866 423.193 402.423 422.087C411.909 421.959 421.363 421.655 430.754 420.95C435.433 420.533 440.128 420.1 444.711 419.267C446.979 418.867 449.221 418.332 451.425 417.665C452.461 417.351 453.465 416.938 454.421 416.431C454.821 416.222 455.193 415.964 455.527 415.662C455.692 415.522 455.815 415.339 455.88 415.133C455.829 414.93 455.73 414.743 455.591 414.588C455.289 414.246 454.945 413.945 454.566 413.691C453.664 413.073 452.71 412.537 451.713 412.088C449.586 411.217 447.408 410.473 445.191 409.861C440.721 408.563 436.106 407.633 431.475 406.656C422.229 405.134 412.855 403.852 403.448 402.762Z" fill="white"/>
<path d="M391.767 398.612C387.136 398.612 382.537 398.339 377.938 398.147C373.339 397.955 368.772 397.746 364.221 397.746C361.929 397.746 359.654 397.746 357.395 397.843C355.167 397.921 352.949 398.173 350.761 398.596C349.828 398.752 348.951 399.143 348.213 399.733C348.036 399.942 348.004 400.07 348.213 400.471C348.493 400.873 348.834 401.229 349.222 401.528C351.082 402.818 353.081 403.894 355.183 404.733C352.853 404.376 350.599 403.629 348.517 402.522C347.935 402.199 347.418 401.77 346.995 401.256C346.745 400.91 346.585 400.508 346.53 400.086C346.485 399.624 346.598 399.161 346.851 398.772C347.255 398.176 347.807 397.696 348.453 397.378C349.013 397.086 349.597 396.845 350.2 396.657C354.779 395.493 359.499 394.986 364.221 395.151C368.861 395.219 373.494 395.546 378.098 396.128C382.697 396.699 387.261 397.528 391.767 398.612Z" fill="white"/>
<path d="M426.988 415.806C417.725 417.557 408.257 417.951 398.881 416.976C394.163 416.552 389.478 415.807 384.86 414.748C382.52 414.218 380.209 413.565 377.938 412.793C376.8 412.393 375.646 411.976 374.492 411.447C373.884 411.175 373.29 410.87 372.714 410.534C372.382 410.346 372.066 410.132 371.768 409.893C371.318 409.567 370.928 409.166 370.615 408.707C370.268 408.202 370.089 407.6 370.103 406.988C370.117 406.375 370.324 405.782 370.695 405.294C371.075 404.803 371.556 404.398 372.105 404.108C372.755 403.762 373.437 403.478 374.14 403.259C375.406 402.874 376.608 402.618 377.793 402.378C380.181 401.929 382.601 401.608 384.876 401.368C389.587 400.951 394.266 400.615 398.946 400.551C408.306 400.312 417.671 400.66 426.988 401.592C417.678 402.57 408.4 403.291 399.17 404.172C394.555 404.669 389.956 405.07 385.405 405.775C383.13 406.079 380.87 406.4 378.675 406.848C377.626 407.062 376.588 407.329 375.566 407.649C375.161 407.778 374.77 407.944 374.396 408.146C374.268 408.146 374.22 408.306 374.396 408.05C374.585 407.765 374.686 407.431 374.685 407.089C374.688 406.796 374.61 406.507 374.46 406.255C374.332 406.079 374.46 406.255 374.541 406.255C374.696 406.386 374.862 406.504 375.037 406.608C375.422 406.832 375.887 407.073 376.351 407.297C377.345 407.759 378.361 408.171 379.396 408.531C381.495 409.3 383.674 409.909 385.806 410.534C390.196 411.752 394.715 412.633 399.234 413.434C408.406 414.974 417.688 415.767 426.988 415.806V415.806Z" fill="white"/>
<path d="M383.354 326.759C380.357 338.136 376.223 361.9 375.919 407.024C388.225 416.639 426.748 417.392 441.923 414.267C443.349 405.005 441.073 376.498 452.354 335.749C452.773 334.272 452.889 332.726 452.696 331.204C452.503 329.681 452.005 328.213 451.231 326.888C450.458 325.562 449.425 324.407 448.195 323.49C446.964 322.573 445.561 321.913 444.07 321.551C440.865 320.798 437.356 320.061 433.862 319.5C424.582 317.938 415.219 316.91 405.82 316.423C402.182 316.423 398.593 316.519 395.516 316.76C392.703 316.96 390.021 318.03 387.842 319.821C385.663 321.613 384.094 324.037 383.354 326.759Z" fill="#FF8B7B"/>
<path d="M430.593 297.29C428.879 305.815 428.27 315.895 432.757 320.766C424.219 325.503 415.045 328.989 405.515 331.118C397.503 322.609 402.919 318.01 402.919 318.01C411.989 315.222 412.694 308.844 411.476 301.649L425.898 293.397C428.318 291.778 431.218 294.166 430.593 297.29Z" fill="#FF8B7B"/>
<path opacity="0.2" d="M430.593 297.29C431.234 294.085 428.318 291.778 425.882 293.396L411.46 301.665C412.189 304.844 412.073 308.159 411.124 311.279C413.967 311.968 416.934 311.968 419.777 311.279C423.462 310.437 426.81 308.512 429.392 305.751C429.619 302.909 430.021 300.083 430.593 297.29Z" fill="black"/>
<path d="M424.184 273.847C425.129 280.818 419.152 283.942 417.005 285.064C416.412 284.455 417.341 282.644 417.341 282.644C417.341 282.644 413.159 287.996 407.567 285.641C401.862 278.911 402.214 276.443 405.371 271.972C405.032 272.332 404.58 272.565 404.09 272.632C403.6 272.699 403.102 272.596 402.679 272.341C403.38 272.02 404.008 271.559 404.524 270.986C405.039 270.412 405.431 269.739 405.676 269.008C407.054 264.457 410.563 262.967 414.04 263.784C412.438 260.915 413.72 260.819 413.72 260.819C413.72 260.819 417.87 264.954 421.075 265.354C424.28 265.755 424.184 273.847 424.184 273.847Z" fill="#263238"/>
<path d="M442.996 283.285C439.791 295.223 438.493 302.402 430.369 307.225C418.143 314.5 402.439 305.623 401.622 292.804C400.884 281.33 406.349 263.72 420.658 261.588C434.968 259.457 446.265 271.363 442.996 283.285Z" fill="#FF8B7B"/>
<path d="M437.291 270.898C431.01 274.103 431.843 280.769 432.164 283.157C432.997 283.301 433.958 281.555 433.958 281.555C433.958 281.555 431.523 288.926 436.651 292.195C445.432 293.06 447.339 290.192 449.23 285.048C449.131 285.565 449.161 286.099 449.317 286.602C449.474 287.105 449.752 287.562 450.127 287.932C450.04 286.657 450.289 285.38 450.848 284.231C452.194 281.731 454.053 275.946 451.361 273.558C452.261 273.516 453.133 273.225 453.879 272.719C454.626 272.213 455.218 271.511 455.591 270.69C455.591 270.69 448.204 271.123 445.977 268.639C443.749 266.155 437.291 270.898 437.291 270.898Z" fill="#263238"/>
<path d="M420.53 279.375C420.114 280.369 419.232 280.978 418.575 280.689C417.918 280.401 417.726 279.359 418.159 278.366C418.591 277.372 419.456 276.763 420.113 277.052C420.77 277.34 420.963 278.382 420.53 279.375Z" fill="#263238"/>
<path d="M408.752 277.132C408.32 278.141 407.454 278.734 406.797 278.462C406.14 278.189 405.948 277.132 406.381 276.122C406.813 275.113 407.679 274.52 408.336 274.808C408.993 275.097 409.185 276.17 408.752 277.132Z" fill="#263238"/>
<path d="M425.882 276.924C425.767 276.898 425.661 276.841 425.577 276.759C425.492 276.677 425.431 276.573 425.402 276.459C425.231 275.671 424.874 274.936 424.361 274.314C423.848 273.692 423.194 273.202 422.453 272.886C422.373 272.858 422.299 272.816 422.235 272.76C422.172 272.704 422.12 272.636 422.082 272.56C422.045 272.484 422.023 272.402 422.018 272.317C422.013 272.233 422.025 272.148 422.052 272.068C422.079 271.988 422.122 271.914 422.178 271.85C422.234 271.787 422.302 271.735 422.378 271.698C422.454 271.661 422.536 271.639 422.621 271.634C422.705 271.628 422.79 271.64 422.87 271.668C423.81 272.059 424.643 272.668 425.301 273.446C425.959 274.223 426.422 275.146 426.651 276.138C426.691 276.304 426.664 276.478 426.578 276.625C426.491 276.771 426.351 276.878 426.187 276.924H425.882Z" fill="#263238"/>
<path d="M405.74 270.883C405.625 270.855 405.521 270.797 405.437 270.714C405.354 270.631 405.295 270.527 405.267 270.413C405.239 270.298 405.243 270.179 405.278 270.067C405.313 269.955 405.379 269.854 405.467 269.777C406.212 269.08 407.113 268.572 408.094 268.293C409.075 268.014 410.108 267.974 411.108 268.174C411.191 268.197 411.268 268.235 411.336 268.288C411.403 268.34 411.459 268.406 411.501 268.48C411.543 268.555 411.57 268.637 411.579 268.722C411.589 268.807 411.581 268.894 411.557 268.976C411.508 269.136 411.399 269.271 411.252 269.352C411.105 269.433 410.933 269.453 410.771 269.408V269.408C409.982 269.255 409.167 269.29 408.393 269.51C407.619 269.73 406.908 270.129 406.317 270.674C406.246 270.754 406.156 270.815 406.055 270.852C405.954 270.888 405.846 270.899 405.74 270.883V270.883Z" fill="#263238"/>
<path d="M411.092 278.991C409.09 281.321 406.777 283.364 404.217 285.064C404.671 285.706 405.258 286.242 405.939 286.634C406.619 287.027 407.377 287.268 408.159 287.339L411.092 278.991Z" fill="#FF5652"/>
<path d="M443.413 295.303C441.659 297.151 439.272 298.267 436.731 298.428C433.526 298.508 433.221 295.223 435.128 292.323C436.859 289.759 440.576 286.634 443.253 287.916C445.929 289.198 445.72 292.932 443.413 295.303Z" fill="#FF8B7B"/>
<path d="M405.387 290.721C405.387 290.721 409.986 290.176 422.549 291.249C420.69 294.534 417.614 297.066 411.172 296.473C404.73 295.88 405.387 290.721 405.387 290.721Z" fill="#263238"/>
<path d="M414.473 294.053C412.019 293.701 409.516 294.063 407.262 295.095C408.404 295.922 409.764 296.395 411.172 296.457C413.621 296.811 416.119 296.45 418.367 295.416C417.231 294.589 415.876 294.116 414.473 294.053V294.053Z" fill="#FF5652"/>
<path d="M405.98 290.672C406.067 291.118 406.279 291.529 406.591 291.858C406.903 292.187 407.303 292.421 407.743 292.531C411.474 292.848 415.224 292.88 418.96 292.627C419.541 292.646 420.119 292.526 420.645 292.278C421.172 292.03 421.632 291.661 421.988 291.201C416.671 290.658 411.322 290.482 405.98 290.672Z" fill="white"/>
<path opacity="0.2" d="M398.721 405.55C398.721 406.303 399.058 406.928 399.602 406.96C400.147 406.992 400.628 406.416 400.692 405.679C400.756 404.941 400.356 404.3 399.811 404.268C399.266 404.236 398.769 404.813 398.721 405.55Z" fill="black"/>
<path opacity="0.2" d="M387.424 344.129C387.296 344.866 387.632 345.523 388.177 345.603C388.722 345.684 389.251 345.155 389.379 344.418C389.507 343.68 389.155 343.024 388.61 342.943C388.065 342.863 387.552 343.472 387.424 344.129Z" fill="black"/>
<path opacity="0.2" d="M422.581 347.654C422.49 347.95 422.517 348.269 422.658 348.545C422.799 348.82 423.041 349.03 423.334 349.129C423.879 349.209 424.424 348.68 424.536 347.943C424.628 347.648 424.6 347.328 424.459 347.053C424.319 346.777 424.076 346.568 423.783 346.469C423.238 346.389 422.677 346.917 422.581 347.654Z" fill="black"/>
<path d="M439.407 273.286C430.289 273.286 417.87 267.71 417.87 267.71C419.482 266.624 421.391 266.064 423.334 266.107C418.11 264.28 410.114 267.149 406.172 265.45C411.332 263.431 408.961 259.441 417.63 259.185C412.983 256.284 417.293 253.448 417.293 253.448C417.293 253.448 417.79 258.608 427.004 259.201C436.218 259.794 442.099 258.191 445.913 262.213C450.399 266.924 447.675 273.174 439.407 273.286Z" fill="#263238"/>
<path d="M451.088 263.768C451.088 263.768 448.252 270.594 442.756 268.911L446.826 270.978C452.883 267.469 451.088 263.768 451.088 263.768Z" fill="#263238"/>
<path d="M548.051 354.689C548.051 363.839 549.541 374.335 555.182 378.405C547.391 385.06 538.687 390.565 529.335 394.75C519.32 387.667 523.951 381.802 523.951 381.802C532.7 376.995 532.091 370.345 529.351 363.182L542.395 351.709C544.574 349.546 548.051 351.484 548.051 354.689Z" fill="#B55B52"/>
<path d="M518.31 338.553C518.086 339.675 517.301 340.476 516.563 340.316C515.826 340.155 515.426 339.13 515.65 338.008C515.874 336.886 516.66 336.101 517.397 336.245C518.134 336.39 518.534 337.431 518.31 338.553Z" fill="#263238"/>
<path d="M517.701 328.602C517.663 328.466 517.663 328.321 517.701 328.185C517.778 328.024 517.914 327.898 518.082 327.835C518.249 327.773 518.434 327.777 518.598 327.849C519.586 328.26 520.46 328.906 521.143 329.729C521.827 330.552 522.301 331.529 522.524 332.576C522.538 332.663 522.534 332.752 522.514 332.838C522.493 332.924 522.455 333.005 522.403 333.077C522.351 333.148 522.286 333.208 522.21 333.255C522.135 333.301 522.051 333.331 521.964 333.345C521.788 333.365 521.612 333.318 521.47 333.214C521.328 333.11 521.229 332.957 521.194 332.784C520.999 331.954 520.606 331.183 520.048 330.539C519.49 329.894 518.783 329.394 517.99 329.083C517.912 329.026 517.846 328.954 517.797 328.871C517.747 328.789 517.715 328.697 517.701 328.602V328.602Z" fill="#263238"/>
<path d="M517.909 340.78C516.334 343.591 514.382 346.173 512.109 348.456C512.706 349.023 513.419 349.454 514.2 349.716C514.98 349.979 515.809 350.069 516.628 349.978L517.909 340.78Z" fill="#A02724"/>
<path d="M557.906 337.752C557.025 350.731 557.249 358.359 549.894 364.993C538.821 375.008 520.81 369.095 517.317 356.148C514.112 344.498 516.131 325.253 530.408 320.077C544.686 314.901 558.787 324.788 557.906 337.752Z" fill="#B55B52"/>
<path d="M523.951 343.825C520.89 340.62 521.739 334.21 523.534 331.791C519.864 329.371 518.871 325.717 520.137 321.279C521.403 316.84 525.152 312.321 532.956 312.145C537.682 312.101 542.264 313.768 545.856 316.84C548.36 315.781 551.069 315.293 553.785 315.413C556.502 315.532 559.158 316.255 561.56 317.529C569.844 321.872 572.328 335.284 565.069 339.851C568.642 349.674 556.352 364.416 547.442 366.964C538.533 369.512 520.89 363.983 523.951 343.825Z" fill="#263238"/>
<path d="M527.909 345.075C527.365 347.671 525.852 349.963 523.678 351.484C520.906 353.311 518.759 350.523 518.871 346.933C518.999 343.729 520.585 338.841 523.678 338.489C526.771 338.136 528.662 341.677 527.909 345.075Z" fill="#B55B52"/>
<path d="M504.065 394.878C503.343 407.201 504.065 432.519 513.102 479.005L582.519 472.724C582.071 462.901 573.786 434.057 576.911 389.734C577.026 388.132 576.817 386.523 576.298 385.003C575.778 383.483 574.957 382.084 573.885 380.887C572.813 379.691 571.511 378.723 570.057 378.041C568.603 377.358 567.027 376.975 565.421 376.915C562.008 376.787 558.226 376.755 554.509 376.915C544.631 377.228 534.781 378.121 525.008 379.591C521.242 380.28 517.589 381.193 514.48 382.075C511.629 382.861 509.093 384.517 507.226 386.812C505.36 389.107 504.254 391.926 504.065 394.878V394.878Z" fill="#B55B52"/>
<path opacity="0.2" d="M512.093 405.23C508.888 409.717 506.388 413.626 504.353 417.008C504.786 423.626 505.539 431.429 506.757 440.707C511.5 431.173 514.993 416.463 512.093 405.23Z" fill="black"/>
<path d="M516.099 478.733C516.099 478.733 511.484 527.847 518.647 550.842C530.489 588.787 541.545 635.53 541.545 635.53L552.762 631.989C552.762 631.989 554.765 584.958 545.888 547.893C543.196 503.715 557.938 475.031 557.938 475.031L516.099 478.733Z" fill="#B55B52"/>
<path d="M557.666 637.068C556.159 633.255 552.281 626.492 552.554 616.509C552.554 616.509 537.187 619.602 538.132 623.528C539.735 630.643 535.52 643.238 524.816 644.007C520.009 644.359 522.685 648.974 526.194 648.974C536.786 648.974 542.379 645.93 547.25 645.064C551.4 644.327 553.035 644.712 556.4 644.151C559.14 643.686 558.723 639.76 557.666 637.068Z" fill="#B55B52"/>
<path d="M544.462 477.835C544.462 477.835 555.47 537.894 562.473 551.996C573.305 573.709 629.198 596.655 629.198 596.655L631.714 585.23C631.714 585.23 604.472 560.216 587.903 542.397C587.01 518.9 584.023 495.53 578.978 472.563L544.462 477.835Z" fill="#B55B52"/>
<path d="M640.831 584.974C633.501 583.687 626.626 580.536 620.865 575.824C620.865 575.824 613.686 590.342 617.356 591.992C628.573 597.024 628.349 608.641 629.807 619.233C630.464 623.961 638.556 619.233 638.332 615.724C637.643 605.148 637.627 604.748 640.03 600.421C642.081 596.719 643.411 595.694 645.094 592.745C646.504 590.246 645.751 586.015 640.831 584.974Z" fill="#B55B52"/>
<path d="M572.232 379.607C575.565 381.915 578.497 384.174 581.51 386.626C584.522 389.077 587.407 391.609 590.243 394.301C593.174 397.041 595.945 399.946 598.543 403.002C599.873 404.605 601.187 406.207 602.469 408.082C603.858 410.077 605.06 412.196 606.059 414.412C606.673 415.771 607.15 417.188 607.485 418.642C607.651 419.361 607.774 420.088 607.854 420.821C607.958 421.5 608.017 422.186 608.03 422.873C608.123 425.322 607.935 427.773 607.469 430.18C606.653 434.332 605.373 438.379 603.655 442.246C600.502 449.438 596.465 456.21 591.637 462.404C590.915 463.324 589.89 463.958 588.745 464.193C587.599 464.428 586.408 464.249 585.382 463.687C584.357 463.125 583.564 462.217 583.145 461.126C582.727 460.034 582.709 458.829 583.096 457.725L583.176 457.501C585.597 450.932 587.651 444.235 589.33 437.439C590.096 434.364 590.584 431.227 590.788 428.064C590.838 426.816 590.762 425.565 590.563 424.331C590.531 424.102 590.477 423.877 590.403 423.658C590.357 423.478 590.298 423.301 590.227 423.129C590.083 422.8 589.911 422.484 589.714 422.183C589.056 421.114 588.316 420.096 587.503 419.139C586.589 418.017 585.532 416.847 584.394 415.694C582.119 413.386 579.587 411.063 576.991 408.819C574.395 406.576 571.687 404.316 568.979 402.121C566.271 399.926 563.37 397.698 560.726 395.711L560.582 395.599C559.535 394.834 558.649 393.871 557.975 392.763C557.3 391.656 556.85 390.427 556.651 389.146C556.452 387.864 556.506 386.557 556.813 385.297C557.119 384.037 557.67 382.849 558.435 381.802C559.2 380.756 560.163 379.87 561.271 379.195C562.378 378.521 563.607 378.071 564.888 377.871C566.17 377.672 567.478 377.727 568.737 378.033C569.997 378.339 571.185 378.89 572.232 379.655V379.607Z" fill="#B55B52"/>
<path d="M587.022 451.412L579.587 459.135L591.397 467.612C591.397 467.612 596.989 461.331 594.441 453.735L587.022 451.412Z" fill="#B55B52"/>
<path d="M576.622 470.064L582.487 473.685C583.233 474.143 584.12 474.312 584.981 474.161C585.843 474.011 586.62 473.551 587.166 472.868L591.397 467.548L579.587 459.071L575.549 465C575.277 465.4 575.089 465.851 574.996 466.325C574.903 466.8 574.907 467.288 575.007 467.761C575.107 468.234 575.302 468.681 575.58 469.077C575.857 469.473 576.212 469.809 576.622 470.064V470.064Z" fill="#B55B52"/>
<path d="M523.149 397.458L522.925 398.436L522.749 399.221L522.364 400.695C522.092 401.656 521.803 402.57 521.499 403.499C520.906 405.326 520.217 407.089 519.496 408.819C518.047 412.259 516.371 415.6 514.48 418.818C512.622 422.014 510.566 425.091 508.327 428.032C507.253 429.523 506.068 430.933 504.898 432.343C503.728 433.753 502.51 435.019 501.164 436.493C497.91 439.796 493.941 442.307 489.563 443.832C485.973 445.142 482.264 446.103 478.49 446.701C474.926 447.279 471.33 447.632 467.722 447.758C464.152 447.909 460.576 447.829 457.017 447.518C455.864 447.402 454.788 446.886 453.976 446.059C453.164 445.231 452.668 444.145 452.575 442.99C452.481 441.835 452.796 440.683 453.464 439.736C454.133 438.789 455.112 438.106 456.232 437.807H456.473C462.672 436.317 468.791 434.509 474.804 432.391C477.562 431.405 480.24 430.21 482.816 428.818C484.719 427.871 486.397 426.526 487.736 424.876C488.537 423.738 489.531 422.424 490.364 421.19C491.197 419.956 492.094 418.674 492.864 417.36L494.081 415.421L495.203 413.434C495.988 412.136 496.645 410.774 497.366 409.444C498.712 406.752 499.994 404.028 501.1 401.288C501.677 399.926 502.158 398.532 502.702 397.186C502.943 396.513 503.167 395.824 503.375 395.183L503.872 393.58L504.177 392.571C504.919 390.137 506.575 388.084 508.797 386.843C511.019 385.602 513.634 385.269 516.096 385.913C518.558 386.557 520.676 388.128 522.006 390.298C523.335 392.468 523.774 395.068 523.23 397.554L523.149 397.458Z" fill="#B55B52"/>
<path d="M464.116 438.704L454.726 433.593L449.694 447.213C449.694 447.213 457.226 450.947 463.876 446.492L464.116 438.704Z" fill="#B55B52"/>
<path d="M443.317 437.679L443.172 441.877C443.136 442.913 443.454 443.931 444.075 444.762C444.696 445.592 445.582 446.186 446.586 446.444L449.662 447.213L454.694 433.593L448.044 433.304C447.446 433.281 446.85 433.375 446.288 433.582C445.727 433.789 445.212 434.105 444.773 434.512C444.334 434.918 443.98 435.407 443.73 435.95C443.48 436.494 443.339 437.081 443.317 437.679V437.679Z" fill="#B55B52"/>
<path d="M542.106 469.359L544.894 475.864C544.894 475.864 549.109 517.928 553.724 532.719C584.458 535.058 588.432 525.139 588.432 525.139L585.019 500.702C585.019 500.702 589.586 481.986 583.417 465.753C556.448 467.804 542.106 469.359 542.106 469.359Z" fill="#263238"/>
<path opacity="0.2" d="M552.041 502.401C550.841 501.31 549.368 500.562 547.779 500.238C549.077 510.028 550.743 520.701 552.506 528.168C556.047 521.245 558.563 508.073 552.041 502.401Z" fill="black"/>
<path d="M510.458 472.724L512.173 479.005C512.173 479.005 508.423 516.919 512.173 531.885C531.69 539.689 547.314 532.815 547.314 532.815C549.365 527.014 548.996 510.653 553.211 501.856C553.211 501.856 562.04 484.87 556.624 468.093C529.639 470.208 510.458 472.724 510.458 472.724Z" fill="#263238"/>
<path d="M348.453 176.404L346.402 176.259C346.897 169.459 346.596 162.623 345.505 155.893L347.524 155.572C348.634 162.457 348.946 169.447 348.453 176.404V176.404Z" fill="#3BC5CE"/>
<path d="M342.3 142.64C338.054 129.49 330.725 117.546 320.923 107.804L322.382 106.362C332.402 116.333 339.9 128.55 344.255 142L342.3 142.64Z" fill="#3BC5CE"/>
<path d="M258.765 252.775C304.493 252.775 341.563 215.706 341.563 169.978C341.563 124.25 304.493 87.1807 258.765 87.1807C213.038 87.1807 175.968 124.25 175.968 169.978C175.968 215.706 213.038 252.775 258.765 252.775Z" fill="#3BC5CE"/>
<path opacity="0.9" d="M308.442 219.645C340.776 187.311 344.748 138.858 317.314 111.424C289.879 83.9895 241.427 87.9617 209.093 120.296C176.758 152.63 172.786 201.083 200.221 228.517C227.655 255.951 276.107 251.979 308.442 219.645Z" fill="white"/>
<path d="M279.004 190.207C311.338 157.873 328.49 122.6 317.314 111.424C306.137 100.247 270.865 117.399 238.53 149.734C206.196 182.068 189.044 217.34 200.221 228.517C211.397 239.693 246.67 222.542 279.004 190.207Z" fill="#3BC5CE"/>
</svg>
